<svg xmlns="http://www.w3.org/2000/svg" width="134.233" height="313" viewBox="0 0 134.233 313">
  <g id="Grupo_80246" data-name="Grupo 80246" transform="translate(-1575.926 -135.794)">
    <path id="Trazado_113725" data-name="Trazado 113725" d="M2070.634,497.379a11.443,11.443,0,0,1,6.72,6.184,28.087,28.087,0,0,1,2.249,9.083c2.023,17.3-.161,34.78-2.342,52.059,1.153-7.423-.685-15.11-4.206-21.746s-16.646-32.057-22.111-33.829c-4.351-1.411-15.623,5.746-20.171,6.238a2.105,2.105,0,0,1-1.63-.26c-.754-.655-.2-1.884.427-2.664a32.475,32.475,0,0,1,24.072-12.006c2.856-.083,6.349.46,9-.811C2065.515,498.252,2067.041,496.325,2070.634,497.379Z" transform="translate(-370.247 -295.379)" fill="#4e7546"/>
    <path id="Trazado_113726" data-name="Trazado 113726" d="M1824.9,471.546a8.028,8.028,0,0,1,3.574-1.779,8.861,8.861,0,0,1,4.075.829,63.925,63.925,0,0,0,22.934,3.821c-4.5,4.946-10,8.862-15.325,12.91-24.5,18.616-46.332,40.885-63.457,66.445-4.047,6.04-7.7,12.306-9.432,19.429,3.989-12.918,5.939-26.228,10.83-38.91a146.516,146.516,0,0,1,25.923-43.416A129.929,129.929,0,0,1,1824.9,471.546Z" transform="translate(-156.441 -273.023)" fill="#598951"/>
    <path id="Trazado_113727" data-name="Trazado 113727" d="M1703.7,901.432c.018,2.031.007,4.177-1.024,5.927-.592,1.005-1.524,1.91-1.565,3.076a5.991,5.991,0,0,0,1.027,2.734,14.889,14.889,0,0,1,1.221,5.455,98.051,98.051,0,0,1-1.053,24.778,16.974,16.974,0,0,0-.358,3.2,16.67,16.67,0,0,0,.355,2.665,124.412,124.412,0,0,1,1.975,17.687,12.334,12.334,0,0,1-.552,5.1c-.338.842-.852,1.606-1.171,2.456-.939,2.5-.08,5.268.619,7.844a63.564,63.564,0,0,1,2.211,17.421c-.075,5.978-.867,12.475,2.424,17.466,3.616,5.484,11.134,7.147,17.608,6.034a16.138,16.138,0,0,0,6.665-2.519c3.2-2.271,5.008-6.108,5.635-9.981a41.826,41.826,0,0,0-.274-11.726,112.829,112.829,0,0,1-1.294-16.129,16.813,16.813,0,0,0-.2-4.155,28.387,28.387,0,0,0-1.683-4.164,29.055,29.055,0,0,1-1.588-9.062q-.618-9.278-1.182-18.56-.73-11.725-1.46-23.45a31.848,31.848,0,0,1,.247-8.629,16.178,16.178,0,0,0,.552-3.057,13.336,13.336,0,0,0-.832-3.916c-1.635-5.564-1.479-11.475-1.308-17.272q.312-10.611.624-21.222l-16.217,9.2c-2.375,1.347-4.324,1.517-6.855,1.977-2.7.492-2.676.856-2.7,3.79C1703.5,890.077,1703.652,895.76,1703.7,901.432Z" transform="translate(-102.351 -599.818)" fill="#91af5b"/>
    <g id="Grupo_80244" data-name="Grupo 80244" transform="translate(1610.741 269.621)">
      <path id="Trazado_113728" data-name="Trazado 113728" d="M1792.631,1263.663q-.038-3.679-.077-7.357a25.715,25.715,0,0,1-1.193-7.114A44.6,44.6,0,0,0,1792.631,1263.663Z" transform="translate(-1786.772 -1179.92)" fill="#809b51"/>
      <path id="Trazado_113729" data-name="Trazado 113729" d="M1820.521,1563.59a26.2,26.2,0,0,0,2.266,10.017Q1821.654,1568.6,1820.521,1563.59Z" transform="translate(-1810.719 -1436.967)" fill="#809b51"/>
      <path id="Trazado_113730" data-name="Trazado 113730" d="M1789.844,982.926a16.814,16.814,0,0,0-.2-4.155,28.389,28.389,0,0,0-1.683-4.164,29.055,29.055,0,0,1-1.588-9.062q-.618-9.278-1.182-18.56l-1.46-23.45a31.858,31.858,0,0,1,.247-8.629,16.159,16.159,0,0,0,.552-3.057,13.32,13.32,0,0,0-.831-3.916c-1.635-5.564-1.479-11.475-1.308-17.272q.312-10.611.624-21.222l-10.907,6.186c.255,1.724.535,3.389.622,4.8a262.949,262.949,0,0,1,.116,30.474l3.709-15.962q-.014,2.121-.027,4.242l.907-2.116q-.322,16.54-.643,33.079a59.374,59.374,0,0,1-2-14.107q-.256,2.853-.512,5.706-1.029-4.1-2.058-8.2.17,16.139.339,32.279.235.739.512,1.464l2.2-10.038q.644,4.443,1.288,8.885.988-4.947,1.977-9.894l2.03,44.916a94.282,94.282,0,0,1-4.951-21.8q.371,8.136.743,16.272-3.194-9.075-5.78-18.349.105,6.173.212,12.347a143.954,143.954,0,0,1-2.8-36.067c-2.823,11.564-.195,23.679,2.431,35.29l6.155,27.209a25.975,25.975,0,0,1,.776-7.048l3.088,5.711q-.242-4.337-.484-8.674,2.5,8.868,4.553,17.855-.7-12.359-1.4-24.718l2.611,22.328c.471,4.027.941,8.109.359,12.121l-4.579-7.625.875,3.1-1.271-1.922a68.8,68.8,0,0,1,3.677,14.192c.337-.192.666-.4.984-.624,3.2-2.271,5.008-6.108,5.635-9.981a41.808,41.808,0,0,0-.274-11.726A112.864,112.864,0,0,1,1789.844,982.926Z" transform="translate(-1766.783 -869.439)" fill="#809b51"/>
    </g>
    <path id="Trazado_113731" data-name="Trazado 113731" d="M1726.212,962.936q1.646-5.492,2.9-11.09a221.1,221.1,0,0,1-4.479,38.791,38.309,38.309,0,0,1,3.425-11.793q-.281,3.115-.561,6.229a13.5,13.5,0,0,1,1.353-5.073c-1.719,13.755-3.44,27.627-2.316,41.443a38.017,38.017,0,0,1,.81-9.636l1.461,15.625q-.218-10.862-.436-21.724c2.286,17.469,4.573,34.958,5.552,52.549-4.886-8.535-6.984-18.336-9.016-27.958a185.58,185.58,0,0,0,8.33,38.117q.2-1.966.4-3.931a55.868,55.868,0,0,0,3.416,6.549,72.434,72.434,0,0,1-.252-18.825,31.434,31.434,0,0,0,2.843,9.125c-4.338-17.33-8.577-34.9-8.492-52.767.017-3.495.18-7.109-1.122-10.352l-1.978,5.458q1.98-8.437,3.163-17.035a21.777,21.777,0,0,0-1.286,5.775,54.774,54.774,0,0,0,.834-20.155l-1.885,6.515a184.1,184.1,0,0,0,1.723-40.918,58.6,58.6,0,0,0-4.539,14.157c1.072-5.794,5.675-12.586,2.91-18.749-1.685,2.432-1.646,6.958-2,9.847A119.82,119.82,0,0,0,1726.212,962.936Z" transform="translate(-121.582 -651.998)" fill="#bfd667"/>
    <path id="Trazado_113732" data-name="Trazado 113732" d="M1730.61,1098.482c-6.074.622-12.119-1.072-17.989-2.75a5.98,5.98,0,0,0,2.947,2.063,69.822,69.822,0,0,0,16.3,4.6c2.115.326,4.579.445,6.07-1.09,1.383-1.423,2.2-4.159-.129-4.624C1736.135,1096.346,1732.515,1098.286,1730.61,1098.482Z" transform="translate(-111.76 -784.832)" fill="#809b51"/>
    <path id="Trazado_113733" data-name="Trazado 113733" d="M1722.883,1295.845l22.781,2.592a2.613,2.613,0,0,0,2.071-.348,2.31,2.31,0,0,0,.55-.91c1.163-2.991,1.152-3.923-1.768-3.354-2.6.507-5.133,1.142-7.772,1.473A68.957,68.957,0,0,1,1722.883,1295.845Z" transform="translate(-120.15 -946.66)" fill="#809b51"/>
    <path id="Trazado_113734" data-name="Trazado 113734" d="M1733.312,1468.8a72.218,72.218,0,0,1-19.851-2.272,22.191,22.191,0,0,0,5.127,3.026,46.774,46.774,0,0,0,22.985,3.915,4.566,4.566,0,0,0,1.657-.363c2.484-1.23,2.407-6.615-.707-6.857-1.183-.092-2.924,1.526-4.111,1.9A18.508,18.508,0,0,1,1733.312,1468.8Z" transform="translate(-112.447 -1087.757)" fill="#809b51"/>
    <path id="Trazado_113735" data-name="Trazado 113735" d="M1792.291,232.917c1.426-20.976,6.774-41.568,14.429-61.149,5.076-12.984,11.314-25.783,20.828-35.973-8.761,13.164-8.543,30.107-8.487,45.92.082,22.763-.844,45.737-6.466,67.794-2.315,9.084-5.383,17.97-7.373,27.138a80.244,80.244,0,0,0-1.907,13.862c-.1,2.433.772,5.944-.188,8.145-2.02-1.9-2.788-5.61-3.667-8.2a140.749,140.749,0,0,1-4.338-15.594A150.976,150.976,0,0,1,1792.291,232.917Z" transform="translate(-176.589)" fill="#6a9e5f"/>
    <path id="Trazado_113736" data-name="Trazado 113736" d="M1686.769,799.141c5.7,8.364,5.679,19.491,13.55,26.69.406-13.836,2.759-24.829,1.675-36.127-.273-2.85-.943-5.984-3.694-7.9-1.92-1.338-4.5-1.819-6.967-2.21-7.153-1.136-18.106-3.679-25.094-2.366.517,1.759,3.641,3.18,5.239,4.454a57.3,57.3,0,0,1,5.862,5.429A94.987,94.987,0,0,1,1686.769,799.141Z" transform="translate(-73.838 -524.126)" fill="#4e7546"/>
    <path id="Trazado_113737" data-name="Trazado 113737" d="M1980.172,490.976a10.83,10.83,0,0,1-7.114-2.282,2.95,2.95,0,0,0-1.624-.851,2.483,2.483,0,0,0-1.29.462c-6.469,3.876-11.244,9.992-15.648,16.114-4.821,6.7-11.532,15.054-13.229,23.266,4.908-5.164,8.365-11.585,13.507-16.748A133.272,133.272,0,0,1,1980.172,490.976Z" transform="translate(-298.698 -287.831)" fill="#6a9e5f"/>
    <path id="Trazado_113738" data-name="Trazado 113738" d="M1864.777,1042.168c-.19,2.022-.422,4.156-1.626,5.791-.692.939-1.713,1.744-1.873,2.9a6,6,0,0,0,.742,2.825,14.888,14.888,0,0,1,.656,5.551,98.074,98.074,0,0,1-3.589,24.539,16.962,16.962,0,0,0-.685,3.15,16.623,16.623,0,0,0,.08,2.688,124.418,124.418,0,0,1,.15,17.8,12.324,12.324,0,0,1-1.072,5.019c-.423.8-1.012,1.51-1.417,2.323-1.191,2.39-.62,5.232-.189,7.867a63.554,63.554,0,0,1,.412,17.556c-.688,5.938-2.142,12.32.62,17.623,3.035,5.826,10.343,8.25,16.9,7.808a16.135,16.135,0,0,0,6.888-1.822c3.416-1.931,5.608-5.562,6.629-9.351a41.8,41.8,0,0,0,.93-11.692,112.843,112.843,0,0,1,.367-16.177,16.809,16.809,0,0,0,.231-4.153,28.377,28.377,0,0,0-1.247-4.315,29.037,29.037,0,0,1-.65-9.177q.337-9.292.727-18.583.476-11.738.953-23.476a31.85,31.85,0,0,1,1.131-8.559,16.179,16.179,0,0,0,.863-2.984,13.323,13.323,0,0,0-.425-3.981c-1.056-5.7-.294-11.566.47-17.314l2.8-21.047-17.074,7.486c-2.5,1.1-4.457,1.066-7.021,1.264-2.74.212.9,4.386.567,7.3C1869.381,1034.66,1865.308,1036.52,1864.777,1042.168Z" transform="translate(-228.466 -717.168)" fill="#95ba60"/>
    <path id="Trazado_113739" data-name="Trazado 113739" d="M1871.651,1201.452q-.615-23.81-3.123-47.521c-.818-7.726-1.787-15.53-.8-23.236.971-7.585,3.823-15.212,2.172-22.678a6.093,6.093,0,0,1-.25-2.528,7.162,7.162,0,0,1,1.561-2.582c2.119-2.877,2.521-6.631,2.851-10.189,1.09-11.737,3.033-24.244,2-36.038-.009-.1-.021-.2-.033-.3-2.37.976-4.276.958-6.745,1.149-2.74.212.434,3.639.1,6.555-.637,5.637-4.849,7.1-5.38,12.751-.19,2.022.179,5.3-1.025,6.932-.692.939-1.712,1.744-1.873,2.9a6,6,0,0,0,.742,2.825,14.881,14.881,0,0,1,.656,5.551,98.042,98.042,0,0,1-3.589,24.539,16.954,16.954,0,0,0-.685,3.15,16.708,16.708,0,0,0,.08,2.688,124.417,124.417,0,0,1,.151,17.8,12.333,12.333,0,0,1-1.072,5.019c-.423.8-1.012,1.511-1.416,2.323-1.191,2.39-.62,5.231-.189,7.867a63.563,63.563,0,0,1,.412,17.556c-.688,5.939-2.142,12.321.62,17.623C1859.537,1198.822,1865.687,1201.31,1871.651,1201.452Z" transform="translate(-228.327 -752.658)" fill="#aace6b"/>
    <g id="Grupo_80245" data-name="Grupo 80245" transform="translate(1645.02 292.679)">
      <path id="Trazado_113740" data-name="Trazado 113740" d="M1966.062,1399.739q.364-3.658.729-7.316a27.146,27.146,0,0,1-.336-7.175A47.37,47.37,0,0,0,1966.062,1399.739Z" transform="translate(-1963.68 -1314.216)" fill="#809b51"/>
      <path id="Trazado_113741" data-name="Trazado 113741" d="M1961.863,1700.153a27.472,27.472,0,0,0,1.02,10.155Q1962.373,1705.231,1961.863,1700.153Z" transform="translate(-1960.474 -1571.677)" fill="#809b51"/>
      <path id="Trazado_113742" data-name="Trazado 113742" d="M1970.225,1112.53a19.623,19.623,0,0,0,.32-4.135,30.464,30.464,0,0,0-.938-4.252,33.156,33.156,0,0,1-.285-9.1q.561-9.247,1.169-18.494.753-11.682,1.506-23.364a37.433,37.433,0,0,1,1.218-8.54,18.888,18.888,0,0,0,.825-2.992,15.067,15.067,0,0,0-.246-3.945c-.734-5.637.09-11.488.913-17.225,1-7,.782-17.637,1.786-24.638-3.32,1.781-5.416,7.2-8.736,8.978.014,1.729.057,3.4-.034,4.806-.656,10.107-1.813,20.207-3.467,30.232l5.009-15.562-.52,4.205,1.017-2.032-4.414,32.762a68.285,68.285,0,0,1-.044-14.137q-.55,2.812-1.1,5.623l-.784-8.277-3.488,32.039q.112.75.263,1.49l3.04-9.8q.026,4.453.051,8.905l2.832-9.67q-1.767,22.348-3.535,44.7a106.443,106.443,0,0,1-1.643-21.979q-.637,8.1-1.274,16.193-1.643-9.233-2.749-18.619l-1.265,12.261a167.37,167.37,0,0,1,1.848-35.975c-3.743,11.265-2.934,23.472-2.069,35.178q1.015,13.717,2.03,27.433a30.6,30.6,0,0,1,1.481-6.934q.973,2.944,1.947,5.888.3-4.319.6-8.638,1.079,8.977,1.767,18.039l1.708-24.616-.4,22.335a54.673,54.673,0,0,1-1.114,12.048l-2.986-7.894.378,3.142-.852-2a77.066,77.066,0,0,1,1.454,14.342,10.3,10.3,0,0,0,.906-.547c2.975-2.02,4.956-5.695,5.94-9.49a48.913,48.913,0,0,0,1.139-11.65A131.21,131.21,0,0,1,1970.225,1112.53Z" transform="translate(-1954.702 -995.842)" fill="#809b51"/>
    </g>
    <path id="Trazado_113743" data-name="Trazado 113743" d="M1882.8,1094.679q2.2-5.294,4.023-10.734a221.1,221.1,0,0,1-8.434,38.127,38.307,38.307,0,0,1,4.616-11.38q-.6,3.07-1.2,6.139a13.512,13.512,0,0,1,1.866-4.907c-3.12,13.506-6.255,27.128-6.554,40.987a38.048,38.048,0,0,1,1.794-9.5q-.074,7.846-.149,15.692.9-10.827,1.794-21.655c.482,17.612.964,35.243.133,52.842-3.985-8.991-5.067-18.955-6.1-28.735a185.628,185.628,0,0,0,4.377,38.77q.4-1.934.8-3.869a55.81,55.81,0,0,0,2.727,6.865,72.435,72.435,0,0,1,1.68-18.752,31.424,31.424,0,0,0,1.893,9.368c-2.538-17.684-4.953-35.6-3.036-53.36.375-3.474.908-7.052-.054-10.412l-2.527,5.227q2.834-8.19,4.893-16.62a21.781,21.781,0,0,0-1.872,5.613,54.772,54.772,0,0,0,2.9-19.963l-2.543,6.287a184.078,184.078,0,0,0,5.911-40.526,58.6,58.6,0,0,0-5.967,13.617c1.66-5.654,6.936-11.938,4.817-18.352-1.926,2.246-2.351,6.752-3,9.59A119.8,119.8,0,0,0,1882.8,1094.679Z" transform="translate(-244.189 -760.068)" fill="#bfd667"/>
    <path id="Trazado_113744" data-name="Trazado 113744" d="M1916.673,1227.969c-6.1,0-11.945-2.309-17.612-4.58a5.978,5.978,0,0,0,2.719,2.354,69.816,69.816,0,0,0,15.747,6.246c2.07.542,4.509.912,6.15-.461,1.521-1.275,2.615-3.912.345-4.613C1922.389,1226.411,1918.588,1227.97,1916.673,1227.969Z" transform="translate(-264.191 -889.203)" fill="#809b51"/>
    <path id="Trazado_113745" data-name="Trazado 113745" d="M1887.744,1433.214l22.4,4.914a2.614,2.614,0,0,0,2.1-.134,2.3,2.3,0,0,0,.64-.849c1.464-2.857,1.548-3.784-1.415-3.517-2.638.238-5.223.61-7.882.668A68.959,68.959,0,0,1,1887.744,1433.214Z" transform="translate(-254.938 -1060.753)" fill="#809b51"/>
    <path id="Trazado_113746" data-name="Trazado 113746" d="M1881.253,1597.872a72.207,72.207,0,0,1-19.513-4.3,22.194,22.194,0,0,0,4.79,3.536,46.777,46.777,0,0,0,22.463,6.251,4.557,4.557,0,0,0,1.685-.191c2.6-.969,3.073-6.333,0-6.894-1.167-.213-3.065,1.218-4.284,1.47A18.486,18.486,0,0,1,1881.253,1597.872Z" transform="translate(-233.678 -1191.863)" fill="#809b51"/>
    <path id="Trazado_113747" data-name="Trazado 113747" d="M1927.2,1232.493a69.826,69.826,0,0,1-12.006-3.132c5.418,2.784,11.464,4.054,17.427,5.295,2.022.421,4.354.774,5.961-.524a2.343,2.343,0,0,0,.822-2.735c-1.9.159-3.855,1.091-5.846,1.278A27.728,27.728,0,0,1,1927.2,1232.493Z" transform="translate(-277.378 -894.085)" fill="#a36f43"/>
    <path id="Trazado_113748" data-name="Trazado 113748" d="M1876.275,1428.4l17.169,2.764a27.566,27.566,0,0,0,8.29.486,4.433,4.433,0,0,0,1.927-.645c2.062-1.438,1.112-3.659-1.171-3.3-2.905.459-5.718,1.227-8.664,1.522A59.676,59.676,0,0,1,1876.275,1428.4Z" transform="translate(-245.561 -1056.22)" fill="#a36f43"/>
    <path id="Trazado_113749" data-name="Trazado 113749" d="M1886.651,1601.777l-11.713-3.108c4.988,1.045,9.331,4.071,14.18,5.641,3.491,1.131,7.36,1.564,10.232,3.848.875.7,1.911,1.61,2.953,1.2a2.316,2.316,0,0,0,.9-.744c.911-1.119,2.3-3.959,1.521-5.444-.69-1.326-3.458.277-4.911.428C1895.37,1604.066,1890.914,1602.908,1886.651,1601.777Z" transform="translate(-244.468 -1196.026)" fill="#a36f43"/>
    <path id="Trazado_113750" data-name="Trazado 113750" d="M1916.441,1001.58a94.863,94.863,0,0,0,8.729-9.7c4.247-5.428,8.052-11.907,7.374-18.766-.132-1.337.369-3.378-.484-4.415-1.5-1.825-5.043-1.459-7.365-1.021a13.969,13.969,0,0,0-5.126,2.086,23.578,23.578,0,0,0-4.747,4.493,51.519,51.519,0,0,0-9.235,14.993,34.585,34.585,0,0,0-2.079,8.657c-.232,2.251-.807,6.608.4,8.655C1906.25,1010.547,1914.565,1003.4,1916.441,1001.58Z" transform="translate(-267.548 -679.847)" fill="#eadba0"/>
    <path id="Trazado_113751" data-name="Trazado 113751" d="M1934.413,966.214a4.156,4.156,0,0,0-1.045-2.88c-1.5-1.825-5.979-1.918-8.381-1.107a26.472,26.472,0,0,0-5.418,2.974,23.581,23.581,0,0,0-4.747,4.493,51.521,51.521,0,0,0-9.235,14.993,34.586,34.586,0,0,0-2.079,8.657c-.232,2.251-.807,6.608.4,8.655,2.344,3.983,10.659-3.169,12.535-4.984a94.865,94.865,0,0,0,8.729-9.7C1929.417,981.889,1935.09,973.073,1934.413,966.214Zm-5.1,9.6a120.245,120.245,0,0,1-9.645,14.86c-2.808,3.7-5.942,7.323-10.067,9.453a4.123,4.123,0,0,1-3.3.542c-1.751-.686-1.97-3.054-1.775-4.924a43,43,0,0,1,16.22-29.138c3.159-2.448,8.721-5.409,10.916-1.173C1932.947,967.908,1930.653,973.365,1929.31,975.811Z" transform="translate(-267.548 -675.281)" fill="#cfe29a"/>
    <path id="Trazado_113752" data-name="Trazado 113752" d="M1927.584,998.748c-.612-3.37,3.319-6.213,2.991-9.622a11.245,11.245,0,0,0-3.566,5.94c-.5,2.17-.371,4.559-1.548,6.449a2.435,2.435,0,0,1-.519-2.593c.264-.9.771-1.72.95-2.639a2.118,2.118,0,0,0-.967-2.4,17.439,17.439,0,0,0-1.272,9.278c-.962-.315-.972-1.66-.773-2.652s.257-2.316-.678-2.7a3.76,3.76,0,0,0-.8,3.194,11.114,11.114,0,0,0,1.225,3.173c-.356.389-1.049.058-1.263-.424a9.617,9.617,0,0,1-.287-1.551c-.131-.511-.618-1.025-1.117-.853a1.136,1.136,0,0,0-.585.675,5.876,5.876,0,0,0-.491,2.622,1.461,1.461,0,0,1,2.261.192c.407.785-.535,1.9-1.326,1.507-.408-.2-.65-.695-1.094-.8-.613-.15-1.1.5-1.4,1.053l-1.8,3.355q1.387-.888,2.81-1.718a1.471,1.471,0,0,1,.845-.279c.3.028.59.335.481.616a.776.776,0,0,1-.407.353,10.329,10.329,0,0,0-4.838,5.521,21.938,21.938,0,0,0,6.666-6.756c.694-1.108,1.4-2.371,2.638-2.786a9.594,9.594,0,0,1-2.514,4.311l-6.168,7.255a2.919,2.919,0,0,0-.844,1.557c-.048.6.464,1.27,1.05,1.138.38-.086.62-.449.82-.782l6.159-10.257-5.42,10.7c-.247.488-.419,1.228.076,1.461.355.167.757-.108,1.027-.394,2.09-2.216,2.068-5.741,3.828-8.228q-.515,2.238-1.03,4.476a4.66,4.66,0,0,0,2.959-3.6c.382-1.586.3-3.248.563-4.858a16.022,16.022,0,0,1,2.585-6.135,31,31,0,0,0-1.167,8.835,3.526,3.526,0,0,0,1.928-3.2c.084-1.315-.219-2.628-.169-3.945a3.845,3.845,0,0,1,.368,1.948c.063.668.468,1.448,1.138,1.419a1.605,1.605,0,0,0,1.017-.651,4.6,4.6,0,0,0,1.122-1.661,1.573,1.573,0,0,0-.534-1.8,4.058,4.058,0,0,0-1.3-.312c-.437-.093-.91-.388-.916-.835a3.893,3.893,0,0,1,2.481.667,1.779,1.779,0,0,0,.877.432,1.283,1.283,0,0,0,.788-.33,5.708,5.708,0,0,0,2.2-4.776,16.764,16.764,0,0,1-5.739,1.448c2.387-1.028,4.849-2.108,6.611-4.018.5-.537.81-1.6.116-1.831a1.174,1.174,0,0,0-.935.241,34.022,34.022,0,0,0-4.448,3.21,9.872,9.872,0,0,1,3.118-3.015c1.4-1.019,3.039-2.3,3.2-4.169.118-1.408-.982-2.983-2.491-2.057-1.388.853-2.375,4.012-3.142,5.429Z" transform="translate(-276.555 -695.822)" fill="#f2e69e"/>
    <path id="Trazado_113753" data-name="Trazado 113753" d="M1806.369,196.61c-7.655,19.581-13,40.173-14.429,61.149a154.549,154.549,0,0,0,1.121,32.364,14.329,14.329,0,0,0,2.262,3.24c3.542-7.632,3.546-15.817,4.42-24,1.043-9.766,2.165-19.525,3.54-29.25,2.73-19.311,6.461-38.568,12.7-57.08q2.632-7.809,5.882-15.393c.171-.4.345-.828.523-1.285C1815.487,175.419,1810.535,185.952,1806.369,196.61Z" transform="translate(-176.303 -24.983)" fill="#78af6b"/>
    <path id="Trazado_113754" data-name="Trazado 113754" d="M1596.307,744.553a6.3,6.3,0,0,0-3.054-.089c-1.514.448-2.51,1.869-3.269,3.254-3.088,5.636-4.237,12.1-5.341,18.427-5.794,33.211-11.6,67.051-7.125,100.464A133.208,133.208,0,0,1,1583.5,847.5l9.848-26.7c4.34-11.766,8.686-23.546,13.923-34.942,4.154-9.04,9.17-18.177,17.367-23.815,1.739-1.2,3.79-2.5,4.056-4.593a4.588,4.588,0,0,0-2.429-4.252,13.477,13.477,0,0,0-4.947-1.428c-4.239-.651-9.079-.757-13-2.5C1604.291,747.482,1600.761,745.438,1596.307,744.553Z" transform="translate(0 -497.513)" fill="#598951"/>
    <path id="Trazado_113755" data-name="Trazado 113755" d="M1605.74,776.443c-2.061,6.247-2.407,12.9-3.2,19.434-2.785,22.915-11.262,45.338-9.727,68.37a194.276,194.276,0,0,1,26.53-83.434,6.838,6.838,0,0,0,1.317-3.65c-.14-3.072-4.954-5.4-7.555-6.031C1609.223,770.184,1606.887,772.967,1605.74,776.443Z" transform="translate(-13.655 -519.29)" fill="#6a9e5f"/>
  </g>
</svg>
