<svg xmlns="http://www.w3.org/2000/svg" width="715" height="364" viewBox="0 0 715 364">
  <path id="Trazado_191255" data-name="Trazado 191255" d="M20,38H695a20,20,0,0,1,20,20V382a20,20,0,0,1-20,20H20A20,20,0,0,1,0,382V58A20,20,0,0,1,20,38Z" transform="translate(0 -38)" fill="#fff"/>
  <g id="Grupo_131693" data-name="Grupo 131693" transform="translate(-650 -9063)">
    <text id="Tomada_de_García_n.d._" data-name="Tomada de (García, n.d.)" transform="translate(679 9355.009)" fill="#12263f" font-size="14" font-family="SegoeUI, Segoe UI"><tspan x="0" y="15">Tomada de (García, n.d.)</tspan></text>
    <text id="cOMPOSICIÓN" transform="translate(783 9126)" fill="#e53935" font-size="14" font-family="SegoeUIBlack, Segoe UI"><tspan x="-44.406" y="15">Composición</tspan></text>
    <text id="Componente" transform="translate(690 9154)" fill="#12263f" font-size="14" font-family="SegoeUI-Bold, Segoe UI" font-weight="700"><tspan x="0" y="15">Component</tspan><tspan x="0" y="35">e</tspan></text>
    <text id="Humedad_" data-name="Humedad " transform="translate(690 9177)" fill="#12263f" font-size="14" font-family="SegoeUI, Segoe UI"><tspan x="0" y="15">Humedad </tspan></text>
    <text id="Proteína" transform="translate(690 9201)" fill="#12263f" font-size="14" font-family="SegoeUI, Segoe UI"><tspan x="0" y="15">Proteína</tspan></text>
    <text id="Fibra_cruda" data-name="Fibra cruda" transform="translate(690 9224)" fill="#12263f" font-size="14" font-family="SegoeUI, Segoe UI"><tspan x="0" y="15">Fibra cruda</tspan></text>
    <text id="Grasa" transform="translate(690 9247)" fill="#12263f" font-size="14" font-family="SegoeUI, Segoe UI"><tspan x="0" y="15">Grasa</tspan></text>
    <text id="Cenizas_" data-name="Cenizas " transform="translate(690 9271)" fill="#12263f" font-size="14" font-family="SegoeUI, Segoe UI"><tspan x="0" y="15">Cenizas </tspan></text>
    <text id="Fósforo" transform="translate(690 9292)" fill="#12263f" font-size="14" font-family="SegoeUI, Segoe UI"><tspan x="0" y="15">Fósforo</tspan></text>
    <text id="Calcio_" data-name="Calcio " transform="translate(690 9316)" fill="#12263f" font-size="14" font-family="SegoeUI, Segoe UI"><tspan x="0" y="15">Calcio </tspan></text>
    <text id="Cachaza_" data-name="Cachaza (%)
" transform="translate(787 9154)" fill="#12263f" font-size="14" font-family="SegoeUI-Bold, Segoe UI" font-weight="700"><tspan x="0" y="15">Cachaza (%)</tspan></text>
    <text id="_74_84" data-name="74,84" transform="translate(787 9177)" fill="#12263f" font-size="14" font-family="SegoeUI, Segoe UI"><tspan x="0" y="15">74,84</tspan></text>
    <text id="_1_83" data-name="1,83" transform="translate(787 9201)" fill="#12263f" font-size="14" font-family="SegoeUI, Segoe UI"><tspan x="0" y="15">1,83</tspan></text>
    <text id="_1_54" data-name="1,54" transform="translate(787 9224)" fill="#12263f" font-size="14" font-family="SegoeUI, Segoe UI"><tspan x="0" y="15">1,54</tspan></text>
    <text id="_1_2" data-name="1,2" transform="translate(787 9247)" fill="#12263f" font-size="14" font-family="SegoeUI, Segoe UI"><tspan x="0" y="15">1,2</tspan></text>
    <text id="_1_53_ppm" data-name="1,53 ppm" transform="translate(787 9271)" fill="#12263f" font-size="14" font-family="SegoeUI, Segoe UI"><tspan x="0" y="15">1,53 ppm</tspan></text>
    <text id="_338_00_ppm" data-name="338,00 ppm" transform="translate(787 9292)" fill="#12263f" font-size="14" font-family="SegoeUI, Segoe UI"><tspan x="0" y="15">338,00 ppm</tspan></text>
    <text id="_150_00_ppm" data-name="150,00 ppm" transform="translate(787 9316)" fill="#12263f" font-size="14" font-family="SegoeUI, Segoe UI"><tspan x="0" y="15">150,00 ppm</tspan></text>
    <text id="Melote_" data-name="Melote (%)" transform="translate(891 9154)" fill="#12263f" font-size="14" font-family="SegoeUI-Bold, Segoe UI" font-weight="700"><tspan x="0" y="15">Melote (%)</tspan></text>
    <text id="_46_44" data-name="46,44" transform="translate(891 9177)" fill="#12263f" font-size="14" font-family="SegoeUI, Segoe UI"><tspan x="0" y="15">46,44</tspan></text>
    <text id="_2_93" data-name="2,93" transform="translate(891 9201)" fill="#12263f" font-size="14" font-family="SegoeUI, Segoe UI"><tspan x="0" y="15">2,93</tspan></text>
    <text id="_2_15" data-name="2,15" transform="translate(891 9224)" fill="#12263f" font-size="14" font-family="SegoeUI, Segoe UI"><tspan x="0" y="15">2,15</tspan></text>
    <text id="_1_9" data-name="1,9" transform="translate(891 9247)" fill="#12263f" font-size="14" font-family="SegoeUI, Segoe UI"><tspan x="0" y="15">1,9</tspan></text>
    <text id="_2_88_ppm" data-name="2,88 ppm" transform="translate(891 9271)" fill="#12263f" font-size="14" font-family="SegoeUI, Segoe UI"><tspan x="0" y="15">2,88 ppm</tspan></text>
    <text id="_460_00_ppm" data-name="460,00 ppm" transform="translate(891 9292)" fill="#12263f" font-size="14" font-family="SegoeUI, Segoe UI"><tspan x="0" y="15">460,00 ppm</tspan></text>
    <text id="_190_00_ppm" data-name="190,00 ppm" transform="translate(891 9316)" fill="#12263f" font-size="14" font-family="SegoeUI, Segoe UI"><tspan x="0" y="15">190,00 ppm</tspan></text>
    <text id="cOMPOSICIÓN-2" data-name="cOMPOSICIÓN" transform="translate(1103 9126)" fill="#e53935" font-size="14" font-family="SegoeUIBlack, Segoe UI"><tspan x="-44.406" y="15">Composición</tspan></text>
    <text id="Componente-2" data-name="Componente" transform="translate(1010 9154)" fill="#12263f" font-size="14" font-family="SegoeUI-Bold, Segoe UI" font-weight="700"><tspan x="0" y="15">Component</tspan><tspan x="0" y="35">e</tspan></text>
    <text id="Sólidos_solubles_B" data-name="Sólidos solubles, °B" transform="translate(1010 9177)" fill="#12263f" font-size="14" font-family="SegoeUI, Segoe UI"><tspan x="0" y="15">Sólidos solubles, °B</tspan></text>
    <text id="Sacarosa_Pol_" data-name="Sacarosa (Pol)" transform="translate(1010 9201)" fill="#12263f" font-size="14" font-family="SegoeUI, Segoe UI"><tspan x="0" y="15">Sacarosa (Pol)</tspan></text>
    <text id="Azúcares_reductores" data-name="Azúcares reductores" transform="translate(1010 9224)" fill="#12263f" font-size="14" font-family="SegoeUI, Segoe UI"><tspan x="0" y="15">Azúcares reductores</tspan></text>
    <text id="Extracto_etéreo" data-name="Extracto etéreo" transform="translate(1010 9247)" fill="#12263f" font-size="14" font-family="SegoeUI, Segoe UI"><tspan x="0" y="15">Extracto etéreo</tspan></text>
    <text id="Hierro" transform="translate(1010 9271)" fill="#12263f" font-size="14" font-family="SegoeUI, Segoe UI"><tspan x="0" y="15">Hierro</tspan></text>
    <text id="Densidad_g_ml_" data-name="Densidad g/ml
" transform="translate(1010 9292)" fill="#12263f" font-size="14" font-family="SegoeUI, Segoe UI"><tspan x="0" y="15">Densidad g/ml</tspan></text>
    <g id="Grupo_129736" data-name="Grupo 129736" opacity="0.56">
      <g id="Rectángulo_36824" data-name="Rectángulo 36824" transform="translate(679 9117)" fill="none" stroke="#e53935" stroke-width="1">
        <rect width="308" height="35" stroke="none"/>
        <rect x="0.5" y="0.5" width="307" height="34" fill="none"/>
      </g>
      <g id="Rectángulo_36825" data-name="Rectángulo 36825" transform="translate(679 9150)" fill="none" stroke="#e53935" stroke-width="1">
        <rect width="308" height="25" stroke="none"/>
        <rect x="0.5" y="0.5" width="307" height="24" fill="none"/>
      </g>
      <g id="Rectángulo_36826" data-name="Rectángulo 36826" transform="translate(679 9173)" fill="none" stroke="#e53935" stroke-width="1">
        <rect width="308" height="25" stroke="none"/>
        <rect x="0.5" y="0.5" width="307" height="24" fill="none"/>
      </g>
      <g id="Rectángulo_36827" data-name="Rectángulo 36827" transform="translate(679 9196)" fill="none" stroke="#e53935" stroke-width="1">
        <rect width="308" height="25" stroke="none"/>
        <rect x="0.5" y="0.5" width="307" height="24" fill="none"/>
      </g>
      <g id="Rectángulo_36828" data-name="Rectángulo 36828" transform="translate(679 9219)" fill="none" stroke="#e53935" stroke-width="1">
        <rect width="308" height="25" stroke="none"/>
        <rect x="0.5" y="0.5" width="307" height="24" fill="none"/>
      </g>
      <g id="Rectángulo_36829" data-name="Rectángulo 36829" transform="translate(679 9242)" fill="none" stroke="#e53935" stroke-width="1">
        <rect width="308" height="25" stroke="none"/>
        <rect x="0.5" y="0.5" width="307" height="24" fill="none"/>
      </g>
      <g id="Rectángulo_36830" data-name="Rectángulo 36830" transform="translate(679 9265)" fill="none" stroke="#e53935" stroke-width="1">
        <rect width="308" height="25" stroke="none"/>
        <rect x="0.5" y="0.5" width="307" height="24" fill="none"/>
      </g>
      <g id="Rectángulo_36831" data-name="Rectángulo 36831" transform="translate(679 9288)" fill="none" stroke="#e53935" stroke-width="1">
        <rect width="308" height="25" stroke="none"/>
        <rect x="0.5" y="0.5" width="307" height="24" fill="none"/>
      </g>
      <g id="Rectángulo_36832" data-name="Rectángulo 36832" transform="translate(679 9311)" fill="none" stroke="#e53935" stroke-width="1">
        <rect width="308" height="25" stroke="none"/>
        <rect x="0.5" y="0.5" width="307" height="24" fill="none"/>
      </g>
      <g id="Rectángulo_36833" data-name="Rectángulo 36833" transform="translate(999 9117)" fill="none" stroke="#e53935" stroke-width="1">
        <rect width="338" height="35" stroke="none"/>
        <rect x="0.5" y="0.5" width="337" height="34" fill="none"/>
      </g>
      <g id="Rectángulo_36834" data-name="Rectángulo 36834" transform="translate(999 9150)" fill="none" stroke="#e53935" stroke-width="1">
        <rect width="338" height="25" stroke="none"/>
        <rect x="0.5" y="0.5" width="337" height="24" fill="none"/>
      </g>
      <g id="Rectángulo_36835" data-name="Rectángulo 36835" transform="translate(999 9173)" fill="none" stroke="#e53935" stroke-width="1">
        <rect width="338" height="25" stroke="none"/>
        <rect x="0.5" y="0.5" width="337" height="24" fill="none"/>
      </g>
      <g id="Rectángulo_36836" data-name="Rectángulo 36836" transform="translate(999 9196)" fill="none" stroke="#e53935" stroke-width="1">
        <rect width="338" height="25" stroke="none"/>
        <rect x="0.5" y="0.5" width="337" height="24" fill="none"/>
      </g>
      <g id="Rectángulo_36837" data-name="Rectángulo 36837" transform="translate(999 9219)" fill="none" stroke="#e53935" stroke-width="1">
        <rect width="338" height="25" stroke="none"/>
        <rect x="0.5" y="0.5" width="337" height="24" fill="none"/>
      </g>
      <g id="Rectángulo_36838" data-name="Rectángulo 36838" transform="translate(999 9242)" fill="none" stroke="#e53935" stroke-width="1">
        <rect width="338" height="25" stroke="none"/>
        <rect x="0.5" y="0.5" width="337" height="24" fill="none"/>
      </g>
      <g id="Rectángulo_36839" data-name="Rectángulo 36839" transform="translate(999 9265)" fill="none" stroke="#e53935" stroke-width="1">
        <rect width="338" height="25" stroke="none"/>
        <rect x="0.5" y="0.5" width="337" height="24" fill="none"/>
      </g>
      <g id="Rectángulo_36840" data-name="Rectángulo 36840" transform="translate(999 9288)" fill="none" stroke="#e53935" stroke-width="1">
        <rect width="338" height="25" stroke="none"/>
        <rect x="0.5" y="0.5" width="337" height="24" fill="none"/>
      </g>
      <g id="Rectángulo_36841" data-name="Rectángulo 36841" transform="translate(999 9311)" fill="none" stroke="#e53935" stroke-width="1">
        <rect width="338" height="25" stroke="none"/>
        <rect x="0.5" y="0.5" width="337" height="24" fill="none"/>
      </g>
    </g>
    <text id="Energía_disponible" data-name="Energía disponible" transform="translate(1010 9316)" fill="#12263f" font-size="14" font-family="SegoeUI, Segoe UI"><tspan x="0" y="15">Energía disponible</tspan></text>
    <text id="Cachaza_2" data-name="Cachaza (%)
" transform="translate(1158 9154)" fill="#12263f" font-size="14" font-family="SegoeUI-Bold, Segoe UI" font-weight="700"><tspan x="0" y="15">Cachaza (%)</tspan></text>
    <text id="_21_02" data-name="21,02" transform="translate(1158 9177)" fill="#12263f" font-size="14" font-family="SegoeUI, Segoe UI"><tspan x="0" y="15">21,02</tspan></text>
    <text id="_17_09" data-name="17,09" transform="translate(1158 9201)" fill="#12263f" font-size="14" font-family="SegoeUI, Segoe UI"><tspan x="0" y="15">17,09</tspan></text>
    <text id="_2_52" data-name="2,52" transform="translate(1158 9224)" fill="#12263f" font-size="14" font-family="SegoeUI, Segoe UI"><tspan x="0" y="15">2,52</tspan></text>
    <text id="_1_18" data-name="1,18" transform="translate(1158 9247)" fill="#12263f" font-size="14" font-family="SegoeUI, Segoe UI"><tspan x="0" y="15">1,18</tspan></text>
    <text id="_33_75_ppm" data-name="33,75 ppm" transform="translate(1158 9271)" fill="#12263f" font-size="14" font-family="SegoeUI, Segoe UI"><tspan x="0" y="15">33,75 ppm</tspan></text>
    <text id="_1_10" data-name="1,10" transform="translate(1158 9292)" fill="#12263f" font-size="14" font-family="SegoeUI, Segoe UI"><tspan x="0" y="15">1,10</tspan></text>
    <text id="_0_88" data-name="0,88" transform="translate(1158 9316)" fill="#12263f" font-size="14" font-family="SegoeUI, Segoe UI"><tspan x="0" y="15">0,88</tspan></text>
    <text id="Melote_2" data-name="Melote (%)" transform="translate(1253 9154)" fill="#12263f" font-size="14" font-family="SegoeUI-Bold, Segoe UI" font-weight="700"><tspan x="0" y="15">Melote (%)</tspan></text>
    <text id="_41_00" data-name="41,00" transform="translate(1253 9177)" fill="#12263f" font-size="14" font-family="SegoeUI, Segoe UI"><tspan x="0" y="15">41,00</tspan></text>
    <text id="_30_00" data-name="30,00" transform="translate(1253 9201)" fill="#12263f" font-size="14" font-family="SegoeUI, Segoe UI"><tspan x="0" y="15">30,00</tspan></text>
    <text id="_6_80" data-name="6,80" transform="translate(1253 9224)" fill="#12263f" font-size="14" font-family="SegoeUI, Segoe UI"><tspan x="0" y="15">6,80</tspan></text>
    <text id="_0_98" data-name="0,98" transform="translate(1253 9247)" fill="#12263f" font-size="14" font-family="SegoeUI, Segoe UI"><tspan x="0" y="15">0,98</tspan></text>
    <text id="_92_50_ppm" data-name="92,50 ppm" transform="translate(1253 9271)" fill="#12263f" font-size="14" font-family="SegoeUI, Segoe UI"><tspan x="0" y="15">92,50 ppm</tspan></text>
    <text id="_5_57" data-name="5,57" transform="translate(1253 9292)" fill="#12263f" font-size="14" font-family="SegoeUI, Segoe UI"><tspan x="0" y="15">5,57</tspan></text>
    <text id="_1_85" data-name="1,85" transform="translate(1253 9316)" fill="#12263f" font-size="14" font-family="SegoeUI, Segoe UI"><tspan x="0" y="15">1,85</tspan></text>
    <line id="Línea_217" data-name="Línea 217" y2="185" transform="translate(778.5 9151.5)" fill="none" stroke="#e53935" stroke-width="1"/>
    <line id="Línea_218" data-name="Línea 218" y2="185" transform="translate(878.5 9151.5)" fill="none" stroke="#e53935" stroke-width="1"/>
    <line id="Línea_219" data-name="Línea 219" y2="185" transform="translate(1148.5 9151.5)" fill="none" stroke="#e53935" stroke-width="1"/>
    <line id="Línea_220" data-name="Línea 220" y2="185" transform="translate(1243.5 9151.5)" fill="none" stroke="#e53935" stroke-width="1"/>
  </g>
</svg>
