<svg xmlns="http://www.w3.org/2000/svg" width="715" height="401" viewBox="0 0 715 401">
  <path id="Trazado_191256" data-name="Trazado 191256" d="M20,1H695a20,20,0,0,1,20,20V382a20,20,0,0,1-20,20H20A20,20,0,0,1,0,382V21A20,20,0,0,1,20,1Z" transform="translate(0 -1)" fill="#fff"/>
  <g id="Grupo_131713" data-name="Grupo 131713" transform="translate(-621.667 -9608.449)">
    <path id="Trazado_191258" data-name="Trazado 191258" d="M11.707,8.825H10.531v3.187H8.359V3H11.9a3.958,3.958,0,0,1,2.506.711,2.409,2.409,0,0,1,.9,2.009,2.925,2.925,0,0,1-.381,1.558,2.7,2.7,0,0,1-1.191,1l1.881,3.638v.093H13.3ZM10.531,7.155H11.9a1.233,1.233,0,0,0,.931-.326,1.259,1.259,0,0,0,.313-.909A1.274,1.274,0,0,0,12.833,5a1.222,1.222,0,0,0-.928-.332H10.531Zm9.239,4.982a3.442,3.442,0,0,1-2.494-.919,3.173,3.173,0,0,1-.953-2.392V8.652A4.112,4.112,0,0,1,16.7,6.839a2.785,2.785,0,0,1,1.111-1.216,3.353,3.353,0,0,1,1.733-.43,2.9,2.9,0,0,1,2.228.876,3.441,3.441,0,0,1,.817,2.441V9.32H18.446a1.5,1.5,0,0,0,.489.885,1.455,1.455,0,0,0,.978.322,1.874,1.874,0,0,0,1.547-.693l.953,1.126a2.664,2.664,0,0,1-1.1.857A3.733,3.733,0,0,1,19.77,12.136ZM19.535,6.8q-.916,0-1.089,1.213h2.1V7.854a1.033,1.033,0,0,0-.254-.777A1.01,1.01,0,0,0,19.535,6.8ZM23.168,8.6a4.019,4.019,0,0,1,.693-2.5,2.276,2.276,0,0,1,1.912-.9,1.944,1.944,0,0,1,1.646.842l.149-.718h1.807v9.27H27.283V11.455a1.941,1.941,0,0,1-1.522.681,2.256,2.256,0,0,1-1.891-.919A4.243,4.243,0,0,1,23.168,8.6Zm2.085.13q0,1.8,1.04,1.8a1.007,1.007,0,0,0,.99-.545V7.334A.985.985,0,0,0,26.3,6.8q-.972,0-1.046,1.553Zm9.289,2.562a2.15,2.15,0,0,1-1.788.848,2.109,2.109,0,0,1-1.668-.64,2.694,2.694,0,0,1-.566-1.841V5.317H32.6v4.35a.75.75,0,0,0,.835.86,1.09,1.09,0,0,0,1.021-.514v-4.7h2.1v6.7H34.6Zm5.359.724H37.809v-6.7H39.9ZM37.685,3.59a.931.931,0,0,1,.322-.73,1.368,1.368,0,0,1,1.671,0A.931.931,0,0,1,40,3.59a.931.931,0,0,1-.322.73,1.368,1.368,0,0,1-1.671,0A.931.931,0,0,1,37.685,3.59Zm6.739,8.546a3.442,3.442,0,0,1-2.494-.919,3.173,3.173,0,0,1-.953-2.392V8.652a4.112,4.112,0,0,1,.381-1.813,2.785,2.785,0,0,1,1.111-1.216,3.353,3.353,0,0,1,1.733-.43,2.9,2.9,0,0,1,2.228.876,3.441,3.441,0,0,1,.817,2.441V9.32H43.1a1.5,1.5,0,0,0,.489.885,1.455,1.455,0,0,0,.978.322,1.874,1.874,0,0,0,1.547-.693l.953,1.126a2.664,2.664,0,0,1-1.1.857A3.733,3.733,0,0,1,44.424,12.136ZM44.189,6.8q-.916,0-1.089,1.213h2.1V7.854a1.033,1.033,0,0,0-.254-.777A1.01,1.01,0,0,0,44.189,6.8Zm7.946.4-.687-.05a1.234,1.234,0,0,0-1.262.619v4.239H48.1v-6.7h1.956l.068.86a1.615,1.615,0,0,1,1.467-.984,2.034,2.034,0,0,1,.582.074Zm3.874,4.932a3.442,3.442,0,0,1-2.494-.919,3.173,3.173,0,0,1-.953-2.392V8.652a4.112,4.112,0,0,1,.381-1.813,2.785,2.785,0,0,1,1.111-1.216,3.353,3.353,0,0,1,1.733-.43,2.9,2.9,0,0,1,2.228.876,3.441,3.441,0,0,1,.817,2.441V9.32H54.685a1.5,1.5,0,0,0,.489.885,1.455,1.455,0,0,0,.978.322A1.874,1.874,0,0,0,57.7,9.834l.953,1.126a2.664,2.664,0,0,1-1.1.857A3.733,3.733,0,0,1,56.009,12.136ZM55.774,6.8q-.916,0-1.089,1.213h2.1V7.854a1.033,1.033,0,0,0-.254-.777A1.01,1.01,0,0,0,55.774,6.8Z" transform="translate(950.359 9722.125)" fill="#12263f"/>
    <path id="Trazado_191261" data-name="Trazado 191261" d="M22.292,8.818H21.116v3.187H18.944V3H22.49A3.958,3.958,0,0,1,25,3.706a2.409,2.409,0,0,1,.9,2.009,2.925,2.925,0,0,1-.381,1.558,2.7,2.7,0,0,1-1.191,1l1.881,3.638v.093H23.882ZM21.116,7.147H22.49a1.233,1.233,0,0,0,.931-.326,1.259,1.259,0,0,0,.313-.909A1.274,1.274,0,0,0,23.418,5a1.222,1.222,0,0,0-.928-.332H21.116Zm9.239,4.982a3.442,3.442,0,0,1-2.494-.919,3.173,3.173,0,0,1-.953-2.392V8.645a4.112,4.112,0,0,1,.381-1.813A2.785,2.785,0,0,1,28.4,5.616a3.353,3.353,0,0,1,1.733-.43,2.9,2.9,0,0,1,2.228.876A3.441,3.441,0,0,1,33.177,8.5v.811H29.031a1.5,1.5,0,0,0,.489.885,1.455,1.455,0,0,0,.978.322,1.874,1.874,0,0,0,1.547-.693L33,10.953a2.664,2.664,0,0,1-1.1.857A3.733,3.733,0,0,1,30.355,12.129ZM30.12,6.795q-.916,0-1.089,1.213h2.1V7.847a1.033,1.033,0,0,0-.254-.777A1.01,1.01,0,0,0,30.12,6.795Zm6.727,3.725a.928.928,0,0,0,.681-.238.874.874,0,0,0,.235-.665h1.956a2.315,2.315,0,0,1-.789,1.807,2.935,2.935,0,0,1-2.033.705,2.972,2.972,0,0,1-2.3-.916,3.609,3.609,0,0,1-.842-2.537V8.589A4.078,4.078,0,0,1,34.127,6.8,2.726,2.726,0,0,1,35.207,5.6a3.22,3.22,0,0,1,1.671-.418,2.9,2.9,0,0,1,2.073.724,2.568,2.568,0,0,1,.767,1.962H37.763a1.145,1.145,0,0,0-.254-.8.876.876,0,0,0-.681-.278q-.811,0-.947,1.033a7.291,7.291,0,0,0-.043.9,2.864,2.864,0,0,0,.241,1.4A.836.836,0,0,0,36.847,10.52ZM40.337,8.6a3.952,3.952,0,0,1,.39-1.785,2.788,2.788,0,0,1,1.12-1.2,3.373,3.373,0,0,1,1.714-.421,3.079,3.079,0,0,1,2.37.931A3.574,3.574,0,0,1,46.8,8.651v.074a3.467,3.467,0,0,1-.869,2.485,3.087,3.087,0,0,1-2.355.919,3.122,3.122,0,0,1-2.3-.857,3.352,3.352,0,0,1-.934-2.324Zm2.085.13a2.491,2.491,0,0,0,.291,1.361.969.969,0,0,0,.86.433q1.114,0,1.139-1.714V8.6q0-1.8-1.151-1.8-1.046,0-1.132,1.553Zm7.265-3.416.068.786a2.3,2.3,0,0,1,1.912-.91,1.7,1.7,0,0,1,1.714,1.009A2.228,2.228,0,0,1,55.35,5.186q2.036,0,2.092,2.463v4.357H55.35V7.779a1.276,1.276,0,0,0-.173-.749.738.738,0,0,0-.631-.235.988.988,0,0,0-.922.551l.006.087v4.573H51.538V7.791a1.342,1.342,0,0,0-.167-.761.735.735,0,0,0-.637-.235,1,1,0,0,0-.916.551v4.66H47.732v-6.7Zm12.185,6.82a3.442,3.442,0,0,1-2.494-.919,3.173,3.173,0,0,1-.953-2.392V8.645a4.112,4.112,0,0,1,.381-1.813,2.785,2.785,0,0,1,1.111-1.216,3.353,3.353,0,0,1,1.733-.43,2.9,2.9,0,0,1,2.228.876A3.441,3.441,0,0,1,64.694,8.5v.811H60.548a1.5,1.5,0,0,0,.489.885,1.455,1.455,0,0,0,.978.322,1.874,1.874,0,0,0,1.547-.693l.953,1.126a2.664,2.664,0,0,1-1.1.857A3.733,3.733,0,0,1,61.872,12.129Zm-.235-5.334q-.916,0-1.089,1.213h2.1V7.847A1.033,1.033,0,0,0,62.4,7.07,1.01,1.01,0,0,0,61.637,6.795Zm5.811-1.485.068.786a2.271,2.271,0,0,1,1.912-.91,1.91,1.91,0,0,1,1.563.625,2.976,2.976,0,0,1,.535,1.881v4.313H69.435V7.779a1.13,1.13,0,0,0-.2-.746.945.945,0,0,0-.743-.238,1,1,0,0,0-.91.483v4.728H65.493v-6.7Zm4.969,3.3A4.09,4.09,0,0,1,73.1,6.1a2.261,2.261,0,0,1,1.918-.916,1.923,1.923,0,0,1,1.51.705V2.5h2.092v9.505H76.749l-.105-.718a1.975,1.975,0,0,1-1.634.842,2.257,2.257,0,0,1-1.894-.916A4.22,4.22,0,0,1,72.417,8.608Zm2.085.13q0,1.782,1.04,1.782a1.026,1.026,0,0,0,.99-.582V7.389a1,1,0,0,0-.978-.594q-.965,0-1.046,1.559Zm9.078,3.267a2.355,2.355,0,0,1-.2-.6,1.939,1.939,0,0,1-1.609.724,2.376,2.376,0,0,1-1.609-.572,1.822,1.822,0,0,1-.662-1.439,1.873,1.873,0,0,1,.8-1.646,4.1,4.1,0,0,1,2.339-.557h.644V7.56q0-.927-.8-.927a.653.653,0,0,0-.743.734H79.664a1.869,1.869,0,0,1,.826-1.576A3.472,3.472,0,0,1,82.6,5.186a3.044,3.044,0,0,1,2.024.625,2.173,2.173,0,0,1,.761,1.714v2.964a3.035,3.035,0,0,0,.285,1.411v.105Zm-1.306-1.361a1.163,1.163,0,0,0,.647-.167,1.047,1.047,0,0,0,.368-.377V9.029h-.606q-1.089,0-1.089.978a.6.6,0,0,0,.192.461A.694.694,0,0,0,82.275,10.644ZM92.752,8.713a4.081,4.081,0,0,1-.681,2.531,2.28,2.28,0,0,1-1.918.885,1.979,1.979,0,0,1-1.646-.811l-.087.687H86.551V2.5h2.085V5.848a1.909,1.909,0,0,1,1.5-.662,2.281,2.281,0,0,1,1.931.9,4.1,4.1,0,0,1,.681,2.525ZM90.66,8.58A2.722,2.722,0,0,0,90.4,7.206a.866.866,0,0,0-.789-.411,1,1,0,0,0-.978.538V9.989a1,1,0,0,0,.99.531.886.886,0,0,0,.934-.717A5.147,5.147,0,0,0,90.66,8.58Zm5.211,3.425H93.779V2.5h2.092Zm4.524.124A3.442,3.442,0,0,1,97.9,11.21a3.173,3.173,0,0,1-.953-2.392V8.645a4.112,4.112,0,0,1,.381-1.813,2.785,2.785,0,0,1,1.111-1.216,3.353,3.353,0,0,1,1.733-.43,2.9,2.9,0,0,1,2.228.876,3.441,3.441,0,0,1,.817,2.441v.811H99.07a1.5,1.5,0,0,0,.489.885,1.455,1.455,0,0,0,.978.322,1.874,1.874,0,0,0,1.547-.693l.953,1.126a2.664,2.664,0,0,1-1.1.857A3.733,3.733,0,0,1,100.395,12.129Zm-.235-5.334q-.916,0-1.089,1.213h2.1V7.847a1.033,1.033,0,0,0-.254-.777A1.01,1.01,0,0,0,100.16,6.795Zm10.823,5.211a2.355,2.355,0,0,1-.2-.6,1.939,1.939,0,0,1-1.609.724,2.376,2.376,0,0,1-1.609-.572,1.822,1.822,0,0,1-.662-1.439,1.873,1.873,0,0,1,.8-1.646,4.1,4.1,0,0,1,2.339-.557h.644V7.56q0-.927-.8-.927a.653.653,0,0,0-.743.734h-2.085a1.869,1.869,0,0,1,.826-1.576A3.472,3.472,0,0,1,110,5.186a3.044,3.044,0,0,1,2.024.625,2.173,2.173,0,0,1,.761,1.714v2.964a3.036,3.036,0,0,0,.285,1.411v.105Zm-1.306-1.361a1.163,1.163,0,0,0,.647-.167,1.047,1.047,0,0,0,.368-.377V9.029h-.606q-1.089,0-1.089.978a.6.6,0,0,0,.192.461A.694.694,0,0,0,109.677,10.644Zm8.249.637a2.15,2.15,0,0,1-1.788.848,2.109,2.109,0,0,1-1.668-.64,2.694,2.694,0,0,1-.566-1.841V5.309h2.085V9.66a.75.75,0,0,0,.835.86,1.09,1.09,0,0,0,1.021-.514v-4.7h2.1v6.7h-1.956Zm5.13-5.972.068.786a2.3,2.3,0,0,1,1.912-.91,1.7,1.7,0,0,1,1.714,1.009,2.228,2.228,0,0,1,1.968-1.009q2.036,0,2.092,2.463v4.357h-2.092V7.779a1.276,1.276,0,0,0-.173-.749.738.738,0,0,0-.631-.235.988.988,0,0,0-.922.551l.006.087v4.573h-2.092V7.791a1.342,1.342,0,0,0-.167-.761.735.735,0,0,0-.637-.235,1,1,0,0,0-.916.551v4.66H121.1v-6.7Zm12.185,6.82a3.442,3.442,0,0,1-2.494-.919,3.173,3.173,0,0,1-.953-2.392V8.645a4.112,4.112,0,0,1,.381-1.813,2.785,2.785,0,0,1,1.111-1.216,3.353,3.353,0,0,1,1.733-.43,2.9,2.9,0,0,1,2.228.876,3.441,3.441,0,0,1,.817,2.441v.811h-4.146a1.5,1.5,0,0,0,.489.885,1.455,1.455,0,0,0,.978.322,1.874,1.874,0,0,0,1.547-.693l.953,1.126a2.664,2.664,0,0,1-1.1.857A3.733,3.733,0,0,1,135.241,12.129Zm-.235-5.334q-.916,0-1.089,1.213h2.1V7.847a1.033,1.033,0,0,0-.254-.777A1.01,1.01,0,0,0,135.006,6.795Zm5.811-1.485.068.786a2.271,2.271,0,0,1,1.912-.91,1.91,1.91,0,0,1,1.563.625,2.975,2.975,0,0,1,.535,1.881v4.313H142.8V7.779a1.13,1.13,0,0,0-.2-.746.945.945,0,0,0-.743-.238,1,1,0,0,0-.91.483v4.728h-2.085v-6.7Zm7.661-1.665V5.309h1.1V6.758h-1.1V9.821a.782.782,0,0,0,.136.526.73.73,0,0,0,.538.149,3.06,3.06,0,0,0,.52-.037V11.95a3.849,3.849,0,0,1-1.176.179,2.185,2.185,0,0,1-1.59-.507,2.08,2.08,0,0,1-.514-1.541V6.758h-.854V5.309h.854V3.645Zm5.693,8.36a2.354,2.354,0,0,1-.2-.6,1.939,1.939,0,0,1-1.609.724,2.376,2.376,0,0,1-1.609-.572,1.822,1.822,0,0,1-.662-1.439,1.873,1.873,0,0,1,.8-1.646,4.1,4.1,0,0,1,2.339-.557h.644V7.56q0-.927-.8-.927a.653.653,0,0,0-.743.734h-2.085a1.869,1.869,0,0,1,.826-1.576,3.472,3.472,0,0,1,2.107-.606,3.044,3.044,0,0,1,2.024.625,2.173,2.173,0,0,1,.761,1.714v2.964a3.036,3.036,0,0,0,.285,1.411v.105Zm-1.306-1.361a1.163,1.163,0,0,0,.647-.167,1.047,1.047,0,0,0,.368-.377V9.029h-.606q-1.089,0-1.089.978a.6.6,0,0,0,.192.461A.694.694,0,0,0,152.865,10.644ZM161.176,7.2l-.687-.05a1.234,1.234,0,0,0-1.262.619v4.239h-2.085v-6.7H159.1l.068.86a1.615,1.615,0,0,1,1.467-.984,2.034,2.034,0,0,1,.582.074Zm6.108,4.808h-2.092V2.5h2.092Zm5.056,0a2.354,2.354,0,0,1-.2-.6,1.939,1.939,0,0,1-1.609.724,2.376,2.376,0,0,1-1.609-.572,1.822,1.822,0,0,1-.662-1.439,1.873,1.873,0,0,1,.8-1.646,4.1,4.1,0,0,1,2.339-.557h.644V7.56q0-.927-.8-.927a.653.653,0,0,0-.743.734h-2.085a1.869,1.869,0,0,1,.826-1.576,3.472,3.472,0,0,1,2.107-.606,3.044,3.044,0,0,1,2.024.625,2.173,2.173,0,0,1,.761,1.714v2.964a3.036,3.036,0,0,0,.285,1.411v.105Zm-1.306-1.361a1.163,1.163,0,0,0,.647-.167,1.047,1.047,0,0,0,.368-.377V9.029h-.606q-1.089,0-1.089.978a.6.6,0,0,0,.192.461A.694.694,0,0,0,171.034,10.644ZM3.746,21.75v1.665h1.1v1.448h-1.1v3.063a.782.782,0,0,0,.136.526.73.73,0,0,0,.538.149,3.06,3.06,0,0,0,.52-.037v1.491a3.849,3.849,0,0,1-1.176.179,2.185,2.185,0,0,1-1.59-.507,2.08,2.08,0,0,1-.514-1.541V24.863H.806V23.415H1.66V21.75Zm5.161,8.484a3.442,3.442,0,0,1-2.494-.919,3.173,3.173,0,0,1-.953-2.392V26.75a4.112,4.112,0,0,1,.381-1.813,2.785,2.785,0,0,1,1.111-1.216,3.353,3.353,0,0,1,1.733-.43,2.9,2.9,0,0,1,2.228.876,3.441,3.441,0,0,1,.817,2.441v.811H7.582a1.5,1.5,0,0,0,.489.885,1.455,1.455,0,0,0,.978.322,1.874,1.874,0,0,0,1.547-.693l.953,1.126a2.664,2.664,0,0,1-1.1.857A3.733,3.733,0,0,1,8.907,30.234ZM8.671,24.9q-.916,0-1.089,1.213h2.1v-.161a1.033,1.033,0,0,0-.254-.777A1.01,1.01,0,0,0,8.671,24.9Zm5.867-1.485.068.786a2.3,2.3,0,0,1,1.912-.91A1.7,1.7,0,0,1,18.232,24.3,2.228,2.228,0,0,1,20.2,23.291q2.036,0,2.092,2.463V30.11H20.2V25.884a1.276,1.276,0,0,0-.173-.749A.738.738,0,0,0,19.4,24.9a.988.988,0,0,0-.922.551l.006.087V30.11H16.388V25.9a1.342,1.342,0,0,0-.167-.761.735.735,0,0,0-.637-.235,1,1,0,0,0-.916.551v4.66H12.583v-6.7Zm15.161,3.4A4.038,4.038,0,0,1,29,29.3a2.252,2.252,0,0,1-1.9.931,1.93,1.93,0,0,1-1.516-.675v3.125H23.5v-9.27h1.949l.062.619a1.93,1.93,0,0,1,1.578-.743,2.27,2.27,0,0,1,1.925.913,4.088,4.088,0,0,1,.687,2.509Zm-2.085-.13q0-1.782-1.04-1.782a.981.981,0,0,0-.99.532v2.636a1.013,1.013,0,0,0,1,.557q1,0,1.027-1.72Zm6.244,3.552a3.442,3.442,0,0,1-2.494-.919,3.173,3.173,0,0,1-.953-2.392V26.75a4.112,4.112,0,0,1,.381-1.813A2.785,2.785,0,0,1,31.9,23.721a3.353,3.353,0,0,1,1.733-.43,2.9,2.9,0,0,1,2.228.876,3.441,3.441,0,0,1,.817,2.441v.811H32.534a1.5,1.5,0,0,0,.489.885,1.455,1.455,0,0,0,.978.322,1.874,1.874,0,0,0,1.547-.693l.953,1.126a2.664,2.664,0,0,1-1.1.857A3.733,3.733,0,0,1,33.858,30.234ZM33.623,24.9q-.916,0-1.089,1.213h2.1v-.161a1.033,1.033,0,0,0-.254-.777A1.01,1.01,0,0,0,33.623,24.9Zm7.946.4-.687-.05a1.234,1.234,0,0,0-1.262.619V30.11H37.534v-6.7h1.956l.068.86a1.615,1.615,0,0,1,1.467-.984,2.034,2.034,0,0,1,.582.074Zm4.338,4.808a2.355,2.355,0,0,1-.2-.6,1.939,1.939,0,0,1-1.609.724,2.376,2.376,0,0,1-1.609-.572,1.822,1.822,0,0,1-.662-1.439,1.873,1.873,0,0,1,.8-1.646,4.1,4.1,0,0,1,2.339-.557h.644v-.354q0-.927-.8-.927a.653.653,0,0,0-.743.734H41.989a1.869,1.869,0,0,1,.826-1.576,3.472,3.472,0,0,1,2.107-.606,3.044,3.044,0,0,1,2.024.625,2.173,2.173,0,0,1,.761,1.714v2.964a3.036,3.036,0,0,0,.285,1.411v.105ZM44.6,28.749a1.163,1.163,0,0,0,.647-.167,1.047,1.047,0,0,0,.368-.377V27.134h-.606q-1.089,0-1.089.978a.6.6,0,0,0,.192.461A.694.694,0,0,0,44.6,28.749Zm6.69-7v1.665h1.1v1.448h-1.1v3.063a.782.782,0,0,0,.136.526.73.73,0,0,0,.538.149,3.059,3.059,0,0,0,.52-.037v1.491a3.849,3.849,0,0,1-1.176.179,2.185,2.185,0,0,1-1.59-.507,2.08,2.08,0,0,1-.514-1.541V24.863h-.854V23.415H49.2V21.75Zm5.91,7.636a2.15,2.15,0,0,1-1.788.848,2.109,2.109,0,0,1-1.668-.64,2.694,2.694,0,0,1-.566-1.841V23.415h2.085v4.35a.75.75,0,0,0,.835.86,1.09,1.09,0,0,0,1.021-.514v-4.7h2.1v6.7H57.262ZM64.41,25.3l-.687-.05a1.234,1.234,0,0,0-1.262.619V30.11H60.375v-6.7H62.33l.068.86a1.615,1.615,0,0,1,1.467-.984,2.034,2.034,0,0,1,.582.074Zm4.338,4.808a2.355,2.355,0,0,1-.2-.6,1.939,1.939,0,0,1-1.609.724,2.376,2.376,0,0,1-1.609-.572,1.822,1.822,0,0,1-.662-1.439,1.873,1.873,0,0,1,.8-1.646,4.1,4.1,0,0,1,2.339-.557h.644v-.354q0-.927-.8-.927a.653.653,0,0,0-.743.734H64.83a1.869,1.869,0,0,1,.826-1.576,3.472,3.472,0,0,1,2.107-.606,3.044,3.044,0,0,1,2.024.625,2.173,2.173,0,0,1,.761,1.714v2.964a3.036,3.036,0,0,0,.285,1.411v.105Zm-1.306-1.361a1.163,1.163,0,0,0,.647-.167,1.047,1.047,0,0,0,.368-.377V27.134H67.85q-1.089,0-1.089.978a.6.6,0,0,0,.192.461A.694.694,0,0,0,67.442,28.749ZM79.447,30.11H77.356V23.452l-2.055.6V22.468L79.255,21.1h.192Zm5.644-3.41a3.952,3.952,0,0,1,.39-1.785,2.788,2.788,0,0,1,1.12-1.2,3.373,3.373,0,0,1,1.714-.421,3.079,3.079,0,0,1,2.37.931,3.574,3.574,0,0,1,.866,2.534v.074a3.468,3.468,0,0,1-.869,2.485,3.087,3.087,0,0,1-2.355.919,3.122,3.122,0,0,1-2.3-.857,3.352,3.352,0,0,1-.934-2.324Zm2.085.13a2.491,2.491,0,0,0,.291,1.361.969.969,0,0,0,.86.433q1.114,0,1.139-1.714V26.7q0-1.8-1.151-1.8-1.046,0-1.132,1.553Zm13.039,3.28H98.124V23.452l-2.055.6V22.468l3.954-1.368h.192Zm4.041-2.024a1.187,1.187,0,0,1,.823.294,1.026,1.026,0,0,1,0,1.5,1.3,1.3,0,0,1-1.649,0,1.025,1.025,0,0,1,0-1.5A1.177,1.177,0,0,1,104.256,28.087Zm2.63-2.378.551-4.609H112.7v1.621h-3.571l-.2,1.79a2.46,2.46,0,0,1,.585-.23,2.942,2.942,0,0,1,2.772.7,3.623,3.623,0,0,1,.334,3.8,2.658,2.658,0,0,1-1.086,1.08,3.429,3.429,0,0,1-1.652.377,3.689,3.689,0,0,1-1.59-.349,2.853,2.853,0,0,1-1.163-.958,2.329,2.329,0,0,1-.415-1.376H108.8a1.183,1.183,0,0,0,.316.784,1,1,0,0,0,.749.29q1.052,0,1.052-1.556,0-1.439-1.287-1.439a1.284,1.284,0,0,0-1.089.469Zm7.438-2.994a1.662,1.662,0,0,1,.517-1.231,1.686,1.686,0,0,1,1.222-.507,1.631,1.631,0,0,1,1.2.507,1.682,1.682,0,0,1,.5,1.231,1.7,1.7,0,0,1-1.7,1.714,1.7,1.7,0,0,1-1.228-.5A1.634,1.634,0,0,1,114.325,22.715Zm1.739.767a.708.708,0,0,0,.538-.223.764.764,0,0,0,.21-.545.808.808,0,0,0-.21-.557.69.69,0,0,0-.538-.235.743.743,0,0,0-.554.232.774.774,0,0,0-.226.56.723.723,0,0,0,.232.548A.77.77,0,0,0,116.063,23.483Zm10.489,3.577a3.291,3.291,0,0,1-.507,1.662,3.063,3.063,0,0,1-1.3,1.117,4.434,4.434,0,0,1-1.915.4,3.538,3.538,0,0,1-2.8-1.157,4.778,4.778,0,0,1-1.021-3.267v-.446a5.454,5.454,0,0,1,.461-2.318,3.493,3.493,0,0,1,1.327-1.535,3.7,3.7,0,0,1,2.005-.541,3.884,3.884,0,0,1,2.636.863,3.411,3.411,0,0,1,1.132,2.379h-2.166a1.614,1.614,0,0,0-.415-1.182,1.705,1.705,0,0,0-1.188-.359,1.3,1.3,0,0,0-1.188.606,3.9,3.9,0,0,0-.4,1.937v.637a4.313,4.313,0,0,0,.362,2.061,1.325,1.325,0,0,0,1.247.619,1.668,1.668,0,0,0,1.145-.353,1.5,1.5,0,0,0,.421-1.12Zm10.3-.248a4.038,4.038,0,0,1-.7,2.491,2.252,2.252,0,0,1-1.9.931,1.93,1.93,0,0,1-1.516-.675v3.125h-2.085v-9.27H132.6l.062.619a1.93,1.93,0,0,1,1.578-.743,2.27,2.27,0,0,1,1.925.913,4.088,4.088,0,0,1,.687,2.509Zm-2.085-.13q0-1.782-1.04-1.782a.981.981,0,0,0-.99.532v2.636a1.013,1.013,0,0,0,1,.557q1,0,1.027-1.72Zm2.741.019a3.952,3.952,0,0,1,.39-1.785,2.788,2.788,0,0,1,1.12-1.2,3.373,3.373,0,0,1,1.714-.421,3.079,3.079,0,0,1,2.37.931,3.574,3.574,0,0,1,.866,2.534v.074a3.467,3.467,0,0,1-.869,2.485,3.087,3.087,0,0,1-2.355.919,3.122,3.122,0,0,1-2.3-.857,3.352,3.352,0,0,1-.934-2.324Zm2.085.13a2.491,2.491,0,0,0,.291,1.361.969.969,0,0,0,.86.433q1.114,0,1.139-1.714V26.7q0-1.8-1.151-1.8-1.046,0-1.132,1.553Zm9.344-1.529-.687-.05a1.234,1.234,0,0,0-1.262.619V30.11h-2.085v-6.7h1.956l.068.86a1.615,1.615,0,0,1,1.467-.984,2.034,2.034,0,0,1,.582.074Zm5.879-1.887.068.786a2.3,2.3,0,0,1,1.912-.91,1.7,1.7,0,0,1,1.714,1.009,2.228,2.228,0,0,1,1.968-1.009q2.036,0,2.092,2.463V30.11h-2.092V25.884a1.277,1.277,0,0,0-.173-.749.738.738,0,0,0-.631-.235.988.988,0,0,0-.922.551l.006.087V30.11h-2.092V25.9a1.342,1.342,0,0,0-.167-.761.735.735,0,0,0-.637-.235,1,1,0,0,0-.916.551v4.66h-2.085v-6.7Zm11.145,6.7h-2.092v-6.7h2.092Zm-2.215-8.422a.931.931,0,0,1,.322-.73,1.368,1.368,0,0,1,1.671,0,.989.989,0,0,1,0,1.46,1.368,1.368,0,0,1-1.671,0A.931.931,0,0,1,163.751,21.688Zm5.415,1.727.068.786a2.271,2.271,0,0,1,1.912-.91,1.91,1.91,0,0,1,1.563.625,2.975,2.975,0,0,1,.535,1.881V30.11h-2.092V25.884a1.13,1.13,0,0,0-.2-.746.945.945,0,0,0-.743-.238,1,1,0,0,0-.91.483V30.11H167.21v-6.7Zm9.221,5.972a2.15,2.15,0,0,1-1.788.848,2.109,2.109,0,0,1-1.668-.64,2.694,2.694,0,0,1-.566-1.841V23.415h2.085v4.35a.75.75,0,0,0,.835.86,1.09,1.09,0,0,0,1.021-.514v-4.7h2.1v6.7h-1.956Zm5.588-7.636v1.665h1.1v1.448h-1.1v3.063a.782.782,0,0,0,.136.526.73.73,0,0,0,.538.149,3.06,3.06,0,0,0,.52-.037v1.491a3.849,3.849,0,0,1-1.176.179,2.185,2.185,0,0,1-1.59-.507,2.08,2.08,0,0,1-.514-1.541V24.863h-.854V23.415h.854V21.75Zm1.473,4.951a3.952,3.952,0,0,1,.39-1.785,2.788,2.788,0,0,1,1.12-1.2,3.373,3.373,0,0,1,1.714-.421,3.079,3.079,0,0,1,2.37.931,3.574,3.574,0,0,1,.866,2.534v.074a3.467,3.467,0,0,1-.869,2.485,3.087,3.087,0,0,1-2.355.919,3.122,3.122,0,0,1-2.3-.857,3.352,3.352,0,0,1-.934-2.324Zm2.085.13a2.492,2.492,0,0,0,.291,1.361.969.969,0,0,0,.86.433q1.114,0,1.139-1.714V26.7q0-1.8-1.151-1.8-1.046,0-1.132,1.553Z" transform="translate(735.622 9786.406)" fill="#12263f"/>
    <g id="Rectángulo_36810" data-name="Rectángulo 36810" transform="translate(736.667 9970.449)" fill="none" stroke="#e53935" stroke-width="1">
      <rect width="191" height="27" rx="13" stroke="none"/>
      <rect x="0.5" y="0.5" width="190" height="26" rx="12.5" fill="none"/>
    </g>
    <path id="Trazado_191267" data-name="Trazado 191267" d="M11.082,11.939H7.68l-.594,1.924H4.434L8.21,3.566h2.334l3.8,10.3H11.683ZM8.274,10.023h2.214L9.377,6.451ZM14.71,9.98a5.167,5.167,0,0,1,.382-2.051,3.074,3.074,0,0,1,1.1-1.376,2.89,2.89,0,0,1,1.662-.484,2.3,2.3,0,0,1,1.867.806l.085-.665h2.164v7.362a3.226,3.226,0,0,1-.47,1.757,3.018,3.018,0,0,1-1.361,1.146,5,5,0,0,1-2.065.4,4.317,4.317,0,0,1-1.63-.318,2.943,2.943,0,0,1-1.206-.827l1-1.4a2.185,2.185,0,0,0,1.754.785,1.419,1.419,0,0,0,1.584-1.627v-.24A2.238,2.238,0,0,1,17.836,14a2.766,2.766,0,0,1-2.263-1.071,4.439,4.439,0,0,1-.863-2.868Zm2.39.149a2.722,2.722,0,0,0,.354,1.489,1.116,1.116,0,0,0,.99.548,1.266,1.266,0,0,0,1.125-.516V8.432a1.234,1.234,0,0,0-1.11-.523,1.123,1.123,0,0,0-1,.569A3.1,3.1,0,0,0,17.1,10.129Zm8.734,3.734h-2.39V3h2.39Zm6.026-.827A2.457,2.457,0,0,1,29.816,14a2.41,2.41,0,0,1-1.906-.732,3.079,3.079,0,0,1-.647-2.1V6.211h2.383v4.972a.857.857,0,0,0,.955.983,1.246,1.246,0,0,0,1.167-.587V6.211h2.4v7.652H31.931Zm6.386-8.727v1.9h1.259V7.866H38.247v3.5a.894.894,0,0,0,.156.6.835.835,0,0,0,.615.17,3.5,3.5,0,0,0,.594-.042v1.7A4.4,4.4,0,0,1,38.268,14a2.5,2.5,0,0,1-1.818-.58,2.377,2.377,0,0,1-.587-1.761v-3.8h-.976V6.211h.976v-1.9Zm4.71,9.555h-2.39V6.211h2.39ZM40.425,4.238a1.064,1.064,0,0,1,.368-.835,1.564,1.564,0,0,1,1.91,0,1.064,1.064,0,0,1,.368.835,1.064,1.064,0,0,1-.368.835,1.564,1.564,0,0,1-1.91,0A1.064,1.064,0,0,1,40.425,4.238Zm6.188,1.973.078.9a2.6,2.6,0,0,1,2.185-1.04,2.183,2.183,0,0,1,1.786.714,3.4,3.4,0,0,1,.612,2.15v4.929h-2.39V9.033a1.291,1.291,0,0,0-.233-.852,1.08,1.08,0,0,0-.849-.272,1.137,1.137,0,0,0-1.04.552v5.4H44.378V6.211ZM56.9,13.863a2.691,2.691,0,0,1-.226-.686A2.216,2.216,0,0,1,54.838,14,2.715,2.715,0,0,1,53,13.35a2.082,2.082,0,0,1-.757-1.644,2.14,2.14,0,0,1,.919-1.881,4.684,4.684,0,0,1,2.673-.637h.736V8.783q0-1.059-.912-1.059a.746.746,0,0,0-.849.839H52.427a2.137,2.137,0,0,1,.944-1.8,3.968,3.968,0,0,1,2.408-.692,3.479,3.479,0,0,1,2.313.714,2.483,2.483,0,0,1,.87,1.959V12.13a3.469,3.469,0,0,0,.325,1.612v.12Zm-1.492-1.556a1.329,1.329,0,0,0,.739-.191,1.2,1.2,0,0,0,.421-.431V10.461h-.693q-1.245,0-1.245,1.117a.682.682,0,0,0,.219.527A.793.793,0,0,0,55.411,12.307Zm8.1-.141a1.06,1.06,0,0,0,.778-.272,1,1,0,0,0,.269-.76H66.8a2.646,2.646,0,0,1-.9,2.065A3.354,3.354,0,0,1,63.573,14a3.4,3.4,0,0,1-2.631-1.047,4.124,4.124,0,0,1-.962-2.9v-.1a4.661,4.661,0,0,1,.428-2.047,3.115,3.115,0,0,1,1.234-1.365,3.68,3.68,0,0,1,1.91-.477,3.312,3.312,0,0,1,2.369.827A2.935,2.935,0,0,1,66.8,9.139H64.563a1.308,1.308,0,0,0-.29-.912,1,1,0,0,0-.778-.318q-.926,0-1.082,1.181a8.334,8.334,0,0,0-.05,1.033,3.273,3.273,0,0,0,.276,1.6A.955.955,0,0,0,63.516,12.166Zm6.8,1.7h-2.39V6.211h2.39ZM67.788,4.238a1.064,1.064,0,0,1,.368-.835,1.564,1.564,0,0,1,1.91,0,1.064,1.064,0,0,1,.368.835,1.064,1.064,0,0,1-.368.835,1.564,1.564,0,0,1-1.91,0A1.064,1.064,0,0,1,67.788,4.238Zm3.7,5.729a4.516,4.516,0,0,1,.446-2.04,3.186,3.186,0,0,1,1.28-1.376,3.855,3.855,0,0,1,1.959-.481A3.519,3.519,0,0,1,77.88,7.134a4.084,4.084,0,0,1,.99,2.9v.085a3.963,3.963,0,0,1-.994,2.84A3.528,3.528,0,0,1,75.185,14a3.568,3.568,0,0,1-2.624-.98,3.831,3.831,0,0,1-1.068-2.656Zm2.383.149a2.847,2.847,0,0,0,.332,1.556,1.107,1.107,0,0,0,.983.5q1.273,0,1.3-1.959v-.24q0-2.058-1.315-2.058-1.2,0-1.294,1.775ZM75.5,3h2.518L76.048,5.221l-1.945,0Zm6.613,3.211.078.9a2.6,2.6,0,0,1,2.185-1.04,2.183,2.183,0,0,1,1.786.714,3.4,3.4,0,0,1,.612,2.15v4.929H84.38V9.033a1.291,1.291,0,0,0-.233-.852,1.08,1.08,0,0,0-.849-.272,1.137,1.137,0,0,0-1.04.552v5.4H79.874V6.211ZM91.4,9.98a4.674,4.674,0,0,1,.785-2.864,2.584,2.584,0,0,1,2.192-1.047,2.2,2.2,0,0,1,1.726.806V3h2.39V13.863H96.346l-.12-.82A2.257,2.257,0,0,1,94.359,14a2.579,2.579,0,0,1-2.164-1.047A4.823,4.823,0,0,1,91.4,9.98Zm2.383.149q0,2.037,1.188,2.037A1.173,1.173,0,0,0,96.1,11.5V8.587a1.142,1.142,0,0,0-1.117-.679q-1.1,0-1.2,1.782ZM103.546,14a3.934,3.934,0,0,1-2.85-1.05,3.627,3.627,0,0,1-1.089-2.733v-.2a4.7,4.7,0,0,1,.435-2.072,3.183,3.183,0,0,1,1.269-1.39,3.832,3.832,0,0,1,1.98-.492,3.312,3.312,0,0,1,2.546,1,3.933,3.933,0,0,1,.934,2.79v.926h-4.738a1.718,1.718,0,0,0,.559,1.011,1.662,1.662,0,0,0,1.117.368,2.142,2.142,0,0,0,1.768-.792l1.089,1.287a3.045,3.045,0,0,1-1.262.98A4.266,4.266,0,0,1,103.546,14Zm-.269-6.1q-1.047,0-1.245,1.386h2.4V9.111a1.181,1.181,0,0,0-.29-.888A1.154,1.154,0,0,0,103.277,7.908Zm10.573,5.955h-2.39V6.211h2.39Zm-2.532-9.625a1.064,1.064,0,0,1,.368-.835,1.564,1.564,0,0,1,1.91,0,1.064,1.064,0,0,1,.368.835,1.064,1.064,0,0,1-.368.835,1.564,1.564,0,0,1-1.91,0A1.064,1.064,0,0,1,111.318,4.238Zm6.252,1.973.078.9a2.631,2.631,0,0,1,2.185-1.04,1.937,1.937,0,0,1,1.959,1.153,2.547,2.547,0,0,1,2.249-1.153q2.327,0,2.39,2.815v4.979h-2.39V9.033a1.459,1.459,0,0,0-.2-.856.843.843,0,0,0-.721-.269,1.129,1.129,0,0,0-1.054.629l.007.1v5.226h-2.39V9.047a1.533,1.533,0,0,0-.191-.87.841.841,0,0,0-.728-.269,1.143,1.143,0,0,0-1.047.629v5.325h-2.383V6.211ZM134.9,10.094a4.615,4.615,0,0,1-.8,2.847A2.574,2.574,0,0,1,131.927,14a2.206,2.206,0,0,1-1.733-.771v3.572h-2.383V6.211h2.228l.071.707a2.206,2.206,0,0,1,1.8-.849,2.594,2.594,0,0,1,2.2,1.043A4.671,4.671,0,0,1,134.9,9.98Zm-2.383-.149q0-2.037-1.188-2.037a1.122,1.122,0,0,0-1.132.608v3.013a1.158,1.158,0,0,0,1.146.637q1.139,0,1.174-1.966Zm7.992,3.091a2.457,2.457,0,0,1-2.044.969,2.41,2.41,0,0,1-1.906-.732,3.079,3.079,0,0,1-.647-2.1V6.211h2.383v4.972a.857.857,0,0,0,.955.983,1.246,1.246,0,0,0,1.167-.587V6.211h2.4v7.652h-2.235Zm8.239-4.668-.785-.057a1.41,1.41,0,0,0-1.443.707v4.845h-2.383V6.211h2.235l.078.983a1.846,1.846,0,0,1,1.676-1.125,2.324,2.324,0,0,1,.665.085ZM153.172,14a3.934,3.934,0,0,1-2.85-1.05,3.627,3.627,0,0,1-1.089-2.733v-.2a4.7,4.7,0,0,1,.435-2.072,3.183,3.183,0,0,1,1.269-1.39,3.832,3.832,0,0,1,1.98-.492,3.312,3.312,0,0,1,2.546,1,3.932,3.932,0,0,1,.934,2.79v.926h-4.738a1.718,1.718,0,0,0,.559,1.011,1.662,1.662,0,0,0,1.117.368,2.142,2.142,0,0,0,1.768-.792l1.089,1.287a3.044,3.044,0,0,1-1.262.98A4.266,4.266,0,0,1,153.172,14Zm-.269-6.1q-1.047,0-1.245,1.386h2.4V9.111a1.181,1.181,0,0,0-.29-.888A1.154,1.154,0,0,0,152.9,7.908Zm7.263,4.116h3.487v1.839h-6.5v-1.33l3.395-4.484H157.3V6.211h6.273V7.5Zm8.954,1.839a2.691,2.691,0,0,1-.226-.686,2.216,2.216,0,0,1-1.839.827,2.715,2.715,0,0,1-1.839-.654,2.082,2.082,0,0,1-.757-1.644,2.14,2.14,0,0,1,.919-1.881,4.684,4.684,0,0,1,2.673-.637h.736V8.783q0-1.059-.912-1.059a.746.746,0,0,0-.849.839h-2.383a2.137,2.137,0,0,1,.944-1.8A3.968,3.968,0,0,1,168,6.069a3.479,3.479,0,0,1,2.313.714,2.484,2.484,0,0,1,.87,1.959V12.13a3.469,3.469,0,0,0,.325,1.612v.12Zm-1.492-1.556a1.329,1.329,0,0,0,.739-.191,1.2,1.2,0,0,0,.421-.431V10.461H168.1q-1.245,0-1.245,1.117a.682.682,0,0,0,.219.527A.793.793,0,0,0,167.628,12.307Zm8.876-.594a.551.551,0,0,0-.318-.488,4.841,4.841,0,0,0-1.209-.382,5.514,5.514,0,0,1-1.471-.52,2.464,2.464,0,0,1-.884-.781,1.866,1.866,0,0,1-.3-1.054,2.115,2.115,0,0,1,.87-1.736,3.583,3.583,0,0,1,2.277-.682,3.97,3.97,0,0,1,2.433.686,2.145,2.145,0,0,1,.919,1.8h-2.39q0-.919-.969-.919a.96.96,0,0,0-.629.209.646.646,0,0,0-.255.52.593.593,0,0,0,.311.516,2.94,2.94,0,0,0,.994.325,8.586,8.586,0,0,1,1.2.3,2.178,2.178,0,0,1,1.726,2.129,2,2,0,0,1-.93,1.7,4.078,4.078,0,0,1-2.408.658,4.162,4.162,0,0,1-1.754-.354,2.933,2.933,0,0,1-1.2-.962,2.178,2.178,0,0,1-.431-1.28H174.3a.921.921,0,0,0,.354.774,1.455,1.455,0,0,0,.87.244,1.144,1.144,0,0,0,.732-.2A.633.633,0,0,0,176.5,11.713Z" transform="translate(739.805 9974.653)" fill="#e53935"/>
    <g id="Grupo_129718" data-name="Grupo 129718" transform="translate(703.667 9846.84)">
      <g id="Rectángulo_36807" data-name="Rectángulo 36807" transform="translate(0 -0.391)" fill="none" stroke="#e53935" stroke-width="1">
        <rect width="74" height="31" rx="13" stroke="none"/>
        <rect x="0.5" y="0.5" width="73" height="30" rx="12.5" fill="none"/>
      </g>
      <path id="Trazado_191263" data-name="Trazado 191263" d="M18.9,5.491H15.813v8.381H13.331V5.491H10.3V3.574H18.9Zm3.451,8.381h-2.39V6.219h2.39ZM19.823,4.246a1.064,1.064,0,0,1,.368-.835,1.564,1.564,0,0,1,1.91,0,1.064,1.064,0,0,1,.368.835,1.064,1.064,0,0,1-.368.835,1.564,1.564,0,0,1-1.91,0A1.064,1.064,0,0,1,19.823,4.246Zm7.7,9.767a3.934,3.934,0,0,1-2.85-1.05,3.627,3.627,0,0,1-1.089-2.733v-.2a4.7,4.7,0,0,1,.435-2.072,3.183,3.183,0,0,1,1.269-1.39,3.832,3.832,0,0,1,1.98-.492,3.312,3.312,0,0,1,2.546,1,3.933,3.933,0,0,1,.934,2.79v.926H26.012a1.718,1.718,0,0,0,.559,1.011,1.662,1.662,0,0,0,1.117.368,2.142,2.142,0,0,0,1.768-.792l1.089,1.287a3.045,3.045,0,0,1-1.262.98A4.266,4.266,0,0,1,27.525,14.013Zm-.269-6.1q-1.047,0-1.245,1.386h2.4V9.119a1.181,1.181,0,0,0-.29-.888A1.154,1.154,0,0,0,27.256,7.916Zm6.7-1.7.078.9a2.631,2.631,0,0,1,2.185-1.04A1.937,1.937,0,0,1,38.183,7.23a2.547,2.547,0,0,1,2.249-1.153q2.327,0,2.39,2.815v4.979h-2.39V9.041a1.459,1.459,0,0,0-.2-.856.843.843,0,0,0-.721-.269,1.129,1.129,0,0,0-1.054.629l.007.1v5.226h-2.39V9.055a1.533,1.533,0,0,0-.191-.87.841.841,0,0,0-.728-.269,1.143,1.143,0,0,0-1.047.629v5.325H31.726V6.219ZM51.288,10.1a4.615,4.615,0,0,1-.8,2.847,2.574,2.574,0,0,1-2.168,1.064,2.206,2.206,0,0,1-1.733-.771v3.572H44.2V6.219H46.43l.071.707a2.206,2.206,0,0,1,1.8-.849,2.594,2.594,0,0,1,2.2,1.043,4.672,4.672,0,0,1,.785,2.868ZM48.9,9.953q0-2.037-1.188-2.037a1.122,1.122,0,0,0-1.132.608v3.013a1.158,1.158,0,0,0,1.146.637q1.139,0,1.174-1.966Zm3.133.021a4.516,4.516,0,0,1,.446-2.04,3.186,3.186,0,0,1,1.28-1.376,3.855,3.855,0,0,1,1.959-.481,3.519,3.519,0,0,1,2.709,1.064,4.084,4.084,0,0,1,.99,2.9v.085a3.963,3.963,0,0,1-.994,2.84,3.528,3.528,0,0,1-2.691,1.05,3.568,3.568,0,0,1-2.624-.98,3.831,3.831,0,0,1-1.068-2.656Zm2.383.149a2.847,2.847,0,0,0,.332,1.556,1.107,1.107,0,0,0,.983.5q1.273,0,1.3-1.959v-.24q0-2.058-1.315-2.058-1.2,0-1.294,1.775Z" transform="translate(2.088 6.5)" fill="#e53935"/>
      <g id="Rectángulo_36808" data-name="Rectángulo 36808" transform="translate(161 -0.391)" fill="none" stroke="#e53935" stroke-width="1">
        <rect width="95" height="31" rx="13" stroke="none"/>
        <rect x="0.5" y="0.5" width="94" height="30" rx="12.5" fill="none"/>
      </g>
      <path id="Trazado_191264" data-name="Trazado 191264" d="M12.887,10.361a3.761,3.761,0,0,1-.58,1.9,3.5,3.5,0,0,1-1.489,1.277,5.067,5.067,0,0,1-2.189.453,4.044,4.044,0,0,1-3.2-1.323A5.46,5.46,0,0,1,4.266,8.932V8.423a6.233,6.233,0,0,1,.527-2.649A3.992,3.992,0,0,1,6.31,4.021,4.233,4.233,0,0,1,8.6,3.4a4.438,4.438,0,0,1,3.013.987,3.9,3.9,0,0,1,1.294,2.719H10.433a1.844,1.844,0,0,0-.474-1.351A1.949,1.949,0,0,0,8.6,5.347a1.483,1.483,0,0,0-1.358.693A4.455,4.455,0,0,0,6.79,8.253v.728A4.929,4.929,0,0,0,7.2,11.337a1.514,1.514,0,0,0,1.425.707,1.906,1.906,0,0,0,1.308-.4,1.711,1.711,0,0,0,.481-1.28Zm3.579,3.487h-2.39V2.984h2.39Zm5.778,0a2.691,2.691,0,0,1-.226-.686,2.216,2.216,0,0,1-1.839.827,2.715,2.715,0,0,1-1.839-.654,2.082,2.082,0,0,1-.757-1.644A2.14,2.14,0,0,1,18.5,9.809a4.684,4.684,0,0,1,2.673-.637h.736V8.768q0-1.059-.912-1.059a.746.746,0,0,0-.849.839H17.767a2.137,2.137,0,0,1,.944-1.8,3.968,3.968,0,0,1,2.408-.692,3.479,3.479,0,0,1,2.313.714,2.483,2.483,0,0,1,.87,1.959v3.388a3.469,3.469,0,0,0,.325,1.612v.12Zm-1.492-1.556a1.329,1.329,0,0,0,.739-.191,1.2,1.2,0,0,0,.421-.431V10.446h-.693q-1.245,0-1.245,1.117a.682.682,0,0,0,.219.527A.793.793,0,0,0,20.751,12.292Zm9.5-3.939L29.464,8.3A1.41,1.41,0,0,0,28.022,9v4.845H25.638V6.2h2.235l.078.983a1.846,1.846,0,0,1,1.676-1.125,2.324,2.324,0,0,1,.665.085Zm3.374,5.5h-2.39V6.2h2.39ZM31.091,4.222a1.064,1.064,0,0,1,.368-.835,1.564,1.564,0,0,1,1.91,0,1.064,1.064,0,0,1,.368.835,1.064,1.064,0,0,1-.368.835,1.564,1.564,0,0,1-1.91,0A1.064,1.064,0,0,1,31.091,4.222Zm4.555,9.625v-6h-1.11V6.2h1.11V5.941a2.922,2.922,0,0,1,1-2.341,4.013,4.013,0,0,1,2.61-.764,9.261,9.261,0,0,1,2.489.41l-.325,1.881-.4-.106A6.3,6.3,0,0,0,39.4,4.816q-1.365,0-1.365,1.245V6.2h1.5V7.85h-1.5v6Zm7.2,0h-2.4V6.2h2.4Zm4.689-1.7a1.06,1.06,0,0,0,.778-.272,1,1,0,0,0,.269-.76h2.235a2.646,2.646,0,0,1-.9,2.065,3.354,3.354,0,0,1-2.323.806,3.4,3.4,0,0,1-2.631-1.047,4.124,4.124,0,0,1-.962-2.9v-.1A4.661,4.661,0,0,1,44.426,7.9,3.115,3.115,0,0,1,45.66,6.531a3.68,3.68,0,0,1,1.91-.477,3.312,3.312,0,0,1,2.369.827,2.935,2.935,0,0,1,.877,2.242H48.581a1.308,1.308,0,0,0-.29-.912,1,1,0,0,0-.778-.318q-.926,0-1.082,1.181a8.335,8.335,0,0,0-.05,1.033,3.273,3.273,0,0,0,.276,1.6A.955.955,0,0,0,47.534,12.15Zm8.6,1.7a2.691,2.691,0,0,1-.226-.686,2.216,2.216,0,0,1-1.839.827,2.715,2.715,0,0,1-1.839-.654,2.082,2.082,0,0,1-.757-1.644,2.14,2.14,0,0,1,.919-1.881,4.684,4.684,0,0,1,2.673-.637H55.8V8.768q0-1.059-.912-1.059a.746.746,0,0,0-.849.839H51.658a2.137,2.137,0,0,1,.944-1.8,3.968,3.968,0,0,1,2.408-.692,3.479,3.479,0,0,1,2.313.714,2.483,2.483,0,0,1,.87,1.959v3.388a3.469,3.469,0,0,0,.325,1.612v.12Zm-1.492-1.556a1.329,1.329,0,0,0,.739-.191,1.2,1.2,0,0,0,.421-.431V10.446h-.693q-1.245,0-1.245,1.117a.682.682,0,0,0,.219.527A.793.793,0,0,0,54.642,12.292Zm8.1-.141a1.06,1.06,0,0,0,.778-.272,1,1,0,0,0,.269-.76h2.235a2.646,2.646,0,0,1-.9,2.065,3.354,3.354,0,0,1-2.323.806,3.4,3.4,0,0,1-2.631-1.047,4.124,4.124,0,0,1-.962-2.9v-.1A4.661,4.661,0,0,1,59.639,7.9a3.115,3.115,0,0,1,1.234-1.365,3.68,3.68,0,0,1,1.91-.477,3.312,3.312,0,0,1,2.369.827,2.935,2.935,0,0,1,.877,2.242H63.794a1.308,1.308,0,0,0-.29-.912,1,1,0,0,0-.778-.318q-.926,0-1.082,1.181a8.333,8.333,0,0,0-.05,1.033,3.273,3.273,0,0,0,.276,1.6A.955.955,0,0,0,62.747,12.15Zm6.8,1.7H67.16V6.2h2.39ZM67.019,4.222a1.064,1.064,0,0,1,.368-.835,1.564,1.564,0,0,1,1.91,0,1.064,1.064,0,0,1,.368.835,1.064,1.064,0,0,1-.368.835,1.564,1.564,0,0,1-1.91,0A1.064,1.064,0,0,1,67.019,4.222Zm3.7,5.729a4.517,4.517,0,0,1,.446-2.04,3.186,3.186,0,0,1,1.28-1.376A3.855,3.855,0,0,1,74.4,6.054a3.519,3.519,0,0,1,2.709,1.064,4.084,4.084,0,0,1,.99,2.9V10.1a3.963,3.963,0,0,1-.994,2.84,3.528,3.528,0,0,1-2.691,1.05,3.568,3.568,0,0,1-2.624-.98,3.831,3.831,0,0,1-1.068-2.656ZM73.1,10.1a2.847,2.847,0,0,0,.332,1.556,1.107,1.107,0,0,0,.983.5q1.273,0,1.3-1.959v-.24q0-2.058-1.315-2.058-1.2,0-1.294,1.775Zm1.627-7.115h2.518L75.279,5.205l-1.945,0ZM81.34,6.2l.078.9A2.6,2.6,0,0,1,83.6,6.054a2.183,2.183,0,0,1,1.786.714A3.4,3.4,0,0,1,86,8.918v4.929H83.61V9.017a1.291,1.291,0,0,0-.233-.852,1.08,1.08,0,0,0-.849-.272,1.137,1.137,0,0,0-1.04.552v5.4H79.105V6.2Z" transform="translate(162.891 6.524)" fill="#e53935"/>
    </g>
    <path id="Trazado_191262" data-name="Trazado 191262" d="M17.807,8.954a3.291,3.291,0,0,1-.507,1.662A3.063,3.063,0,0,1,16,11.733a4.434,4.434,0,0,1-1.915.4,3.538,3.538,0,0,1-2.8-1.157A4.778,4.778,0,0,1,10.264,7.7V7.259a5.454,5.454,0,0,1,.461-2.318,3.493,3.493,0,0,1,1.327-1.535,3.7,3.7,0,0,1,2.005-.541,3.884,3.884,0,0,1,2.636.863,3.411,3.411,0,0,1,1.132,2.379H15.66a1.614,1.614,0,0,0-.415-1.182,1.705,1.705,0,0,0-1.188-.359,1.3,1.3,0,0,0-1.188.606,3.9,3.9,0,0,0-.4,1.937v.637a4.313,4.313,0,0,0,.362,2.061,1.325,1.325,0,0,0,1.247.619,1.668,1.668,0,0,0,1.145-.353,1.5,1.5,0,0,0,.421-1.12Zm.668-.359a3.952,3.952,0,0,1,.39-1.785,2.788,2.788,0,0,1,1.12-1.2A3.373,3.373,0,0,1,21.7,5.186a3.079,3.079,0,0,1,2.37.931,3.574,3.574,0,0,1,.866,2.534v.074a3.467,3.467,0,0,1-.869,2.485,3.087,3.087,0,0,1-2.355.919,3.122,3.122,0,0,1-2.3-.857,3.352,3.352,0,0,1-.934-2.324Zm2.085.13a2.491,2.491,0,0,0,.291,1.361.969.969,0,0,0,.86.433q1.114,0,1.139-1.714V8.6q0-1.8-1.151-1.8-1.046,0-1.132,1.553ZM27.77,5.309l.068.786a2.271,2.271,0,0,1,1.912-.91,1.91,1.91,0,0,1,1.563.625,2.976,2.976,0,0,1,.535,1.881v4.313H29.757V7.779a1.13,1.13,0,0,0-.2-.746.945.945,0,0,0-.743-.238,1,1,0,0,0-.91.483v4.728H25.815v-6.7Zm7.661-1.665V5.309h1.1V6.758h-1.1V9.821a.782.782,0,0,0,.136.526.73.73,0,0,0,.538.149,3.059,3.059,0,0,0,.52-.037V11.95a3.849,3.849,0,0,1-1.176.179,2.185,2.185,0,0,1-1.59-.507,2.08,2.08,0,0,1-.514-1.541V6.758h-.854V5.309h.854V3.645ZM41.4,7.2l-.687-.05a1.234,1.234,0,0,0-1.262.619v4.239H37.368v-6.7h1.956l.068.86a1.615,1.615,0,0,1,1.467-.984,2.034,2.034,0,0,1,.582.074Zm.266,1.4a3.952,3.952,0,0,1,.39-1.785,2.788,2.788,0,0,1,1.12-1.2,3.373,3.373,0,0,1,1.714-.421,3.079,3.079,0,0,1,2.37.931,3.574,3.574,0,0,1,.866,2.534v.074a3.467,3.467,0,0,1-.869,2.485,3.087,3.087,0,0,1-2.355.919,3.122,3.122,0,0,1-2.3-.857,3.352,3.352,0,0,1-.934-2.324Zm2.085.13a2.491,2.491,0,0,0,.291,1.361.969.969,0,0,0,.86.433q1.114,0,1.139-1.714V8.6q0-1.8-1.151-1.8-1.046,0-1.132,1.553Zm7.494,3.28H49.157V2.5h2.092Zm5.056,0a2.355,2.355,0,0,1-.2-.6,1.939,1.939,0,0,1-1.609.724,2.376,2.376,0,0,1-1.609-.572,1.822,1.822,0,0,1-.662-1.439,1.873,1.873,0,0,1,.8-1.646,4.1,4.1,0,0,1,2.339-.557h.644V7.56q0-.927-.8-.927a.653.653,0,0,0-.743.734H52.388a1.869,1.869,0,0,1,.826-1.576,3.472,3.472,0,0,1,2.107-.606,3.044,3.044,0,0,1,2.024.625,2.173,2.173,0,0,1,.761,1.714v2.964A3.036,3.036,0,0,0,58.39,11.9v.105ZM55,10.644a1.163,1.163,0,0,0,.647-.167,1.047,1.047,0,0,0,.368-.377V9.029h-.606q-1.089,0-1.089.978a.6.6,0,0,0,.192.461A.694.694,0,0,0,55,10.644ZM63.31,7.2l-.687-.05a1.234,1.234,0,0,0-1.262.619v4.239H59.275v-6.7h1.956l.068.86a1.615,1.615,0,0,1,1.467-.984,2.034,2.034,0,0,1,.582.074Zm7.147,4.932a3.442,3.442,0,0,1-2.494-.919,3.173,3.173,0,0,1-.953-2.392V8.645a4.112,4.112,0,0,1,.381-1.813A2.785,2.785,0,0,1,68.5,5.616a3.353,3.353,0,0,1,1.733-.43,2.9,2.9,0,0,1,2.228.876A3.441,3.441,0,0,1,73.279,8.5v.811H69.133a1.5,1.5,0,0,0,.489.885,1.455,1.455,0,0,0,.978.322,1.874,1.874,0,0,0,1.547-.693l.953,1.126a2.664,2.664,0,0,1-1.1.857A3.733,3.733,0,0,1,70.457,12.129Zm-.235-5.334q-.916,0-1.089,1.213h2.1V7.847a1.033,1.033,0,0,0-.254-.777A1.01,1.01,0,0,0,70.222,6.795Zm6.1,5.211H74.226V2.5h2.092Zm10.656-3.3a4.038,4.038,0,0,1-.7,2.491,2.252,2.252,0,0,1-1.9.931,1.93,1.93,0,0,1-1.516-.675V14.58H80.773V5.309h1.949l.062.619a1.93,1.93,0,0,1,1.578-.743,2.27,2.27,0,0,1,1.925.913,4.088,4.088,0,0,1,.687,2.509Zm-2.085-.13q0-1.782-1.04-1.782a.981.981,0,0,0-.99.532V9.963a1.013,1.013,0,0,0,1,.557q1,0,1.027-1.72ZM95.52,12.005H93.36V8.243h-3.2v3.762H87.989V3h2.172V6.572h3.2V3h2.16Z" transform="translate(1085.063 9786.406)" fill="#12263f"/>
    <g id="Rectángulo_36814" data-name="Rectángulo 36814" transform="translate(1019.667 9891.449)" fill="none" stroke="#e53935" stroke-width="1">
      <rect width="95" height="47" rx="13" stroke="none"/>
      <rect x="0.5" y="0.5" width="94" height="46" rx="12.5" fill="none"/>
    </g>
    <path id="Trazado_191271" data-name="Trazado 191271" d="M9.684,10.369v3.494H7.2V3.566h4.109A4.786,4.786,0,0,1,13.4,4a3.278,3.278,0,0,1,1.407,1.238,3.38,3.38,0,0,1,.5,1.821,2.98,2.98,0,0,1-1.079,2.408,4.475,4.475,0,0,1-2.96.9Zm0-1.917h1.627a1.534,1.534,0,0,0,1.1-.361,1.34,1.34,0,0,0,.378-1.018A1.656,1.656,0,0,0,12.4,5.921a1.377,1.377,0,0,0-1.061-.438H9.684Zm11.464-.085-.785-.057a1.41,1.41,0,0,0-1.443.707v4.845H16.537V6.211h2.235l.078.983a1.846,1.846,0,0,1,1.676-1.125,2.324,2.324,0,0,1,.665.085Zm.3,1.6a4.517,4.517,0,0,1,.446-2.04,3.186,3.186,0,0,1,1.28-1.376,3.855,3.855,0,0,1,1.959-.481,3.519,3.519,0,0,1,2.709,1.064,4.084,4.084,0,0,1,.99,2.9v.085a3.963,3.963,0,0,1-.994,2.84A3.528,3.528,0,0,1,25.151,14a3.568,3.568,0,0,1-2.624-.98,3.831,3.831,0,0,1-1.068-2.656Zm2.383.149a2.847,2.847,0,0,0,.332,1.556,1.107,1.107,0,0,0,.983.5q1.273,0,1.3-1.959v-.24q0-2.058-1.315-2.058-1.2,0-1.294,1.775Zm5.75-.134a4.674,4.674,0,0,1,.785-2.864,2.584,2.584,0,0,1,2.192-1.047,2.2,2.2,0,0,1,1.726.806V3h2.39V13.863H34.536l-.12-.82A2.257,2.257,0,0,1,32.549,14a2.579,2.579,0,0,1-2.164-1.047A4.823,4.823,0,0,1,29.586,9.98Zm2.383.149q0,2.037,1.188,2.037a1.173,1.173,0,0,0,1.132-.665V8.587a1.142,1.142,0,0,0-1.117-.679q-1.1,0-1.2,1.782Zm10.623,2.907A2.457,2.457,0,0,1,40.548,14a2.41,2.41,0,0,1-1.906-.732,3.079,3.079,0,0,1-.647-2.1V6.211h2.383v4.972a.857.857,0,0,0,.955.983,1.246,1.246,0,0,0,1.167-.587V6.211h2.4v7.652H42.663Zm6.846-.87a1.06,1.06,0,0,0,.778-.272,1,1,0,0,0,.269-.76H52.72a2.646,2.646,0,0,1-.9,2.065A3.354,3.354,0,0,1,49.495,14a3.4,3.4,0,0,1-2.631-1.047,4.124,4.124,0,0,1-.962-2.9v-.1a4.661,4.661,0,0,1,.428-2.047,3.115,3.115,0,0,1,1.234-1.365,3.68,3.68,0,0,1,1.91-.477,3.312,3.312,0,0,1,2.369.827,2.935,2.935,0,0,1,.877,2.242H50.485a1.308,1.308,0,0,0-.29-.912,1,1,0,0,0-.778-.318q-.926,0-1.082,1.181a8.334,8.334,0,0,0-.05,1.033,3.273,3.273,0,0,0,.276,1.6A.955.955,0,0,0,49.438,12.166ZM56.5,4.308v1.9h1.259V7.866H56.5v3.5a.894.894,0,0,0,.156.6.835.835,0,0,0,.615.17,3.5,3.5,0,0,0,.594-.042v1.7A4.4,4.4,0,0,1,56.524,14a2.5,2.5,0,0,1-1.818-.58,2.377,2.377,0,0,1-.587-1.761v-3.8h-.976V6.211h.976v-1.9Zm1.683,5.658a4.517,4.517,0,0,1,.446-2.04,3.186,3.186,0,0,1,1.28-1.376,3.855,3.855,0,0,1,1.959-.481A3.519,3.519,0,0,1,64.58,7.134a4.084,4.084,0,0,1,.99,2.9v.085a3.963,3.963,0,0,1-.994,2.84A3.528,3.528,0,0,1,61.885,14a3.568,3.568,0,0,1-2.624-.98,3.831,3.831,0,0,1-1.068-2.656Zm2.383.149a2.847,2.847,0,0,0,.332,1.556,1.107,1.107,0,0,0,.983.5q1.273,0,1.3-1.959v-.24q0-2.058-1.315-2.058-1.2,0-1.294,1.775ZM9.2,31.968a2.691,2.691,0,0,1-.226-.686,2.216,2.216,0,0,1-1.839.827A2.715,2.715,0,0,1,5.3,31.456a2.082,2.082,0,0,1-.757-1.644,2.14,2.14,0,0,1,.919-1.881,4.684,4.684,0,0,1,2.673-.637h.736v-.405q0-1.059-.912-1.059a.746.746,0,0,0-.849.839H4.723a2.137,2.137,0,0,1,.944-1.8,3.968,3.968,0,0,1,2.408-.692,3.479,3.479,0,0,1,2.313.714,2.483,2.483,0,0,1,.87,1.959v3.388a3.469,3.469,0,0,0,.325,1.612v.12ZM7.707,30.412a1.329,1.329,0,0,0,.739-.191,1.2,1.2,0,0,0,.421-.431V28.567H8.174q-1.245,0-1.245,1.117a.682.682,0,0,0,.219.527A.793.793,0,0,0,7.707,30.412Zm8.1-.141A1.06,1.06,0,0,0,16.59,30a1,1,0,0,0,.269-.76h2.235a2.646,2.646,0,0,1-.9,2.065,3.354,3.354,0,0,1-2.323.806,3.4,3.4,0,0,1-2.631-1.047,4.124,4.124,0,0,1-.962-2.9v-.1a4.661,4.661,0,0,1,.428-2.047,3.115,3.115,0,0,1,1.234-1.365,3.68,3.68,0,0,1,1.91-.477A3.312,3.312,0,0,1,18.217,25a2.935,2.935,0,0,1,.877,2.242H16.859a1.308,1.308,0,0,0-.29-.912,1,1,0,0,0-.778-.318q-.926,0-1.082,1.181a8.334,8.334,0,0,0-.05,1.033,3.273,3.273,0,0,0,.276,1.6A.955.955,0,0,0,15.812,30.271ZM23.8,32.11a3.934,3.934,0,0,1-2.85-1.05,3.627,3.627,0,0,1-1.089-2.733v-.2a4.7,4.7,0,0,1,.435-2.072,3.183,3.183,0,0,1,1.269-1.39,3.832,3.832,0,0,1,1.98-.492,3.312,3.312,0,0,1,2.546,1,3.932,3.932,0,0,1,.934,2.79v.926H22.291a1.718,1.718,0,0,0,.559,1.011,1.662,1.662,0,0,0,1.117.368,2.142,2.142,0,0,0,1.768-.792l1.089,1.287a3.045,3.045,0,0,1-1.262.98A4.266,4.266,0,0,1,23.8,32.11Zm-.269-6.1q-1.047,0-1.245,1.386h2.4v-.184a1.181,1.181,0,0,0-.29-.888A1.154,1.154,0,0,0,23.535,26.013ZM35.092,28.2a4.615,4.615,0,0,1-.8,2.847,2.574,2.574,0,0,1-2.168,1.064,2.206,2.206,0,0,1-1.733-.771V34.91H28.005V24.316h2.228l.071.707a2.206,2.206,0,0,1,1.8-.849,2.594,2.594,0,0,1,2.2,1.043,4.671,4.671,0,0,1,.785,2.868Zm-2.383-.149q0-2.037-1.188-2.037a1.122,1.122,0,0,0-1.132.608v3.013a1.158,1.158,0,0,0,1.146.637q1.139,0,1.174-1.966Zm6.21-5.637v1.9h1.259v1.655H38.918v3.5a.894.894,0,0,0,.156.6.835.835,0,0,0,.615.17,3.5,3.5,0,0,0,.594-.042v1.7a4.4,4.4,0,0,1-1.344.205,2.5,2.5,0,0,1-1.818-.58,2.377,2.377,0,0,1-.587-1.761v-3.8h-.976V24.316h.976v-1.9Zm6.507,9.555a2.691,2.691,0,0,1-.226-.686,2.216,2.216,0,0,1-1.839.827,2.715,2.715,0,0,1-1.839-.654,2.082,2.082,0,0,1-.757-1.644,2.14,2.14,0,0,1,.919-1.881,4.684,4.684,0,0,1,2.673-.637h.736v-.405q0-1.059-.912-1.059a.746.746,0,0,0-.849.839H40.948a2.137,2.137,0,0,1,.944-1.8,3.968,3.968,0,0,1,2.408-.692,3.479,3.479,0,0,1,2.313.714,2.484,2.484,0,0,1,.87,1.959v3.388a3.469,3.469,0,0,0,.325,1.612v.12Zm-1.492-1.556a1.329,1.329,0,0,0,.739-.191,1.2,1.2,0,0,0,.421-.431V28.567H44.4q-1.245,0-1.245,1.117a.682.682,0,0,0,.219.527A.793.793,0,0,0,43.932,30.412Zm11.974-2.207a4.664,4.664,0,0,1-.778,2.893,2.606,2.606,0,0,1-2.192,1.011,2.261,2.261,0,0,1-1.881-.926l-.1.785H48.819V21.105H51.2v3.826a2.182,2.182,0,0,1,1.719-.757A2.607,2.607,0,0,1,55.128,25.2a4.688,4.688,0,0,1,.778,2.886Zm-2.39-.152a3.111,3.111,0,0,0-.294-1.571.989.989,0,0,0-.9-.47,1.141,1.141,0,0,0-1.117.614v3.036a1.148,1.148,0,0,0,1.132.607,1.012,1.012,0,0,0,1.068-.819A5.881,5.881,0,0,0,53.515,28.054Zm5.955,3.914H57.08V21.105h2.39Zm5.17.141a3.934,3.934,0,0,1-2.85-1.05A3.627,3.627,0,0,1,60.7,28.326v-.2a4.7,4.7,0,0,1,.435-2.072,3.183,3.183,0,0,1,1.269-1.39,3.832,3.832,0,0,1,1.98-.492,3.312,3.312,0,0,1,2.546,1,3.933,3.933,0,0,1,.934,2.79v.926H63.126a1.718,1.718,0,0,0,.559,1.011,1.662,1.662,0,0,0,1.117.368,2.142,2.142,0,0,0,1.768-.792l1.089,1.287a3.045,3.045,0,0,1-1.262.98A4.266,4.266,0,0,1,64.64,32.11Zm-.269-6.1q-1.047,0-1.245,1.386h2.4v-.184a1.181,1.181,0,0,0-.29-.888A1.154,1.154,0,0,0,64.371,26.013Z" transform="translate(1031.289 9897.706)" fill="#e53935"/>
    <g id="Rectángulo_36815" data-name="Rectángulo 36815" transform="translate(1160.667 9891.449)" fill="none" stroke="#e53935" stroke-width="1">
      <rect width="95" height="47" rx="13" stroke="none"/>
      <rect x="0.5" y="0.5" width="94" height="46" rx="12.5" fill="none"/>
    </g>
    <path id="Trazado_191270" data-name="Trazado 191270" d="M7.963,10.369v3.494H5.48V3.566H9.59A4.786,4.786,0,0,1,11.679,4a3.278,3.278,0,0,1,1.407,1.238,3.38,3.38,0,0,1,.5,1.821,2.98,2.98,0,0,1-1.079,2.408,4.475,4.475,0,0,1-2.96.9Zm0-1.917H9.59a1.534,1.534,0,0,0,1.1-.361,1.34,1.34,0,0,0,.378-1.018,1.656,1.656,0,0,0-.389-1.153,1.377,1.377,0,0,0-1.061-.438H7.963Zm11.464-.085-.785-.057a1.41,1.41,0,0,0-1.443.707v4.845H14.816V6.211h2.235l.078.983A1.846,1.846,0,0,1,18.8,6.069a2.324,2.324,0,0,1,.665.085Zm.3,1.6a4.517,4.517,0,0,1,.446-2.04,3.186,3.186,0,0,1,1.28-1.376,3.855,3.855,0,0,1,1.959-.481,3.519,3.519,0,0,1,2.709,1.064,4.084,4.084,0,0,1,.99,2.9v.085a3.963,3.963,0,0,1-.994,2.84A3.528,3.528,0,0,1,23.43,14a3.568,3.568,0,0,1-2.624-.98,3.831,3.831,0,0,1-1.068-2.656Zm2.383.149a2.847,2.847,0,0,0,.332,1.556,1.107,1.107,0,0,0,.983.5q1.273,0,1.3-1.959v-.24q0-2.058-1.315-2.058-1.2,0-1.294,1.775Zm5.75-.134a4.674,4.674,0,0,1,.785-2.864,2.584,2.584,0,0,1,2.192-1.047,2.2,2.2,0,0,1,1.726.806V3h2.39V13.863H32.815l-.12-.82A2.257,2.257,0,0,1,30.828,14a2.579,2.579,0,0,1-2.164-1.047A4.823,4.823,0,0,1,27.864,9.98Zm2.383.149q0,2.037,1.188,2.037a1.173,1.173,0,0,0,1.132-.665V8.587a1.142,1.142,0,0,0-1.117-.679q-1.1,0-1.2,1.782Zm10.623,2.907A2.457,2.457,0,0,1,38.827,14a2.41,2.41,0,0,1-1.906-.732,3.079,3.079,0,0,1-.647-2.1V6.211h2.383v4.972a.857.857,0,0,0,.955.983,1.246,1.246,0,0,0,1.167-.587V6.211h2.4v7.652H40.941Zm6.846-.87a1.06,1.06,0,0,0,.778-.272,1,1,0,0,0,.269-.76H51a2.646,2.646,0,0,1-.9,2.065A3.354,3.354,0,0,1,47.773,14a3.4,3.4,0,0,1-2.631-1.047,4.124,4.124,0,0,1-.962-2.9v-.1a4.661,4.661,0,0,1,.428-2.047,3.115,3.115,0,0,1,1.234-1.365,3.68,3.68,0,0,1,1.91-.477,3.312,3.312,0,0,1,2.369.827A2.935,2.935,0,0,1,51,9.139H48.763a1.308,1.308,0,0,0-.29-.912,1,1,0,0,0-.778-.318q-.926,0-1.082,1.181a8.335,8.335,0,0,0-.05,1.033,3.273,3.273,0,0,0,.276,1.6A.955.955,0,0,0,47.717,12.166Zm7.065-7.857v1.9h1.259V7.866H54.782v3.5a.894.894,0,0,0,.156.6.835.835,0,0,0,.615.17,3.5,3.5,0,0,0,.594-.042v1.7A4.4,4.4,0,0,1,54.8,14a2.5,2.5,0,0,1-1.818-.58,2.377,2.377,0,0,1-.587-1.761v-3.8h-.976V6.211H52.4v-1.9Zm1.683,5.658a4.517,4.517,0,0,1,.446-2.04,3.186,3.186,0,0,1,1.28-1.376,3.855,3.855,0,0,1,1.959-.481,3.519,3.519,0,0,1,2.709,1.064,4.084,4.084,0,0,1,.99,2.9v.085a3.963,3.963,0,0,1-.994,2.84A3.528,3.528,0,0,1,60.164,14a3.568,3.568,0,0,1-2.624-.98,3.831,3.831,0,0,1-1.068-2.656Zm2.383.149a2.847,2.847,0,0,0,.332,1.556,1.107,1.107,0,0,0,.983.5q1.273,0,1.3-1.959v-.24q0-2.058-1.315-2.058-1.2,0-1.294,1.775ZM12.528,28.072a4.517,4.517,0,0,1,.446-2.04,3.186,3.186,0,0,1,1.28-1.376,3.855,3.855,0,0,1,1.959-.481,3.519,3.519,0,0,1,2.709,1.064,4.084,4.084,0,0,1,.99,2.9v.085a3.963,3.963,0,0,1-.994,2.84,3.528,3.528,0,0,1-2.691,1.05,3.568,3.568,0,0,1-2.624-.98,3.831,3.831,0,0,1-1.068-2.656Zm2.383.149a2.847,2.847,0,0,0,.332,1.556,1.107,1.107,0,0,0,.983.5q1.273,0,1.3-1.959v-.24q0-2.058-1.315-2.058-1.2,0-1.294,1.775Zm10.057,1.6a.551.551,0,0,0-.318-.488,4.841,4.841,0,0,0-1.209-.382,5.515,5.515,0,0,1-1.471-.52,2.464,2.464,0,0,1-.884-.781,1.866,1.866,0,0,1-.3-1.054,2.115,2.115,0,0,1,.87-1.736,3.583,3.583,0,0,1,2.277-.682,3.97,3.97,0,0,1,2.433.686,2.145,2.145,0,0,1,.919,1.8h-2.39q0-.919-.969-.919a.96.96,0,0,0-.629.209.646.646,0,0,0-.255.52.593.593,0,0,0,.311.516,2.94,2.94,0,0,0,.994.325,8.587,8.587,0,0,1,1.2.3,2.178,2.178,0,0,1,1.726,2.129,2,2,0,0,1-.93,1.7,4.078,4.078,0,0,1-2.408.658,4.162,4.162,0,0,1-1.754-.354,2.933,2.933,0,0,1-1.2-.962,2.178,2.178,0,0,1-.431-1.28h2.228a.921.921,0,0,0,.354.774,1.455,1.455,0,0,0,.87.244,1.144,1.144,0,0,0,.732-.2A.633.633,0,0,0,24.968,29.818Zm6.648.453A1.06,1.06,0,0,0,32.394,30a1,1,0,0,0,.269-.76H34.9A2.646,2.646,0,0,1,34,31.3a3.354,3.354,0,0,1-2.323.806,3.4,3.4,0,0,1-2.631-1.047,4.124,4.124,0,0,1-.962-2.9v-.1a4.661,4.661,0,0,1,.428-2.047,3.115,3.115,0,0,1,1.234-1.365,3.68,3.68,0,0,1,1.91-.477A3.312,3.312,0,0,1,34.021,25a2.935,2.935,0,0,1,.877,2.242H32.663a1.308,1.308,0,0,0-.29-.912,1,1,0,0,0-.778-.318q-.926,0-1.082,1.181a8.334,8.334,0,0,0-.05,1.033,3.273,3.273,0,0,0,.276,1.6A.955.955,0,0,0,31.616,30.271Zm8.848.87a2.457,2.457,0,0,1-2.044.969,2.41,2.41,0,0,1-1.906-.732,3.079,3.079,0,0,1-.647-2.1V24.316H38.25v4.972a.857.857,0,0,0,.955.983,1.246,1.246,0,0,0,1.167-.587V24.316h2.4v7.652H40.535ZM48.7,26.473l-.785-.057a1.41,1.41,0,0,0-1.443.707v4.845H44.092V24.316h2.235l.078.983a1.846,1.846,0,0,1,1.676-1.125,2.324,2.324,0,0,1,.665.085Zm.3,1.6a4.516,4.516,0,0,1,.446-2.04,3.186,3.186,0,0,1,1.28-1.376,3.855,3.855,0,0,1,1.959-.481A3.519,3.519,0,0,1,55.4,25.239a4.084,4.084,0,0,1,.99,2.9v.085a3.963,3.963,0,0,1-.994,2.84,3.528,3.528,0,0,1-2.691,1.05,3.568,3.568,0,0,1-2.624-.98,3.831,3.831,0,0,1-1.068-2.656Zm2.383.149a2.847,2.847,0,0,0,.332,1.556,1.107,1.107,0,0,0,.983.5q1.273,0,1.3-1.959v-.24q0-2.058-1.315-2.058-1.2,0-1.294,1.775Z" transform="translate(1173.326 9897.706)" fill="#e53935"/>
    <g id="Grupo_129720" data-name="Grupo 129720" transform="translate(976.498 9712.262) rotate(-90)">
      <path id="Trazado_183774" data-name="Trazado 183774" d="M0,0V35.758" transform="translate(38.474 3.168) rotate(90)" fill="none" stroke="#707070" stroke-width="1"/>
      <circle id="Elipse_4730" data-name="Elipse 4730" cx="3.168" cy="3.168" r="3.168" transform="translate(0 0)" fill="#707070"/>
    </g>
    <g id="Grupo_129724" data-name="Grupo 129724" transform="translate(1134.919 9742.964)">
      <g id="Grupo_129723" data-name="Grupo 129723" transform="translate(0 38.474) rotate(-90)">
        <path id="Trazado_183774-2" data-name="Trazado 183774" d="M0,0V35.758" transform="translate(38.474 3.168) rotate(90)" fill="none" stroke="#707070" stroke-width="1"/>
        <circle id="Elipse_4730-2" data-name="Elipse 4730" cx="3.168" cy="3.168" r="3.168" transform="translate(0 0)" fill="#707070"/>
      </g>
    </g>
    <g id="Grupo_129721" data-name="Grupo 129721" transform="translate(1044.091 9734.138) rotate(180)">
      <path id="Trazado_183774-3" data-name="Trazado 183774" d="M0,0V24.141" transform="translate(26.856 3.168) rotate(90)" fill="none" stroke="#707070" stroke-width="1"/>
      <circle id="Elipse_4730-3" data-name="Elipse 4730" cx="3.168" cy="3.168" r="3.168" transform="translate(0)" fill="#707070"/>
    </g>
    <rect id="Rectángulo_36816" data-name="Rectángulo 36816" width="177" height="56" rx="13" transform="translate(890.667 9621.449)" fill="#e53935"/>
    <path id="Trazado_191257" data-name="Trazado 191257" d="M37.461,11.954h4.321v1.91h-6.8V3.566h2.482Zm9.569,1.91a2.691,2.691,0,0,1-.226-.686A2.216,2.216,0,0,1,44.965,14a2.715,2.715,0,0,1-1.839-.654,2.082,2.082,0,0,1-.757-1.644,2.14,2.14,0,0,1,.919-1.881,4.684,4.684,0,0,1,2.673-.637H46.7V8.783q0-1.059-.912-1.059a.746.746,0,0,0-.849.839H42.553a2.137,2.137,0,0,1,.944-1.8,3.968,3.968,0,0,1,2.408-.692,3.479,3.479,0,0,1,2.313.714,2.484,2.484,0,0,1,.87,1.959V12.13a3.469,3.469,0,0,0,.325,1.612v.12Zm-1.492-1.556a1.329,1.329,0,0,0,.739-.191,1.2,1.2,0,0,0,.421-.431V10.461H46q-1.245,0-1.245,1.117a.682.682,0,0,0,.219.527A.793.793,0,0,0,45.538,12.307ZM61.118,10.1a4.664,4.664,0,0,1-.778,2.893A2.606,2.606,0,0,1,58.148,14a2.261,2.261,0,0,1-1.881-.926l-.1.785H54.032V3h2.383V6.826a2.182,2.182,0,0,1,1.719-.757A2.607,2.607,0,0,1,60.34,7.095a4.688,4.688,0,0,1,.778,2.886Zm-2.39-.152a3.111,3.111,0,0,0-.294-1.571.989.989,0,0,0-.9-.47,1.141,1.141,0,0,0-1.117.614v3.036a1.148,1.148,0,0,0,1.132.607,1.012,1.012,0,0,0,1.068-.819A5.882,5.882,0,0,0,58.728,9.949Zm8,3.087A2.457,2.457,0,0,1,64.683,14a2.41,2.41,0,0,1-1.906-.732,3.079,3.079,0,0,1-.647-2.1V6.211h2.383v4.972a.857.857,0,0,0,.955.983,1.246,1.246,0,0,0,1.167-.587V6.211h2.4v7.652H66.8ZM74.039,14a3.934,3.934,0,0,1-2.85-1.05A3.627,3.627,0,0,1,70.1,10.221v-.2a4.7,4.7,0,0,1,.435-2.072A3.183,3.183,0,0,1,71.8,6.561a3.832,3.832,0,0,1,1.98-.492,3.312,3.312,0,0,1,2.546,1,3.933,3.933,0,0,1,.934,2.79v.926H72.526a1.718,1.718,0,0,0,.559,1.011,1.662,1.662,0,0,0,1.117.368,2.142,2.142,0,0,0,1.768-.792l1.089,1.287a3.045,3.045,0,0,1-1.262.98A4.266,4.266,0,0,1,74.039,14Zm-.269-6.1q-1.047,0-1.245,1.386h2.4V9.111a1.181,1.181,0,0,0-.29-.888A1.154,1.154,0,0,0,73.771,7.908Zm6.641-1.7.078.9a2.6,2.6,0,0,1,2.185-1.04,2.183,2.183,0,0,1,1.786.714,3.4,3.4,0,0,1,.612,2.15v4.929h-2.39V9.033a1.291,1.291,0,0,0-.233-.852,1.08,1.08,0,0,0-.849-.272,1.137,1.137,0,0,0-1.04.552v5.4H78.177V6.211ZM90.7,13.863a2.691,2.691,0,0,1-.226-.686A2.216,2.216,0,0,1,88.637,14,2.715,2.715,0,0,1,86.8,13.35a2.082,2.082,0,0,1-.757-1.644,2.14,2.14,0,0,1,.919-1.881,4.684,4.684,0,0,1,2.673-.637h.736V8.783q0-1.059-.912-1.059a.746.746,0,0,0-.849.839H86.225a2.137,2.137,0,0,1,.944-1.8,3.968,3.968,0,0,1,2.408-.692,3.479,3.479,0,0,1,2.313.714,2.483,2.483,0,0,1,.87,1.959V12.13a3.469,3.469,0,0,0,.325,1.612v.12ZM89.21,12.307a1.329,1.329,0,0,0,.739-.191,1.2,1.2,0,0,0,.421-.431V10.461h-.693q-1.245,0-1.245,1.117a.682.682,0,0,0,.219.527A.793.793,0,0,0,89.21,12.307ZM27.263,30.271A1.06,1.06,0,0,0,28.041,30a1,1,0,0,0,.269-.76h2.235a2.646,2.646,0,0,1-.9,2.065,3.354,3.354,0,0,1-2.323.806,3.4,3.4,0,0,1-2.631-1.047,4.124,4.124,0,0,1-.962-2.9v-.1a4.661,4.661,0,0,1,.428-2.047,3.115,3.115,0,0,1,1.234-1.365,3.68,3.68,0,0,1,1.91-.477A3.312,3.312,0,0,1,29.667,25a2.935,2.935,0,0,1,.877,2.242H28.309a1.308,1.308,0,0,0-.29-.912,1,1,0,0,0-.778-.318q-.926,0-1.082,1.181a8.334,8.334,0,0,0-.05,1.033,3.273,3.273,0,0,0,.276,1.6A.955.955,0,0,0,27.263,30.271Zm6.8,1.7h-2.39V21.105h2.39Zm5.778,0a2.691,2.691,0,0,1-.226-.686,2.216,2.216,0,0,1-1.839.827,2.715,2.715,0,0,1-1.839-.654,2.082,2.082,0,0,1-.757-1.644A2.14,2.14,0,0,1,36.1,27.93a4.684,4.684,0,0,1,2.673-.637h.736v-.405q0-1.059-.912-1.059a.746.746,0,0,0-.849.839H35.368a2.137,2.137,0,0,1,.944-1.8,3.968,3.968,0,0,1,2.408-.692,3.479,3.479,0,0,1,2.313.714,2.484,2.484,0,0,1,.87,1.959v3.388a3.469,3.469,0,0,0,.325,1.612v.12Zm-1.492-1.556a1.329,1.329,0,0,0,.739-.191,1.2,1.2,0,0,0,.421-.431V28.567h-.693q-1.245,0-1.245,1.117a.682.682,0,0,0,.219.527A.793.793,0,0,0,38.352,30.412Zm9.5-3.939-.785-.057a1.41,1.41,0,0,0-1.443.707v4.845H43.239V24.316h2.235l.078.983a1.846,1.846,0,0,1,1.676-1.125,2.324,2.324,0,0,1,.665.085Zm3.374,5.5h-2.39V24.316h2.39Zm-2.532-9.625a1.064,1.064,0,0,1,.368-.835,1.564,1.564,0,0,1,1.91,0,1.131,1.131,0,0,1,0,1.669,1.564,1.564,0,0,1-1.91,0A1.064,1.064,0,0,1,48.692,22.343Zm4.555,9.625v-6h-1.11V24.316h1.11v-.255a2.922,2.922,0,0,1,1-2.341,4.013,4.013,0,0,1,2.61-.764,9.261,9.261,0,0,1,2.489.41l-.325,1.881-.4-.106A6.3,6.3,0,0,0,57,22.937q-1.365,0-1.365,1.245v.134h1.5v1.655h-1.5v6Zm7.2,0h-2.4V24.316h2.4Zm4.689-1.7A1.06,1.06,0,0,0,65.913,30a1,1,0,0,0,.269-.76h2.235a2.646,2.646,0,0,1-.9,2.065,3.354,3.354,0,0,1-2.323.806,3.4,3.4,0,0,1-2.631-1.047,4.124,4.124,0,0,1-.962-2.9v-.1a4.661,4.661,0,0,1,.428-2.047,3.115,3.115,0,0,1,1.234-1.365,3.68,3.68,0,0,1,1.91-.477A3.312,3.312,0,0,1,67.54,25a2.935,2.935,0,0,1,.877,2.242H66.182a1.308,1.308,0,0,0-.29-.912,1,1,0,0,0-.778-.318q-.926,0-1.082,1.181a8.333,8.333,0,0,0-.05,1.033,3.273,3.273,0,0,0,.276,1.6A.955.955,0,0,0,65.135,30.271Zm8.6,1.7a2.691,2.691,0,0,1-.226-.686,2.216,2.216,0,0,1-1.839.827,2.715,2.715,0,0,1-1.839-.654,2.082,2.082,0,0,1-.757-1.644,2.14,2.14,0,0,1,.919-1.881,4.684,4.684,0,0,1,2.673-.637H73.4v-.405q0-1.059-.912-1.059a.746.746,0,0,0-.849.839H69.258a2.137,2.137,0,0,1,.944-1.8,3.968,3.968,0,0,1,2.408-.692,3.479,3.479,0,0,1,2.313.714,2.483,2.483,0,0,1,.87,1.959v3.388a3.469,3.469,0,0,0,.325,1.612v.12Zm-1.492-1.556a1.329,1.329,0,0,0,.739-.191,1.2,1.2,0,0,0,.421-.431V28.567H72.71q-1.245,0-1.245,1.117a.682.682,0,0,0,.219.527A.793.793,0,0,0,72.243,30.412Zm8.1-.141A1.06,1.06,0,0,0,81.126,30a1,1,0,0,0,.269-.76h2.235a2.646,2.646,0,0,1-.9,2.065,3.354,3.354,0,0,1-2.323.806,3.4,3.4,0,0,1-2.631-1.047,4.124,4.124,0,0,1-.962-2.9v-.1a4.661,4.661,0,0,1,.428-2.047,3.115,3.115,0,0,1,1.234-1.365,3.68,3.68,0,0,1,1.91-.477A3.312,3.312,0,0,1,82.752,25a2.935,2.935,0,0,1,.877,2.242H81.395a1.308,1.308,0,0,0-.29-.912,1,1,0,0,0-.778-.318q-.926,0-1.082,1.181a8.334,8.334,0,0,0-.05,1.033,3.273,3.273,0,0,0,.276,1.6A.955.955,0,0,0,80.348,30.271Zm6.8,1.7h-2.39V24.316h2.39ZM84.62,22.343a1.064,1.064,0,0,1,.368-.835,1.564,1.564,0,0,1,1.91,0,1.131,1.131,0,0,1,0,1.669,1.564,1.564,0,0,1-1.91,0A1.064,1.064,0,0,1,84.62,22.343Zm3.7,5.729a4.517,4.517,0,0,1,.446-2.04,3.186,3.186,0,0,1,1.28-1.376A3.855,3.855,0,0,1,92,24.175a3.519,3.519,0,0,1,2.709,1.064,4.084,4.084,0,0,1,.99,2.9v.085a3.963,3.963,0,0,1-.994,2.84,3.528,3.528,0,0,1-2.691,1.05,3.568,3.568,0,0,1-2.624-.98,3.831,3.831,0,0,1-1.068-2.656Zm2.383.149a2.847,2.847,0,0,0,.332,1.556,1.107,1.107,0,0,0,.983.5q1.273,0,1.3-1.959v-.24q0-2.058-1.315-2.058-1.2,0-1.294,1.775Zm1.627-7.115h2.518L92.88,23.326l-1.945,0Zm6.613,3.211.078.9a2.6,2.6,0,0,1,2.185-1.04,2.183,2.183,0,0,1,1.786.714,3.4,3.4,0,0,1,.612,2.15v4.929h-2.39v-4.83a1.291,1.291,0,0,0-.233-.852,1.08,1.08,0,0,0-.849-.272,1.137,1.137,0,0,0-1.04.552v5.4H96.706V24.316Z" transform="translate(915.408 9633.37)" fill="#fff"/>
    <g id="Grupo_129722" data-name="Grupo 129722" transform="translate(923.841 9727.884)">
      <path id="Trazado_183774-4" data-name="Trazado 183774" d="M0,0V24.141" transform="translate(27.009 3.086) rotate(90)" fill="none" stroke="#707070" stroke-width="1"/>
      <ellipse id="Elipse_4730-4" data-name="Elipse 4730" cx="3" cy="3.5" rx="3" ry="3.5" transform="translate(-0.174 -0.435)" fill="#707070"/>
    </g>
    <rect id="Rectángulo_36817" data-name="Rectángulo 36817" width="178" height="57" rx="13" transform="translate(1048.667 9707.449)" fill="#e53935"/>
    <path id="Trazado_191260" data-name="Trazado 191260" d="M19.249,12.59a3.991,3.991,0,0,1-1.676,1.025A7.229,7.229,0,0,1,15.154,14a4.313,4.313,0,0,1-3.232-1.238,5.01,5.01,0,0,1-1.294-3.444l-.007-.891a6.145,6.145,0,0,1,.537-2.656A3.991,3.991,0,0,1,12.7,4.029a4.351,4.351,0,0,1,2.316-.612A4.562,4.562,0,0,1,18,4.3a3.731,3.731,0,0,1,1.241,2.627h-2.39A1.952,1.952,0,0,0,16.3,5.695a1.78,1.78,0,0,0-1.2-.368,1.62,1.62,0,0,0-1.443.792,4.229,4.229,0,0,0-.516,2.263V9a4.14,4.14,0,0,0,.527,2.316,1.864,1.864,0,0,0,1.658.774,2.086,2.086,0,0,0,1.443-.431v-1.6H15.041v-1.7h4.208Zm5.962-4.222-.785-.057a1.41,1.41,0,0,0-1.443.707v4.845H20.6V6.211h2.235l.078.983a1.846,1.846,0,0,1,1.676-1.125,2.324,2.324,0,0,1,.665.085Zm4.958,5.5a2.691,2.691,0,0,1-.226-.686A2.216,2.216,0,0,1,28.1,14a2.715,2.715,0,0,1-1.839-.654,2.082,2.082,0,0,1-.757-1.644,2.14,2.14,0,0,1,.919-1.881A4.684,4.684,0,0,1,29.1,9.188h.736V8.783q0-1.059-.912-1.059a.746.746,0,0,0-.849.839H25.692a2.137,2.137,0,0,1,.944-1.8,3.968,3.968,0,0,1,2.408-.692,3.479,3.479,0,0,1,2.313.714,2.483,2.483,0,0,1,.87,1.959V12.13a3.469,3.469,0,0,0,.325,1.612v.12Zm-1.492-1.556a1.329,1.329,0,0,0,.739-.191,1.2,1.2,0,0,0,.421-.431V10.461h-.693q-1.245,0-1.245,1.117a.682.682,0,0,0,.219.527A.793.793,0,0,0,28.677,12.307ZM33.246,9.98a4.674,4.674,0,0,1,.785-2.864,2.584,2.584,0,0,1,2.192-1.047,2.2,2.2,0,0,1,1.726.806V3h2.39V13.863H38.2l-.12-.82A2.257,2.257,0,0,1,36.209,14a2.579,2.579,0,0,1-2.164-1.047A4.823,4.823,0,0,1,33.246,9.98Zm2.383.149q0,2.037,1.188,2.037a1.173,1.173,0,0,0,1.132-.665V8.587a1.142,1.142,0,0,0-1.117-.679q-1.1,0-1.2,1.782Zm5.764-.163a4.516,4.516,0,0,1,.446-2.04,3.186,3.186,0,0,1,1.28-1.376,3.855,3.855,0,0,1,1.959-.481,3.519,3.519,0,0,1,2.709,1.064,4.084,4.084,0,0,1,.99,2.9v.085a3.963,3.963,0,0,1-.994,2.84A3.528,3.528,0,0,1,45.092,14a3.568,3.568,0,0,1-2.624-.98A3.831,3.831,0,0,1,41.4,10.369Zm2.383.149a2.847,2.847,0,0,0,.332,1.556,1.107,1.107,0,0,0,.983.5q1.273,0,1.3-1.959v-.24q0-2.058-1.315-2.058-1.2,0-1.294,1.775Zm9.357-.134a4.674,4.674,0,0,1,.785-2.864,2.584,2.584,0,0,1,2.192-1.047,2.2,2.2,0,0,1,1.726.806V3h2.39V13.863H58.084l-.12-.82A2.257,2.257,0,0,1,56.1,14a2.579,2.579,0,0,1-2.164-1.047A4.823,4.823,0,0,1,53.133,9.98Zm2.383.149q0,2.037,1.188,2.037a1.173,1.173,0,0,0,1.132-.665V8.587a1.142,1.142,0,0,0-1.117-.679q-1.1,0-1.2,1.782ZM65.283,14a3.934,3.934,0,0,1-2.85-1.05,3.627,3.627,0,0,1-1.089-2.733v-.2a4.7,4.7,0,0,1,.435-2.072,3.183,3.183,0,0,1,1.269-1.39,3.832,3.832,0,0,1,1.98-.492,3.312,3.312,0,0,1,2.546,1,3.933,3.933,0,0,1,.934,2.79v.926H63.77a1.718,1.718,0,0,0,.559,1.011,1.662,1.662,0,0,0,1.117.368,2.142,2.142,0,0,0,1.768-.792L68.3,12.661a3.045,3.045,0,0,1-1.262.98A4.266,4.266,0,0,1,65.283,14Zm-.269-6.1q-1.047,0-1.245,1.386h2.4V9.111a1.181,1.181,0,0,0-.29-.888A1.154,1.154,0,0,0,65.015,7.908Zm12.37,5.955a2.691,2.691,0,0,1-.226-.686A2.216,2.216,0,0,1,75.319,14a2.715,2.715,0,0,1-1.839-.654,2.082,2.082,0,0,1-.757-1.644,2.14,2.14,0,0,1,.919-1.881,4.684,4.684,0,0,1,2.673-.637h.736V8.783q0-1.059-.912-1.059a.746.746,0,0,0-.849.839H72.907a2.137,2.137,0,0,1,.944-1.8,3.968,3.968,0,0,1,2.408-.692,3.479,3.479,0,0,1,2.313.714,2.484,2.484,0,0,1,.87,1.959V12.13a3.469,3.469,0,0,0,.325,1.612v.12Zm-1.492-1.556a1.329,1.329,0,0,0,.739-.191,1.2,1.2,0,0,0,.421-.431V10.461h-.693q-1.245,0-1.245,1.117a.682.682,0,0,0,.219.527A.793.793,0,0,0,75.892,12.307Zm8.1-.141a1.06,1.06,0,0,0,.778-.272,1,1,0,0,0,.269-.76h2.235a2.646,2.646,0,0,1-.9,2.065A3.354,3.354,0,0,1,84.053,14a3.4,3.4,0,0,1-2.631-1.047,4.124,4.124,0,0,1-.962-2.9v-.1a4.661,4.661,0,0,1,.428-2.047,3.115,3.115,0,0,1,1.234-1.365,3.68,3.68,0,0,1,1.91-.477A3.312,3.312,0,0,1,86.4,6.9a2.935,2.935,0,0,1,.877,2.242H85.044a1.308,1.308,0,0,0-.29-.912,1,1,0,0,0-.778-.318q-.926,0-1.082,1.181a8.334,8.334,0,0,0-.049,1.033,3.273,3.273,0,0,0,.276,1.6A.955.955,0,0,0,84,12.166Zm6.8,1.7H88.41V6.211H90.8ZM88.269,4.238a1.064,1.064,0,0,1,.368-.835,1.564,1.564,0,0,1,1.91,0,1.064,1.064,0,0,1,.368.835,1.064,1.064,0,0,1-.368.835,1.564,1.564,0,0,1-1.91,0A1.064,1.064,0,0,1,88.269,4.238Zm3.7,5.743a4.674,4.674,0,0,1,.785-2.864,2.584,2.584,0,0,1,2.192-1.047,2.2,2.2,0,0,1,1.726.806V3h2.39V13.863H96.918l-.12-.82A2.257,2.257,0,0,1,94.931,14a2.579,2.579,0,0,1-2.164-1.047A4.823,4.823,0,0,1,91.967,9.98Zm2.383.149q0,2.037,1.188,2.037A1.173,1.173,0,0,0,96.67,11.5V8.587a1.142,1.142,0,0,0-1.117-.679q-1.1,0-1.2,1.782ZM104.118,14a3.934,3.934,0,0,1-2.85-1.05,3.627,3.627,0,0,1-1.089-2.733v-.2a4.7,4.7,0,0,1,.435-2.072,3.183,3.183,0,0,1,1.269-1.39,3.832,3.832,0,0,1,1.98-.492,3.312,3.312,0,0,1,2.546,1,3.933,3.933,0,0,1,.934,2.79v.926H102.6a1.718,1.718,0,0,0,.559,1.011,1.662,1.662,0,0,0,1.117.368,2.142,2.142,0,0,0,1.768-.792l1.089,1.287a3.045,3.045,0,0,1-1.262.98A4.266,4.266,0,0,1,104.118,14Zm-.269-6.1q-1.047,0-1.245,1.386h2.4V9.111a1.181,1.181,0,0,0-.29-.888A1.154,1.154,0,0,0,103.849,7.908Zm7.263,4.116H114.6v1.839h-6.5v-1.33l3.395-4.484h-3.246V6.211h6.273V7.5ZM36.849,28.086a4.675,4.675,0,0,1,.785-2.864,2.584,2.584,0,0,1,2.192-1.047,2.2,2.2,0,0,1,1.726.806V21.105h2.39V31.968H41.8l-.12-.82a2.257,2.257,0,0,1-1.867.962,2.579,2.579,0,0,1-2.164-1.047A4.823,4.823,0,0,1,36.849,28.086Zm2.383.149q0,2.037,1.188,2.037a1.173,1.173,0,0,0,1.132-.665V26.692a1.142,1.142,0,0,0-1.117-.679q-1.1,0-1.2,1.782ZM49,32.11a3.934,3.934,0,0,1-2.85-1.05,3.627,3.627,0,0,1-1.089-2.733v-.2a4.7,4.7,0,0,1,.435-2.072,3.183,3.183,0,0,1,1.269-1.39,3.832,3.832,0,0,1,1.98-.492,3.312,3.312,0,0,1,2.546,1,3.932,3.932,0,0,1,.934,2.79v.926H47.486a1.718,1.718,0,0,0,.559,1.011,1.662,1.662,0,0,0,1.117.368,2.142,2.142,0,0,0,1.768-.792l1.089,1.287a3.045,3.045,0,0,1-1.262.98A4.266,4.266,0,0,1,49,32.11Zm-.269-6.1q-1.047,0-1.245,1.386h2.4v-.184a1.181,1.181,0,0,0-.29-.888A1.154,1.154,0,0,0,48.73,26.013ZM55.7,31.968h-2.39V21.105H55.7Zm7.638-7.652V32.23a2.778,2.778,0,0,1-.778,2.093,2.989,2.989,0,0,1-2.15.736,5.076,5.076,0,0,1-1.125-.12v-1.8a4.56,4.56,0,0,0,.672.064.872.872,0,0,0,.99-.983v-7.9Zm-2.567-1.973a1.064,1.064,0,0,1,.368-.835,1.564,1.564,0,0,1,1.91,0,1.131,1.131,0,0,1,0,1.669,1.564,1.564,0,0,1-1.91,0A1.064,1.064,0,0,1,60.768,22.343Zm8.473,8.8a2.457,2.457,0,0,1-2.044.969,2.41,2.41,0,0,1-1.906-.732,3.079,3.079,0,0,1-.647-2.1V24.316h2.383v4.972a.857.857,0,0,0,.955.983,1.246,1.246,0,0,0,1.167-.587V24.316h2.4v7.652H69.311Zm3.331-3.055a5.167,5.167,0,0,1,.382-2.051,3.075,3.075,0,0,1,1.1-1.376,2.89,2.89,0,0,1,1.662-.484,2.3,2.3,0,0,1,1.867.806l.085-.665h2.164v7.362a3.226,3.226,0,0,1-.47,1.757A3.018,3.018,0,0,1,78,34.582a5,5,0,0,1-2.065.4,4.317,4.317,0,0,1-1.63-.318,2.943,2.943,0,0,1-1.206-.827l1-1.4a2.185,2.185,0,0,0,1.754.785,1.419,1.419,0,0,0,1.584-1.627v-.24a2.238,2.238,0,0,1-1.733.757,2.766,2.766,0,0,1-2.263-1.071,4.439,4.439,0,0,1-.863-2.868Zm2.39.149a2.722,2.722,0,0,0,.354,1.489,1.116,1.116,0,0,0,.99.548,1.266,1.266,0,0,0,1.125-.516V26.537a1.234,1.234,0,0,0-1.11-.523,1.123,1.123,0,0,0-1,.569A3.1,3.1,0,0,0,74.962,28.234Zm5.92-.163a4.516,4.516,0,0,1,.446-2.04,3.186,3.186,0,0,1,1.28-1.376,3.855,3.855,0,0,1,1.959-.481,3.519,3.519,0,0,1,2.709,1.064,4.084,4.084,0,0,1,.99,2.9v.085a3.963,3.963,0,0,1-.994,2.84,3.528,3.528,0,0,1-2.691,1.05,3.568,3.568,0,0,1-2.624-.98,3.831,3.831,0,0,1-1.068-2.656Zm2.383.149a2.847,2.847,0,0,0,.332,1.556,1.107,1.107,0,0,0,.983.5q1.273,0,1.3-1.959v-.24q0-2.058-1.315-2.058-1.2,0-1.294,1.775Z" transform="translate(1075.071 9719.37)" fill="#fff"/>
    <g id="Grupo_129725" data-name="Grupo 129725" transform="translate(828.941 9742.964)">
      <g id="Grupo_129723-2" data-name="Grupo 129723" transform="translate(0 38.474) rotate(-90)">
        <path id="Trazado_183774-5" data-name="Trazado 183774" d="M0,0V35.758" transform="translate(38.474 3.168) rotate(90)" fill="none" stroke="#707070" stroke-width="1"/>
        <circle id="Elipse_4730-5" data-name="Elipse 4730" cx="3.168" cy="3.168" r="3.168" transform="translate(0 0)" fill="#707070"/>
      </g>
    </g>
    <g id="Grupo_129726" data-name="Grupo 129726" transform="translate(747.467 9822.251)">
      <g id="Grupo_129723-3" data-name="Grupo 129723" transform="translate(0 22.632) rotate(-90)">
        <path id="Trazado_183774-6" data-name="Trazado 183774" d="M0,0V19.916" transform="translate(22.632 3.168) rotate(90)" fill="none" stroke="#707070" stroke-width="1"/>
        <circle id="Elipse_4730-6" data-name="Elipse 4730" cx="3.168" cy="3.168" r="3.168" transform="translate(0 0)" fill="#707070"/>
      </g>
    </g>
    <g id="Grupo_129731" data-name="Grupo 129731" transform="translate(828.884 9913.38)">
      <g id="Grupo_129723-4" data-name="Grupo 129723" transform="translate(0 22.156) rotate(-90)">
        <path id="Trazado_183774-7" data-name="Trazado 183774" d="M0,0V19.916" transform="translate(22.156 3.225) rotate(90)" fill="none" stroke="#707070" stroke-width="1"/>
        <circle id="Elipse_4730-7" data-name="Elipse 4730" cx="3" cy="3" r="3" transform="translate(0.086 -0.217)" fill="#707070"/>
      </g>
    </g>
    <g id="Grupo_129733" data-name="Grupo 129733" transform="translate(1064.71 9866.307)">
      <g id="Grupo_129723-5" data-name="Grupo 129723" transform="translate(0 22.273) rotate(-90)">
        <path id="Trazado_183774-8" data-name="Trazado 183774" d="M0,0V19.916" transform="translate(22.273 2.767) rotate(90)" fill="none" stroke="#707070" stroke-width="1"/>
        <circle id="Elipse_4730-8" data-name="Elipse 4730" cx="3" cy="3" r="3" transform="translate(0.13 -0.043)" fill="#707070"/>
      </g>
    </g>
    <rect id="Rectángulo_36818" data-name="Rectángulo 36818" width="177" height="57" rx="13" transform="translate(743.667 9707.449)" fill="#e53935"/>
    <path id="Trazado_191259" data-name="Trazado 191259" d="M14.869,5.542H11.778v8.381H9.3V5.542H6.262V3.625h8.607Zm4.01,8.522a3.934,3.934,0,0,1-2.85-1.05,3.627,3.627,0,0,1-1.089-2.733v-.2a4.7,4.7,0,0,1,.435-2.072,3.183,3.183,0,0,1,1.269-1.39,3.832,3.832,0,0,1,1.98-.492,3.312,3.312,0,0,1,2.546,1,3.933,3.933,0,0,1,.934,2.79v.926H17.365a1.718,1.718,0,0,0,.559,1.011,1.662,1.662,0,0,0,1.117.368,2.142,2.142,0,0,0,1.768-.792L21.9,12.72a3.045,3.045,0,0,1-1.262.98A4.266,4.266,0,0,1,18.879,14.064Zm-.269-6.1q-1.047,0-1.245,1.386h2.4V9.17a1.181,1.181,0,0,0-.29-.888A1.154,1.154,0,0,0,18.61,7.967Zm6.7-1.7.078.9a2.631,2.631,0,0,1,2.185-1.04,1.937,1.937,0,0,1,1.959,1.153,2.547,2.547,0,0,1,2.249-1.153q2.327,0,2.39,2.815v4.979h-2.39V9.092a1.459,1.459,0,0,0-.2-.856.843.843,0,0,0-.721-.269,1.129,1.129,0,0,0-1.054.629l.007.1v5.226h-2.39V9.106a1.533,1.533,0,0,0-.191-.87.841.841,0,0,0-.728-.269,1.143,1.143,0,0,0-1.047.629v5.325H23.08V6.27Zm17.327,3.883a4.615,4.615,0,0,1-.8,2.847,2.574,2.574,0,0,1-2.168,1.064,2.206,2.206,0,0,1-1.733-.771v3.572H35.555V6.27h2.228l.071.707a2.206,2.206,0,0,1,1.8-.849,2.594,2.594,0,0,1,2.2,1.043,4.672,4.672,0,0,1,.785,2.868ZM40.258,10q0-2.037-1.188-2.037a1.122,1.122,0,0,0-1.132.608v3.013a1.158,1.158,0,0,0,1.146.637q1.139,0,1.174-1.966Zm7.136,4.06a3.934,3.934,0,0,1-2.85-1.05,3.627,3.627,0,0,1-1.089-2.733v-.2A4.7,4.7,0,0,1,43.89,8.01a3.183,3.183,0,0,1,1.269-1.39,3.832,3.832,0,0,1,1.98-.492,3.312,3.312,0,0,1,2.546,1,3.933,3.933,0,0,1,.934,2.79v.926H45.881a1.718,1.718,0,0,0,.559,1.011,1.662,1.662,0,0,0,1.117.368,2.142,2.142,0,0,0,1.768-.792l1.089,1.287a3.045,3.045,0,0,1-1.262.98A4.266,4.266,0,0,1,47.394,14.064Zm-.269-6.1q-1.047,0-1.245,1.386h2.4V9.17A1.181,1.181,0,0,0,48,8.282,1.154,1.154,0,0,0,47.126,7.967Zm9.081.46-.785-.057a1.41,1.41,0,0,0-1.443.707v4.845H51.6V6.27H53.83l.078.983a1.846,1.846,0,0,1,1.676-1.125,2.324,2.324,0,0,1,.665.085Zm4.958,5.5a2.691,2.691,0,0,1-.226-.686,2.216,2.216,0,0,1-1.839.827,2.715,2.715,0,0,1-1.839-.654,2.082,2.082,0,0,1-.757-1.644,2.14,2.14,0,0,1,.919-1.881A4.684,4.684,0,0,1,60.1,9.248h.736V8.842q0-1.059-.912-1.059a.746.746,0,0,0-.849.839H56.687a2.137,2.137,0,0,1,.944-1.8,3.968,3.968,0,0,1,2.408-.692,3.479,3.479,0,0,1,2.313.714,2.483,2.483,0,0,1,.87,1.959V12.19a3.469,3.469,0,0,0,.325,1.612v.12Zm-1.492-1.556a1.329,1.329,0,0,0,.739-.191,1.2,1.2,0,0,0,.421-.431V10.521h-.693q-1.245,0-1.245,1.117a.682.682,0,0,0,.219.527A.793.793,0,0,0,59.672,12.366Zm7.645-8v1.9h1.259V7.925H67.317v3.5a.894.894,0,0,0,.156.6.835.835,0,0,0,.615.17,3.5,3.5,0,0,0,.594-.042v1.7a4.4,4.4,0,0,1-1.344.205,2.5,2.5,0,0,1-1.818-.58,2.377,2.377,0,0,1-.587-1.761v-3.8h-.976V6.27h.976v-1.9Zm6.754,8.727a2.457,2.457,0,0,1-2.044.969,2.41,2.41,0,0,1-1.906-.732,3.079,3.079,0,0,1-.647-2.1V6.27h2.383v4.972a.857.857,0,0,0,.955.983,1.246,1.246,0,0,0,1.167-.587V6.27h2.4v7.652H74.142Zm8.239-4.668-.785-.057a1.41,1.41,0,0,0-1.443.707v4.845H77.7V6.27h2.235l.078.983a1.846,1.846,0,0,1,1.676-1.125,2.324,2.324,0,0,1,.665.085Zm4.958,5.5a2.691,2.691,0,0,1-.226-.686,2.216,2.216,0,0,1-1.839.827,2.715,2.715,0,0,1-1.839-.654,2.082,2.082,0,0,1-.757-1.644,2.14,2.14,0,0,1,.919-1.881A4.684,4.684,0,0,1,86.2,9.248h.736V8.842q0-1.059-.912-1.059a.746.746,0,0,0-.849.839H82.792a2.137,2.137,0,0,1,.944-1.8,3.968,3.968,0,0,1,2.408-.692,3.479,3.479,0,0,1,2.313.714,2.484,2.484,0,0,1,.87,1.959V12.19a3.469,3.469,0,0,0,.325,1.612v.12Zm-1.492-1.556a1.329,1.329,0,0,0,.739-.191,1.2,1.2,0,0,0,.421-.431V10.521h-.693Q85,10.521,85,11.638a.682.682,0,0,0,.219.527A.793.793,0,0,0,85.776,12.366Zm11.712-.141a1.06,1.06,0,0,0,.778-.272,1,1,0,0,0,.269-.76h2.235a2.646,2.646,0,0,1-.9,2.065,3.354,3.354,0,0,1-2.323.806,3.4,3.4,0,0,1-2.631-1.047,4.124,4.124,0,0,1-.962-2.9v-.1a4.661,4.661,0,0,1,.428-2.047,3.115,3.115,0,0,1,1.234-1.365,3.68,3.68,0,0,1,1.91-.477,3.312,3.312,0,0,1,2.369.827,2.935,2.935,0,0,1,.877,2.242H98.535a1.308,1.308,0,0,0-.29-.912,1,1,0,0,0-.778-.318q-.926,0-1.082,1.181a8.332,8.332,0,0,0-.05,1.033,3.273,3.273,0,0,0,.276,1.6A.955.955,0,0,0,97.488,12.225Zm3.989-2.2a4.516,4.516,0,0,1,.446-2.04A3.186,3.186,0,0,1,103.2,6.61a3.855,3.855,0,0,1,1.959-.481,3.519,3.519,0,0,1,2.709,1.064,4.084,4.084,0,0,1,.99,2.9v.085a3.963,3.963,0,0,1-.994,2.84,3.528,3.528,0,0,1-2.691,1.05,3.568,3.568,0,0,1-2.624-.98,3.831,3.831,0,0,1-1.068-2.656Zm2.383.149a2.847,2.847,0,0,0,.332,1.556,1.107,1.107,0,0,0,.983.5q1.273,0,1.3-1.959v-.24q0-2.058-1.315-2.058-1.2,0-1.294,1.775Zm8.239-3.9.078.9a2.6,2.6,0,0,1,2.185-1.04,2.183,2.183,0,0,1,1.786.714,3.4,3.4,0,0,1,.612,2.15v4.929h-2.39V9.092a1.291,1.291,0,0,0-.233-.852,1.08,1.08,0,0,0-.849-.272,1.137,1.137,0,0,0-1.04.552v5.4h-2.383V6.27ZM6.2,26.532l-.785-.057a1.41,1.41,0,0,0-1.443.707v4.845H1.594V24.375H3.829l.078.983a1.846,1.846,0,0,1,1.676-1.125,2.324,2.324,0,0,1,.665.085Zm4.427,5.637a3.934,3.934,0,0,1-2.85-1.05,3.627,3.627,0,0,1-1.089-2.733v-.2a4.7,4.7,0,0,1,.435-2.072A3.183,3.183,0,0,1,8.4,24.725a3.832,3.832,0,0,1,1.98-.492,3.312,3.312,0,0,1,2.546,1,3.932,3.932,0,0,1,.934,2.79v.926H9.119a1.718,1.718,0,0,0,.559,1.011,1.662,1.662,0,0,0,1.117.368,2.142,2.142,0,0,0,1.768-.792l1.089,1.287a3.045,3.045,0,0,1-1.262.98A4.266,4.266,0,0,1,10.632,32.169Zm-.269-6.1q-1.047,0-1.245,1.386h2.4v-.184a1.181,1.181,0,0,0-.29-.888A1.154,1.154,0,0,0,10.363,26.073Zm8.459,3.8a.551.551,0,0,0-.318-.488,4.841,4.841,0,0,0-1.209-.382,5.515,5.515,0,0,1-1.471-.52,2.464,2.464,0,0,1-.884-.781,1.866,1.866,0,0,1-.3-1.054,2.115,2.115,0,0,1,.87-1.736,3.583,3.583,0,0,1,2.277-.682,3.97,3.97,0,0,1,2.433.686,2.145,2.145,0,0,1,.919,1.8h-2.39q0-.919-.969-.919a.96.96,0,0,0-.629.209.646.646,0,0,0-.255.52.593.593,0,0,0,.311.516,2.94,2.94,0,0,0,.994.325,8.587,8.587,0,0,1,1.2.3,2.178,2.178,0,0,1,1.726,2.129,2,2,0,0,1-.93,1.7,4.078,4.078,0,0,1-2.408.658,4.162,4.162,0,0,1-1.754-.354,2.933,2.933,0,0,1-1.2-.962,2.178,2.178,0,0,1-.431-1.28h2.228a.921.921,0,0,0,.354.774,1.455,1.455,0,0,0,.87.244,1.144,1.144,0,0,0,.732-.2A.633.633,0,0,0,18.822,29.878Zm10.517-1.62a4.615,4.615,0,0,1-.8,2.847,2.574,2.574,0,0,1-2.168,1.064,2.206,2.206,0,0,1-1.733-.771V34.97H22.252V24.375H24.48l.071.707a2.206,2.206,0,0,1,1.8-.849,2.594,2.594,0,0,1,2.2,1.043,4.672,4.672,0,0,1,.785,2.868Zm-2.383-.149q0-2.037-1.188-2.037a1.122,1.122,0,0,0-1.132.608v3.013a1.158,1.158,0,0,0,1.146.637q1.139,0,1.174-1.966Zm7.136,4.06a3.934,3.934,0,0,1-2.85-1.05,3.627,3.627,0,0,1-1.089-2.733v-.2a4.7,4.7,0,0,1,.435-2.072,3.183,3.183,0,0,1,1.269-1.39,3.832,3.832,0,0,1,1.98-.492,3.312,3.312,0,0,1,2.546,1,3.932,3.932,0,0,1,.934,2.79v.926H32.578a1.718,1.718,0,0,0,.559,1.011,1.662,1.662,0,0,0,1.117.368,2.142,2.142,0,0,0,1.768-.792l1.089,1.287a3.045,3.045,0,0,1-1.262.98A4.266,4.266,0,0,1,34.091,32.169Zm-.269-6.1q-1.047,0-1.245,1.386h2.4v-.184a1.181,1.181,0,0,0-.29-.888A1.154,1.154,0,0,0,33.822,26.073ZM41.51,30.33a1.06,1.06,0,0,0,.778-.272,1,1,0,0,0,.269-.76h2.235a2.646,2.646,0,0,1-.9,2.065,3.354,3.354,0,0,1-2.323.806,3.4,3.4,0,0,1-2.631-1.047,4.124,4.124,0,0,1-.962-2.9v-.1a4.661,4.661,0,0,1,.428-2.047,3.115,3.115,0,0,1,1.234-1.365,3.68,3.68,0,0,1,1.91-.477,3.312,3.312,0,0,1,2.369.827,2.935,2.935,0,0,1,.877,2.242H42.557a1.308,1.308,0,0,0-.29-.912,1,1,0,0,0-.778-.318q-.926,0-1.082,1.181a8.335,8.335,0,0,0-.05,1.033,3.273,3.273,0,0,0,.276,1.6A.955.955,0,0,0,41.51,30.33Zm7.065-7.857v1.9h1.259V26.03H48.575v3.5a.894.894,0,0,0,.156.6.835.835,0,0,0,.615.17,3.5,3.5,0,0,0,.594-.042v1.7a4.4,4.4,0,0,1-1.344.205,2.5,2.5,0,0,1-1.818-.58,2.377,2.377,0,0,1-.587-1.761v-3.8h-.976V24.375h.976v-1.9Zm1.683,5.658a4.516,4.516,0,0,1,.446-2.04,3.186,3.186,0,0,1,1.28-1.376,3.855,3.855,0,0,1,1.959-.481A3.519,3.519,0,0,1,56.652,25.3a4.084,4.084,0,0,1,.99,2.9v.085a3.963,3.963,0,0,1-.994,2.84,3.528,3.528,0,0,1-2.691,1.05,3.568,3.568,0,0,1-2.624-.98,3.831,3.831,0,0,1-1.068-2.656Zm2.383.149a2.847,2.847,0,0,0,.332,1.556,1.107,1.107,0,0,0,.983.5q1.273,0,1.3-1.959v-.24q0-2.058-1.315-2.058-1.2,0-1.294,1.775ZM66.61,32.028a2.691,2.691,0,0,1-.226-.686,2.216,2.216,0,0,1-1.839.827,2.715,2.715,0,0,1-1.839-.654,2.082,2.082,0,0,1-.757-1.644,2.14,2.14,0,0,1,.919-1.881,4.684,4.684,0,0,1,2.673-.637h.736v-.405q0-1.059-.912-1.059a.746.746,0,0,0-.849.839H62.133a2.137,2.137,0,0,1,.944-1.8,3.968,3.968,0,0,1,2.408-.692,3.479,3.479,0,0,1,2.313.714,2.483,2.483,0,0,1,.87,1.959v3.388a3.469,3.469,0,0,0,.325,1.612v.12Zm-1.492-1.556a1.329,1.329,0,0,0,.739-.191,1.2,1.2,0,0,0,.421-.431V28.626h-.693q-1.245,0-1.245,1.117a.682.682,0,0,0,.219.527A.793.793,0,0,0,65.118,30.472ZM72.5,32.028h-2.39V21.164H72.5Zm7.85-9.555v1.9H81.61V26.03H80.352v3.5a.894.894,0,0,0,.156.6.835.835,0,0,0,.615.17,3.5,3.5,0,0,0,.594-.042v1.7a4.4,4.4,0,0,1-1.344.205,2.5,2.5,0,0,1-1.818-.58,2.377,2.377,0,0,1-.587-1.761v-3.8h-.976V24.375h.976v-1.9Zm4.71,9.555h-2.39V24.375h2.39ZM82.53,22.4a1.064,1.064,0,0,1,.368-.835,1.564,1.564,0,0,1,1.91,0,1.131,1.131,0,0,1,0,1.669,1.564,1.564,0,0,1-1.91,0A1.064,1.064,0,0,1,82.53,22.4Zm7.7,9.767a3.934,3.934,0,0,1-2.85-1.05,3.627,3.627,0,0,1-1.089-2.733v-.2a4.7,4.7,0,0,1,.435-2.072A3.183,3.183,0,0,1,88,24.725a3.832,3.832,0,0,1,1.98-.492,3.312,3.312,0,0,1,2.546,1,3.932,3.932,0,0,1,.934,2.79v.926H88.718a1.718,1.718,0,0,0,.559,1.011,1.662,1.662,0,0,0,1.117.368,2.142,2.142,0,0,0,1.768-.792l1.089,1.287a3.045,3.045,0,0,1-1.262.98A4.266,4.266,0,0,1,90.232,32.169Zm-.269-6.1q-1.047,0-1.245,1.386h2.4v-.184a1.181,1.181,0,0,0-.29-.888A1.154,1.154,0,0,0,89.963,26.073Zm6.7-1.7.078.9a2.631,2.631,0,0,1,2.185-1.04,1.937,1.937,0,0,1,1.959,1.153,2.547,2.547,0,0,1,2.249-1.153q2.327,0,2.39,2.815v4.979h-2.39V27.2a1.459,1.459,0,0,0-.2-.856.843.843,0,0,0-.721-.269,1.129,1.129,0,0,0-1.054.629l.007.1v5.226h-2.39V27.211a1.533,1.533,0,0,0-.191-.87.841.841,0,0,0-.728-.269,1.143,1.143,0,0,0-1.047.629v5.325H94.433V24.375Zm17.327,3.883a4.615,4.615,0,0,1-.8,2.847,2.574,2.574,0,0,1-2.168,1.064,2.206,2.206,0,0,1-1.733-.771V34.97h-2.383V24.375h2.228l.071.707a2.206,2.206,0,0,1,1.8-.849,2.594,2.594,0,0,1,2.2,1.043,4.671,4.671,0,0,1,.785,2.868Zm-2.383-.149q0-2.037-1.188-2.037a1.122,1.122,0,0,0-1.132.608v3.013a1.158,1.158,0,0,0,1.146.637q1.139,0,1.174-1.966Zm3.133.021a4.517,4.517,0,0,1,.446-2.04,3.186,3.186,0,0,1,1.28-1.376,3.855,3.855,0,0,1,1.959-.481,3.519,3.519,0,0,1,2.709,1.064,4.084,4.084,0,0,1,.99,2.9v.085a3.963,3.963,0,0,1-.994,2.84,3.528,3.528,0,0,1-2.691,1.05,3.568,3.568,0,0,1-2.624-.98,3.831,3.831,0,0,1-1.068-2.656Zm2.383.149a2.847,2.847,0,0,0,.332,1.556,1.107,1.107,0,0,0,.983.5q1.273,0,1.3-1.959v-.24q0-2.058-1.315-2.058-1.2,0-1.294,1.775Z" transform="translate(769.948 9719.311)" fill="#fff"/>
    <g id="Grupo_129727" data-name="Grupo 129727" transform="translate(910.414 9822.251)">
      <g id="Grupo_129723-6" data-name="Grupo 129723" transform="translate(0 22.632) rotate(-90)">
        <path id="Trazado_183774-9" data-name="Trazado 183774" d="M0,0V19.916" transform="translate(22.632 3.168) rotate(90)" fill="none" stroke="#707070" stroke-width="1"/>
        <circle id="Elipse_4730-9" data-name="Elipse 4730" cx="3.168" cy="3.168" r="3.168" transform="translate(0 0)" fill="#707070"/>
      </g>
    </g>
    <g id="Grupo_129728" data-name="Grupo 129728" transform="translate(828.941 9822.552)">
      <g id="Grupo_129723-7" data-name="Grupo 129723" transform="translate(0 62.086) rotate(-90)">
        <path id="Trazado_183774-10" data-name="Trazado 183774" d="M0,0V59.37" transform="translate(62.086 3.168) rotate(90)" fill="none" stroke="#707070" stroke-width="1"/>
        <circle id="Elipse_4730-10" data-name="Elipse 4730" cx="3.168" cy="3.168" r="3.168" transform="translate(0 0)" fill="#707070"/>
      </g>
    </g>
    <g id="Grupo_129729" data-name="Grupo 129729" transform="translate(1064.309 9814.707)">
      <g id="Grupo_129723-8" data-name="Grupo 129723" transform="translate(0 30.176) rotate(-90)">
        <path id="Trazado_183774-11" data-name="Trazado 183774" d="M0,0V27.46" transform="translate(30.176 3.168) rotate(90)" fill="none" stroke="#707070" stroke-width="1"/>
        <circle id="Elipse_4730-11" data-name="Elipse 4730" cx="3.168" cy="3.168" r="3.168" transform="translate(0 0)" fill="#707070"/>
      </g>
    </g>
    <g id="Grupo_129730" data-name="Grupo 129730" transform="translate(1206.435 9815.31)">
      <g id="Grupo_129723-9" data-name="Grupo 129723" transform="translate(0 29.572) rotate(-90)">
        <path id="Trazado_183774-12" data-name="Trazado 183774" d="M0,0V26.856" transform="translate(29.572 3.168) rotate(90)" fill="none" stroke="#707070" stroke-width="1"/>
        <circle id="Elipse_4730-12" data-name="Elipse 4730" cx="3.168" cy="3.168" r="3.168" transform="translate(0 0)" fill="#707070"/>
      </g>
    </g>
    <g id="Rectángulo_36819" data-name="Rectángulo 36819" transform="translate(780.667 9891.449)" fill="#fff" stroke="#e53935" stroke-width="1">
      <rect width="101" height="31" rx="13" stroke="none"/>
      <rect x="0.5" y="0.5" width="100" height="30" rx="12.5" fill="none"/>
    </g>
    <path id="Trazado_191265" data-name="Trazado 191265" d="M12.009,5.542H8.919v8.381H6.436V5.542H3.4V3.625h8.607Zm4.01,8.522a3.934,3.934,0,0,1-2.85-1.05A3.627,3.627,0,0,1,12.08,10.28v-.2a4.7,4.7,0,0,1,.435-2.072,3.183,3.183,0,0,1,1.269-1.39,3.832,3.832,0,0,1,1.98-.492,3.312,3.312,0,0,1,2.546,1,3.933,3.933,0,0,1,.934,2.79v.926H14.506a1.718,1.718,0,0,0,.559,1.011,1.662,1.662,0,0,0,1.117.368,2.142,2.142,0,0,0,1.768-.792l1.089,1.287a3.045,3.045,0,0,1-1.262.98A4.266,4.266,0,0,1,16.019,14.064Zm-.269-6.1q-1.047,0-1.245,1.386h2.4V9.17a1.181,1.181,0,0,0-.29-.888A1.154,1.154,0,0,0,15.751,7.967Zm6.7-1.7.078.9a2.631,2.631,0,0,1,2.185-1.04,1.937,1.937,0,0,1,1.959,1.153,2.547,2.547,0,0,1,2.249-1.153q2.327,0,2.39,2.815v4.979h-2.39V9.092a1.459,1.459,0,0,0-.2-.856.843.843,0,0,0-.721-.269,1.129,1.129,0,0,0-1.054.629l.007.1v5.226H24.57V9.106a1.533,1.533,0,0,0-.191-.87.841.841,0,0,0-.728-.269A1.143,1.143,0,0,0,22.6,8.6v5.325H20.22V6.27Zm17.327,3.883A4.615,4.615,0,0,1,38.98,13a2.574,2.574,0,0,1-2.168,1.064,2.206,2.206,0,0,1-1.733-.771v3.572H32.7V6.27h2.228l.071.707a2.206,2.206,0,0,1,1.8-.849A2.594,2.594,0,0,1,39,7.172a4.672,4.672,0,0,1,.785,2.868ZM37.4,10q0-2.037-1.188-2.037a1.122,1.122,0,0,0-1.132.608v3.013a1.158,1.158,0,0,0,1.146.637q1.139,0,1.174-1.966Zm7.136,4.06a3.934,3.934,0,0,1-2.85-1.05A3.627,3.627,0,0,1,40.6,10.28v-.2a4.7,4.7,0,0,1,.435-2.072A3.183,3.183,0,0,1,42.3,6.62a3.832,3.832,0,0,1,1.98-.492,3.312,3.312,0,0,1,2.546,1,3.933,3.933,0,0,1,.934,2.79v.926H43.022a1.718,1.718,0,0,0,.559,1.011,1.662,1.662,0,0,0,1.117.368,2.142,2.142,0,0,0,1.768-.792l1.089,1.287a3.045,3.045,0,0,1-1.262.98A4.266,4.266,0,0,1,44.535,14.064Zm-.269-6.1q-1.047,0-1.245,1.386h2.4V9.17a1.181,1.181,0,0,0-.29-.888A1.154,1.154,0,0,0,44.266,7.967Zm9.081.46-.785-.057a1.41,1.41,0,0,0-1.443.707v4.845H48.736V6.27h2.235l.078.983a1.846,1.846,0,0,1,1.676-1.125,2.324,2.324,0,0,1,.665.085Zm4.958,5.5a2.691,2.691,0,0,1-.226-.686,2.216,2.216,0,0,1-1.839.827A2.715,2.715,0,0,1,54.4,13.41a2.082,2.082,0,0,1-.757-1.644,2.14,2.14,0,0,1,.919-1.881,4.684,4.684,0,0,1,2.673-.637h.736V8.842q0-1.059-.912-1.059a.746.746,0,0,0-.849.839H53.828a2.137,2.137,0,0,1,.944-1.8,3.968,3.968,0,0,1,2.408-.692,3.479,3.479,0,0,1,2.313.714,2.483,2.483,0,0,1,.87,1.959V12.19a3.469,3.469,0,0,0,.325,1.612v.12Zm-1.492-1.556a1.329,1.329,0,0,0,.739-.191,1.2,1.2,0,0,0,.421-.431V10.521H57.28q-1.245,0-1.245,1.117a.682.682,0,0,0,.219.527A.793.793,0,0,0,56.813,12.366Zm7.645-8v1.9h1.259V7.925H64.458v3.5a.894.894,0,0,0,.156.6.835.835,0,0,0,.615.17,3.5,3.5,0,0,0,.594-.042v1.7a4.4,4.4,0,0,1-1.344.205,2.5,2.5,0,0,1-1.818-.58,2.377,2.377,0,0,1-.587-1.761v-3.8H61.1V6.27h.976v-1.9Zm6.754,8.727a2.457,2.457,0,0,1-2.044.969,2.41,2.41,0,0,1-1.906-.732,3.079,3.079,0,0,1-.647-2.1V6.27H69v4.972a.857.857,0,0,0,.955.983,1.246,1.246,0,0,0,1.167-.587V6.27h2.4v7.652H71.283Zm8.239-4.668-.785-.057a1.41,1.41,0,0,0-1.443.707v4.845H74.84V6.27h2.235l.078.983a1.846,1.846,0,0,1,1.676-1.125,2.324,2.324,0,0,1,.665.085Zm4.958,5.5a2.691,2.691,0,0,1-.226-.686,2.216,2.216,0,0,1-1.839.827,2.715,2.715,0,0,1-1.839-.654,2.082,2.082,0,0,1-.757-1.644,2.14,2.14,0,0,1,.919-1.881,4.684,4.684,0,0,1,2.673-.637h.736V8.842q0-1.059-.912-1.059a.746.746,0,0,0-.849.839H79.932a2.137,2.137,0,0,1,.944-1.8,3.968,3.968,0,0,1,2.408-.692,3.479,3.479,0,0,1,2.313.714,2.483,2.483,0,0,1,.87,1.959V12.19a3.469,3.469,0,0,0,.325,1.612v.12Zm-1.492-1.556a1.329,1.329,0,0,0,.739-.191,1.2,1.2,0,0,0,.421-.431V10.521h-.693q-1.245,0-1.245,1.117a.682.682,0,0,0,.219.527A.793.793,0,0,0,82.917,12.366Z" transform="translate(786.976 9897.647)" fill="#e53935"/>
    <g id="Grupo_129732" data-name="Grupo 129732" transform="translate(828.884 9943.254)">
      <g id="Grupo_129723-10" data-name="Grupo 129723" transform="translate(0 22.543) rotate(-90)">
        <path id="Trazado_183774-13" data-name="Trazado 183774" d="M0,0V19.916" transform="translate(22.543 3.225) rotate(90)" fill="none" stroke="#707070" stroke-width="1"/>
        <circle id="Elipse_4730-13" data-name="Elipse 4730" cx="3" cy="3" r="3" transform="translate(0.348 -0.217)" fill="#707070"/>
      </g>
    </g>
    <rect id="Rectángulo_36820" data-name="Rectángulo 36820" width="148" height="16" transform="translate(769.667 9937.449)" fill="#fff"/>
    <path id="Trazado_191266" data-name="Trazado 191266" d="M10.157,10.342h3.781v1.671H7.985V3h2.172ZM14.495,8.6a3.952,3.952,0,0,1,.39-1.785A2.788,2.788,0,0,1,16,5.614a3.373,3.373,0,0,1,1.714-.421,3.079,3.079,0,0,1,2.37.931,3.574,3.574,0,0,1,.866,2.534v.074a3.467,3.467,0,0,1-.869,2.485,3.087,3.087,0,0,1-2.355.919,3.122,3.122,0,0,1-2.3-.857A3.352,3.352,0,0,1,14.5,8.955Zm2.085.13a2.491,2.491,0,0,0,.291,1.361.969.969,0,0,0,.86.433q1.114,0,1.139-1.714V8.6q0-1.8-1.151-1.8-1.046,0-1.132,1.553ZM28.8,12.012a2.355,2.355,0,0,1-.2-.6A1.939,1.939,0,0,1,27,12.136a2.376,2.376,0,0,1-1.609-.572,1.822,1.822,0,0,1-.662-1.439,1.873,1.873,0,0,1,.8-1.646,4.1,4.1,0,0,1,2.339-.557h.644V7.567q0-.927-.8-.927a.653.653,0,0,0-.743.734H24.885A1.869,1.869,0,0,1,25.711,5.8a3.472,3.472,0,0,1,2.107-.606,3.044,3.044,0,0,1,2.024.625A2.173,2.173,0,0,1,30.6,7.532V10.5a3.036,3.036,0,0,0,.285,1.411v.105ZM27.5,10.651a1.163,1.163,0,0,0,.647-.167,1.047,1.047,0,0,0,.368-.377V9.036h-.606q-1.089,0-1.089.978a.6.6,0,0,0,.192.461A.694.694,0,0,0,27.5,10.651Zm6.176-5.334.068.786a2.271,2.271,0,0,1,1.912-.91,1.91,1.91,0,0,1,1.563.625A2.976,2.976,0,0,1,37.751,7.7v4.313H35.659V7.786a1.13,1.13,0,0,0-.2-.746.945.945,0,0,0-.743-.238,1,1,0,0,0-.91.483v4.728H31.717v-6.7Zm7.661-1.665V5.317h1.1V6.765h-1.1V9.828a.782.782,0,0,0,.136.526.73.73,0,0,0,.538.149,3.059,3.059,0,0,0,.52-.037v1.491a3.849,3.849,0,0,1-1.176.179,2.185,2.185,0,0,1-1.59-.507,2.08,2.08,0,0,1-.514-1.541V6.765h-.854V5.317h.854V3.652Zm5.161,8.484A3.442,3.442,0,0,1,44,11.217a3.173,3.173,0,0,1-.953-2.392V8.652a4.112,4.112,0,0,1,.381-1.813,2.785,2.785,0,0,1,1.111-1.216,3.353,3.353,0,0,1,1.733-.43,2.9,2.9,0,0,1,2.228.876,3.441,3.441,0,0,1,.817,2.441V9.32H45.17a1.5,1.5,0,0,0,.489.885,1.455,1.455,0,0,0,.978.322,1.874,1.874,0,0,0,1.547-.693l.953,1.126a2.664,2.664,0,0,1-1.1.857A3.733,3.733,0,0,1,46.495,12.136ZM46.26,6.8q-.916,0-1.089,1.213h2.1V7.854a1.033,1.033,0,0,0-.254-.777A1.01,1.01,0,0,0,46.26,6.8Zm7.946.4-.687-.05a1.234,1.234,0,0,0-1.262.619v4.239H50.171v-6.7h1.956l.068.86a1.615,1.615,0,0,1,1.467-.984,2.034,2.034,0,0,1,.582.074Zm2.952,4.808H55.066v-6.7h2.092ZM54.942,3.59a.931.931,0,0,1,.322-.73,1.368,1.368,0,0,1,1.671,0,.931.931,0,0,1,.322.73.931.931,0,0,1-.322.73,1.368,1.368,0,0,1-1.671,0A.931.931,0,0,1,54.942,3.59ZM58.178,8.6a3.952,3.952,0,0,1,.39-1.785,2.788,2.788,0,0,1,1.12-1.2A3.373,3.373,0,0,1,61.4,5.193a3.079,3.079,0,0,1,2.37.931,3.574,3.574,0,0,1,.866,2.534v.074a3.467,3.467,0,0,1-.869,2.485,3.087,3.087,0,0,1-2.355.919,3.122,3.122,0,0,1-2.3-.857,3.352,3.352,0,0,1-.934-2.324Zm2.085.13a2.491,2.491,0,0,0,.291,1.361.969.969,0,0,0,.86.433q1.114,0,1.139-1.714V8.6q0-1.8-1.151-1.8-1.046,0-1.132,1.553ZM69.608,7.2l-.687-.05a1.234,1.234,0,0,0-1.262.619v4.239H65.573v-6.7h1.955l.068.86a1.615,1.615,0,0,1,1.467-.984,2.034,2.034,0,0,1,.582.074Zm10.124,1.51a4.038,4.038,0,0,1-.7,2.491,2.252,2.252,0,0,1-1.9.931,1.93,1.93,0,0,1-1.516-.675v3.125H73.531V5.317h1.949l.062.619a1.93,1.93,0,0,1,1.578-.743,2.27,2.27,0,0,1,1.925.913,4.088,4.088,0,0,1,.687,2.509Zm-2.085-.13q0-1.782-1.04-1.782a.981.981,0,0,0-.99.532V9.97a1.013,1.013,0,0,0,1,.557q1,0,1.027-1.72Zm6.244,3.552a3.442,3.442,0,0,1-2.494-.919,3.173,3.173,0,0,1-.953-2.392V8.652a4.112,4.112,0,0,1,.381-1.813,2.785,2.785,0,0,1,1.111-1.216,3.353,3.353,0,0,1,1.733-.43,2.9,2.9,0,0,1,2.228.876,3.441,3.441,0,0,1,.817,2.441V9.32H82.566a1.5,1.5,0,0,0,.489.885,1.455,1.455,0,0,0,.978.322,1.874,1.874,0,0,0,1.547-.693l.953,1.126a2.664,2.664,0,0,1-1.1.857A3.733,3.733,0,0,1,83.891,12.136ZM83.656,6.8q-.916,0-1.089,1.213h2.1V7.854a1.033,1.033,0,0,0-.254-.777A1.01,1.01,0,0,0,83.656,6.8Zm7.946.4-.687-.05a1.234,1.234,0,0,0-1.262.619v4.239H87.567v-6.7h1.956l.068.86a1.615,1.615,0,0,1,1.467-.984,2.034,2.034,0,0,1,.582.074Zm2.723-1.887.068.786a2.3,2.3,0,0,1,1.912-.91A1.7,1.7,0,0,1,98.019,6.2a2.228,2.228,0,0,1,1.968-1.009q2.036,0,2.092,2.463v4.357H99.987V7.786a1.277,1.277,0,0,0-.173-.749.738.738,0,0,0-.631-.235.988.988,0,0,0-.922.551l.006.087v4.573H96.175V7.8a1.342,1.342,0,0,0-.167-.761A.735.735,0,0,0,95.37,6.8a1,1,0,0,0-.916.551v4.66H92.369v-6.7Zm11.145,6.7h-2.092v-6.7h2.092ZM103.254,3.59a.931.931,0,0,1,.322-.73,1.368,1.368,0,0,1,1.671,0,.931.931,0,0,1,.322.73.931.931,0,0,1-.322.73,1.368,1.368,0,0,1-1.671,0A.931.931,0,0,1,103.254,3.59Zm5.928.062V5.317h1.1V6.765h-1.1V9.828a.782.782,0,0,0,.136.526.73.73,0,0,0,.538.149,3.059,3.059,0,0,0,.52-.037v1.491a3.849,3.849,0,0,1-1.176.179,2.185,2.185,0,0,1-1.59-.507,2.08,2.08,0,0,1-.514-1.541V6.765h-.854V5.317h.854V3.652Zm5.161,8.484a3.442,3.442,0,0,1-2.494-.919,3.173,3.173,0,0,1-.953-2.392V8.652a4.112,4.112,0,0,1,.381-1.813,2.785,2.785,0,0,1,1.111-1.216,3.353,3.353,0,0,1,1.733-.43,2.9,2.9,0,0,1,2.228.876,3.441,3.441,0,0,1,.817,2.441V9.32h-4.146a1.5,1.5,0,0,0,.489.885,1.455,1.455,0,0,0,.978.322,1.874,1.874,0,0,0,1.547-.693l.953,1.126a2.664,2.664,0,0,1-1.1.857A3.733,3.733,0,0,1,114.343,12.136ZM114.108,6.8q-.916,0-1.089,1.213h2.1V7.854a1.033,1.033,0,0,0-.254-.777A1.01,1.01,0,0,0,114.108,6.8Zm5.811-1.485.068.786a2.271,2.271,0,0,1,1.912-.91,1.91,1.91,0,0,1,1.563.625A2.975,2.975,0,0,1,124,7.7v4.313h-2.092V7.786a1.13,1.13,0,0,0-.2-.746.945.945,0,0,0-.743-.238,1,1,0,0,0-.91.483v4.728h-2.085v-6.7Z" transform="translate(765.721 9937.578)" fill="#12263f"/>
    <path id="Trazado_183774-14" data-name="Trazado 183774" d="M0,0V12.975" transform="translate(1137.635 9802.033)" fill="none" stroke="#707070" stroke-width="1"/>
    <path id="Trazado_183774-15" data-name="Trazado 183774" d="M0,0V142.579" transform="translate(1067.025 9815.009) rotate(-90)" fill="none" stroke="#707070" stroke-width="1"/>
    <g id="Rectángulo_36821" data-name="Rectángulo 36821" transform="translate(1031.667 9846.449)" fill="#fff" stroke="#e53935" stroke-width="1">
      <rect width="73" height="31" rx="13" stroke="none"/>
      <rect x="0.5" y="0.5" width="72" height="30" rx="12.5" fill="none"/>
    </g>
    <path id="Trazado_191268" data-name="Trazado 191268" d="M13.633,10.094a4.615,4.615,0,0,1-.8,2.847A2.574,2.574,0,0,1,10.663,14a2.206,2.206,0,0,1-1.733-.771v3.572H6.547V6.211H8.775l.071.707a2.206,2.206,0,0,1,1.8-.849,2.594,2.594,0,0,1,2.2,1.043,4.672,4.672,0,0,1,.785,2.868ZM11.25,9.945q0-2.037-1.188-2.037a1.122,1.122,0,0,0-1.132.608v3.013a1.158,1.158,0,0,0,1.146.637q1.139,0,1.174-1.966ZM23.4,13.863H20.932v-4.3H17.276v4.3H14.793V3.566h2.482V7.654h3.656V3.566H23.4Zm9.378,0a2.691,2.691,0,0,1-.226-.686A2.216,2.216,0,0,1,30.713,14a2.715,2.715,0,0,1-1.839-.654,2.082,2.082,0,0,1-.757-1.644,2.14,2.14,0,0,1,.919-1.881,4.684,4.684,0,0,1,2.673-.637h.736V8.783q0-1.059-.912-1.059a.746.746,0,0,0-.849.839H28.3a2.137,2.137,0,0,1,.944-1.8,3.968,3.968,0,0,1,2.408-.692,3.479,3.479,0,0,1,2.313.714,2.483,2.483,0,0,1,.87,1.959V12.13a3.469,3.469,0,0,0,.325,1.612v.12Zm-1.492-1.556a1.329,1.329,0,0,0,.739-.191,1.2,1.2,0,0,0,.421-.431V10.461h-.693q-1.245,0-1.245,1.117a.682.682,0,0,0,.219.527A.793.793,0,0,0,31.286,12.307ZM31.88,3H34.4L32.432,5.221l-1.945,0Zm7.511,9.166a1.06,1.06,0,0,0,.778-.272,1,1,0,0,0,.269-.76h2.235a2.646,2.646,0,0,1-.9,2.065A3.354,3.354,0,0,1,39.447,14a3.4,3.4,0,0,1-2.631-1.047,4.124,4.124,0,0,1-.962-2.9v-.1a4.661,4.661,0,0,1,.428-2.047,3.115,3.115,0,0,1,1.234-1.365,3.68,3.68,0,0,1,1.91-.477A3.312,3.312,0,0,1,41.8,6.9a2.935,2.935,0,0,1,.877,2.242H40.438a1.308,1.308,0,0,0-.29-.912,1,1,0,0,0-.778-.318q-.926,0-1.082,1.181a8.334,8.334,0,0,0-.05,1.033,3.273,3.273,0,0,0,.276,1.6A.955.955,0,0,0,39.391,12.166Zm6.8,1.7H43.8V6.211h2.39ZM43.663,4.238A1.064,1.064,0,0,1,44.03,3.4a1.564,1.564,0,0,1,1.91,0,1.064,1.064,0,0,1,.368.835,1.064,1.064,0,0,1-.368.835,1.564,1.564,0,0,1-1.91,0A1.064,1.064,0,0,1,43.663,4.238Zm3.7,5.743a4.674,4.674,0,0,1,.785-2.864,2.584,2.584,0,0,1,2.192-1.047,2.2,2.2,0,0,1,1.726.806V3h2.39V13.863H52.312l-.12-.82A2.257,2.257,0,0,1,50.325,14a2.579,2.579,0,0,1-2.164-1.047A4.823,4.823,0,0,1,47.361,9.98Zm2.383.149q0,2.037,1.188,2.037a1.173,1.173,0,0,0,1.132-.665V8.587a1.142,1.142,0,0,0-1.117-.679q-1.1,0-1.2,1.782Zm5.764-.163a4.517,4.517,0,0,1,.446-2.04,3.186,3.186,0,0,1,1.28-1.376,3.855,3.855,0,0,1,1.959-.481A3.519,3.519,0,0,1,61.9,7.134a4.084,4.084,0,0,1,.99,2.9v.085a3.963,3.963,0,0,1-.994,2.84A3.528,3.528,0,0,1,59.208,14a3.568,3.568,0,0,1-2.624-.98,3.831,3.831,0,0,1-1.068-2.656Zm2.383.149a2.847,2.847,0,0,0,.332,1.556,1.107,1.107,0,0,0,.983.5q1.273,0,1.3-1.959v-.24q0-2.058-1.315-2.058-1.2,0-1.294,1.775Z" transform="translate(1032.91 9853.349)" fill="#e53935"/>
    <g id="Grupo_129734" data-name="Grupo 129734" transform="translate(1207.667 9866.307)">
      <g id="Grupo_129723-11" data-name="Grupo 129723" transform="translate(0 22.273) rotate(-90)">
        <path id="Trazado_183774-16" data-name="Trazado 183774" d="M0,0V19.916" transform="translate(22.273 2.842) rotate(90)" fill="none" stroke="#707070" stroke-width="1"/>
        <circle id="Elipse_4730-14" data-name="Elipse 4730" cx="3" cy="3" r="3" transform="translate(0.13 0)" fill="#707070"/>
      </g>
    </g>
    <g id="Rectángulo_36822" data-name="Rectángulo 36822" transform="translate(1167.667 9846.449)" fill="#fff" stroke="#e53935" stroke-width="1">
      <rect width="82" height="31" rx="13" stroke="none"/>
      <rect x="0.5" y="0.5" width="81" height="30" rx="12.5" fill="none"/>
    </g>
    <path id="Trazado_191269" data-name="Trazado 191269" d="M9.532,10.094a4.615,4.615,0,0,1-.8,2.847A2.574,2.574,0,0,1,6.561,14a2.206,2.206,0,0,1-1.733-.771v3.572H2.445V6.211H4.673l.071.707a2.206,2.206,0,0,1,1.8-.849,2.594,2.594,0,0,1,2.2,1.043A4.671,4.671,0,0,1,9.532,9.98ZM7.148,9.945q0-2.037-1.188-2.037a1.122,1.122,0,0,0-1.132.608v3.013a1.158,1.158,0,0,0,1.146.637q1.139,0,1.174-1.966ZM19.3,13.863H16.83v-4.3H13.174v4.3H10.692V3.566h2.482V7.654H16.83V3.566H19.3ZM31.47,10.1a4.664,4.664,0,0,1-.778,2.893A2.606,2.606,0,0,1,28.5,14a2.261,2.261,0,0,1-1.881-.926l-.1.785H24.384V3h2.383V6.826a2.182,2.182,0,0,1,1.719-.757,2.607,2.607,0,0,1,2.207,1.025A4.688,4.688,0,0,1,31.47,9.98Zm-2.39-.152a3.111,3.111,0,0,0-.294-1.571.989.989,0,0,0-.9-.47,1.141,1.141,0,0,0-1.117.614v3.036a1.148,1.148,0,0,0,1.132.607,1.012,1.012,0,0,0,1.068-.819A5.881,5.881,0,0,0,29.08,9.949Zm7.751,3.914a2.691,2.691,0,0,1-.226-.686A2.216,2.216,0,0,1,34.766,14a2.715,2.715,0,0,1-1.839-.654,2.082,2.082,0,0,1-.757-1.644,2.14,2.14,0,0,1,.919-1.881,4.684,4.684,0,0,1,2.673-.637H36.5V8.783q0-1.059-.912-1.059a.746.746,0,0,0-.849.839H32.354a2.137,2.137,0,0,1,.944-1.8,3.968,3.968,0,0,1,2.408-.692,3.479,3.479,0,0,1,2.313.714,2.483,2.483,0,0,1,.87,1.959V12.13a3.469,3.469,0,0,0,.325,1.612v.12Zm-1.492-1.556a1.329,1.329,0,0,0,.739-.191,1.2,1.2,0,0,0,.421-.431V10.461h-.693q-1.245,0-1.245,1.117a.682.682,0,0,0,.219.527A.793.793,0,0,0,35.339,12.307ZM35.933,3h2.518L36.485,5.221l-1.945,0Zm8.282,8.713a.551.551,0,0,0-.318-.488,4.841,4.841,0,0,0-1.209-.382,5.515,5.515,0,0,1-1.471-.52,2.464,2.464,0,0,1-.884-.781,1.866,1.866,0,0,1-.3-1.054,2.115,2.115,0,0,1,.87-1.736,3.583,3.583,0,0,1,2.277-.682,3.97,3.97,0,0,1,2.433.686,2.145,2.145,0,0,1,.919,1.8h-2.39q0-.919-.969-.919a.96.96,0,0,0-.629.209.646.646,0,0,0-.255.52.593.593,0,0,0,.311.516,2.94,2.94,0,0,0,.994.325,8.587,8.587,0,0,1,1.2.3,2.178,2.178,0,0,1,1.726,2.129,2,2,0,0,1-.93,1.7A4.078,4.078,0,0,1,43.175,14a4.162,4.162,0,0,1-1.754-.354,2.933,2.933,0,0,1-1.2-.962,2.178,2.178,0,0,1-.431-1.28h2.228a.921.921,0,0,0,.354.774,1.455,1.455,0,0,0,.87.244,1.144,1.144,0,0,0,.732-.2A.633.633,0,0,0,44.215,11.713Zm5.927,2.15h-2.39V6.211h2.39ZM47.609,4.238a1.064,1.064,0,0,1,.368-.835,1.564,1.564,0,0,1,1.91,0,1.064,1.064,0,0,1,.368.835,1.064,1.064,0,0,1-.368.835,1.564,1.564,0,0,1-1.91,0A1.064,1.064,0,0,1,47.609,4.238Zm7.235,7.928a1.06,1.06,0,0,0,.778-.272,1,1,0,0,0,.269-.76h2.235a2.646,2.646,0,0,1-.9,2.065A3.354,3.354,0,0,1,54.9,14a3.4,3.4,0,0,1-2.631-1.047,4.124,4.124,0,0,1-.962-2.9v-.1a4.661,4.661,0,0,1,.428-2.047A3.115,3.115,0,0,1,52.97,6.547a3.68,3.68,0,0,1,1.91-.477,3.312,3.312,0,0,1,2.369.827,2.935,2.935,0,0,1,.877,2.242H55.891a1.308,1.308,0,0,0-.29-.912,1,1,0,0,0-.778-.318q-.926,0-1.082,1.181a8.334,8.334,0,0,0-.05,1.033,3.273,3.273,0,0,0,.276,1.6A.955.955,0,0,0,54.844,12.166Zm3.989-2.2a4.517,4.517,0,0,1,.446-2.04,3.186,3.186,0,0,1,1.28-1.376,3.855,3.855,0,0,1,1.959-.481,3.519,3.519,0,0,1,2.709,1.064,4.084,4.084,0,0,1,.99,2.9v.085a3.963,3.963,0,0,1-.994,2.84A3.528,3.528,0,0,1,62.532,14a3.568,3.568,0,0,1-2.624-.98,3.831,3.831,0,0,1-1.068-2.656Zm2.383.149a2.847,2.847,0,0,0,.332,1.556,1.107,1.107,0,0,0,.983.5q1.273,0,1.3-1.959v-.24q0-2.058-1.315-2.058-1.2,0-1.294,1.775Z" transform="translate(1173.614 9853.349)" fill="#e53935"/>
  </g>
</svg>
