<svg xmlns="http://www.w3.org/2000/svg" width="190.667" height="234.507" viewBox="0 0 190.667 234.507">
  <g id="Grupo_81812" data-name="Grupo 81812" transform="translate(-1320.939 -903.706)">
    <path id="Trazado_117352" data-name="Trazado 117352" d="M1460.943,1057.52c1.276-16.824,3.47-33.548,5.507-50.29.992-8.141,1.883-16.3,2.821-24.446-1.979-.061-3.961-.168-5.942-.169q-42.795-.033-85.592-.044l-12.848.14c-.438,4.594.552,9.094.995,13.62.888,9.047,2,18.074,3.029,27.108q1.667,14.675,3.348,29.348c1.073,9.332,2.316,18.646,3.205,27.994,1.006,10.558,2.922,21.026,3.129,31.661l.984.259,5.487-.015c.035-5.462.1-10.923.1-16.384,0-3.543,1.684-4.978,5.175-4.42,3.733.6,7.477,1.138,11.216,1.7,9.812-.134,19.671.452,29.332-1.945.038-4.38-.759-8.5-3.748-11.929a18.393,18.393,0,0,1-13.81-5.994c-6.219-6.483-10.155-14.345-13.715-22.442-.543-1.237-1.279-2.552-.025-3.795s2.545-.458,3.8.038a83.432,83.432,0,0,1,19.052,10.671c5.543,4.106,9.556,9.412,9.353,16.873,2.149,1.06,2.73,3.483,4.384,5.183,2.868-2.085,4.072-5.82,7.486-7.179C1445.368,1063.371,1452.621,1059.852,1460.943,1057.52Z" transform="translate(-3.666 -6.595)" fill="#bce4aa" fill-rule="evenodd"/>
    <path id="Trazado_117353" data-name="Trazado 117353" d="M1378.622,979.732q42.8.019,85.592.044c1.981,0,3.963.109,5.942.17.2-7.885,2.281-15.612,1.965-23.544-.2-4.967-2.725-7.771-7.6-7.772q-44.581,0-89.162.147Q1376.991,964.255,1378.622,979.732Z" transform="translate(-4.55 -3.756)" fill="#e2e9f3" fill-rule="evenodd"/>
    <path id="Trazado_117354" data-name="Trazado 117354" d="M1445.517,1081.32c-3.413,1.359-4.618,5.094-7.486,7.179-1.654-1.7-2.235-4.123-4.383-5.182a8.164,8.164,0,0,1-4.659,4.647c2.989,3.431,3.786,7.549,3.748,11.93,4.925-.573,6.985,2.181,8.371,6.5,1.963,6.112,1.636,12.317,1.767,18.547.066,3.144-1.14,4.36-4.307,4.322-9.615-.118-19.231,0-28.846-.059-4.833-.027-6.226-1.446-6.27-6.3-.064-7.019-.036-14.041-.047-21.062-3.739-.564-7.482-1.1-11.216-1.7-3.491-.557-5.174.877-5.175,4.421,0,5.461-.061,10.923-.1,16.384.928,5.218-1.49,10.821,1.816,15.765l.987.61,100.644.152a125.6,125.6,0,0,1,17.635.478c5.485.66,7.02-.453,7.881-6,.368-2.374.452-4.794.665-7.193-2.063,4.6-5.3,6.385-10.287,4.541-1.074-.4-2.418-.074-3.639-.074-13.116,0-26.233-.072-39.349.046-2.915.026-4.168-.792-3.973-3.872.495-7.786.025-15.5-2.64-22.931a60.631,60.631,0,0,0-12.543-1.754c-3.393-.177-4.982-1.346-2.418-4.636,2.327-2.986,4.673-5.955,7.011-8.931C1447.213,1085.44,1445.162,1084.039,1445.517,1081.32Z" transform="translate(-5.517 -14.852)" fill="#89c426" fill-rule="evenodd"/>
    <path id="Trazado_117355" data-name="Trazado 117355" d="M1486.6,1142.558l-100.644-.15-1-.22a18.2,18.2,0,0,1-6.338.044,117.982,117.982,0,0,1-16.576.024l-19.163.247c-2.313,4.7-.054,8.241,2.854,11.715,1.116,1.334,3.26,1.713,3.508,3.818,41.972.032,83.945.125,125.916.042C1483.8,1158.062,1489.55,1149.925,1486.6,1142.558Z" transform="translate(-1.756 -19.942)" fill="#dc9574" fill-rule="evenodd"/>
    <path id="Trazado_117356" data-name="Trazado 117356" d="M1377.1,1112.44c-.207-10.636-2.122-21.1-3.129-31.661-.89-9.348-2.132-18.662-3.205-27.993q-1.687-14.671-3.348-29.348c-1.025-9.034-2.141-18.06-3.029-27.108-.444-4.526-1.433-9.026-1-13.622a1.287,1.287,0,0,0-.71-.14l-15.783.024c.031,10.819,2.033,21.454,3.1,32.173,1.491,14.947,3.426,29.849,5.155,44.772q2.854,24.65,5.678,49.3C1365.806,1112.079,1371.309,1112.914,1377.1,1112.44Z" transform="translate(-2.171 -6.594)" fill="#aadc8f" fill-rule="evenodd"/>
    <path id="Trazado_117357" data-name="Trazado 117357" d="M1463.022,1104.154c2.665,7.438,3.135,15.147,2.64,22.933-.2,3.079,1.058,3.9,3.972,3.872,13.116-.118,26.233-.049,39.349-.046,1.221,0,2.565-.324,3.639.074,4.986,1.845,8.224.063,10.287-4.541,1.393-6.937.07-13.6-1.951-20.217-1.654-5.419-5.756-4.934-9.977-4.363-13.453,1.82-26.936,3.2-40.544,2.463-1.822-.1-3.636-.309-5.455-.466C1464.329,1103.962,1463.675,1104.058,1463.022,1104.154Z" transform="translate(-11.881 -16.542)" fill="#f4f18b" fill-rule="evenodd"/>
    <path id="Trazado_117358" data-name="Trazado 117358" d="M1360.514,975.974a1.287,1.287,0,0,1,.71.14q6.423-.067,12.848-.138-1.633-15.478-3.265-30.954c-1.024-8.465-1.986-16.939-3.089-25.4-.865-6.637-4.586-10.286-11.194-11.377q-12.844-2.122-25.675-4.328c-5.2-.89-8.936,1.029-9.76,5.074-.858,4.2,2.036,7.414,7.543,8.342q11.043,1.861,22.092,3.691c2.025.334,3.873.649,4.1,3.358.563,6.828,1.287,13.643,1.945,20.464Q1358.639,960.413,1360.514,975.974Z" fill="#f9af46" fill-rule="evenodd"/>
    <path id="Trazado_117359" data-name="Trazado 117359" d="M1362.443,979.726q-1.874-15.562-3.75-31.125c-3.717.266-7.535-.744-11.115,1.3-2.025,1.157-3.474,2.651-3.542,4.893a106.473,106.473,0,0,0,2.623,24.952Z" transform="translate(-1.928 -3.752)" fill="#d2dfed" fill-rule="evenodd"/>
    <path id="Trazado_117360" data-name="Trazado 117360" d="M1450.86,1079.741c-.354,2.719,1.7,4.12,3.189,5.825a37.72,37.72,0,0,0,11.17-1.24c6.646-4.589,11.045-11.021,14.82-17.981,1.617-2.984.811-4.31-2.554-3.808-3.129.465-6.233,1.1-9.347,1.662C1459.816,1066.53,1452.562,1070.049,1450.86,1079.741Z" transform="translate(-10.861 -13.273)" fill="#7ece62" fill-rule="evenodd"/>
    <path id="Trazado_117361" data-name="Trazado 117361" d="M1378.372,1123.963c-5.792.474-11.295-.36-16.264-3.6q.815,10.032,1.63,20.067a118.276,118.276,0,0,0,16.576-.022c.259-5.429-1.534-10.738-.958-16.187Z" transform="translate(-3.443 -18.117)" fill="#d5dde8" fill-rule="evenodd"/>
    <path id="Trazado_117362" data-name="Trazado 117362" d="M1347.742,1158.05c-.248-2.1-2.392-2.484-3.508-3.818-2.907-3.474-5.167-7.01-2.854-11.715-4.422-.048-8.847-.04-13.268-.161-3.577-.1-4.477,1.859-4.137,4.97a12.687,12.687,0,0,0,11.869,10.791C1339.806,1158.253,1343.776,1158.084,1347.742,1158.05Z" transform="translate(-0.249 -19.956)" fill="#d7855a" fill-rule="evenodd"/>
    <path id="Trazado_117363" data-name="Trazado 117363" d="M1464.758,1086.323a37.708,37.708,0,0,1-11.17,1.241c-2.336,2.975-4.683,5.944-7.01,8.93-2.564,3.29-.975,4.459,2.418,4.636a60.643,60.643,0,0,1,12.544,1.754c.653-.1,1.307-.193,1.961-.292Z" transform="translate(-10.4 -15.27)" fill="#bbe2aa" fill-rule="evenodd"/>
    <path id="Trazado_117364" data-name="Trazado 117364" d="M1404.909,1103.527c.012,7.021-.017,14.042.047,21.062.044,4.854,1.437,6.274,6.27,6.3,9.615.055,19.231-.06,28.846.059,3.167.039,4.373-1.178,4.307-4.322-.131-6.23.2-12.435-1.767-18.547-1.386-4.316-3.446-7.07-8.371-6.5C1424.58,1103.979,1414.721,1103.393,1404.909,1103.527Z" transform="translate(-7.022 -16.54)" fill="#f4f18b" fill-rule="evenodd"/>
    <path id="Trazado_117365" data-name="Trazado 117365" d="M1430.251,1085.568a8.165,8.165,0,0,0,4.659-4.647c.2-7.462-3.811-12.769-9.354-16.874a83.426,83.426,0,0,0-19.052-10.671c-1.258-.5-2.554-1.277-3.8-.038s-.519,2.558.025,3.794c3.56,8.1,7.5,15.96,13.715,22.442A18.392,18.392,0,0,0,1430.251,1085.568Z" transform="translate(-6.779 -12.456)" fill="#7ecd61" fill-rule="evenodd"/>
    <path id="Trazado_117366" data-name="Trazado 117366" d="M1380.92,1124.573c-.576,5.449,1.217,10.758.958,16.187a18.255,18.255,0,0,0,6.338-.045l.008-.393c-3.306-4.944-.889-10.547-1.816-15.765Z" transform="translate(-5.006 -18.467)" fill="#e2e9f3" fill-rule="evenodd"/>
    <path id="Trazado_117367" data-name="Trazado 117367" d="M1388.9,1141.76l-.008.393,1,.219Z" transform="translate(-5.682 -19.906)" fill="#d5dde8" fill-rule="evenodd"/>
  </g>
</svg>
