<svg xmlns="http://www.w3.org/2000/svg" xmlns:xlink="http://www.w3.org/1999/xlink" width="524.417" height="331.952" viewBox="0 0 524.417 331.952">
  <defs>
    <clipPath id="clip-path">
      <rect id="Rectángulo_34020" data-name="Rectángulo 34020" width="17.258" height="19.415" fill="none"/>
    </clipPath>
    <clipPath id="clip-path-2">
      <rect id="Rectángulo_34021" data-name="Rectángulo 34021" width="75.562" height="13.287" fill="none"/>
    </clipPath>
    <clipPath id="clip-path-3">
      <rect id="Rectángulo_34022" data-name="Rectángulo 34022" width="10.266" height="7.661" fill="none"/>
    </clipPath>
    <clipPath id="clip-path-4">
      <rect id="Rectángulo_34023" data-name="Rectángulo 34023" width="6.973" height="5.83" fill="none"/>
    </clipPath>
  </defs>
  <g id="Grupo_81662" data-name="Grupo 81662" transform="translate(0 -15.511)">
    <path id="Trazado_116145" data-name="Trazado 116145" d="M8222.871,1309.142c-12.083,83.922-276.9,149.63-360.432,39.189-45.789-60.537-52.382-145.143,17.818-211.936,80.272-76.375,201.856-65.5,250.482-31.67,6.727,4.679,41.544,28.9,37.43,51.824-1.918,10.679-10.79,12.737-11.515,23.034-1.282,18.143,25.133,27.708,43.187,48.945C8224.062,1257.025,8224.69,1296.511,8222.871,1309.142Z" transform="translate(-7827.75 -1063.345)" fill="#dee9f0"/>
    <g id="Grupo_81661" data-name="Grupo 81661" transform="translate(14.178 48.468)">
      <g id="Grupo_81660" data-name="Grupo 81660" transform="translate(0 9)">
        <path id="Trazado_116146" data-name="Trazado 116146" d="M8152.561,1318.049c-3.419-10.059-8.592-19.626-15.9-27.339-6.791-7.168-14.094-13.2-23.39-16.914-6.052-2.418.812,10.69,1.895,12.7a73.362,73.362,0,0,0,39.575,33.819" transform="translate(-8100.828 -1106.02)" fill="#4d6911"/>
        <path id="Trazado_116147" data-name="Trazado 116147" d="M8146.132,1329.851a81.675,81.675,0,0,0-28.443-68.094c-2.555-2.143-5.941-4.23-9.014-2.937-.471,4.376,1.482,8.626,3.59,12.489,5.7,10.458,12.878,20.041,18.9,30.317s10.964,21.553,11.53,33.453" transform="translate(-8089.752 -1109.607)" fill="#678c17"/>
        <path id="Trazado_116148" data-name="Trazado 116148" d="M8035.978,1326.727a172.091,172.091,0,0,0,16.036-46.163c1.767-9.1,2.785-18.583.582-27.589-.829-3.392-3.552-7.416-6.832-6.215-11.741,23.249-11.842,50.428-11.692,76.473" transform="translate(-7904.919 -1112.433)" fill="#4d6911"/>
        <path id="Trazado_116149" data-name="Trazado 116149" d="M8016.969,1314.471c3.362-9.531,6.743-19.106,11.529-28.009s11.069-17.178,19.317-23.017c2.058-1.453,5.618-2.352,6.515.005a4.308,4.308,0,0,1-.183,2.7,109.776,109.776,0,0,1-37.421,54.991" transform="translate(-7884.114 -1108.756)" fill="#678c17"/>
        <path id="Trazado_116150" data-name="Trazado 116150" d="M8079.061,1317.437c-2.6-19.489-7.123-39.345-18.459-55.406a9.577,9.577,0,0,0-3.078-3.111,3.559,3.559,0,0,0-4.106.313,4.8,4.8,0,0,0-1.116,2.76c-1.148,7.3.7,14.722,2.917,21.77a201.851,201.851,0,0,0,17.646,40.139" transform="translate(-7952.294 -1109.607)" fill="#678c17"/>
        <path id="Trazado_116151" data-name="Trazado 116151" d="M8008.56,1314.553a100.486,100.486,0,0,1,29.233-30.013c3.417-2.276,7.28-4.417,11.368-4.054a3.381,3.381,0,0,1,2.227.872c1.088,1.166.459,3.048-.27,4.465a73.28,73.28,0,0,1-36.882,33.892" transform="translate(-7871.495 -1104.368)" fill="#4d6911"/>
        <path id="Trazado_116152" data-name="Trazado 116152" d="M8146.635,1308.307l-5.5-1.461-5.054,18.953,1.743.467c-5.305,7.175-8.782,24.639-9.269,28.978,1,1.731,3.182.847,3.182.847s4.083-18.084,10.475-30.367,4.427-17.417,4.427-17.417" transform="translate(-8114.977 -1098.088)" fill="#af7e2d"/>
        <path id="Trazado_116153" data-name="Trazado 116153" d="M8154.063,1320.926l-6.96,26.113s-33.515-10.835-37.744-10.5-6.663,24.063-24.208,19.27c4.461-29.879,10.258-27.3,14.9-47.784,16.611,2.936,54.011,12.9,54.011,12.9" transform="translate(-8068.395 -1097.807)" fill="#cf902d"/>
        <path id="Trazado_116154" data-name="Trazado 116154" d="M8008.094,1283.934a566.03,566.03,0,0,1,59.368,15.642,175.676,175.676,0,0,1,30.02,13.09c7.484,4.036,13.74,9.218,14.944,18.255.93,6.972-1.234,14.2-6.887,18.645-5.946,4.677-14.25,4.489-21.805,4.078" transform="translate(-7931.579 -1103.538)" fill="#2f3341"/>
        <path id="Trazado_116155" data-name="Trazado 116155" d="M8095.345,1154.655c-1.963-7.135-5.764-16.985-14.511-16.427-4.3.276-7.959,2.064-12.348,2.1-5.7.053-11.279-1.4-16.972-1.326a9.974,9.974,0,0,0-5.375,1.3,11.978,11.978,0,0,0-3.62,4.358,42.719,42.719,0,0,0-5.242,17.2" transform="translate(-7950.414 -1138.206)" fill="#45474c"/>
        <path id="Trazado_116156" data-name="Trazado 116156" d="M8002.64,1175.476c0,16.174,32.2,29.285,71.914,29.285s71.912-13.11,71.912-29.285-32.2-29.284-71.912-29.284-71.914,13.111-71.914,29.284" transform="translate(-7958.657 -1136.305)" fill="#383c4e"/>
        <path id="Trazado_116157" data-name="Trazado 116157" d="M8053.351,1304.489c-9.07,1.849-19.268-.267-25.695-6.93s-7.889-18.128-2.057-25.317a25.7,25.7,0,0,0,3.26-4.144c2.313-4.481-.439-9.741-1.588-14.65-1.738-7.427.43-15.371,4.478-21.835s9.838-11.641,15.836-16.355c3.883-3.052,7.947-6.015,10.859-10,3.439-4.7,4.948-10.412,5.745-16.1a58.707,58.707,0,0,1,3.612-14.441c3.292-8.47,8.1-19.311,17.73-22,6.66-1.865,13.8-1.5,20.6-.723,17.759,2.026,36.97,13.086,35.166,33.775-.5,5.776-2.781,11.411-2.3,17.192.541,6.581,4.542,12.285,7.054,18.4,5.557,13.519,3.231,30.221-6.609,41.031s-26.978,14.6-40.038,8.031" transform="translate(-7985.089 -1135.078)" fill="#89221f"/>
        <path id="Trazado_116158" data-name="Trazado 116158" d="M8012.172,1227.934c11.36-2.319,15.606,5.51,21.216,13.641,5.937,8.595,11.759,17.274,17.931,25.7,12.143,16.579,25.867,32.289,43.291,43.486.761.489,7.666,3.643,12.133,5.309a53.51,53.51,0,0,1-4.1,12.531c-36.153-3.365-58.469-32.951-79.8-60.256Z" transform="translate(-7930.735 -1116.959)" fill="#e48866"/>
        <path id="Trazado_116159" data-name="Trazado 116159" d="M8113.154,1216.053c7.75,13.244,4.637,30.109,8.942,44.839,1.228,4.2,3.061,8.213,4.144,12.454s1.361,8.892-.471,12.868a15.619,15.619,0,0,1-8.605,7.718,5.589,5.589,0,0,0-2.5,1.43,4.869,4.869,0,0,0-.774,2.716q-1.011,12.491-2.025,24.983c-18.3,2.476-36.578-3.529-54.078-9.449-1.626-.552.012-22.5.25-24.91,2.485-25.216,11.119-53.9,28.433-73.057" transform="translate(-8006.672 -1119.784)" fill="#c2a6eb"/>
        <path id="Trazado_116160" data-name="Trazado 116160" d="M8070.843,1226.5l.68.235a6.653,6.653,0,0,0,8.459-4.12l7.752-22.485-13.259-4.57-7.751,22.483a6.651,6.651,0,0,0,4.119,8.457" transform="translate(-7978.803 -1124.562)" fill="#d4785b"/>
        <g id="Grupo_81627" data-name="Grupo 81627" transform="translate(90.954 71.194)" opacity="0.11" style="mix-blend-mode: multiply;isolation: isolate">
          <g id="Grupo_81626" data-name="Grupo 81626" transform="translate(0)">
            <g id="Grupo_81625" data-name="Grupo 81625" clip-path="url(#clip-path)">
              <path id="Trazado_116161" data-name="Trazado 116161" d="M8079.735,1215.133a53.99,53.99,0,0,1-11.069-4.879c-.576-.333-1.151-.68-1.725-1.045l4.65-13.492a93.911,93.911,0,0,0,12.607,6.469Z" transform="translate(-8066.943 -1195.718)" fill="#843c52"/>
            </g>
          </g>
        </g>
        <path id="Trazado_116162" data-name="Trazado 116162" d="M8035.727,1186.643l1.719-9.772a28.684,28.684,0,0,1,33.221-23.283l8.3,1.463a23.4,23.4,0,0,1,18.99,27.095l-4.044,23a20.543,20.543,0,0,1-23.789,16.672l-11.12-1.957a28.683,28.683,0,0,1-23.282-33.221" transform="translate(-7950.926 -1134.651)" fill="#e48866"/>
        <path id="Trazado_116163" data-name="Trazado 116163" d="M8058.033,1288.634c.014-.142.034-.288.049-.428a14.187,14.187,0,0,0,1.743,1.515,13.046,13.046,0,0,0,12.375,1.615c6.678-2.792,9.207-10.76,10.957-17.78q.916-3.669,1.829-7.337a12.157,12.157,0,0,0,13.617-4,55.333,55.333,0,0,0,17.158-4.206,110.947,110.947,0,0,0-5.909-42.077l3.3.051c7.75,13.244,4.637,30.109,8.942,44.839,1.228,4.2,3.061,8.213,4.144,12.454s1.361,8.892-.471,12.868a15.607,15.607,0,0,1-8.605,7.717,5.6,5.6,0,0,0-2.5,1.432,4.865,4.865,0,0,0-.774,2.715q-1.011,12.489-2.025,24.982c-18.3,2.477-36.578-3.527-54.078-9.448-1.626-.552.012-22.5.25-24.91" transform="translate(-8006.672 -1119.715)" fill="#383c4e"/>
        <path id="Trazado_116164" data-name="Trazado 116164" d="M8090.931,1305.274a197.79,197.79,0,0,1,34.9,15.22c5.784,3.219,11.5,6.808,15.822,11.824,7.541,8.757,7.634,21.679,5.831,32.462-.9,5.382-6.455,8.37-11.019,10.426a105.889,105.889,0,0,1-43.71,9.267c-22.158-.087-44.074-1.118-65.027-8.768a2.427,2.427,0,0,1-1.483-1.05,2.476,2.476,0,0,1-.127-1.228,148.331,148.331,0,0,1,3.551-23.624,29.335,29.335,0,0,0,15.151,3.5c-2.772.12-9.836-2.972-11.932-4.771-6.981-6-6.007-18.135-4.7-26.128a55.422,55.422,0,0,1,12.122-26.85c1.843-2.189,4.2-4.4,7.061-4.356" transform="translate(-7989.675 -1101.811)" fill="#383c4e"/>
        <path id="Trazado_116165" data-name="Trazado 116165" d="M8138.856,1348.292c-29.713-14.54-64.2,4.371-94.135-9.529-.582-.27-.074-1.13.507-.859,29.885,13.878,64.36-5.042,94.135,9.526.577.285.072,1.144-.507.863" transform="translate(-8003.584 -1090.712)" fill="#292c3a"/>
        <path id="Trazado_116166" data-name="Trazado 116166" d="M8123.581,1317.826c-23.216-12.78-50.206-14.478-76.123-15.945-.638-.033-.643-1.034,0-1,26.093,1.475,53.253,3.213,76.629,16.08.563.311.061,1.174-.506.863" transform="translate(-7991.413 -1099.506)" fill="#292c3a"/>
        <path id="Trazado_116167" data-name="Trazado 116167" d="M8049.963,1176.284q-2.227,4.055-4.226,8.222c-.667,1.39-1.3,2.8-1.923,4.2a4.028,4.028,0,0,0-.5,2.6,9.413,9.413,0,0,0,1.712.791,2.831,2.831,0,0,1,1.866,3.029c-.542,2.268-2.512,3.378-4.282,4.682-.515.384-1.014-.483-.5-.859a15.956,15.956,0,0,0,3.389-2.881c1.853-2.42-1.513-3.3-2.69-3.9a1.578,1.578,0,0,1-.642-2.15c1.691-4.917,4.435-9.7,6.931-14.243.311-.563,1.171-.061.862.5" transform="translate(-7910.816 -1129.326)"/>
        <path id="Trazado_116168" data-name="Trazado 116168" d="M8039.808,1187.774c-.7,1.982-.327,3.917.825,4.326s2.661-.868,3.358-2.849.332-3.918-.825-4.324-2.658.864-3.358,2.846" transform="translate(-7902.113 -1127.109)"/>
        <path id="Trazado_116169" data-name="Trazado 116169" d="M8054.208,1183.16c-.584,2.019-.1,3.929,1.072,4.271s2.607-1.016,3.192-3.035.1-3.929-1.072-4.27-2.6,1.016-3.192,3.034" transform="translate(-7934.442 -1128.246)"/>
        <path id="Trazado_116170" data-name="Trazado 116170" d="M8039.513,1181.676a5.559,5.559,0,0,0-3.6-4.417c-1.1-.389-.628-2.159.486-1.764a7.359,7.359,0,0,1,4.874,5.693c.19,1.156-1.572,1.653-1.762.488" transform="translate(-7893.896 -1129.349)"/>
        <path id="Trazado_116171" data-name="Trazado 116171" d="M8059.042,1173.206a10.64,10.64,0,0,0-9.381-1.275c-1.227.4-1.749-1.53-.529-1.926a12.568,12.568,0,0,1,10.917,1.478c1.071.706.072,2.435-1.007,1.723" transform="translate(-7929.394 -1130.792)"/>
        <path id="Trazado_116172" data-name="Trazado 116172" d="M8053.361,1198.96a4.929,4.929,0,0,1-5.3-5.571c.082-.628,1.081-.636,1,0a3.953,3.953,0,0,0,4.3,4.574c.645-.05.638.947,0,1" transform="translate(-7922.203 -1125.191)"/>
        <path id="Trazado_116173" data-name="Trazado 116173" d="M8096.5,1156.9a21.972,21.972,0,0,1-26.747,21.383c-2.524,9.075-12.95,15.118-22.077,12.8a6.285,6.285,0,0,1-2.94-1.444c-1.222-1.214-1.458-3.09-1.483-4.812a33.031,33.031,0,0,1,1.966-11.7A35.015,35.015,0,0,1,8068,1151.765a35.6,35.6,0,0,1,30.76,5.6" transform="translate(-7961.218 -1135.3)" fill="#89221f"/>
        <path id="Trazado_116174" data-name="Trazado 116174" d="M8056.854,1242.834c.233-2.691.533-5.34.879-7.937.98-7.249,2.065-14.849,8.3-19.623a12.706,12.706,0,0,1,14.629-.743c5.676,3.581,6.563,8.345,6.2,14.754-1.054,18.542-8.752,36.988-4.16,55.5a126.6,126.6,0,0,0,24.367,49.021l-8.055,6.9a2.354,2.354,0,0,1-1.15.656,2.381,2.381,0,0,1-1.773-.835c-10.742-9.532-19.908-18.8-27.372-31.25-11.431-19.07-13.8-44.108-11.868-66.449" transform="translate(-7985.625 -1120.517)" fill="#e48866"/>
        <path id="Trazado_116175" data-name="Trazado 116175" d="M8106.47,1162.081c-.242,4.933-1.669,10.111-5.353,13.4s-8.88,4.111-13.286,6.318a23.056,23.056,0,0,0-11.821,14.592c-1.16,4.445-.947,9.115-.863,13.707s.025,9.309-1.638,13.595-5.249,8.1-9.794,8.777a12.884,12.884,0,0,1-9.142-2.523c-5.256-3.71-8.2-10.861-6.055-16.927,1.212-3.425,3.8-6.167,5.558-9.344,4.436-8.012,3.54-18.54,9.364-25.607" transform="translate(-7974.581 -1132.526)" fill="#89221f"/>
        <path id="Trazado_116176" data-name="Trazado 116176" d="M8005.345,1297.239c2.906.9,7.112,1.3,9.964,2.347,3.16,1.167,6.458,2.687,8.184,5.582.246.415.4,1.058-.024,1.289a.981.981,0,0,1-.817-.084q-3.157-1.328-6.312-2.659a33.344,33.344,0,0,1,5.778,5.754,11.274,11.274,0,0,1,2.355,7.639l-7.687-9.022c2.332,3.574,4.741,7.344,5.072,11.6.06.738-.087,1.68-.8,1.874q-3.056-4.989-6.115-9.98c1.719,3.927,3.466,8.337,2.013,12.369a1.081,1.081,0,0,1-.535.7c-.394.151-.807-.166-1.086-.488-2.466-2.819-2.367-7.077-4.243-10.321a19.9,19.9,0,0,1-1.852,8.145c-2.09-2.643-.566-5.629-1.613-8.583a5.766,5.766,0,0,0-6.484-3.574" transform="translate(-7834.853 -1100.373)" fill="none"/>
        <g id="Grupo_81630" data-name="Grupo 81630" transform="translate(80.635 29.114)" opacity="0.07" style="mix-blend-mode: multiply;isolation: isolate">
          <g id="Grupo_81629" data-name="Grupo 81629" transform="translate(0)">
            <g id="Grupo_81628" data-name="Grupo 81628" clip-path="url(#clip-path-2)">
              <path id="Trazado_116177" data-name="Trazado 116177" d="M8031.906,1166.278a156.425,156.425,0,0,1,58.237-3.16,88.4,88.4,0,0,1,10.183,1.947,32.066,32.066,0,0,1,3.41,8.779,119.547,119.547,0,0,0-12.594-.837c-9.832-.241-19.666-.168-29.5.015-9.149.171-18.3.439-27.419,1.225-2.021.177-4.058.386-6.052.764,1.145-2.947,2.458-5.852,3.732-8.734" transform="translate(-8028.171 -1161.725)" fill="#4d2c3c"/>
            </g>
          </g>
        </g>
        <path id="Trazado_116178" data-name="Trazado 116178" d="M8115.727,1172.3s-41.664-11.213-94.353,2.67c-12.991-8.171-11.521-12.584-11.521-12.584s55.144-31.616,99.747,0,8.579,16.908,8.579,16.908" transform="translate(-7952.98 -1135.797)" fill="#383c4e"/>
        <g id="Grupo_81633" data-name="Grupo 81633" transform="translate(114.814 60.539)" opacity="0.11" style="mix-blend-mode: multiply;isolation: isolate">
          <g id="Grupo_81632" data-name="Grupo 81632" transform="translate(0)">
            <g id="Grupo_81631" data-name="Grupo 81631" clip-path="url(#clip-path-3)">
              <path id="Trazado_116179" data-name="Trazado 116179" d="M8053.485,1188.967c-.719,1.813.917,4.169,3.658,5.258s5.546.5,6.268-1.309-.917-4.169-3.656-5.259-5.549-.5-6.269,1.31" transform="translate(-8053.316 -1187.111)" fill="#843c52"/>
            </g>
          </g>
        </g>
        <g id="Grupo_81636" data-name="Grupo 81636" transform="translate(134.688 67.882)" opacity="0.11" style="mix-blend-mode: multiply;isolation: isolate">
          <g id="Grupo_81635" data-name="Grupo 81635" transform="translate(0)">
            <g id="Grupo_81634" data-name="Grupo 81634" clip-path="url(#clip-path-4)">
              <path id="Trazado_116180" data-name="Trazado 116180" d="M8040.076,1194.634c-.571,1.434.453,3.19,2.293,3.921s3.794.16,4.363-1.274-.46-3.188-2.3-3.92-3.791-.161-4.358,1.274" transform="translate(-8039.915 -1193.043)" fill="#843c52"/>
            </g>
          </g>
        </g>
        <path id="Trazado_116181" data-name="Trazado 116181" d="M8084.366,1378.379h.556l0-.477h-.554c-.45,0-.9,0-1.353-.006l-.007.475c.459.006.908.007,1.36.007m2.467-.023c.642-.012,1.278-.03,1.914-.053l-.015-.475c-.638.023-1.271.04-1.905.052Zm-5.737-.014.013-.479q-.951-.022-1.9-.058l-.021.478c.637.022,1.274.043,1.911.059m9.561-.121c.638-.032,1.273-.071,1.913-.114l-.034-.477q-.954.063-1.9.113Zm-13.379-.021.023-.477c-.637-.032-1.269-.068-1.9-.105l-.031.473c.635.042,1.273.077,1.911.109m-3.817-.238.038-.474c-.634-.046-1.271-.1-1.9-.15l-.043.473c.635.056,1.273.105,1.905.151m21.017-.005q.949-.082,1.9-.182l-.05-.475c-.631.065-1.261.126-1.895.183Zm-24.823-.316.042-.475c-.629-.061-1.264-.125-1.895-.191l-.049.477q.951.1,1.9.189m28.625-.087c.632-.079,1.266-.166,1.9-.257l-.069-.473q-.941.138-1.887.256Zm-32.428-.313.058-.474c-.635-.072-1.265-.148-1.9-.224l-.058.473q.948.117,1.9.225m36.215-.24c.628-.1,1.258-.217,1.883-.334l-.089-.472q-.936.18-1.874.336Zm-40.006-.229.062-.473c-.63-.082-1.259-.17-1.89-.258l-.067.474c.631.088,1.26.175,1.895.256m43.768-.484c.625-.132,1.244-.271,1.864-.417l-.108-.464q-.925.217-1.859.416Zm-47.553-.046.069-.473c-.627-.092-1.255-.188-1.884-.285l-.071.473c.629.1,1.255.192,1.886.285m-3.773-.581.075-.472c-.629-.1-1.258-.2-1.883-.308l-.078.472c.628.106,1.257.208,1.886.308m55.048-.255c.4-.108.807-.213,1.208-.327q.32-.089.638-.179l-.128-.459-.636.18c-.4.111-.8.22-1.2.323Zm-58.818-.371.081-.469c-.626-.109-1.252-.217-1.879-.329l-.084.472q.941.167,1.882.327m-3.764-.661.085-.468-1.874-.344-.089.47c.625.116,1.254.23,1.878.342m66.261-.028c.607-.192,1.217-.392,1.818-.6l-.155-.451c-.6.205-1.2.4-1.808.594Zm-70.014-.66.086-.469c-.626-.118-1.251-.234-1.875-.353l-.09.468c.626.119,1.25.238,1.878.354m73.635-.582c.6-.223,1.194-.452,1.785-.691l-.174-.443q-.882.356-1.774.687Zm-77.389-.129.086-.465-1.875-.362-.088.469Zm80.94-1.3q.882-.382,1.749-.785l-.2-.436q-.862.4-1.736.78Zm3.5-1.49.53-.188c.4-.137.822-.288,1.275-.451l-.165-.449c-.448.162-.875.312-1.268.449l-.533.189Zm3.6-1.321c.655-.264,1.233-.515,1.764-.763l-.2-.434c-.521.247-1.088.494-1.74.752Zm3.476-1.666a9.089,9.089,0,0,0,1.579-1.165l-.332-.345a8.685,8.685,0,0,1-1.491,1.1Zm2.612-2.9a2.1,2.1,0,0,0,.023-.308,2.182,2.182,0,0,0-.17-.834,4.129,4.129,0,0,0-.244-.451c-.064-.108-.124-.214-.178-.324l-.432.2c.06.126.131.242.2.363a3.4,3.4,0,0,1,.214.4,1.7,1.7,0,0,1,.135.647,1.294,1.294,0,0,1-.019.232Zm-.015-3.175c.183-.11.386-.21.592-.311a6,6,0,0,0,.979-.562c.04-.032.076-.064.117-.1l-.315-.36a.958.958,0,0,1-.1.083,5.943,5.943,0,0,1-.9.511c-.214.106-.432.214-.625.328Zm2.539-2.83c.008-.084.01-.167.01-.25a3.49,3.49,0,0,0-.058-.622,7.153,7.153,0,0,0-.285-1.089l-.449.153a7.372,7.372,0,0,1,.267,1.021,3.364,3.364,0,0,1,.046.536c0,.072,0,.144,0,.216Zm-1.59-3.462.4-.261a9.168,9.168,0,0,0-1.241-1.508l-.334.339a8.815,8.815,0,0,1,1.179,1.43m-2.618-2.619.274-.39a14.667,14.667,0,0,0-1.656-1.008l-.221.422a14.622,14.622,0,0,1,1.6.975m-3.313-1.766.178-.443c-.578-.234-1.192-.454-1.815-.652l-.142.454c.61.193,1.211.41,1.78.641m-3.606-1.15.113-.463c-.616-.151-1.248-.287-1.88-.4l-.087.47c.624.114,1.25.246,1.854.395m-3.727-.686.061-.474c-.472-.058-.926-.106-1.359-.14l-.548-.051-.046.475.553.049c.425.036.876.082,1.341.14m-3.8-.415.064-.47c-.627-.087-1.252-.186-1.877-.291l-.08.47q.946.162,1.893.291m-3.776-.64.088-.468c-.621-.123-1.24-.253-1.864-.387l-.1.469c.624.134,1.247.265,1.876.386m-3.744-.8.108-.467q-.928-.211-1.861-.431l-.106.465,1.859.432m-3.719-.867.109-.463c-.623-.145-1.241-.288-1.862-.427l-.1.467c.618.138,1.24.28,1.856.423m-3.722-.824.1-.468q-.935-.2-1.878-.369l-.088.469c.625.115,1.247.238,1.867.368m-3.739-.688.071-.473c-.48-.073-.961-.142-1.447-.2l-.45-.057-.06.474.453.057c.475.062.957.13,1.433.2m-3.779-.484.052-.475c-.631-.073-1.264-.141-1.9-.208l-.051.475q.954.1,1.9.208m-3.791-.4.043-.477-1.9-.176-.043.475c.632.057,1.267.115,1.9.177m-3.8-.343.042-.473q-.951-.083-1.9-.163l-.039.477,1.9.16m-3.8-.314.041-.475-1.9-.156-.038.477Zm-3.8-.313.037-.474-1.9-.163-.042.477Zm-3.807-.33.044-.477c-.633-.057-1.265-.119-1.9-.181l-.047.477q.949.093,1.9.181m-3.8-.376.05-.477c-.633-.066-1.262-.135-1.895-.213l-.056.474c.634.075,1.269.146,1.9.215m-3.8-.447.063-.474c-.631-.083-1.26-.167-1.889-.258l-.067.473c.631.092,1.259.177,1.893.259m-3.784-.541.073-.473c-.627-.1-1.254-.2-1.877-.312l-.082.469c.626.11,1.256.217,1.886.316m-3.77-.661.092-.469c-.624-.123-1.244-.249-1.864-.38l-.1.464c.625.135,1.25.262,1.874.385m-3.74-.807.11-.463c-.618-.15-1.232-.3-1.846-.463l-.122.464c.62.16,1.235.316,1.857.462m-3.7-.97.132-.457c-.608-.178-1.218-.362-1.823-.553l-.145.454c.612.193,1.222.38,1.835.556m-3.652-1.16.156-.452c-.6-.208-1.194-.423-1.791-.649l-.168.444c.6.228,1.2.448,1.8.656m-3.58-1.41.21-.431c-.561-.267-1.118-.572-1.659-.9l-.249.409c.558.333,1.129.642,1.7.918m-3.3-1.988.282-.385c-.5-.366-1-.761-1.477-1.176l-.314.359c.488.423,1,.828,1.509,1.2m-2.914-2.523.344-.334c-.441-.446-.865-.919-1.27-1.4l-.366.307c.411.493.846.974,1.292,1.428m-2.474-2.951.39-.278c-.367-.511-.716-1.044-1.037-1.578l-.411.246c.329.546.687,1.088,1.058,1.61m-1.99-3.294.423-.217c-.278-.555-.544-1.133-.783-1.719l-.441.182c.244.6.515,1.188.8,1.754m-1.463-3.565.455-.145c-.191-.6-.361-1.208-.5-1.82l-.463.106c.142.626.317,1.25.51,1.858m-.86-3.753.472-.066c-.089-.623-.15-1.253-.18-1.88l-.478.025c.034.639.094,1.285.186,1.921m.286-3.83c.03-.639.094-1.269.181-1.876l-.472-.068a19.184,19.184,0,0,0-.186,1.924Zm.55-3.719a11.856,11.856,0,0,1,.61-1.771l-.438-.188a12.42,12.42,0,0,0-.634,1.837Zm1.49-3.413a8.132,8.132,0,0,1,1.179-1.427l-.332-.345a8.865,8.865,0,0,0-1.247,1.509Zm2.673-2.469a4.465,4.465,0,0,1,1.745-.435l-.018-.478a4.993,4.993,0,0,0-1.93.478Zm1.084-2.226.469-.085a4.375,4.375,0,0,1-.069-.769v-.026l.471.106.1-.465-1.022-.23-.021.277c-.006.114-.01.225-.01.338a4.8,4.8,0,0,0,.077.854m3.322-.224-.065-.354c-.1-.545-.192-1.091-.276-1.638l-.474.072q.123.8.271,1.6l-.041.191Zm-1.062-3.824.476-.051c-.068-.63-.125-1.26-.167-1.891l-.476.031c.045.639.1,1.276.167,1.911m-.253-3.825.476-.014c-.012-.413-.017-.821-.017-1.233l0-.667-.479,0,0,.671c0,.417,0,.832.02,1.248m.527-3.81c.035-.63.081-1.261.141-1.894l-.473-.045c-.062.637-.108,1.275-.146,1.914Zm.361-3.779q.127-.941.294-1.877l-.469-.083c-.112.63-.214,1.261-.3,1.894Zm.665-3.74q.2-.927.445-1.846l-.459-.121c-.165.618-.313,1.238-.45,1.864Zm.97-3.67c.188-.6.385-1.206.595-1.8l-.448-.161q-.319.908-.6,1.822Z" transform="translate(-7985.857 -1105.128)" fill="#292c3a"/>
        <path id="Trazado_116182" data-name="Trazado 116182" d="M8167.6,1344.166l-8.74,31.683s-31.738-14.32-35.967-13.982-6.66,24.065-24.208,19.271c4.462-29.88,10.259-27.3,14.905-47.786,16.61,2.936,54.01,10.814,54.01,10.814" transform="translate(-8098.684 -1091.782)" fill="#e2a534"/>
        <path id="Trazado_116183" data-name="Trazado 116183" d="M8103.981,1347.822a11.316,11.316,0,0,1,3.923.025q7.8.986,15.5,2.6l-3.221,11.681a63.143,63.143,0,0,1-8.83-2.04c-3.54-1.113-7.127-2.732-9.318-5.727a4.7,4.7,0,0,1-1.014-4.194,3.979,3.979,0,0,1,2.958-2.348" transform="translate(-8057.164 -1088.379)" fill="#cf902d"/>
        <path id="Trazado_116184" data-name="Trazado 116184" d="M8052.155,1306.845c3.121,3.28,7.027,5.644,10.8,8.085,3.538,2.294,7.731,4.872,10.088,8.463a1.486,1.486,0,0,1,.317.842,1.083,1.083,0,0,1-1.179.88,3.128,3.128,0,0,1-1.479-.636q-3.257-2.13-6.507-4.258a20.2,20.2,0,0,1,6.918,14.876c.008.605-.262,1.432-.858,1.326a1.053,1.053,0,0,1-.628-.551,112.094,112.094,0,0,1-5.86-10.807,43.073,43.073,0,0,1,1.63,6.816,33.306,33.306,0,0,1-.125,6.775,2.155,2.155,0,0,1-.173.831.739.739,0,0,1-.683.432c-.347-.035-.573-.381-.72-.7-1.808-3.841-.267-8.968-3.551-12.256.408,5.283.51,11.375-3.419,14.926-1.111-.67-1.113-2.254-.981-3.547.342-3.322,1.123-6.918,1.027-10.236-.554,1.874-.87,3.818-1.448,5.694a7.954,7.954,0,0,1-2.532,4.325.686.686,0,0,1-.6.168c-.262-.1-.322-.433-.331-.711-.1-2.575.437-5.172.036-7.716-.994-6.3-6.372-10.719-9.847-15.649" transform="translate(-7934.33 -1098.088)" fill="none"/>
        <g id="Grupo_81639" data-name="Grupo 81639" transform="translate(183.025 183.737)">
          <g id="Grupo_81638" data-name="Grupo 81638">
            <path id="Trazado_116185" data-name="Trazado 116185" d="M7956,1371.429h-25.2a82.481,82.481,0,0,1-82.481-82.482h190.166A82.482,82.482,0,0,1,7956,1371.429Z" transform="translate(-7842.655 -1286.083)" fill="#999"/>
            <path id="Trazado_116186" data-name="Trazado 116186" d="M8041.786,1293.507h-194.6a3.437,3.437,0,1,1,0-6.874h194.6a3.437,3.437,0,0,1,0,6.874Z" transform="translate(-7843.746 -1286.633)" fill="#999"/>
            <g id="Grupo_81637" data-name="Grupo 81637" transform="translate(7.908 6.656)">
              <path id="Trazado_116187" data-name="Trazado 116187" d="M7849.833,1292.446H8035.7a.218.218,0,0,0,0-.436H7849.833a.218.218,0,1,0,0,.436Z" transform="translate(-7849.615 -1292.01)" fill="#22130b"/>
            </g>
          </g>
        </g>
        <g id="Grupo_81642" data-name="Grupo 81642" transform="translate(308.763 199.976)">
          <g id="Grupo_81641" data-name="Grupo 81641">
            <path id="Trazado_116188" data-name="Trazado 116188" d="M7874.62,1409.02h-25.2a82.48,82.48,0,0,1-82.481-82.481H7957.1A82.481,82.481,0,0,1,7874.62,1409.02Z" transform="translate(-7761.278 -1323.675)" fill="#c7c3c3"/>
            <path id="Trazado_116189" data-name="Trazado 116189" d="M7960.407,1331.1H7765.8a3.437,3.437,0,1,1,0-6.874h194.6a3.437,3.437,0,0,1,0,6.874Z" transform="translate(-7762.367 -1324.226)" fill="#c7c3c3"/>
            <g id="Grupo_81640" data-name="Grupo 81640" transform="translate(7.909 6.656)">
              <path id="Trazado_116190" data-name="Trazado 116190" d="M7768.453,1330.038h185.867a.218.218,0,1,0,0-.436H7768.453a.218.218,0,0,0,0,.436Z" transform="translate(-7768.235 -1329.603)" fill="#22130b"/>
            </g>
          </g>
        </g>
        <g id="Grupo_81643" data-name="Grupo 81643" transform="translate(249.347 153.245)">
          <path id="Trazado_116191" data-name="Trazado 116191" d="M7878.048,1270.193a8.191,8.191,0,1,0,8.19-8.192,8.189,8.189,0,0,0-8.19,8.192" transform="translate(-7801.739 -1262.001)" fill="#fcfdfd"/>
          <path id="Trazado_116192" data-name="Trazado 116192" d="M7851.286,1300.8a8.222,8.222,0,0,1,2.139-5.535,5.156,5.156,0,0,1,4.091-2.465,8.17,8.17,0,0,1,7.39,1.721.983.983,0,0,0,.279-.614,5.167,5.167,0,0,1,2.267-3.26c.081-.067.155-.13.224-.194a12.04,12.04,0,1,1,17.009-17.021q.395.355.768.754c.537.568.967,1.264,2.019.5a13.207,13.207,0,0,1,9.561-2.687c1.088.134,1.331-.18,1.566-1.2,1.015-4.383,5.386-7.748,9.691-7.428a9.137,9.137,0,0,1,7.711,5.286,11.234,11.234,0,0,0,4.976,3.771,3.627,3.627,0,0,1,.722.373c2.917,1.671,5.409,3.647,5.776,7.358.045.438-.318,2.051,1.3,1.076a12.322,12.322,0,0,1,15.189,1.542,2.012,2.012,0,0,0,2.625.494c3.954-1.65,10.772-.921,13.748,4.419a11.085,11.085,0,0,1,1.681,6.587,3.716,3.716,0,0,0,.007.913,6.684,6.684,0,1,1,4.161,11.915c-.074,0-.143-.009-.215-.01a12.888,12.888,0,1,1-23.657.753c0-.309.006-.618,0-.926,0-.889.226-1.872-1.181-1.826-1.142-.179-2.326.295-3.445-.514-1.334-.964-2.674-.588-3.883.431a6.749,6.749,0,0,1-2.918,1.741,13.378,13.378,0,0,0-1.508.6c-5.12,2.786-9.927.458-10.745-5.221a8.083,8.083,0,0,0-.1-1.014c-.625-2.24-2.571-3.277-4.328-2.323-5.282,2.871-7.656,2.667-12.192-1.044-.4-.329-.663-.826-1.344-.29-1.434,1.125-1.593,2.663-.29,3.9a8.381,8.381,0,0,1-1.9,13.544c-2.163,1.157-4.261,1.07-6.486.864-2.248-.082-3.6-1.582-4.927-3.118a11.629,11.629,0,0,1-1.69-4.788c-.66-3.106-.877-3.215-3.4-1.469a7.5,7.5,0,0,1-2.72,1.384,10.018,10.018,0,0,0-3.464,1.245,9,9,0,0,1-17.772.54q-1.664-1.029-3.382-1.992a4.37,4.37,0,0,1-1.533-1.588,8.22,8.22,0,0,1-1.824-5.172" transform="translate(-7847.049 -1261.682)" fill="#fdfdfd"/>
          <path id="Trazado_116193" data-name="Trazado 116193" d="M7867.585,1274.849c1.164,1.607,2.68,2.079,3.876,1.209a3.677,3.677,0,0,0,.766-4.895,3.466,3.466,0,0,0-4.762-.425c-1.033.833-.971,2.767.134,4.125.344-.134.378-1.078.958-.479.444.458-.207.184-.261.2a2.368,2.368,0,0,0-.712.266" transform="translate(-7766.143 -1260.1)" fill="#f6fafb"/>
          <path id="Trazado_116194" data-name="Trazado 116194" d="M7950.4,1281.223a3.026,3.026,0,0,0-2.664,2.806,3.531,3.531,0,0,0,3.316,3.657,3.825,3.825,0,0,0,3.1-3.28,3.682,3.682,0,0,0-3.757-3.182" transform="translate(-7947.738 -1257.428)" fill="#f7fbfb"/>
          <path id="Trazado_116195" data-name="Trazado 116195" d="M7845.419,1286.946c.447,1.766,1.743,2.471,3.666,1.993a3.06,3.06,0,0,0,2.024-3.878,3.376,3.376,0,0,0-4.263-2.044c-1.632.553-2.125,1.932-1.411,3.944.374-.378.749-.521,1.21-.1a2.239,2.239,0,0,0,1.805.608c-1.117.63-1.892-1.016-3.031-.525" transform="translate(-7717.776 -1257.042)" fill="#f7fafb"/>
          <path id="Trazado_116196" data-name="Trazado 116196" d="M7855.406,1294.647a7.452,7.452,0,0,0,1.443,6.444,6.288,6.288,0,0,0,9.858.521c.77-.81,1.646-.52,2.47-.4a17.2,17.2,0,0,0,12.25-2.614,3.754,3.754,0,0,1,4.385-.244c2.243,1.391,4.7,1.243,7.131,1.054,2.154-.168,2.953-2.226,4.309-3.5a1.615,1.615,0,0,0,.2-.354c.841-1.4,1.439-3.151,2.825-3.934,1.675-.947,2.749,1.192,4.319,1.562a14.092,14.092,0,0,0,8.349-.068,5.611,5.611,0,0,1,7.765,4.109c1.2,5.359,5.35,6.732,9.521,3.1,3.154-2.745,6.451-3.246,10.35-1.48,3.783,1.714,7.239.647,7.139-4.546-.008-.343-.008-.683.007-1.025.02-.472-.061-1.03.439-1.279.59-.3,1.036.15,1.435.5,1.575,1.393,2.814,3.146,4.76,4.145,1.922.988,3.66,1.243,5.417-.358,1.418-1.291,2.828-.181,4.167.308,1.441.525,2.775.749,4.128-.534a4.057,4.057,0,0,1-4.758-1.818c-.43-.646-.975-.207-1.478-.151-3.026.333-3.814-.127-4.5-3.009-.28-1.166-.785-1.589-1.952-1.479a4.05,4.05,0,0,1-4.459-2.47c-.529-1.151-1.383-1.005-2.148-.307a4.366,4.366,0,0,1-3.591,1.118,15.143,15.143,0,0,0-5.231-.063c-1.3.3-2.233-.822-3.133-1.643-.611-.558-.914-.511-1.651.032-1.694,1.248-1.936,2.773-1.822,4.705.142,2.4-1.222,4.117-3.733,4.964-2.021.68-3.6-.38-4.911-1.745a5.535,5.535,0,0,1,.063-7.175c1.142-1.214.945-1.8-.558-2.19-.676-.176-1.53-.391-1.628-1.071-.188-1.314-1.109-1.509-2.072-1.854-2.631-.948-2.624-.97-4.353-3.3-.658,1.074-1.236,2.118-1.905,3.1-2.6,3.823-6.431,4.058-9.343.593a1.982,1.982,0,0,0-1.514-.9c-1.279-.047-2.618.317-3.818-.318-1.06-.558-2.05-1.252-3.317-2.038a6.847,6.847,0,0,1-3.064,6.219c-.432.3-.381.865-.322,1.336.333,2.594-1.049,4.117-3.243,5.016-.75.306-.789.753-.9,1.382-.481,2.8-2.454,3.9-5.062,2.844a5.373,5.373,0,0,1-1.432-.78c-1.731-1.44-3.254-2.554-4.86.309-.885,1.573-1.977.375-2.767-.469a7.906,7.906,0,0,1-.664-1.238c-.351-.56-.548-1.419-1.275-1.468-.874-.058-.822.9-1.146,1.461-.781,1.352-1.625,2.663-3.513,1.549-.961-.566-1.349.016-1.638.818-.5,1.38-1.169,2.512-2.953,2.082a.732.732,0,0,0-.566.109c-.972.809-2,1.6-3.316,1.015a6.588,6.588,0,0,1-3.528-3.538c-.1-.246-.27-.468-.606-1.04" transform="translate(-7847.115 -1258.052)" fill="#b9ebfa"/>
          <path id="Trazado_116197" data-name="Trazado 116197" d="M7940.632,1279.726c-3.51,4.291-7.462,5.428-11.284,2.975-2.822-1.812-4.192-4.677-4.756-7.941-.107-.614.3-1.645-.624-1.692-.964-.051-.854,1.021-1.028,1.719-.554,2.224-1.125,4.377-.464,6.762.939,3.381,2.83,5.366,6.364,5.957,5.1.852,11.415-2.963,11.792-7.78" transform="translate(-7902.57 -1259.369)" fill="#baeaf8"/>
          <path id="Trazado_116198" data-name="Trazado 116198" d="M7878.2,1302.72c-2.139,1.981-4.156,3.94-7.348,3.825a7.847,7.847,0,0,1-6.1-3.5,8.744,8.744,0,0,1-2.145-4.755c-.023-.54-.132-1.344-.935-1.39-.712-.038-1.1.568-1.266,1.152a12.149,12.149,0,0,0,1.139,9.465c1.087,1.92,3.577,2.223,5.945,2.412,3.834.3,6.689-1.3,9.312-3.709.972-.894,1.113-2.206,1.4-3.5" transform="translate(-7763.053 -1253.698)" fill="#bbebf8"/>
          <path id="Trazado_116199" data-name="Trazado 116199" d="M7922.958,1299.594c-1.735.968-2.633,2.4-4.3,2.627a5.748,5.748,0,0,1-6.228-2.814c-.535-.881-1.213-1.672-2.274-1.229-1.181.492-.681,1.645-.5,2.506.94,4.479,4.694,4.919,8.719,3.745,2.039-.6,3.281-2.087,4.584-4.834" transform="translate(-7869.068 -1253.425)" fill="#b8eaf8"/>
          <path id="Trazado_116200" data-name="Trazado 116200" d="M7892.037,1289.719c-3.532,2.327-3.9,2.153-6.948-3.257-1.28,2.562-.711,5.028,1.359,5.913a4.309,4.309,0,0,0,5.589-2.656" transform="translate(-7807.221 -1256.182)" fill="#c0eaf7"/>
          <path id="Trazado_116201" data-name="Trazado 116201" d="M7942.156,1299.8c-2.441,2.859-5.623.63-8.339,1.424-.329.1-.839-.363-1.025.219-.178.553.224.909.667,1.123,2.745,1.326,6.811,1.717,8.7-2.766" transform="translate(-7917.179 -1253.009)" fill="#bce7f6"/>
          <path id="Trazado_116202" data-name="Trazado 116202" d="M7891.643,1269.591c-.57.473-.827.673-1.069.886-3.06,2.671-6.7,1.584-7.821-2.317-.233-.8-.144-2.274-1.023-2.154-1.135.157-.622,1.583-.633,2.454-.048,3.675.886,5.169,3.308,5.617,2.786.516,6.552-1.266,7.239-4.486" transform="translate(-7802.592 -1261.05)" fill="#bdedf1"/>
          <path id="Trazado_116203" data-name="Trazado 116203" d="M7867.937,1274.378a3.355,3.355,0,0,0,3.059.094,6.391,6.391,0,0,1-3.026-2.5c-.654.966.18,1.695-.019,2.425l-.013-.015" transform="translate(-7765.512 -1259.63)" fill="#bdeaee"/>
          <path id="Trazado_116204" data-name="Trazado 116204" d="M7949.479,1282.714c-.487,1.481-.5,2.41.381,3.063.865.639,1.8.563,3.227-.144a4.114,4.114,0,0,1-3.607-2.919" transform="translate(-7948.409 -1257.074)" fill="#bfefe4"/>
          <path id="Trazado_116205" data-name="Trazado 116205" d="M7845.72,1286.521c2.418,1.682,3.118,1.639,5.077-.729-2.307,1.442-3.584.526-4.538-1.16-.855.561-.423,1.295-.523,1.9l-.015-.015" transform="translate(-7718.077 -1256.617)" fill="#c5edf1"/>
        </g>
        <g id="Grupo_81644" data-name="Grupo 81644" transform="translate(426.28 233.672)">
          <path id="Trazado_116206" data-name="Trazado 116206" d="M7811.593,1380.463a5.115,5.115,0,1,0-5.115,5.116,5.114,5.114,0,0,0,5.115-5.116" transform="translate(-7775.904 -1345.76)" fill="#fcfdfd"/>
          <path id="Trazado_116207" data-name="Trazado 116207" d="M7840.93,1366.836a5.125,5.125,0,0,1-1.338,3.456,3.219,3.219,0,0,1-2.553,1.541,5.2,5.2,0,0,1-1.268.162,5.133,5.133,0,0,1-3.346-1.238.607.607,0,0,0-.175.384,3.226,3.226,0,0,1-1.416,2.035c-.05.043-.1.083-.141.123a7.518,7.518,0,1,1-10.621,10.63q-.245-.221-.48-.472c-.334-.354-.6-.789-1.26-.312a8.253,8.253,0,0,1-5.97,1.679c-.679-.083-.832.111-.979.751a6.083,6.083,0,0,1-6.049,4.64,5.707,5.707,0,0,1-4.818-3.3,7.016,7.016,0,0,0-3.107-2.354,2.2,2.2,0,0,1-.452-.234c-1.821-1.041-3.375-2.277-3.605-4.6-.028-.272.2-1.28-.812-.671a7.694,7.694,0,0,1-9.486-.963,1.259,1.259,0,0,0-1.641-.308c-2.468,1.03-6.726.576-8.585-2.76a6.941,6.941,0,0,1-1.049-4.114,2.394,2.394,0,0,0,0-.57,4.174,4.174,0,1,1-2.6-7.44c.047,0,.088,0,.132.006a8.048,8.048,0,1,1,14.776-.469c0,.192,0,.384,0,.577,0,.556-.142,1.169.737,1.14.713.112,1.454-.184,2.152.321a1.832,1.832,0,0,0,2.426-.269,4.194,4.194,0,0,1,1.82-1.087,8.164,8.164,0,0,0,.942-.373c3.2-1.742,6.2-.287,6.712,3.261a4.785,4.785,0,0,0,.064.632c.39,1.4,1.606,2.046,2.7,1.451,3.3-1.792,4.784-1.666,7.617.651.251.205.413.515.837.182a1.481,1.481,0,0,0,.182-2.433,5.233,5.233,0,0,1,1.184-8.458,6.719,6.719,0,0,1,4.05-.54c1.4.051,2.248.988,3.076,1.948a7.258,7.258,0,0,1,1.056,2.99c.41,1.94.548,2.008,2.122.917a4.651,4.651,0,0,1,1.7-.864,6.257,6.257,0,0,0,2.16-.777,5.622,5.622,0,0,1,11.1-.338q1.037.643,2.112,1.244a2.748,2.748,0,0,1,.957.993,5.139,5.139,0,0,1,1.14,3.228" transform="translate(-7760.23 -1351.446)" fill="#fdfdfd"/>
          <path id="Trazado_116208" data-name="Trazado 116208" d="M7816.893,1376.37c-.727-1-1.672-1.3-2.42-.756a2.3,2.3,0,0,0-.478,3.058,2.162,2.162,0,0,0,2.972.265,1.908,1.908,0,0,0-.082-2.576c-.216.084-.237.672-.6.3-.276-.287.13-.115.164-.124a1.452,1.452,0,0,0,.444-.166" transform="translate(-7796.899 -1345.76)" fill="#f6fafb"/>
          <path id="Trazado_116209" data-name="Trazado 116209" d="M7765.211,1372.385a1.89,1.89,0,0,0,1.664-1.753,2.2,2.2,0,0,0-2.073-2.284,2.387,2.387,0,0,0-1.937,2.049,2.3,2.3,0,0,0,2.346,1.988" transform="translate(-7683.531 -1347.425)" fill="#f7fbfb"/>
          <path id="Trazado_116210" data-name="Trazado 116210" d="M7830.737,1368.783a1.668,1.668,0,0,0-2.291-1.245,1.91,1.91,0,0,0-1.264,2.423,2.108,2.108,0,0,0,2.662,1.276c1.021-.345,1.327-1.207.882-2.464-.235.236-.467.327-.757.061a1.4,1.4,0,0,0-1.127-.38c.7-.393,1.182.636,1.895.329" transform="translate(-7827.105 -1347.639)" fill="#f7fafb"/>
          <path id="Trazado_116211" data-name="Trazado 116211" d="M7837.313,1366.243a4.652,4.652,0,0,0-.9-4.024,3.927,3.927,0,0,0-6.157-.326c-.481.505-1.029.326-1.543.252a10.739,10.739,0,0,0-7.649,1.633,2.346,2.346,0,0,1-2.74.152,7,7,0,0,0-4.454-.66c-1.344.107-1.842,1.391-2.691,2.184a.968.968,0,0,0-.124.221c-.525.873-.9,1.968-1.766,2.457-1.044.592-1.716-.744-2.7-.975a8.806,8.806,0,0,0-5.213.042,3.5,3.5,0,0,1-4.85-2.566c-.747-3.346-3.341-4.2-5.944-1.935a5.515,5.515,0,0,1-6.463.925c-2.363-1.071-4.523-.4-4.46,2.838,0,.213,0,.426,0,.64-.011.295.037.644-.275.8-.368.183-.646-.094-.895-.314a15.447,15.447,0,0,0-2.974-2.589,2.671,2.671,0,0,0-3.385.223c-.884.806-1.764.114-2.6-.193a2.211,2.211,0,0,0-2.578.334,2.532,2.532,0,0,1,2.971,1.135c.269.4.609.13.923.094,1.891-.208,2.382.081,2.81,1.88.174.729.49.992,1.219.923a2.526,2.526,0,0,1,2.784,1.542c.33.719.863.628,1.343.192a2.725,2.725,0,0,1,2.243-.7,9.462,9.462,0,0,0,3.267.038c.813-.186,1.4.513,1.956,1.026.382.349.57.321,1.031-.02a2.965,2.965,0,0,0,1.138-2.939,2.982,2.982,0,0,1,2.332-3.1,2.871,2.871,0,0,1,3.068,1.089,3.457,3.457,0,0,1-.04,4.481c-.712.76-.589,1.123.351,1.368.419.11.954.244,1.015.669.119.822.693.943,1.295,1.159a3.965,3.965,0,0,1,2.718,2.062c.411-.671.771-1.323,1.189-1.937,1.626-2.387,4.016-2.534,5.834-.37a1.24,1.24,0,0,0,.946.56,5.226,5.226,0,0,1,2.386.2c.663.348,1.28.78,2.072,1.273a4.27,4.27,0,0,1,1.914-3.885c.27-.188.238-.54.2-.835a2.8,2.8,0,0,1,2.028-3.131c.466-.191.492-.472.561-.863a2.107,2.107,0,0,1,3.16-1.776,3.364,3.364,0,0,1,.895.488c1.08.9,2.033,1.595,3.038-.193.55-.983,1.232-.235,1.726.292a5.051,5.051,0,0,1,.415.774c.219.349.34.886.8.916.546.036.515-.563.716-.912.487-.844,1.015-1.662,2.194-.967.6.354.843-.01,1.023-.512.309-.86.729-1.567,1.846-1.3a.457.457,0,0,0,.353-.068c.606-.506,1.25-1,2.072-.635a4.132,4.132,0,0,1,2.2,2.21,7.389,7.389,0,0,0,.379.65" transform="translate(-7759.145 -1349.278)" fill="#b9ebfa"/>
          <path id="Trazado_116212" data-name="Trazado 116212" d="M7772.755,1374.291c2.191-2.68,4.66-3.389,7.045-1.858a6.967,6.967,0,0,1,2.972,4.959c.066.384-.185,1.027.388,1.058.6.031.533-.639.643-1.073a7.97,7.97,0,0,0,.29-4.226,4.6,4.6,0,0,0-3.975-3.719c-3.188-.532-7.128,1.852-7.363,4.859" transform="translate(-7713.18 -1347.185)" fill="#baeaf8"/>
          <path id="Trazado_116213" data-name="Trazado 116213" d="M7811.729,1359.751c1.336-1.237,2.595-2.46,4.588-2.387a4.891,4.891,0,0,1,3.811,2.182,5.465,5.465,0,0,1,1.34,2.97c.016.336.083.839.584.868.444.025.685-.355.79-.719a7.585,7.585,0,0,0-.711-5.911c-.68-1.2-2.233-1.39-3.712-1.506a7.377,7.377,0,0,0-5.815,2.316,3.863,3.863,0,0,0-.875,2.187" transform="translate(-7800.291 -1350.547)" fill="#bbebf8"/>
          <path id="Trazado_116214" data-name="Trazado 116214" d="M7783.208,1360.968c1.086-.6,1.645-1.5,2.686-1.639a3.585,3.585,0,0,1,3.889,1.756c.334.55.756,1.044,1.422.768.735-.307.423-1.027.313-1.566-.589-2.8-2.936-3.07-5.448-2.339-1.275.373-2.048,1.3-2.862,3.019" transform="translate(-7733.518 -1349.981)" fill="#b8eaf8"/>
          <path id="Trazado_116215" data-name="Trazado 116215" d="M7801.8,1367.048c2.206-1.454,2.438-1.345,4.339,2.034.8-1.6.444-3.141-.849-3.693a2.688,2.688,0,0,0-3.491,1.659" transform="translate(-7771.428 -1348.173)" fill="#c0eaf7"/>
          <path id="Trazado_116216" data-name="Trazado 116216" d="M7770.719,1360.446c1.524-1.784,3.511-.392,5.207-.888.206-.061.522.225.639-.137.112-.345-.138-.568-.416-.7-1.713-.828-4.253-1.073-5.43,1.726" transform="translate(-7702.973 -1349.848)" fill="#bce7f6"/>
          <path id="Trazado_116217" data-name="Trazado 116217" d="M7802.414,1379.853c.356-.295.517-.421.668-.553,1.91-1.669,4.18-.99,4.884,1.447.146.5.088,1.42.639,1.344.709-.1.389-.988.4-1.532.03-2.294-.554-3.227-2.066-3.507a4.027,4.027,0,0,0-4.521,2.8" transform="translate(-7774.682 -1345.368)" fill="#bdedf1"/>
          <path id="Trazado_116218" data-name="Trazado 116218" d="M7816.332,1376.223a2.091,2.091,0,0,0-1.91-.059,3.989,3.989,0,0,1,1.891,1.563c.408-.6-.113-1.058.012-1.514l.007.01" transform="translate(-7796.953 -1345.614)" fill="#bdeaee"/>
          <path id="Trazado_116219" data-name="Trazado 116219" d="M7765.488,1371.1c.3-.923.315-1.5-.236-1.913s-1.125-.351-2.017.09a2.569,2.569,0,0,1,2.252,1.822" transform="translate(-7682.813 -1347.291)" fill="#bfefe4"/>
          <path id="Trazado_116220" data-name="Trazado 116220" d="M7830.429,1368.667c-1.513-1.051-1.95-1.024-3.173.454a1.747,1.747,0,0,1,2.834.725c.535-.35.266-.808.329-1.19l.01.01" transform="translate(-7826.796 -1347.523)" fill="#c5edf1"/>
        </g>
        <g id="Grupo_81645" data-name="Grupo 81645" transform="translate(313.677 186.723)">
          <path id="Trazado_116221" data-name="Trazado 116221" d="M7874.393,1318.636a5.115,5.115,0,1,0,5.115-5.117,5.113,5.113,0,0,0-5.115,5.117" transform="translate(-7826.737 -1313.519)" fill="#fcfdfd"/>
          <path id="Trazado_116222" data-name="Trazado 116222" d="M7857.681,1337.747a5.117,5.117,0,0,1,1.335-3.454,3.224,3.224,0,0,1,2.554-1.541,5.218,5.218,0,0,1,1.269-.163,5.124,5.124,0,0,1,3.344,1.238.606.606,0,0,0,.177-.382,3.229,3.229,0,0,1,1.416-2.036c.05-.043.094-.082.139-.123a7.519,7.519,0,1,1,10.622-10.63c.165.147.324.306.482.473.334.353.6.787,1.258.312a8.25,8.25,0,0,1,5.969-1.678c.681.083.833-.114.982-.751a6.083,6.083,0,0,1,6.05-4.641,5.708,5.708,0,0,1,4.815,3.3,7.029,7.029,0,0,0,3.108,2.353,2.246,2.246,0,0,1,.451.234c1.821,1.042,3.377,2.275,3.605,4.6.028.272-.2,1.28.814.671a7.7,7.7,0,0,1,9.485.963,1.256,1.256,0,0,0,1.639.31c2.469-1.03,6.726-.576,8.584,2.76a6.927,6.927,0,0,1,1.05,4.114,2.555,2.555,0,0,0,0,.568,4.175,4.175,0,1,1,2.6,7.441c-.047,0-.092,0-.135,0a8.047,8.047,0,1,1-15.333,3.417,8.079,8.079,0,0,1,.559-2.947c0-.193.005-.384,0-.579,0-.555.14-1.166-.737-1.139-.713-.111-1.453.186-2.152-.319a1.833,1.833,0,0,0-2.426.267,4.16,4.16,0,0,1-1.82,1.086,8.214,8.214,0,0,0-.943.375c-3.2,1.742-6.2.286-6.711-3.262a4.626,4.626,0,0,0-.066-.632c-.389-1.4-1.6-2.046-2.7-1.448-3.3,1.79-4.783,1.663-7.616-.652-.251-.208-.416-.516-.839-.182a1.483,1.483,0,0,0-.183,2.434,5.232,5.232,0,0,1-1.185,8.459,6.7,6.7,0,0,1-4.047.538c-1.4-.051-2.247-.989-3.076-1.947a7.286,7.286,0,0,1-1.058-2.989c-.41-1.941-.545-2.009-2.12-.919a4.722,4.722,0,0,1-1.7.865,6.22,6.22,0,0,0-2.162.779,5.621,5.621,0,0,1-11.1.337c-.689-.428-1.4-.844-2.111-1.245a2.722,2.722,0,0,1-.956-.991,5.129,5.129,0,0,1-1.14-3.231" transform="translate(-7855.034 -1313.32)" fill="#fdfdfd"/>
          <path id="Trazado_116223" data-name="Trazado 116223" d="M7867.859,1321.543c.727,1,1.673,1.3,2.419.755a2.3,2.3,0,0,0,.479-3.057,2.164,2.164,0,0,0-2.973-.266,1.912,1.912,0,0,0,.083,2.58c.215-.086.237-.675.6-.3.277.287-.128.115-.162.125a1.378,1.378,0,0,0-.444.166" transform="translate(-7804.507 -1312.332)" fill="#f6fafb"/>
          <path id="Trazado_116224" data-name="Trazado 116224" d="M7919.579,1325.524a1.89,1.89,0,0,0-1.663,1.75,2.2,2.2,0,0,0,2.072,2.285,2.383,2.383,0,0,0,1.938-2.049,2.3,2.3,0,0,0-2.347-1.987" transform="translate(-7917.915 -1310.663)" fill="#f7fbfb"/>
          <path id="Trazado_116225" data-name="Trazado 116225" d="M7854.016,1329.1a1.668,1.668,0,0,0,2.289,1.247,1.911,1.911,0,0,0,1.265-2.422,2.11,2.11,0,0,0-2.663-1.276c-1.019.345-1.326,1.206-.883,2.463.235-.238.468-.327.758-.061a1.411,1.411,0,0,0,1.126.38c-.7.391-1.183-.637-1.893-.331" transform="translate(-7774.302 -1310.422)" fill="#f7fafb"/>
          <path id="Trazado_116226" data-name="Trazado 116226" d="M7860.252,1333.907a4.648,4.648,0,0,0,.9,4.026,3.929,3.929,0,0,0,6.158.324c.481-.505,1.028-.324,1.542-.253a10.755,10.755,0,0,0,7.652-1.631,2.341,2.341,0,0,1,2.737-.152,6.985,6.985,0,0,0,4.454.657c1.345-.1,1.843-1.39,2.69-2.182a.913.913,0,0,0,.124-.22c.526-.873.9-1.968,1.766-2.456,1.047-.593,1.716.741,2.7.974a8.8,8.8,0,0,0,5.215-.045,3.507,3.507,0,0,1,4.85,2.569c.748,3.346,3.341,4.2,5.945,1.934a5.513,5.513,0,0,1,6.462-.924c2.366,1.07,4.524.4,4.46-2.838,0-.215,0-.426,0-.64.013-.3-.036-.644.277-.8.366-.183.645.094.893.315a15.51,15.51,0,0,0,2.975,2.59,2.672,2.672,0,0,0,3.384-.223c.883-.807,1.766-.114,2.6.192a2.207,2.207,0,0,0,2.577-.334,2.533,2.533,0,0,1-2.972-1.134c-.268-.4-.609-.131-.924-.094-1.888.208-2.381-.08-2.808-1.879-.177-.73-.491-.994-1.221-.926a2.525,2.525,0,0,1-2.782-1.542c-.328-.718-.863-.626-1.343-.191a2.735,2.735,0,0,1-2.243.7,9.4,9.4,0,0,0-3.267-.038c-.812.184-1.4-.515-1.957-1.027-.382-.348-.571-.322-1.029.021a2.963,2.963,0,0,0-1.139,2.937,2.984,2.984,0,0,1-2.332,3.1,2.865,2.865,0,0,1-3.067-1.091,3.456,3.456,0,0,1,.04-4.48c.71-.759.59-1.122-.349-1.368-.422-.109-.956-.244-1.017-.667-.117-.822-.694-.943-1.3-1.159a3.965,3.965,0,0,1-2.718-2.062c-.41.67-.771,1.323-1.189,1.937-1.625,2.384-4.015,2.534-5.834.37a1.23,1.23,0,0,0-.943-.56,5.234,5.234,0,0,1-2.388-.2c-.663-.348-1.28-.781-2.072-1.271a4.265,4.265,0,0,1-1.913,3.883c-.271.188-.237.541-.2.834a2.8,2.8,0,0,1-2.027,3.133c-.468.191-.493.472-.561.863a2.108,2.108,0,0,1-3.16,1.776,3.443,3.443,0,0,1-.9-.488c-1.08-.9-2.032-1.6-3.036.191-.552.984-1.232.238-1.728-.29a5.168,5.168,0,0,1-.414-.774c-.219-.349-.34-.888-.794-.916-.548-.037-.515.563-.715.911-.489.844-1.017,1.664-2.2.969-.6-.355-.844.007-1.023.508-.31.864-.729,1.57-1.844,1.3a.451.451,0,0,0-.352.067c-.609.508-1.251,1-2.074.636a4.13,4.13,0,0,1-2.2-2.211,6.572,6.572,0,0,0-.377-.65" transform="translate(-7855.074 -1311.053)" fill="#b9ebfa"/>
          <path id="Trazado_116227" data-name="Trazado 116227" d="M7913.478,1324.589c-2.191,2.679-4.658,3.389-7.045,1.857a6.965,6.965,0,0,1-2.971-4.958c-.066-.384.184-1.029-.388-1.058-.6-.031-.536.639-.644,1.073a7.959,7.959,0,0,0-.289,4.225,4.6,4.6,0,0,0,3.974,3.72c3.188.532,7.128-1.852,7.363-4.859" transform="translate(-7889.708 -1311.875)" fill="#baeaf8"/>
          <path id="Trazado_116228" data-name="Trazado 116228" d="M7874.484,1338.948c-1.337,1.238-2.6,2.462-4.589,2.389a4.9,4.9,0,0,1-3.812-2.182,5.476,5.476,0,0,1-1.34-2.97c-.013-.337-.082-.839-.583-.868-.444-.025-.685.355-.79.719a7.563,7.563,0,0,0,.712,5.91c.678,1.2,2.229,1.39,3.711,1.507a7.372,7.372,0,0,0,5.815-2.316,3.869,3.869,0,0,0,.875-2.188" transform="translate(-7802.576 -1308.334)" fill="#bbebf8"/>
          <path id="Trazado_116229" data-name="Trazado 116229" d="M7902.44,1337c-1.087.6-1.646,1.5-2.687,1.639a3.587,3.587,0,0,1-3.89-1.755c-.334-.551-.757-1.044-1.422-.769-.737.308-.423,1.027-.312,1.567.587,2.8,2.933,3.07,5.446,2.337,1.275-.372,2.05-1.3,2.865-3.019" transform="translate(-7868.784 -1308.163)" fill="#b8eaf8"/>
          <path id="Trazado_116230" data-name="Trazado 116230" d="M7883.129,1330.828c-2.2,1.456-2.435,1.347-4.338-2.033-.8,1.6-.445,3.139.849,3.691a2.687,2.687,0,0,0,3.489-1.659" transform="translate(-7830.163 -1309.885)" fill="#c0eaf7"/>
          <path id="Trazado_116231" data-name="Trazado 116231" d="M7914.429,1337.125c-1.525,1.785-3.512.395-5.207.888-.2.061-.526-.224-.642.139-.111.345.139.566.418.7,1.713.827,4.254,1.073,5.431-1.727" transform="translate(-7898.829 -1307.903)" fill="#bce7f6"/>
          <path id="Trazado_116232" data-name="Trazado 116232" d="M7882.881,1318.259c-.354.3-.515.421-.666.555-1.91,1.669-4.181.989-4.884-1.448-.146-.5-.088-1.418-.64-1.344-.708.1-.389.989-.395,1.532-.032,2.3.553,3.228,2.066,3.508a4.023,4.023,0,0,0,4.518-2.8" transform="translate(-7827.271 -1312.925)" fill="#bdedf1"/>
          <path id="Trazado_116233" data-name="Trazado 116233" d="M7868.077,1321.249a2.092,2.092,0,0,0,1.912.058,3.991,3.991,0,0,1-1.889-1.562c-.408.6.111,1.058-.013,1.513l-.01-.009" transform="translate(-7804.114 -1312.038)" fill="#bdeaee"/>
          <path id="Trazado_116234" data-name="Trazado 116234" d="M7919,1326.456c-.3.923-.314,1.5.239,1.911.538.4,1.123.352,2.014-.089a2.568,2.568,0,0,1-2.252-1.822" transform="translate(-7918.333 -1310.441)" fill="#bfefe4"/>
          <path id="Trazado_116235" data-name="Trazado 116235" d="M7854.2,1328.832c1.51,1.051,1.948,1.024,3.171-.453a1.747,1.747,0,0,1-2.834-.728c-.535.353-.266.811-.328,1.192l-.009-.011" transform="translate(-7774.49 -1310.157)" fill="#c5edf1"/>
        </g>
        <g id="Grupo_81646" data-name="Grupo 81646" transform="translate(216.262 211.281)">
          <path id="Trazado_116236" data-name="Trazado 116236" d="M7972.578,1319.922a1.946,1.946,0,1,0-1.942,1.947,1.942,1.942,0,0,0,1.942-1.947" transform="translate(-7959.003 -1306.721)" fill="#fcfdfd"/>
          <path id="Trazado_116237" data-name="Trazado 116237" d="M7983.737,1314.739a1.954,1.954,0,0,1-.507,1.315,1.223,1.223,0,0,1-.972.585,2,2,0,0,1-.484.063,1.942,1.942,0,0,1-1.27-.472.223.223,0,0,0-.068.146,1.225,1.225,0,0,1-.54.774l-.053.047a2.86,2.86,0,1,1-4.04,4.044c-.062-.057-.123-.116-.183-.181-.127-.134-.23-.3-.479-.119a3.14,3.14,0,0,1-2.271.639c-.259-.031-.319.043-.374.286a2.314,2.314,0,0,1-2.3,1.765,2.171,2.171,0,0,1-1.831-1.255,2.684,2.684,0,0,0-1.183-.9.98.98,0,0,1-.174-.089,2.266,2.266,0,0,1-1.369-1.747c-.011-.1.076-.488-.31-.256a2.926,2.926,0,0,1-3.607-.365.478.478,0,0,0-.624-.119,2.676,2.676,0,0,1-3.267-1.051,2.618,2.618,0,0,1-.4-1.563,1.218,1.218,0,0,0,0-.216,1.588,1.588,0,1,1-.992-2.831l.053,0a3.017,3.017,0,0,1-.291-1.3,3.062,3.062,0,0,1,6.124,0,3.007,3.007,0,0,1-.214,1.121c0,.073,0,.146,0,.221,0,.21-.052.443.281.433.271.043.552-.071.819.121a.7.7,0,0,0,.922-.1,1.581,1.581,0,0,1,.693-.412,3.412,3.412,0,0,0,.36-.142,1.613,1.613,0,0,1,2.552,1.24,1.743,1.743,0,0,0,.025.241.715.715,0,0,0,1.027.551,2.087,2.087,0,0,1,2.9.249c.1.078.157.2.318.068a.564.564,0,0,0,.072-.926,1.988,1.988,0,0,1,.448-3.216,2.541,2.541,0,0,1,1.54-.206,1.635,1.635,0,0,1,1.171.74,2.728,2.728,0,0,1,.4,1.136c.157.74.208.764.807.35a1.782,1.782,0,0,1,.646-.329,2.359,2.359,0,0,0,.822-.3,2.139,2.139,0,0,1,4.224-.129c.263.163.532.322.8.474a1.018,1.018,0,0,1,.363.377,1.942,1.942,0,0,1,.434,1.228" transform="translate(-7953.04 -1308.884)" fill="#fdfdfd"/>
          <path id="Trazado_116238" data-name="Trazado 116238" d="M7974.6,1318.366c-.278-.383-.639-.494-.923-.288a.874.874,0,0,0-.18,1.164.823.823,0,0,0,1.129.1.726.726,0,0,0-.033-.982c-.08.032-.088.258-.226.114-.1-.108.047-.043.062-.047a.582.582,0,0,0,.17-.062" transform="translate(-7966.989 -1306.721)" fill="#f6fafb"/>
          <path id="Trazado_116239" data-name="Trazado 116239" d="M7954.937,1316.849a.717.717,0,0,0,.63-.666.838.838,0,0,0-.787-.869.907.907,0,0,0-.738.78.876.876,0,0,0,.9.755" transform="translate(-7923.863 -1307.354)" fill="#f7fbfb"/>
          <path id="Trazado_116240" data-name="Trazado 116240" d="M7979.86,1315.48a.637.637,0,0,0-.873-.474.729.729,0,0,0-.48.922.8.8,0,0,0,1.012.484c.389-.13.506-.458.336-.937-.088.092-.178.125-.287.023a.542.542,0,0,0-.43-.144c.268-.148.452.241.722.125" transform="translate(-7978.479 -1307.436)" fill="#f7fafb"/>
          <path id="Trazado_116241" data-name="Trazado 116241" d="M7982.361,1314.514a1.773,1.773,0,0,0-.345-1.531,1.493,1.493,0,0,0-2.341-.124c-.184.193-.392.124-.587.1a4.088,4.088,0,0,0-2.91.62.891.891,0,0,1-1.042.058,2.678,2.678,0,0,0-1.694-.251c-.512.04-.7.53-1.024.832a.378.378,0,0,0-.047.083c-.2.333-.343.749-.671.935-.4.225-.654-.281-1.028-.37a3.335,3.335,0,0,0-1.981.016,1.335,1.335,0,0,1-1.846-.977c-.285-1.273-1.271-1.6-2.261-.737a2.1,2.1,0,0,1-2.458.353c-.9-.407-1.722-.154-1.7,1.079,0,.082,0,.161,0,.244,0,.113.014.244-.1.3-.14.071-.246-.036-.342-.121a5.845,5.845,0,0,0-1.13-.984,1.016,1.016,0,0,0-1.287.086c-.336.307-.672.043-.988-.073a.841.841,0,0,0-.982.128.965.965,0,0,1,1.132.43c.1.153.231.049.35.038.718-.081.9.028,1.068.713.069.277.187.378.465.353a.961.961,0,0,1,1.059.588c.125.271.326.236.51.071a1.042,1.042,0,0,1,.853-.266,3.61,3.61,0,0,0,1.243.016c.31-.07.532.2.746.39.145.132.214.122.39-.007a1.134,1.134,0,0,0,.434-1.118,1.132,1.132,0,0,1,.884-1.18,1.091,1.091,0,0,1,1.168.416,1.312,1.312,0,0,1-.015,1.7c-.272.288-.224.427.133.521.16.041.362.092.387.254.044.312.263.359.494.441a1.508,1.508,0,0,1,1.033.784c.156-.255.293-.5.452-.737a1.278,1.278,0,0,1,2.22-.141.467.467,0,0,0,.36.213,2,2,0,0,1,.907.077c.251.132.488.3.79.483a1.614,1.614,0,0,1,.728-1.475c.1-.073.09-.207.074-.318a1.065,1.065,0,0,1,.771-1.192c.177-.072.188-.178.214-.328a.8.8,0,0,1,1.2-.676,1.3,1.3,0,0,1,.34.186c.411.342.773.607,1.156-.072.209-.375.469-.09.657.109a2.022,2.022,0,0,1,.158.3c.082.132.128.337.3.348.208.015.2-.214.272-.345.184-.322.385-.634.836-.37.226.135.318,0,.388-.193.118-.329.277-.6.7-.495a.172.172,0,0,0,.133-.025c.232-.194.476-.383.79-.243a1.571,1.571,0,0,1,.836.84,2.2,2.2,0,0,0,.146.248" transform="translate(-7952.625 -1308.059)" fill="#b9ebfa"/>
          <path id="Trazado_116242" data-name="Trazado 116242" d="M7957.8,1317.573c.834-1.017,1.771-1.288,2.681-.706a2.65,2.65,0,0,1,1.129,1.887c.025.146-.069.391.147.4s.2-.244.246-.408a3,3,0,0,0,.108-1.607,1.745,1.745,0,0,0-1.511-1.415,2.478,2.478,0,0,0-2.8,1.847" transform="translate(-7935.141 -1307.263)" fill="#baeaf8"/>
          <path id="Trazado_116243" data-name="Trazado 116243" d="M7972.63,1312.044a2.417,2.417,0,0,1,1.745-.909,1.863,1.863,0,0,1,1.451.831,2.1,2.1,0,0,1,.509,1.13c0,.129.031.318.223.329.167.01.262-.136.3-.274a2.872,2.872,0,0,0-.27-2.248c-.257-.458-.85-.529-1.412-.573a2.8,2.8,0,0,0-2.212.881,1.465,1.465,0,0,0-.332.832" transform="translate(-7968.278 -1308.542)" fill="#bbebf8"/>
          <path id="Trazado_116244" data-name="Trazado 116244" d="M7961.779,1312.506c.414-.228.625-.568,1.022-.624a1.366,1.366,0,0,1,1.479.668c.127.209.289.4.542.292.279-.116.161-.391.118-.6-.224-1.063-1.116-1.168-2.072-.89-.485.142-.78.5-1.09,1.149" transform="translate(-7942.876 -1308.327)" fill="#b8eaf8"/>
          <path id="Trazado_116245" data-name="Trazado 116245" d="M7968.854,1314.82c.84-.555.928-.513,1.65.772.3-.609.168-1.194-.323-1.4a1.022,1.022,0,0,0-1.327.631" transform="translate(-7957.299 -1307.639)" fill="#c0eaf7"/>
          <path id="Trazado_116246" data-name="Trazado 116246" d="M7957.03,1312.308c.58-.679,1.338-.15,1.981-.337.079-.025.2.084.242-.053s-.053-.216-.158-.266a1.389,1.389,0,0,0-2.065.656" transform="translate(-7931.26 -1308.276)" fill="#bce7f6"/>
          <path id="Trazado_116247" data-name="Trazado 116247" d="M7969.087,1319.691c.133-.113.193-.161.253-.212a1.074,1.074,0,0,1,1.857.551c.054.191.033.541.241.511.271-.037.149-.375.151-.583.012-.873-.209-1.227-.785-1.333a1.526,1.526,0,0,0-1.717,1.066" transform="translate(-7958.536 -1306.572)" fill="#bdedf1"/>
          <path id="Trazado_116248" data-name="Trazado 116248" d="M7974.384,1318.31a.8.8,0,0,0-.728-.024,1.522,1.522,0,0,1,.719.594c.155-.228-.042-.4,0-.574l.005,0" transform="translate(-7967.01 -1306.665)" fill="#bdeaee"/>
          <path id="Trazado_116249" data-name="Trazado 116249" d="M7955.039,1316.36c.117-.35.119-.572-.09-.728s-.426-.134-.765.033a.978.978,0,0,1,.855.694" transform="translate(-7923.589 -1307.303)" fill="#bfefe4"/>
          <path id="Trazado_116250" data-name="Trazado 116250" d="M7979.743,1315.435c-.574-.4-.741-.389-1.207.173a.664.664,0,0,1,1.078.276c.2-.134.1-.309.124-.454l0,0" transform="translate(-7978.361 -1307.391)" fill="#c5edf1"/>
        </g>
        <g id="Grupo_81657" data-name="Grupo 81657" transform="translate(150.5 181.13)">
          <g id="Grupo_81656" data-name="Grupo 81656" transform="translate(17.738)">
            <g id="Grupo_81655" data-name="Grupo 81655">
              <path id="Trazado_116251" data-name="Trazado 116251" d="M7967.051,1289.36c-11.141,4.148-17.972,13.419-15.257,20.709s13.948,9.83,25.089,5.681,17.969-13.419,15.26-20.706S7978.193,1285.212,7967.051,1289.36Z" transform="translate(-7909.489 -1283.851)" fill="#f5ddc9"/>
              <path id="Trazado_116252" data-name="Trazado 116252" d="M7967.96,1320.42a3.28,3.28,0,0,0,4.211,1.927l56.2-20.931a3.274,3.274,0,1,0-2.285-6.137l-56.2,20.93A3.286,3.286,0,0,0,7967.96,1320.42Z" transform="translate(-7967.754 -1282.018)" fill="#5000c7"/>
              <path id="Trazado_116253" data-name="Trazado 116253" d="M7967,1286.518c-11.139,4.149-17.975,13.422-15.256,20.707s13.937,9.831,25.081,5.682,17.973-13.423,15.263-20.708S7978.141,1282.369,7967,1286.518Z" transform="translate(-7909.364 -1284.527)" fill="#5000c7"/>
              <g id="Grupo_81647" data-name="Grupo 81647" transform="translate(69.808 26.632)">
                <path id="Trazado_116254" data-name="Trazado 116254" d="M7961.765,1310.488a.531.531,0,0,0,.525-.552l-.172-3.4a.593.593,0,0,0-.546-.5.522.522,0,0,0-.5.547l.168,3.407A.531.531,0,0,0,7961.765,1310.488Z" transform="translate(-7961.073 -1306.041)" fill="#22130b"/>
              </g>
              <g id="Grupo_81648" data-name="Grupo 81648" transform="translate(66.936 27.856)">
                <path id="Trazado_116255" data-name="Trazado 116255" d="M7964.248,1310.767c.454-.135.593-.436.489-.707l-1-2.687a.518.518,0,0,0-.673-.31.532.532,0,0,0-.31.677l1,2.689A.519.519,0,0,0,7964.248,1310.767Z" transform="translate(-7962.72 -1307.03)" fill="#22130b"/>
              </g>
              <g id="Grupo_81649" data-name="Grupo 81649" transform="translate(65.551 29.321)">
                <path id="Trazado_116256" data-name="Trazado 116256" d="M7965.243,1311.237a.537.537,0,0,0,.513-.617l-.364-1.974a.525.525,0,0,0-1.033.187l.37,1.976A.521.521,0,0,0,7965.243,1311.237Z" transform="translate(-7964.351 -1308.214)" fill="#22130b"/>
              </g>
              <g id="Grupo_81650" data-name="Grupo 81650" transform="translate(61.284 29.968)">
                <path id="Trazado_116257" data-name="Trazado 116257" d="M7968.669,1311.689a.533.533,0,0,0,.518-.592l-.252-1.913a.523.523,0,0,0-1.037.14l.251,1.911A.531.531,0,0,0,7968.669,1311.689Z" transform="translate(-7967.893 -1308.736)" fill="#22130b"/>
              </g>
              <g id="Grupo_81651" data-name="Grupo 81651" transform="translate(52.02 30.316)">
                <path id="Trazado_116258" data-name="Trazado 116258" d="M7975.5,1311.993a.521.521,0,0,0,.486-.33l.752-1.935a.521.521,0,0,0-.97-.383l-.753,1.934a.522.522,0,0,0,.3.678A.5.5,0,0,0,7975.5,1311.993Z" transform="translate(-7974.974 -1309.017)" fill="#22130b"/>
              </g>
              <g id="Grupo_81652" data-name="Grupo 81652" transform="translate(48.556 30.492)">
                <path id="Trazado_116259" data-name="Trazado 116259" d="M7978.492,1311.745a.514.514,0,0,0,.492-.36l.512-1.537a.524.524,0,0,0-.333-.661.517.517,0,0,0-.658.335l-.511,1.532a.519.519,0,0,0,.333.66A.447.447,0,0,0,7978.492,1311.745Z" transform="translate(-7977.967 -1309.159)" fill="#22130b"/>
              </g>
              <g id="Grupo_81653" data-name="Grupo 81653" transform="translate(45.653 28.714)">
                <path id="Trazado_116260" data-name="Trazado 116260" d="M7980.806,1309.521a.531.531,0,0,0,.426-.213l.546-.757a.525.525,0,0,0-.854-.611l-.543.754a.523.523,0,0,0,.116.729A.548.548,0,0,0,7980.806,1309.521Z" transform="translate(-7980.282 -1307.723)" fill="#22130b"/>
              </g>
              <g id="Grupo_81654" data-name="Grupo 81654" transform="translate(75.556 23.847)">
                <path id="Trazado_116261" data-name="Trazado 116261" d="M7957.341,1306.331a.544.544,0,0,0,.347-.131.523.523,0,0,0,.044-.74l-1.311-1.489a.522.522,0,1,0-.784.69l1.31,1.492A.519.519,0,0,0,7957.341,1306.331Z" transform="translate(-7955.505 -1303.791)" fill="#22130b"/>
              </g>
            </g>
            <path id="Trazado_116262" data-name="Trazado 116262" d="M7982.148,1309.782q5.457,6.619,10.913,13.242a39.69,39.69,0,0,0,17.718-9.168c2.058-1.884,8.917-8.161,7.185-12.266a4.483,4.483,0,0,0-2.141-2.13l-23.593-.4Q7987.184,1304.426,7982.148,1309.782Z" transform="translate(-7973.306 -1281.07)" fill="#e2872c"/>
          </g>
          <path id="Trazado_116263" data-name="Trazado 116263" d="M8001.653,1315.881q14.865-.453,29.732-.9,4.516-5.949,9.043-11.89-19.9-9.117-39.808-18.227Q8001.137,1300.375,8001.653,1315.881Z" transform="translate(-8000.621 -1284.447)" fill="#e2872c"/>
        </g>
        <g id="Grupo_81659" data-name="Grupo 81659" transform="translate(95.99 190.725)">
          <g id="Grupo_81658" data-name="Grupo 81658">
            <path id="Trazado_116264" data-name="Trazado 116264" d="M8038.42,1331.786a19.566,19.566,0,0,0,8.162,7.759,20.328,20.328,0,0,0,8.44,1.969c5.915.165,9.049-1.978,14.786-4.014,11.842-4.208,21.224-3.139,21.2-4.11-.01-.371-1.41-.869-8.085-1.338q-4.375-.923-8.777-1.874-12.12-2.617-24.012-5.35-8-16.277-16-32.55-8.494,7.511-16.988,15.022Q8027.781,1319.542,8038.42,1331.786Z" transform="translate(-8017.145 -1292.278)" fill="#e2872c"/>
          </g>
        </g>
      </g>
    </g>
  </g>
</svg>
