<svg xmlns="http://www.w3.org/2000/svg" xmlns:xlink="http://www.w3.org/1999/xlink" width="311" height="420" viewBox="0 0 311 420">
  <defs>
    <clipPath id="clip-path">
      <rect id="Rectángulo_33776" data-name="Rectángulo 33776" width="311" height="420" transform="translate(1104.571 979)" fill="#fff" stroke="#707070" stroke-width="1"/>
    </clipPath>
  </defs>
  <g id="Enmascarar_grupo_53" data-name="Enmascarar grupo 53" transform="translate(-1104.571 -979)" clip-path="url(#clip-path)">
    <g id="Grupo_80175" data-name="Grupo 80175" transform="translate(899.651 986.141)">
      <g id="Grupo_80139" data-name="Grupo 80139" transform="translate(201.702 192.579)">
        <g id="Grupo_80136" data-name="Grupo 80136" transform="translate(0 81.144)">
          <path id="Trazado_113592" data-name="Trazado 113592" d="M-184.03,265.213l-10.4,33.816-16.091,52.377-63.039,83.742-18.209-12.854S-245.7,321.8-241.9,307.244c1.6-6.158,4.392-17.274,7.047-28.1,3.661-14.854,7.135-29.107,7.135-29.107Z" transform="translate(291.77 -250.025)" fill="#e3825a"/>
          <path id="Trazado_113593" data-name="Trazado 113593" d="M-212.513,265.221l-10.4,33.816c-17.666-.613-32.725-12.484-40.426-19.9,3.661-14.85,7.135-29.107,7.135-29.107Z" transform="translate(320.253 -250.033)" fill="#ce594b"/>
        </g>
        <g id="Grupo_80138" data-name="Grupo 80138" transform="translate(49.91)">
          <path id="Trazado_113594" data-name="Trazado 113594" d="M-204.12,238.474l-9.309-28.975s-20.513,9.177-28.128,23.534c-11.233,21.168-25.282,77.188-25.282,77.188l58.735,20.223Z" transform="translate(266.838 -209.499)" fill="#5000c7"/>
          <g id="Grupo_80137" data-name="Grupo 80137" transform="translate(22.031 22.541)">
            <path id="Trazado_113595" data-name="Trazado 113595" d="M-248.312,220.759c-2.478,27.035-1.968,62.454-.188,89.547" transform="translate(261.672 -220.759)" fill="none" stroke="#6c7d8a" stroke-linecap="round" stroke-miterlimit="10" stroke-width="1"/>
            <path id="Trazado_113596" data-name="Trazado 113596" d="M-255.833,240.166a116.9,116.9,0,0,0,11.8,21.126" transform="translate(255.833 -201.316)" fill="none" stroke="#6c7d8a" stroke-linecap="round" stroke-miterlimit="10" stroke-width="1"/>
          </g>
        </g>
      </g>
      <g id="Grupo_80164" data-name="Grupo 80164" transform="translate(217.125 0)">
        <g id="Grupo_80155" data-name="Grupo 80155" transform="translate(0 149.659)">
          <g id="Grupo_80144" data-name="Grupo 80144" transform="translate(0 204.363)">
            <g id="Grupo_80141" data-name="Grupo 80141">
              <path id="Trazado_113597" data-name="Trazado 113597" d="M-60.387,368.808c-10.418,92.2-43.372,337.635-43.372,337.635l-49.588,3.84,5.893-284.637.072-3.177s-46.832,93.325-49.6,121.335c-1.1,11.046,3.5,32.608,9.441,54.669,9.133,33.918,21.518,69.032,21.518,69.032l-42.149,25.286S-284.1,557.546-284.066,527.2c.028-19.987,37.157-116.507,62.484-180.044,13.13-32.941,23.1-57.013,23.1-57.013l75.979,2.991,45.3,1.78s.891,1.4,2.29,3.691c4.9,8.007,16.063,26.961,17.566,36.006C-56.988,336.642-58.183,349.3-60.387,368.808Z" transform="translate(284.066 -290.145)" fill="#384a54"/>
              <g id="Grupo_80140" data-name="Grupo 80140" transform="translate(62.512 0.016)">
                <path id="Trazado_113598" data-name="Trazado 113598" d="M-91.673,368.8c-36.794,3.663-83.128,1.283-86.865-.2-3.165-1.265-4.332-7.759-5.265-12.6-1.968,6.158-3.868,10.244-6.55,10.926-4.464,1.127-25.546-1.531-62.486-19.752,13.13-32.945,23.1-57.013,23.1-57.013l75.979,2.987a469.318,469.318,0,0,0,47.59,5.459c4.9,8.007,16.063,26.961,17.564,36.006C-88.274,336.634-89.469,349.294-91.673,368.8Z" transform="translate(252.839 -290.153)" fill="#324250"/>
                <path id="Trazado_113599" data-name="Trazado 113599" d="M-183.011,368.382l-.146,1.341s-46.832,93.325-49.6,121.335c-1.1,11.046,3.5,32.608,9.441,54.669-8.3-10.886-17.3-24.058-20.441-33.629-6.36-19.32-7.543-33.7,5.719-73.925,13.232-40.221,29.63-95.381,29.63-95.381Z" transform="translate(257.328 -237.416)" fill="#324250"/>
              </g>
            </g>
            <g id="Grupo_80143" data-name="Grupo 80143" transform="translate(124.207 48.828)">
              <path id="Trazado_113600" data-name="Trazado 113600" d="M-156.758,317.169S-161.677,369.5-167,415.963c-5.529,48.245-28.372,252.786-28.372,252.786" transform="translate(248.717 -311.898)" fill="none" stroke="#293543" stroke-miterlimit="10" stroke-width="1"/>
              <g id="Grupo_80142" data-name="Grupo 80142">
                <path id="Trazado_113601" data-name="Trazado 113601" d="M-214.358,314.536s-8.46,42.237-7.6,69.036" transform="translate(222.021 -314.536)" fill="none" stroke="#293543" stroke-miterlimit="10" stroke-width="1"/>
                <path id="Trazado_113602" data-name="Trazado 113602" d="M-203.368,315.375c-1.443,11.086-2.743,37.379-4.594,40.574-.833,1.427-6.492,4.012-13.379,5.631" transform="translate(222.701 -313.695)" fill="none" stroke="#293543" stroke-miterlimit="10" stroke-width="1"/>
              </g>
            </g>
          </g>
          <g id="Grupo_80154" data-name="Grupo 80154" transform="translate(62.322)">
            <g id="Grupo_80150" data-name="Grupo 80150" transform="translate(0 27.906)">
              <path id="Trazado_113603" data-name="Trazado 113603" d="M-85.2,444.545c-.06-44.8,5.047-218.312-7.469-226.1-45.082-28.082-129.7-16.7-148.212,8-10.562,14.079-1.722,161.7-2.028,167.582-.35,6.714-6,23.476-10.023,34.682,11.221,2.6,55.192,16.628,62.442,15.929,3.283-.32,9.671-21.184,9.671-21.184s5.035,22.555,7.529,23.432C-168.988,448.411-90.747,447.039-85.2,444.545Z" transform="translate(252.934 -201.999)" fill="#5000c7"/>
              <g id="Grupo_80147" data-name="Grupo 80147" transform="translate(10.766 72.13)">
                <g id="Grupo_80145" data-name="Grupo 80145" transform="translate(83.389)">
                  <path id="Trazado_113604" data-name="Trazado 113604" d="M-205.459,238.484c1.241-.949,39.669-.278,39.871.817s1.067,8.534-.2,9.847-16.836,6.186-20.847,6.128c-2.991-.044-17.6-4.857-18.529-6.112C-205.852,248.271-206.262,239.1-205.459,238.484Z" transform="translate(205.9 -238.031)" fill="#cedadd"/>
                  <path id="Trazado_113605" data-name="Trazado 113605" d="M-197.266,245.208a2.8,2.8,0,0,1,2.662-2.887,2.8,2.8,0,0,1,2.348,3.149,2.8,2.8,0,0,1-2.662,2.885A2.8,2.8,0,0,1-197.266,245.208Z" transform="translate(214.547 -233.734)" fill="#272537"/>
                </g>
                <g id="Grupo_80146" data-name="Grupo 80146" transform="translate(0 0.349)">
                  <path id="Trazado_113606" data-name="Trazado 113606" d="M-247.146,238.674c1.123-.907,35.729-.394,35.9.657s.933,8.2-.218,9.469-15.188,5.994-18.806,5.952c-2.684-.03-15.831-4.61-16.676-5.807C-247.524,248.084-247.874,239.27-247.146,238.674Z" transform="translate(247.556 -238.205)" fill="#cedadd"/>
                  <path id="Trazado_113607" data-name="Trazado 113607" d="M-239.767,245.186a2.7,2.7,0,0,1,2.582-2.773,2.7,2.7,0,0,1,2.282,3.025,2.7,2.7,0,0,1-2.584,2.773A2.7,2.7,0,0,1-239.767,245.186Z" transform="translate(255.355 -233.991)" fill="#272537"/>
                </g>
              </g>
              <g id="Grupo_80149" data-name="Grupo 80149" transform="translate(66.718 44.425)">
                <g id="Grupo_80148" data-name="Grupo 80148" transform="translate(0 7.935)">
                  <path id="Trazado_113608" data-name="Trazado 113608" d="M-216.763,228.155A2.846,2.846,0,0,1-213.919,231a2.845,2.845,0,0,1-2.845,2.845A2.845,2.845,0,0,1-219.606,231,2.845,2.845,0,0,1-216.763,228.155Z" transform="translate(219.606 -228.155)" fill="#6c7d8a"/>
                  <path id="Trazado_113609" data-name="Trazado 113609" d="M-215.188,248.97a2.845,2.845,0,0,1,2.847,2.845,2.848,2.848,0,0,1-2.847,2.847,2.847,2.847,0,0,1-2.845-2.847A2.844,2.844,0,0,1-215.188,248.97Z" transform="translate(221.182 -207.301)" fill="#6c7d8a"/>
                  <path id="Trazado_113610" data-name="Trazado 113610" d="M-215.034,273.485a2.846,2.846,0,0,1,2.845,2.847,2.845,2.845,0,0,1-2.845,2.843,2.844,2.844,0,0,1-2.845-2.843A2.845,2.845,0,0,1-215.034,273.485Z" transform="translate(221.336 -182.74)" fill="#6c7d8a"/>
                  <path id="Trazado_113611" data-name="Trazado 113611" d="M-216.222,296.282a2.845,2.845,0,0,1,2.845,2.843,2.846,2.846,0,0,1-2.845,2.847,2.846,2.846,0,0,1-2.845-2.847A2.845,2.845,0,0,1-216.222,296.282Z" transform="translate(220.146 -159.901)" fill="#6c7d8a"/>
                </g>
                <path id="Trazado_113612" data-name="Trazado 113612" d="M-214.788,224.191s3.954,50.027,3.721,91.357a777.842,777.842,0,0,1-5.617,84.675" transform="translate(222.533 -224.191)" fill="none" stroke="#6c7d8a" stroke-linecap="round" stroke-miterlimit="10" stroke-width="1"/>
              </g>
            </g>
            <g id="Grupo_80153" data-name="Grupo 80153" transform="translate(35.988)">
              <g id="Grupo_80151" data-name="Grupo 80151" transform="translate(10.802)">
                <path id="Trazado_113613" data-name="Trazado 113613" d="M-167.355,219.556c-6.784,24.072-26.377,39.681-34.444,39.841-7.469.148-24.655-19.927-27.762-35.974a10.276,10.276,0,0,0,5.659-5.385c2.773-5.691,2.028-14.488,1.9-23.824,18.251.5,29.355,1.037,45.913-6.156-.176,7.1-.03,13.086,1.357,18.411A28.45,28.45,0,0,0-167.355,219.556Z" transform="translate(229.561 -188.059)" fill="#e3825a"/>
                <path id="Trazado_113614" data-name="Trazado 113614" d="M-177.575,206.47a70.611,70.611,0,0,1-12.882,9.381c-11.03,6.114-25.226,8.112-36.27,2.188,2.773-5.691,2.03-14.488,1.9-23.824,18.253.5,29.353,1.037,45.913-6.156C-179.107,195.164-178.962,201.145-177.575,206.47Z" transform="translate(232.4 -188.059)" fill="#ce594b"/>
              </g>
              <g id="Grupo_80152" data-name="Grupo 80152" transform="translate(0 22.946)">
                <path id="Trazado_113615" data-name="Trazado 113615" d="M-215.219,247.974s21.62-14.75,27.8-48.071c0,0,5.881-2.276,12.724,4.288,3.882,3.721,6.944,46.263,6.944,46.263s-14.764-8.738-20.847-8.55C-196.385,242.152-215.219,247.974-215.219,247.974Z" transform="translate(254.731 -199.521)" fill="#cedadd"/>
                <path id="Trazado_113616" data-name="Trazado 113616" d="M-198.115,245.085s-19.446-17.682-19.664-42.8c0,0-9.134-.508-13.35,6.828-4.538,7.921-3.78,43.212-3.78,43.212s7.265-7.541,14.343-8.418S-198.115,245.085-198.115,245.085Z" transform="translate(234.957 -196.764)" fill="#cedadd"/>
              </g>
            </g>
          </g>
        </g>
        <g id="Grupo_80163" data-name="Grupo 80163" transform="translate(21.953)">
          <path id="Trazado_113617" data-name="Trazado 113617" d="M-245.354,185.824c4.172-20.147,9.833-42.848,22.307-60.236,3.75-5.223,9.074-10.826,16.325-10.606,4.989.144,11.321,5.279,16.237,6.068,9.919,1.575,11.511-9.439,21.344-7.527,7.891,1.531,12.562,8.4,15.627,14.764,8.912,18.5,21.56,43.33,19.885,62.542C-169.872,183.945-207.453,182.5-245.354,185.824Z" transform="translate(300.898 -113.299)" fill="#e3bfa1"/>
          <path id="Trazado_113618" data-name="Trazado 113618" d="M-189.662,194.764a84.8,84.8,0,0,1-68.013-13.553c-5.879-4.232-11.365-9.469-13.991-16.223s-1.766-15.246,3.6-20.119c4.318-3.926,10.694-4.845,16.471-4.014s11.2,3.2,16.72,5.107c26.1,9.089,54.591,8.434,82.018,5.049s54.579-9.4,82.181-10.71c6.17-.292,12.518-.32,18.353,1.738s11.13,6.61,12.488,12.634c2.2,9.731-6.084,18.6-14.441,24.042C-86.882,199.97-128.4,200.014-189.662,194.764Z" transform="translate(273.1 -86.391)" fill="#bb8a6b"/>
          <g id="Grupo_80159" data-name="Grupo 80159" transform="translate(46.759 69.867)">
            <path id="Trazado_113619" data-name="Trazado 113619" d="M-249.239,175.358c2.138-6.378,10.472-9.339,18.615-6.61s13.014,10.111,10.878,16.491-10.472,9.339-18.615,6.61S-251.377,181.738-249.239,175.358Z" transform="translate(249.742 -128.631)" fill="#ce594b"/>
            <g id="Grupo_80157" data-name="Grupo 80157" transform="translate(14.158)">
              <g id="Grupo_80156" data-name="Grupo 80156">
                <path id="Trazado_113620" data-name="Trazado 113620" d="M-241.579,184.444c.028-8.884-2.468-18.337,0-23.592,3.457-7.337,28.857-13.611,49.426-12.53,27.444,1.429,47.37-7.033,43.3,40.878-2.685,31.672-25.107,53.222-49.136,55.48C-224.833,247.22-241.711,216.087-241.579,184.444Z" transform="translate(242.67 -148.2)" fill="#e3825a"/>
              </g>
              <path id="Trazado_113621" data-name="Trazado 113621" d="M-241.024,187.845a47.635,47.635,0,0,0,4.844-24.7,49.809,49.809,0,0,0,28.3,10.2,14.937,14.937,0,0,0,7.425-1.211c2.246-1.167,4-3.647,2.612-6.172,4.42,1.327,8.942,2.67,13.567,2.466s9.411-2.262,11.395-6.406a40.124,40.124,0,0,0,19.987,20.717,208.1,208.1,0,0,1-8.534-26.655,182.42,182.42,0,0,0-80.591,2.232C-242.2,168.269-241.519,178.218-241.024,187.845Z" transform="translate(243.294 -143.769)" fill="#ce594b"/>
            </g>
            <g id="Grupo_80158" data-name="Grupo 80158" transform="translate(12.068 5.096)">
              <path id="Trazado_113622" data-name="Trazado 113622" d="M-237.792,152.174a218.083,218.083,0,0,1-1.369,41.8c-3.663-11.016-4.45-21.826-4.552-35.059C-241.862,158.039-239.876,152.64-237.792,152.174Z" transform="translate(243.714 -149.315)" fill="#272537"/>
              <path id="Trazado_113623" data-name="Trazado 113623" d="M-240.537,159.29a47.57,47.57,0,0,0,30.244,10.562,12.771,12.771,0,0,0,6.4-1.355c1.9-1.123,3.281-3.415,2.715-5.543a21.338,21.338,0,0,0,16.908,2.494c5.645-1.575,13-7.339,15.611-12.592C-192.494,149.443-219.455,152.842-240.537,159.29Z" transform="translate(246.897 -149.983)" fill="#272537"/>
              <path id="Trazado_113624" data-name="Trazado 113624" d="M-207.3,150.746c1.343,16.063,12.884,31.555,29.251,46.553,3.9-13.13,6.886-27.237,5.457-44.409C-178.353,151.547-202.5,151.168-207.3,150.746Z" transform="translate(280.198 -150.746)" fill="#272537"/>
            </g>
            <path id="Trazado_113625" data-name="Trazado 113625" d="M-188.639,167.206c8.078-2.919,16.479-.156,18.767,6.172s-2.41,13.825-10.488,16.742-16.479.156-18.767-6.172S-196.716,170.125-188.639,167.206Z" transform="translate(299.873 -130.324)" fill="#e3825a"/>
          </g>
          <path id="Trazado_113626" data-name="Trazado 113626" d="M-250.732,169.806c51.252-13.392,91.575-14.209,145.38-5.179-20.849-16.281-49.326-18.659-75.747-17.4S-231.636,153.351-250.732,169.806Z" transform="translate(295.51 -79.598)" fill="#bb8a6b"/>
          <g id="Grupo_80162" data-name="Grupo 80162" transform="translate(61.043 96.492)">
            <g id="Grupo_80160" data-name="Grupo 80160" transform="translate(11.03)">
              <path id="Trazado_113627" data-name="Trazado 113627" d="M-231.053,167.2a3.371,3.371,0,0,1,3.371,3.371,3.371,3.371,0,0,1-3.371,3.369,3.37,3.37,0,0,1-3.369-3.369A3.371,3.371,0,0,1-231.053,167.2Z" transform="translate(239.777 -155.788)" fill="#272537"/>
              <path id="Trazado_113628" data-name="Trazado 113628" d="M-210.218,167.2a3.371,3.371,0,0,1,3.371,3.371,3.371,3.371,0,0,1-3.371,3.369,3.37,3.37,0,0,1-3.369-3.369A3.371,3.371,0,0,1-210.218,167.2Z" transform="translate(260.651 -155.788)" fill="#272537"/>
              <path id="Trazado_113629" data-name="Trazado 113629" d="M-214.643,162.946a28.7,28.7,0,0,1,17.622,1.459" transform="translate(259.593 -160.812)" fill="none" stroke="#272537" stroke-linecap="round" stroke-miterlimit="10" stroke-width="2"/>
              <path id="Trazado_113630" data-name="Trazado 113630" d="M-237.1,164.393c4.144-3.2,12.59-3.689,17.448-1.75" transform="translate(237.097 -161.5)" fill="none" stroke="#272537" stroke-linecap="round" stroke-miterlimit="10" stroke-width="2"/>
              <path id="Trazado_113631" data-name="Trazado 113631" d="M-223.9,166.954a37.232,37.232,0,0,0,.673,14.471" transform="translate(249.899 -156.036)" fill="none" stroke="#b23341" stroke-linecap="round" stroke-miterlimit="10" stroke-width="2"/>
            </g>
            <g id="Grupo_80161" data-name="Grupo 80161" transform="translate(0 2.915)">
              <path id="Trazado_113632" data-name="Trazado 113632" d="M-156.619,165.4s-.555,16.968-4.754,24.917-10.564,10.288-10.564,10.288-3.5-7.909-9.221-11.192c-5.485-3.149-32.62-2.989-37.421,1.037C-224.34,195.278-225.99,203-225.99,203s-9.789-1.209-13.379-31.541l-3.239,2.276s2.364,27.137,8.842,44.161c5.835,15.362,17.915,20.833,35.641,20.833,23.706,0,42.716-9.367,48.86-42.994,6.972-38.164,2.815-32.474,2.815-32.474" transform="translate(242.607 -162.956)" fill="#272537"/>
              <path id="Trazado_113633" data-name="Trazado 113633" d="M-224.358,184.537a25.2,25.2,0,0,0,19.65-5.573" transform="translate(260.89 -146.918)" fill="none" stroke="#fff" stroke-linecap="round" stroke-miterlimit="10" stroke-width="2"/>
            </g>
          </g>
        </g>
      </g>
      <g id="Grupo_80169" data-name="Grupo 80169" transform="translate(0 278.626)">
        <path id="Trazado_113634" data-name="Trazado 113634" d="M-391.424,743.125-65.664,255.4a6.556,6.556,0,0,1,9.1-1.81l6.128,4.1a6.562,6.562,0,0,1,1.81,9.107L-374.368,754.506a6.563,6.563,0,0,1-9.1,1.812l-6.128-4.1A6.547,6.547,0,0,1-391.424,743.125Z" transform="translate(392.527 -252.482)" fill="#64291f"/>
        <g id="Grupo_80168" data-name="Grupo 80168" transform="translate(188.774 161.034)">
          <path id="Trazado_113635" data-name="Trazado 113635" d="M-279.887,332.924c-4.216.947-15.566,8.3-16.894,12.922-.991,3.419.847,21.318-1.415,35.717a3.315,3.315,0,0,0,.9,2.757c1.576,1.576,4.3-.074,5.529-1.94,4.786-7.279,7.135-13.641,7.835-21.562,10.868-6.87,12.808-13.611,14.063-23.87C-273.334,336.151-276.575,334.425-279.887,332.924Z" transform="translate(298.228 -332.924)" fill="#e3825a"/>
          <g id="Grupo_80167" data-name="Grupo 80167" transform="translate(12.144 17.605)">
            <g id="Grupo_80165" data-name="Grupo 80165">
              <path id="Trazado_113636" data-name="Trazado 113636" d="M-282.741,379.071c2.32,1.563,7.253.33,5.735-6.406-1.211-5.353-9.441-20.335-13.3-18.759-3.123,1.283-1.84,8.328.494,13.915C-288.122,371.907-285.438,377.247-282.741,379.071Z" transform="translate(292.162 -329.624)" fill="#e3825a"/>
              <path id="Trazado_113637" data-name="Trazado 113637" d="M-281.388,374.294c2.288,1.618,7.249.492,5.877-6.276-1.093-5.369-8.986-20.543-12.882-19.038-3.149,1.213-2.014,8.286.19,13.915C-286.611,367.013-284.045,372.408-281.388,374.294Z" transform="translate(293.992 -334.548)" fill="#e3825a"/>
              <path id="Trazado_113638" data-name="Trazado 113638" d="M-279.122,369.936c2.246,1.662,7.237.641,6-6.158-.981-5.4-8.58-20.715-12.5-19.3-3.165,1.149-2.188,8.238-.1,13.931C-284.2,362.549-281.747,368.008-279.122,369.936Z" transform="translate(296.671 -339.046)" fill="#e3825a"/>
              <path id="Trazado_113639" data-name="Trazado 113639" d="M-274.977,366.979c2.32,1.559,7.267.316,5.719-6.422-1.225-5.339-9.483-20.323-13.349-18.719-3.123,1.285-1.81,8.332.525,13.919C-280.376,359.827-277.675,365.168-274.977,366.979Z" transform="translate(299.892 -341.718)" fill="#e3825a"/>
            </g>
            <g id="Grupo_80166" data-name="Grupo 80166" transform="translate(5.483 9.412)">
              <path id="Trazado_113640" data-name="Trazado 113640" d="M-283.826,346.42a37.649,37.649,0,0,1,6.624,12.942" transform="translate(295.03 -346.42)" fill="none" stroke="#b23341" stroke-linecap="round" stroke-miterlimit="10" stroke-width="1"/>
              <path id="Trazado_113641" data-name="Trazado 113641" d="M-286.726,350.663a79.436,79.436,0,0,1,6.3,11.787" transform="translate(292.125 -342.169)" fill="none" stroke="#b23341" stroke-linecap="round" stroke-miterlimit="10" stroke-width="1"/>
              <path id="Trazado_113642" data-name="Trazado 113642" d="M-289.423,354.526a93.3,93.3,0,0,1,8.082,13.961" transform="translate(289.423 -338.299)" fill="none" stroke="#b23341" stroke-linecap="round" stroke-miterlimit="10" stroke-width="1"/>
            </g>
          </g>
        </g>
      </g>
      <path id="Trazado_113643" data-name="Trazado 113643" d="M-226.041,247.848Z" transform="translate(559.324 21.501)" fill="#e3825a"/>
      <g id="Grupo_80174" data-name="Grupo 80174" transform="translate(290.243 185.664)">
        <g id="Grupo_80172" data-name="Grupo 80172" transform="translate(0 81.263)">
          <g id="Grupo_80170" data-name="Grupo 80170">
            <path id="Trazado_113644" data-name="Trazado 113644" d="M-175.864,293.614c-8.476,5.059-26.931-4.374-30.344-6.464-2.32-1.429-5.529,1.6-7.325,3.371-2.9,2.847-4.434,8.958-4.989,10.822-.5,1.678-2.757,3.663-4.552,3.461s-3.369-1.415-2.829-5.545c-1.608,2.174-2.9,5.165-5.269,5.165-4.332,0-3.223-4.406-3.6-6.142-1.445,1.6-3.459,2.628-5.021,2.158-2.246-.641-3.121-3.515-2.977-4.8.032-.188.046-.406.074-.594-2.875.262-4.638-2.03-4.814-6.2-.5-11.162,5.223-23.228,14.165-30.258,8.8-6.916,17.4-9.745,28.42-11.833.16-.04.336-.072.525-.1.016,0,.03-.014.044-.014l.014.014c8-.438,39.173,28.256,40.077,33.453C-163.214,286.521-169.955,290.067-175.864,293.614Z" transform="translate(247.541 -246.638)" fill="#e3825a"/>
            <path id="Trazado_113645" data-name="Trazado 113645" d="M-236.536,282.192A37.142,37.142,0,0,1-215.4,261.9" transform="translate(258.566 -231.349)" fill="none" stroke="#b23341" stroke-linecap="round" stroke-miterlimit="10" stroke-width="1"/>
            <path id="Trazado_113646" data-name="Trazado 113646" d="M-241.237,285.534a41.322,41.322,0,0,1,21.46-28.112" transform="translate(253.857 -235.834)" fill="none" stroke="#b23341" stroke-linecap="round" stroke-miterlimit="10" stroke-width="1"/>
            <path id="Trazado_113647" data-name="Trazado 113647" d="M-244.559,284.964a37.974,37.974,0,0,1,17.17-30.827" transform="translate(250.528 -239.125)" fill="none" stroke="#b23341" stroke-linecap="round" stroke-miterlimit="10" stroke-width="1"/>
          </g>
          <g id="Grupo_80171" data-name="Grupo 80171" transform="translate(66.674 0.014)">
            <path id="Trazado_113648" data-name="Trazado 113648" d="M-115.615,339.868c-21.094,7.437-97.805-47.34-97.805-47.34l-.815-29.836s63.315,29.618,66.482,28.244c.38-.16.611-.951.729-2.2.57-6.348-2-24.687-3.559-34.927-.657-4.288-1.139-7.163-1.139-7.163l38.764,2.276,2.378.132s3.515,18.233,5.091,38.4C-103.68,310.427-104.381,335.9-115.615,339.868Z" transform="translate(214.235 -246.645)" fill="#e3825a"/>
            <path id="Trazado_113649" data-name="Trazado 113649" d="M-137.337,286.319a137.633,137.633,0,0,1-41.549,1.269c.569-6.348-2-24.687-3.561-34.927l37.641-4.873,2.378.13S-138.912,266.154-137.337,286.319Z" transform="translate(246.082 -245.499)" fill="#ce594b"/>
          </g>
        </g>
        <g id="Grupo_80173" data-name="Grupo 80173" transform="translate(125.036)">
          <path id="Trazado_113650" data-name="Trazado 113650" d="M-182.344,207.111c1.019-5.179,35.713,9.147,39.01,29.177,3.019,18.383,15.655,81.784,15.655,81.784l-56.475,9.091S-187.161,231.431-182.344,207.111Z" transform="translate(185.081 -206.044)" fill="#5000c7"/>
          <path id="Trazado_113651" data-name="Trazado 113651" d="M-179.844,310.455c-1.285-20.831-4.48-49.907-2.058-62.452,1.589-8.23,5.455-18.293,8.884-27.44" transform="translate(187.382 -191.499)" fill="none" stroke="#6c7d8a" stroke-linecap="round" stroke-miterlimit="10" stroke-width="1"/>
        </g>
      </g>
      <path id="Trazado_113652" data-name="Trazado 113652" d="M-269.9,237.8c-.2-.088-.276-.13-.218-.176S-269.983,237.651-269.9,237.8Z" transform="translate(515.148 11.242)" fill="#ce594b"/>
    </g>
  </g>
</svg>
