<svg xmlns="http://www.w3.org/2000/svg" width="268.081" height="57.862" viewBox="0 0 268.081 57.862">
  <g id="Grupo_80233" data-name="Grupo 80233" transform="translate(-531.455 -7008.244)">
    <path id="Trazado_191248" data-name="Trazado 191248" d="M4.283,22.5H1.455V8.781H4.283ZM10.6,8.781l3.525,9.953,3.506-9.953h3.714V22.5H18.505V18.753l.283-6.475L15.084,22.5H13.142L9.448,12.287l.283,6.466V22.5H6.9V8.781Zm28.446,5.286H28.932V11.4H39.043Zm0,4.9H28.932V16.3H39.043Z" transform="translate(530 7023.145)" fill="#12263f"/>
    <path id="Trazado_191246" data-name="Trazado 191246" d="M.762,18.279l3.472-3.54L.762,11.2,2.684,9.3l3.438,3.518L9.572,9.3,11.5,11.2l-3.472,3.54,3.472,3.54-1.923,1.9-3.45-3.506L2.684,20.179ZM24.689,22.5H21.965V12l-3.252,1.009V10.791L24.4,8.756h.292Zm13.695-5.674a6.952,6.952,0,0,1-1.178,4.354,4.112,4.112,0,0,1-3.45,1.508,4.141,4.141,0,0,1-3.431-1.48,6.749,6.749,0,0,1-1.216-4.241V14.439A6.861,6.861,0,0,1,30.3,10.075a4.143,4.143,0,0,1,3.436-1.489,4.147,4.147,0,0,1,3.431,1.475A6.728,6.728,0,0,1,38.384,14.3ZM35.66,14.046a5.025,5.025,0,0,0-.467-2.486,1.577,1.577,0,0,0-1.456-.778,1.549,1.549,0,0,0-1.419.741,4.7,4.7,0,0,0-.485,2.316v3.34a5.275,5.275,0,0,0,.457,2.5,1.556,1.556,0,0,0,1.466.816,1.53,1.53,0,0,0,1.442-.783,5.149,5.149,0,0,0,.462-2.4Zm13.8,2.777a6.952,6.952,0,0,1-1.178,4.354,4.112,4.112,0,0,1-3.45,1.508,4.141,4.141,0,0,1-3.431-1.48,6.749,6.749,0,0,1-1.216-4.241V14.439a6.861,6.861,0,0,1,1.192-4.364,4.143,4.143,0,0,1,3.436-1.489,4.147,4.147,0,0,1,3.431,1.475A6.728,6.728,0,0,1,49.458,14.3Zm-2.724-2.777a5.025,5.025,0,0,0-.467-2.486,1.577,1.577,0,0,0-1.456-.778,1.549,1.549,0,0,0-1.419.741,4.7,4.7,0,0,0-.485,2.316v3.34a5.275,5.275,0,0,0,.457,2.5,1.556,1.556,0,0,0,1.466.816,1.53,1.53,0,0,0,1.442-.783,5.149,5.149,0,0,0,.462-2.4Z" transform="translate(750.078 7023.152)" fill="#12263f"/>
    <path id="Trazado_191247" data-name="Trazado 191247" d="M1.23,7.175a2.505,2.505,0,0,1,.763-1.838,2.462,2.462,0,0,1,1.8-.763,2.413,2.413,0,0,1,1.777.759A2.525,2.525,0,0,1,6.32,7.175,2.462,2.462,0,0,1,5.571,9a2.443,2.443,0,0,1-1.777.74A2.511,2.511,0,0,1,2,9,2.425,2.425,0,0,1,1.23,7.175ZM3.794,8.344a1.1,1.1,0,0,0,.825-.335,1.149,1.149,0,0,0,.325-.834,1.22,1.22,0,0,0-.325-.848,1.065,1.065,0,0,0-.825-.358,1.109,1.109,0,0,0-.839.358,1.192,1.192,0,0,0-.339.848A1.12,1.12,0,0,0,2.96,8,1.144,1.144,0,0,0,3.794,8.344ZM8.761,18.486V4.763h4.807a6.312,6.312,0,0,1,3.789.957,3.271,3.271,0,0,1,1.291,2.8A3.1,3.1,0,0,1,18.13,10.3a2.994,2.994,0,0,1-1.442,1.126,2.9,2.9,0,0,1,1.664,1.065,3.149,3.149,0,0,1,.608,1.96,3.622,3.622,0,0,1-1.263,3,5.686,5.686,0,0,1-3.6,1.037Zm2.828-5.976v3.7h2.422a2.338,2.338,0,0,0,1.56-.476,1.632,1.632,0,0,0,.561-1.315,1.723,1.723,0,0,0-1.951-1.913Zm0-2h2.092q2.14-.038,2.14-1.706a1.577,1.577,0,0,0-.542-1.343,2.851,2.851,0,0,0-1.711-.41H11.589Zm15.043.33a7.4,7.4,0,0,0-.98-.075,2,2,0,0,0-2.026,1.046v6.673H20.9V8.288h2.573L23.55,9.5a2.524,2.524,0,0,1,2.271-1.4,2.854,2.854,0,0,1,.848.123Zm4.185,7.644H28.083V8.288h2.733ZM27.923,5.649a1.341,1.341,0,0,1,.41-1.009,1.767,1.767,0,0,1,2.229,0,1.334,1.334,0,0,1,.415,1.009,1.337,1.337,0,0,1-.419,1.018,1.747,1.747,0,0,1-2.215,0A1.337,1.337,0,0,1,27.923,5.649Zm9.02,5.683,1.715-3.044h2.912l-2.9,5,3.026,5.2H38.771l-1.819-3.2-1.81,3.2H32.211l3.026-5.2-2.894-5h2.922Zm16.268,4.336a.878.878,0,0,0-.495-.787,5.621,5.621,0,0,0-1.588-.514Q47.49,13.6,47.49,11.275a2.8,2.8,0,0,1,1.126-2.267,4.543,4.543,0,0,1,2.945-.91,4.89,4.89,0,0,1,3.106.914,2.881,2.881,0,0,1,1.164,2.375H53.107a1.318,1.318,0,0,0-.377-.966,1.6,1.6,0,0,0-1.178-.382,1.63,1.63,0,0,0-1.065.311.982.982,0,0,0-.377.792.839.839,0,0,0,.429.73,4.412,4.412,0,0,0,1.447.481,11.817,11.817,0,0,1,1.715.457,2.818,2.818,0,0,1,2.158,2.743,2.66,2.66,0,0,1-1.2,2.257,5.164,5.164,0,0,1-3.091.862,5.393,5.393,0,0,1-2.276-.457,3.819,3.819,0,0,1-1.56-1.254,2.913,2.913,0,0,1-.566-1.72h2.583a1.422,1.422,0,0,0,.537,1.112,2.131,2.131,0,0,0,1.338.386,1.972,1.972,0,0,0,1.183-.3A.924.924,0,0,0,53.211,15.668ZM63.72,17.449a3.416,3.416,0,0,1-2.79,1.225,3.222,3.222,0,0,1-2.5-.943,4.024,4.024,0,0,1-.881-2.762V8.288H60.27v6.6q0,1.595,1.451,1.595a1.967,1.967,0,0,0,1.9-.963V8.288h2.733v10.2H63.8Zm13.874-3.968a6.116,6.116,0,0,1-1.07,3.775,3.43,3.43,0,0,1-2.889,1.419,3.177,3.177,0,0,1-2.5-1.074v4.807H68.414V8.288H70.94l.094,1A3.2,3.2,0,0,1,73.617,8.1a3.453,3.453,0,0,1,2.931,1.395,6.282,6.282,0,0,1,1.046,3.846Zm-2.724-.2a4.014,4.014,0,0,0-.5-2.2,1.642,1.642,0,0,0-1.466-.773,1.784,1.784,0,0,0-1.763.98V15.47a1.814,1.814,0,0,0,1.781,1.009Q74.87,16.478,74.87,13.283Zm9.1,5.391A5.006,5.006,0,0,1,80.323,17.3a4.891,4.891,0,0,1-1.409-3.666v-.264a6.161,6.161,0,0,1,.594-2.747A4.358,4.358,0,0,1,81.19,8.754,4.722,4.722,0,0,1,83.673,8.1a4.232,4.232,0,0,1,3.294,1.32,5.362,5.362,0,0,1,1.2,3.742v1.112H81.675a2.53,2.53,0,0,0,.8,1.6,2.408,2.408,0,0,0,1.682.6,2.94,2.94,0,0,0,2.46-1.14l1.338,1.5a4.089,4.089,0,0,1-1.659,1.353A5.442,5.442,0,0,1,83.975,18.674ZM83.664,10.3a1.7,1.7,0,0,0-1.315.549,2.843,2.843,0,0,0-.646,1.572h3.789V12.2A2.028,2.028,0,0,0,85,10.792,1.756,1.756,0,0,0,83.664,10.3Zm11.782.547a7.4,7.4,0,0,0-.98-.075,2,2,0,0,0-2.026,1.046v6.673H89.715V8.288h2.573L92.364,9.5a2.524,2.524,0,0,1,2.271-1.4,2.854,2.854,0,0,1,.848.123Zm4.185,7.644H96.9V8.288H99.63ZM96.737,5.649a1.341,1.341,0,0,1,.41-1.009,1.767,1.767,0,0,1,2.229,0,1.334,1.334,0,0,1,.415,1.009,1.337,1.337,0,0,1-.419,1.018,1.747,1.747,0,0,1-2.215,0A1.337,1.337,0,0,1,96.737,5.649Zm4.713,7.644a6.048,6.048,0,0,1,.584-2.705,4.278,4.278,0,0,1,1.682-1.838,4.908,4.908,0,0,1,2.55-.65,4.644,4.644,0,0,1,3.37,1.263,5.069,5.069,0,0,1,1.456,3.431l.019.7a5.33,5.33,0,0,1-1.31,3.765,5.078,5.078,0,0,1-7.036,0,5.424,5.424,0,0,1-1.315-3.846Zm2.724.193a3.812,3.812,0,0,0,.547,2.223,1.964,1.964,0,0,0,3.11.009,4.171,4.171,0,0,0,.556-2.431,3.774,3.774,0,0,0-.556-2.209,1.808,1.808,0,0,0-1.565-.783,1.778,1.778,0,0,0-1.546.779A4.242,4.242,0,0,0,104.173,13.486Zm14.345-2.644a7.4,7.4,0,0,0-.98-.075,2,2,0,0,0-2.026,1.046v6.673h-2.724V8.288h2.573l.075,1.216a2.524,2.524,0,0,1,2.271-1.4,2.854,2.854,0,0,1,.848.123Z" transform="translate(597.568 7004)" fill="#12263f"/>
    <path id="Trazado_191245" data-name="Trazado 191245" d="M1.23,7.16a2.505,2.505,0,0,1,.763-1.838,2.462,2.462,0,0,1,1.8-.763,2.413,2.413,0,0,1,1.777.759A2.525,2.525,0,0,1,6.32,7.16a2.462,2.462,0,0,1-.749,1.824,2.443,2.443,0,0,1-1.777.74A2.511,2.511,0,0,1,2,8.984,2.425,2.425,0,0,1,1.23,7.16ZM3.794,8.328a1.1,1.1,0,0,0,.825-.335,1.149,1.149,0,0,0,.325-.834,1.22,1.22,0,0,0-.325-.848,1.065,1.065,0,0,0-.825-.358,1.109,1.109,0,0,0-.839.358,1.192,1.192,0,0,0-.339.848,1.12,1.12,0,0,0,.344.829A1.144,1.144,0,0,0,3.794,8.328ZM8.761,18.47V4.747h4.807a6.312,6.312,0,0,1,3.789.957,3.271,3.271,0,0,1,1.291,2.8,3.1,3.1,0,0,1-.518,1.777,2.994,2.994,0,0,1-1.442,1.126,2.9,2.9,0,0,1,1.664,1.065,3.149,3.149,0,0,1,.608,1.96,3.622,3.622,0,0,1-1.263,3,5.686,5.686,0,0,1-3.6,1.037Zm2.828-5.976v3.7h2.422a2.338,2.338,0,0,0,1.56-.476,1.632,1.632,0,0,0,.561-1.315,1.723,1.723,0,0,0-1.951-1.913Zm0-2h2.092q2.14-.038,2.14-1.706a1.577,1.577,0,0,0-.542-1.343,2.851,2.851,0,0,0-1.711-.41H11.589Zm15.043.33a7.4,7.4,0,0,0-.98-.075A2,2,0,0,0,23.625,11.8V18.47H20.9V8.272h2.573l.075,1.216a2.524,2.524,0,0,1,2.271-1.4,2.854,2.854,0,0,1,.848.123Zm4.185,7.644H28.083V8.272h2.733ZM27.923,5.633a1.341,1.341,0,0,1,.41-1.009,1.767,1.767,0,0,1,2.229,0,1.334,1.334,0,0,1,.415,1.009,1.337,1.337,0,0,1-.419,1.018,1.747,1.747,0,0,1-2.215,0A1.337,1.337,0,0,1,27.923,5.633Zm9.02,5.683,1.715-3.044h2.912l-2.9,5,3.026,5.2H38.771l-1.819-3.2-1.81,3.2H32.211l3.026-5.2-2.894-5h2.922Zm13.62,7.154H47.829V8.272h2.733ZM47.669,5.633a1.341,1.341,0,0,1,.41-1.009,1.767,1.767,0,0,1,2.229,0,1.334,1.334,0,0,1,.415,1.009A1.337,1.337,0,0,1,50.3,6.651a1.747,1.747,0,0,1-2.215,0A1.337,1.337,0,0,1,47.669,5.633Zm7.644,2.639L55.4,9.45a3.561,3.561,0,0,1,2.931-1.367,2.959,2.959,0,0,1,2.413.952,4.442,4.442,0,0,1,.811,2.846V18.47H58.828V11.948a1.767,1.767,0,0,0-.377-1.258A1.688,1.688,0,0,0,57.2,10.3a1.874,1.874,0,0,0-1.725.98V18.47H52.749V8.272Zm9.048,10.2v-8.2H62.844v-2h1.517V7.4a3.521,3.521,0,0,1,.985-2.663A3.814,3.814,0,0,1,68.1,3.795a6.368,6.368,0,0,1,1.386.189L69.46,6.095a3.473,3.473,0,0,0-.829-.085q-1.536,0-1.536,1.442v.82h2.026v2H67.094v8.2ZM75,18.659a5.006,5.006,0,0,1-3.652-1.376,4.891,4.891,0,0,1-1.409-3.666v-.264a6.161,6.161,0,0,1,.594-2.747,4.358,4.358,0,0,1,1.682-1.866A4.722,4.722,0,0,1,74.7,8.083,4.232,4.232,0,0,1,77.995,9.4a5.362,5.362,0,0,1,1.2,3.742v1.112H72.7a2.53,2.53,0,0,0,.8,1.6,2.408,2.408,0,0,0,1.682.6,2.94,2.94,0,0,0,2.46-1.14l1.338,1.5a4.089,4.089,0,0,1-1.659,1.353A5.442,5.442,0,0,1,75,18.659Zm-.311-8.379a1.7,1.7,0,0,0-1.315.549,2.843,2.843,0,0,0-.646,1.572H76.52v-.218a2.028,2.028,0,0,0-.49-1.406A1.756,1.756,0,0,0,74.691,10.28Zm11.782.547a7.4,7.4,0,0,0-.98-.075A2,2,0,0,0,83.466,11.8V18.47H80.742V8.272h2.573l.075,1.216a2.524,2.524,0,0,1,2.271-1.4,2.854,2.854,0,0,1,.848.123Zm4.185,7.644H87.924V8.272h2.733ZM87.764,5.633a1.341,1.341,0,0,1,.41-1.009,1.767,1.767,0,0,1,2.229,0,1.334,1.334,0,0,1,.415,1.009A1.337,1.337,0,0,1,90.4,6.651a1.747,1.747,0,0,1-2.215,0A1.337,1.337,0,0,1,87.764,5.633Zm4.713,7.644a6.048,6.048,0,0,1,.584-2.705,4.278,4.278,0,0,1,1.682-1.838,4.908,4.908,0,0,1,2.55-.65,4.644,4.644,0,0,1,3.37,1.263,5.069,5.069,0,0,1,1.456,3.431l.019.7a5.33,5.33,0,0,1-1.31,3.765,5.078,5.078,0,0,1-7.036,0A5.424,5.424,0,0,1,92.477,13.4Zm2.724.193a3.812,3.812,0,0,0,.547,2.223,1.964,1.964,0,0,0,3.11.009,4.171,4.171,0,0,0,.556-2.431,3.774,3.774,0,0,0-.556-2.209,1.808,1.808,0,0,0-1.565-.783,1.778,1.778,0,0,0-1.546.779A4.242,4.242,0,0,0,95.2,13.47Zm14.345-2.644a7.4,7.4,0,0,0-.98-.075,2,2,0,0,0-2.026,1.046V18.47h-2.724V8.272h2.573l.075,1.216a2.524,2.524,0,0,1,2.271-1.4,2.854,2.854,0,0,1,.848.123Z" transform="translate(597.568 7047.447)" fill="#12263f"/>
    <line id="Línea_142" data-name="Línea 142" x2="161" transform="translate(578 7036.911)" fill="none" stroke="#e53935" stroke-width="2"/>
  </g>
</svg>
