<svg xmlns="http://www.w3.org/2000/svg" width="218.602" height="110" viewBox="0 0 218.602 110">
  <g id="Grupo_80243" data-name="Grupo 80243" transform="translate(-741.797 -171.7)">
    <g id="Grupo_80240" data-name="Grupo 80240" transform="translate(741.797 196.111)">
      <path id="Trazado_113680" data-name="Trazado 113680" d="M912.919,280.508c-8.834-2.558-18.384-1.111-27.26,1.294-15.747,4.266-17.666,1-22.882,1.455-1.82,3.32-10.362,4.406-14.07,5.171-12.227,2.521-17.9,3.792-30.2,5.946-3.511.615-5.59-1.266-8.924-.007a144.406,144.406,0,0,1-17.726,5.323c-12.54,2.811-21.166,2.277-31.044,8.089,0,0-4.453,3.421-5.7,7.848a33.728,33.728,0,0,0-.508,13.688c.694,5.044,2.137,10.238,5.667,13.908,5.895,6.13,9.924,9.08,15.614,8.131,15.579-2.6,38.788-12.925,54.564-13.691a15.5,15.5,0,0,0,3.892-.479,17.38,17.38,0,0,0,3.508-1.8c6.35-3.725,13.715-5.245,20.93-6.709l17.426-3.536c1.268-.257,4.925.032,6.023.714,3.459-1.3,5.371-4.3,7.481-5.029,7.216-2.487,15.01-2.864,22.281-5.184s14.482-7.413,15.879-14.916C929.56,291.681,921.752,283.066,912.919,280.508Z" transform="translate(-751.348 -279.159)" fill="#95ba60"/>
      <path id="Trazado_113681" data-name="Trazado 113681" d="M825.271,321.422l-3.4,1.759a151.554,151.554,0,0,1,27.54-6.52l-17.8,5.853q19.376-3.8,38.61-8.28l-9.637.725,10.991-2.349a87.051,87.051,0,0,0-19.86,1.839l36.807-7.314a16.868,16.868,0,0,0-6.779,2.136l6.541-.827a1.416,1.416,0,0,1,1.248.241c.3.326-.07,1.032-.444.8a166.023,166.023,0,0,1,21.37-3.318,143.618,143.618,0,0,0-21.12,6.441,355.534,355.534,0,0,0,40.315-9.039,45.156,45.156,0,0,0-12.025.5l19.708-3.614-2,.384,9.977-.9-9.179,2.567,14.954-1.027q-13.5,3.569-27.254,6.082A103.02,103.02,0,0,1,935.1,306.27q-24.608,5.021-48.859,11.622l16.678-5.035-19.131,2.616c-.438.06-1.008.049-1.171-.362s.785-.56.586-.164a23.17,23.17,0,0,1-8.853,1.462,51.379,51.379,0,0,1,8.377-3.621,141.909,141.909,0,0,0-13.912,3.98,14.749,14.749,0,0,1,5.819-.267l-19.482,6.3a242.581,242.581,0,0,0,25.362-3.24,88.767,88.767,0,0,0-14.994,4.427l16.093-1.721q-26.4,4.813-52.523,10.98a152.989,152.989,0,0,0,16.522-5.174l-13.2,1.775,20.425-7.021a79.528,79.528,0,0,0-21.02,3.414l4.266-1.9a89.636,89.636,0,0,1-13.9,2.527l1.647-.622-12.88,3.765-6.44,1.882c-1.192.349-4.849,2.127-6.009,1.545-2.482-1.246,3.667-5.246,4.754-6.143,2.326-1.919,4.909-2.515,7.82-3.178q3.524-.8,7.075-1.479C820.189,322.259,823.455,322.356,825.271,321.422Z" transform="translate(-785.166 -295.217)" fill="#bfd667"/>
      <path id="Trazado_113682" data-name="Trazado 113682" d="M843.835,357.995l-1.433.421a59.942,59.942,0,0,0,12.5-2.16,23.411,23.411,0,0,0-7.24-.06l6.362-2.15a26.512,26.512,0,0,0-8.282,1.453L823.124,362a31.072,31.072,0,0,1-5.4,1.211c-1.815.185-3.659.05-5.456.367a6.028,6.028,0,0,0-4.459,2.822c.038-.075,3.429-.459,3.907-.677a18.206,18.206,0,0,1,2.386-1.2c3.174-.957,6.758-1.169,10.019-1.822Q834.061,360.714,843.835,357.995Z" transform="translate(-792.814 -337.025)" fill="#bfd667"/>
      <path id="Trazado_113683" data-name="Trazado 113683" d="M948.489,372.321c.032-.172.06-.345.085-.517l-36.153,8.039,25.98-3.715-12.63,4.433a78.957,78.957,0,0,1,16.714-2.146l-14.918,4.48-30.341,6.443,23.32-8.043-27.719,5.743,6.106-2.423q-16.245,4.228-32.366,8.912l20.953-3.023L857.18,399a76.525,76.525,0,0,1,14.235-1.593l-39.874,8.939,16.759-5.7-15.587,2.718q14.821-4.963,29.133-11.3a75.4,75.4,0,0,0-20.451,4.207L848.022,395a299.964,299.964,0,0,1-31.911,8.934l15.075-6.409c-3.486,1.482-7.532,2.223-11.181,3.248a138.863,138.863,0,0,1-16.916,3.954c-5.529.832-11.625,3.89-16.637,6.306a33.73,33.73,0,0,0-5.813,3.516c.083.091.166.181.252.27,5.895,6.13,9.924,9.08,15.613,8.131,15.579-2.6,38.789-12.925,54.564-13.691a15.507,15.507,0,0,0,3.893-.479,17.385,17.385,0,0,0,3.508-1.8c6.35-3.726,13.715-5.245,20.93-6.709l17.426-3.536c1.268-.257,4.925.032,6.023.714,3.459-1.3,5.371-4.3,7.481-5.029,7.216-2.487,15.01-2.864,22.281-5.184S947.091,379.824,948.489,372.321Z" transform="translate(-771.815 -350.758)" fill="#809b51"/>
      <path id="Trazado_113684" data-name="Trazado 113684" d="M747.612,401.3a24.361,24.361,0,0,0-5.8,16.754c.178,6.05,2.7,11.765,5.919,16.891,6.69,10.658,17.694,8.016,21.392,6.55,4.569-1.811,8.411-5.64,9.493-10.435,1.679-7.443,1.087-15.566-2.633-22.228C770.774,399.514,756.121,391.684,747.612,401.3Z" transform="translate(-741.797 -370.157)" fill="#eadba0"/>
      <path id="Trazado_113685" data-name="Trazado 113685" d="M775.979,408.834c-5.205-9.32-19.858-17.15-28.367-7.533a24.361,24.361,0,0,0-5.8,16.754c.178,6.05,2.7,11.765,5.919,16.891,6.69,10.658,17.694,8.016,21.392,6.55,4.569-1.811,8.411-5.64,9.493-10.435C780.292,423.619,779.7,415.5,775.979,408.834Zm.23,21.946a12.85,12.85,0,0,1-4.345,6.773,15.373,15.373,0,0,1-3.887,2.021,14.12,14.12,0,0,1-8.157,1,13.228,13.228,0,0,1-4.271-2.028A26.449,26.449,0,0,1,744.3,414.322a19.473,19.473,0,0,1,5.716-12.211c3.552-3.279,8.24-3.45,12.707-1.916A21.533,21.533,0,0,1,776.542,415.9a33.642,33.642,0,0,1,.555,6.764A29.266,29.266,0,0,1,776.209,430.78Z" transform="translate(-741.797 -370.157)" fill="#cfe29a"/>
      <path id="Trazado_113686" data-name="Trazado 113686" d="M774.3,418.835a7.221,7.221,0,0,0,.276,2.526,22.237,22.237,0,0,1,.272,7.589l-2.025-6.917a1.46,1.46,0,0,0-.528-.9c-.705-.427-1.462.513-1.649,1.316-.61,2.621.26,5.334,1.119,7.883l1.465,4.343a3.838,3.838,0,0,1-2.515-2.417,26.156,26.156,0,0,0-1.392-3.346,1.468,1.468,0,0,0-1.078-.812c-.786-.028-1.164.946-1.268,1.726a21.363,21.363,0,0,0,2.686,13.455l1.237-4.463a.946.946,0,0,1,.272-.519c.523-.407,1.074.5,1.1,1.157.1,2.728-.481,5.714,1.009,8a14.775,14.775,0,0,1,2.237-7.525c.964,4.375-.244,9.163,1.518,13.282.22.515.633,1.093,1.187,1.006.421-.066.678-.493.831-.89,1.645-4.254-1.756-9.558.686-13.41,1.257,1.617,1.092,3.87,1.317,5.9a14,14,0,0,0,1.671,5.244c.546.984,1.591,2.026,2.628,1.588.968-.408,1.038-1.772.719-2.773s-.873-2.028-.6-3.042a2.394,2.394,0,1,0,3.792-2.441c-.872-.67-2.094-.674-3.045-1.226a3.055,3.055,0,0,1-1.2-3.775,30.38,30.38,0,0,1,3.46,2.773,5.52,5.52,0,0,0,4.066,1.446.53.53,0,0,0,.53-.7c-.322-2.572-3.254-3.832-5.766-4.475s-5.467-1.53-6.258-4c1.87-.231,3.5,1.143,5.188,1.976a9.652,9.652,0,0,0,4.89.968,2.374,2.374,0,0,0,1.647-.609c.933-1.035-.315-2.746-1.691-2.969s-2.756.354-4.15.354c1.308-.256,2.693.008,3.969-.375s2.388-1.912,1.637-3.012c-.67-.981-2.142-.784-3.3-.518a48.339,48.339,0,0,1-7.649,1.125,1.278,1.278,0,0,1-.968-.2c-.383-.354-.2-.992.063-1.44,2.156-3.63,7.723-4.363,9.346-8.262-2.237-.825-4.746.352-6.508,1.958s-3.106,3.65-4.985,5.118l2.638-8.007a16.17,16.17,0,0,0-3.32,5.636c-.78-1.161-.377-2.706-.048-4.065.316-1.308.438-3.231-.569-4.312C776.091,416.564,774.554,417.14,774.3,418.835Z" transform="translate(-761.118 -385.794)" fill="#f2e69e" opacity="0.64"/>
      <path id="Trazado_113687" data-name="Trazado 113687" d="M1202.48,299.9a12.17,12.17,0,0,0-5.491,1.8,79.3,79.3,0,0,1,16.027-1.576l-2.232,1.056c6.609-3.943,14.868-3.562,22.217-5.847a157.4,157.4,0,0,0-17.832,1.167,35.631,35.631,0,0,0,7.384-1.647q-9.2,1.8-18.217,4.4a24.39,24.39,0,0,1,6.506-.162c-2.715.761-5.587-.024-8.392-.311-5.841-.6-11.66.987-17.318,2.558,2.507-.7,5.392-.1,8-.771A33.208,33.208,0,0,1,1202.48,299.9Z" transform="translate(-1084.421 -291.286)" fill="#bfd667"/>
      <path id="Trazado_113688" data-name="Trazado 113688" d="M1069.621,388.948c3.43,2.191,5.219,6.153,6.824,9.893,1.581,3.684,9.139,19.757,1.935,21.731-4.111,1.127-3.729-4.295-3.519-6.574a43.736,43.736,0,0,0-5.24-25.05Z" transform="translate(-995.15 -364.008)" fill="#809b51"/>
      <path id="Trazado_113689" data-name="Trazado 113689" d="M1296.681,335.724c4.526,5.6,7.339,12.386,9.485,19.257.842,2.7,1.595,5.57.921,8.312-.36,1.466-4.621,6.9-5.671,4.2-.359-.922.769-4.024.882-5.123a44.758,44.758,0,0,0-5.616-26.648Z" transform="translate(-1170.63 -322.874)" fill="#809b51"/>
      <path id="Trazado_113690" data-name="Trazado 113690" d="M1306.2,379.881a1.084,1.084,0,0,0,1.175-.558,3.169,3.169,0,0,0,.329-1.352c.436-4.8.869-9.662.088-14.418a43.6,43.6,0,0,0-5.247-14.079c.76,3.659,2.459,7.14,3.192,10.864a57.608,57.608,0,0,1,1.069,12.611C1306.787,373.57,1306.192,379.879,1306.2,379.881Z" transform="translate(-1175.159 -333.501)" fill="#a36f43"/>
      <path id="Trazado_113691" data-name="Trazado 113691" d="M1096.887,445.706a64.407,64.407,0,0,1,3.593,13.76,8.53,8.53,0,0,1-.089,3.956c-.308.907-2.989,3.736-3.8,1.853-.247-.574.636-1.575.864-2.044a9.814,9.814,0,0,0,.832-3.12A33.182,33.182,0,0,0,1096.887,445.706Z" transform="translate(-1015.961 -407.872)" fill="#a36f43"/>
      <path id="Trazado_113692" data-name="Trazado 113692" d="M1019.767,350.528a10.166,10.166,0,0,0-3.4-4.169,12.207,12.207,0,0,0-2.96-1.976c-.66-.28-2.007-.789-2.5-.124a21.21,21.21,0,0,1,4.972,2.45C1017.069,347.552,1019.265,349.09,1019.767,350.528Z" transform="translate(-949.773 -329.218)" fill="#a36f43"/>
      <path id="Trazado_113693" data-name="Trazado 113693" d="M1236.489,298.195a11.271,11.271,0,0,1,4.644,3.713,18.4,18.4,0,0,0-3.092-3.512,6.251,6.251,0,0,0-1.272-1.021,5.443,5.443,0,0,0-1.584-.507,22.145,22.145,0,0,0-5.362-.358C1231.866,296.2,1234.669,297.358,1236.489,298.195Z" transform="translate(-1118.96 -292.528)" fill="#a36f43"/>
    </g>
    <g id="Grupo_80241" data-name="Grupo 80241" transform="translate(783.64 208.961)">
      <path id="Trazado_113694" data-name="Trazado 113694" d="M1097.112,337.073c-8.834-2.558-18.384-1.111-27.26,1.294-15.747,4.266-17.665,1-22.882,1.455-1.819,3.32-10.362,4.406-14.07,5.171-12.227,2.521-17.9,3.792-30.2,5.946-3.511.615-5.59-1.267-8.924-.007a144.394,144.394,0,0,1-17.726,5.322c-12.54,2.811-21.166,2.277-31.044,8.089,0,0-4.453,3.421-5.7,7.848a33.727,33.727,0,0,0-.508,13.688c.693,5.044,2.137,10.238,5.667,13.908,5.895,6.13,9.924,9.08,15.613,8.131,15.579-2.6,38.789-12.925,54.564-13.691a15.513,15.513,0,0,0,3.892-.48,17.355,17.355,0,0,0,3.509-1.8c6.35-3.726,13.715-5.246,20.93-6.709l17.426-3.535c1.268-.257,4.925.032,6.024.714,3.459-1.3,5.371-4.3,7.48-5.029,7.215-2.487,15.01-2.864,22.281-5.184s14.481-7.413,15.879-14.916C1113.754,348.246,1105.946,339.631,1097.112,337.073Z" transform="translate(-935.541 -335.724)" fill="#95ba60"/>
      <path id="Trazado_113695" data-name="Trazado 113695" d="M1009.465,377.986l-3.4,1.759a151.574,151.574,0,0,1,27.541-6.52l-17.8,5.853q19.375-3.8,38.61-8.28l-9.637.725,10.99-2.349a87.046,87.046,0,0,0-19.861,1.839l36.807-7.314a16.87,16.87,0,0,0-6.779,2.136l6.541-.827a1.417,1.417,0,0,1,1.249.241c.3.326-.07,1.032-.444.8a166.091,166.091,0,0,1,21.37-3.318,143.668,143.668,0,0,0-21.12,6.441,355.545,355.545,0,0,0,40.315-9.038,45.149,45.149,0,0,0-12.025.5l19.709-3.614-2,.384,9.977-.9-9.179,2.567,14.954-1.027q-13.5,3.569-27.255,6.082a103.016,103.016,0,0,1,11.266-1.288q-24.609,5.021-48.859,11.622l16.678-5.035-19.131,2.616c-.439.06-1.008.049-1.171-.362s.785-.56.587-.164a23.167,23.167,0,0,1-8.854,1.462,51.4,51.4,0,0,1,8.377-3.621,141.918,141.918,0,0,0-13.912,3.98,14.749,14.749,0,0,1,5.819-.267l-19.483,6.3a242.6,242.6,0,0,0,25.362-3.24,88.752,88.752,0,0,0-14.995,4.428l16.093-1.721q-26.4,4.813-52.524,10.98a152.975,152.975,0,0,0,16.522-5.173l-13.2,1.775,20.425-7.021a79.518,79.518,0,0,0-21.021,3.414l4.266-1.9a89.681,89.681,0,0,1-13.9,2.527l1.647-.622-12.881,3.765-6.44,1.882c-1.192.349-4.849,2.127-6.009,1.545-2.482-1.246,3.667-5.245,4.754-6.143,2.326-1.919,4.909-2.515,7.82-3.178q3.523-.8,7.075-1.479C1004.383,378.823,1007.649,378.92,1009.465,377.986Z" transform="translate(-969.36 -351.781)" fill="#bfd667"/>
      <path id="Trazado_113696" data-name="Trazado 113696" d="M1028.028,414.559l-1.432.421a59.945,59.945,0,0,0,12.5-2.16,23.411,23.411,0,0,0-7.239-.061l6.362-2.15a26.506,26.506,0,0,0-8.282,1.453l-22.617,6.505a31.094,31.094,0,0,1-5.4,1.211c-1.815.185-3.659.05-5.456.367A6.028,6.028,0,0,0,992,422.966c.038-.075,3.429-.459,3.907-.677a18.159,18.159,0,0,1,2.386-1.2c3.174-.957,6.758-1.169,10.019-1.822Q1018.254,417.279,1028.028,414.559Z" transform="translate(-977.007 -393.589)" fill="#bfd667"/>
      <path id="Trazado_113697" data-name="Trazado 113697" d="M1132.683,428.885c.032-.172.06-.345.085-.517l-36.154,8.039,25.98-3.715-12.63,4.433a78.984,78.984,0,0,1,16.714-2.146l-14.918,4.48-30.341,6.443,23.32-8.043-27.719,5.743,6.106-2.423q-16.245,4.228-32.366,8.912l20.953-3.023-30.337,8.492a76.537,76.537,0,0,1,14.235-1.593l-39.875,8.939,16.76-5.7-15.587,2.718q14.821-4.963,29.133-11.3a75.38,75.38,0,0,0-20.451,4.207l6.626-1.259A299.947,299.947,0,0,1,1000.3,460.5l15.075-6.409c-3.486,1.482-7.531,2.223-11.181,3.248a138.86,138.86,0,0,1-16.916,3.954c-5.53.832-11.625,3.889-16.637,6.306a33.723,33.723,0,0,0-5.813,3.516c.083.091.166.181.251.27,5.895,6.13,9.924,9.08,15.613,8.131,15.579-2.6,38.789-12.925,54.565-13.691a15.512,15.512,0,0,0,3.892-.48,17.356,17.356,0,0,0,3.508-1.8c6.35-3.726,13.715-5.246,20.931-6.709l17.426-3.535c1.268-.257,4.925.032,6.023.714,3.459-1.3,5.371-4.3,7.48-5.029,7.216-2.487,15.01-2.864,22.282-5.184S1131.285,436.388,1132.683,428.885Z" transform="translate(-956.009 -407.322)" fill="#809b51"/>
      <path id="Trazado_113698" data-name="Trazado 113698" d="M931.805,457.866a24.36,24.36,0,0,0-5.8,16.755c.178,6.05,2.7,11.765,5.918,16.891,6.69,10.658,17.694,8.016,21.393,6.55,4.569-1.811,8.411-5.64,9.493-10.435,1.68-7.444,1.087-15.566-2.633-22.228C954.968,456.078,940.314,448.248,931.805,457.866Z" transform="translate(-925.991 -426.722)" fill="#eadba0"/>
      <path id="Trazado_113699" data-name="Trazado 113699" d="M960.173,465.4c-5.2-9.32-19.858-17.15-28.367-7.533a24.36,24.36,0,0,0-5.8,16.755c.178,6.05,2.7,11.765,5.918,16.891,6.69,10.658,17.694,8.016,21.393,6.55,4.569-1.811,8.411-5.64,9.493-10.435C964.486,480.183,963.893,472.061,960.173,465.4Zm.23,21.946a12.852,12.852,0,0,1-4.345,6.773,15.366,15.366,0,0,1-3.887,2.021,14.119,14.119,0,0,1-8.157,1.005,13.23,13.23,0,0,1-4.271-2.028,26.449,26.449,0,0,1-11.248-24.229,19.473,19.473,0,0,1,5.716-12.211c3.551-3.279,8.241-3.45,12.707-1.916a21.532,21.532,0,0,1,13.819,15.708,33.661,33.661,0,0,1,.556,6.765A29.27,29.27,0,0,1,960.4,487.345Z" transform="translate(-925.991 -426.722)" fill="#cfe29a"/>
      <path id="Trazado_113700" data-name="Trazado 113700" d="M958.5,475.4a7.222,7.222,0,0,0,.276,2.526,22.234,22.234,0,0,1,.272,7.589l-2.025-6.917a1.462,1.462,0,0,0-.528-.9c-.705-.427-1.462.513-1.649,1.316-.61,2.621.26,5.334,1.119,7.883l1.465,4.343a3.838,3.838,0,0,1-2.515-2.417,26.1,26.1,0,0,0-1.392-3.345,1.467,1.467,0,0,0-1.077-.812c-.786-.028-1.164.946-1.268,1.725a21.367,21.367,0,0,0,2.686,13.455l1.237-4.463a.945.945,0,0,1,.272-.519c.523-.406,1.074.5,1.1,1.157.1,2.728-.481,5.714,1.009,8a14.773,14.773,0,0,1,2.237-7.525c.964,4.375-.244,9.163,1.518,13.282.22.515.633,1.093,1.186,1.007.421-.066.677-.493.831-.891,1.645-4.254-1.757-9.558.686-13.41,1.257,1.617,1.092,3.869,1.317,5.9a14,14,0,0,0,1.671,5.243c.546.984,1.591,2.026,2.628,1.588.968-.409,1.038-1.772.719-2.773s-.873-2.028-.6-3.042a2.394,2.394,0,1,0,3.792-2.441c-.871-.67-2.094-.674-3.044-1.225a3.055,3.055,0,0,1-1.2-3.776,30.411,30.411,0,0,1,3.46,2.773,5.52,5.52,0,0,0,4.066,1.446.53.53,0,0,0,.53-.7c-.322-2.573-3.254-3.833-5.766-4.475s-5.468-1.53-6.258-4c1.87-.231,3.5,1.143,5.189,1.976a9.65,9.65,0,0,0,4.89.968,2.374,2.374,0,0,0,1.647-.609c.934-1.035-.315-2.746-1.691-2.969s-2.756.354-4.15.354c1.307-.257,2.693.008,3.969-.375s2.389-1.912,1.637-3.012c-.67-.981-2.143-.783-3.3-.517a48.386,48.386,0,0,1-7.649,1.125,1.278,1.278,0,0,1-.969-.2c-.383-.353-.2-.992.063-1.44,2.156-3.63,7.723-4.363,9.346-8.262-2.237-.825-4.746.352-6.508,1.958s-3.106,3.65-4.985,5.118l2.639-8.007a16.163,16.163,0,0,0-3.32,5.636c-.78-1.161-.377-2.706-.049-4.065.316-1.308.438-3.231-.568-4.312C960.285,473.129,958.748,473.7,958.5,475.4Z" transform="translate(-945.311 -442.359)" fill="#f2e69e" opacity="0.64"/>
      <path id="Trazado_113701" data-name="Trazado 113701" d="M1386.673,356.465a12.17,12.17,0,0,0-5.491,1.8,79.285,79.285,0,0,1,16.027-1.576l-2.232,1.056c6.609-3.943,14.868-3.562,22.217-5.847a157.506,157.506,0,0,0-17.832,1.167,35.635,35.635,0,0,0,7.384-1.647q-9.2,1.8-18.217,4.4a24.392,24.392,0,0,1,6.506-.162c-2.716.76-5.587-.024-8.392-.311-5.841-.6-11.66.987-17.318,2.558,2.507-.7,5.392-.1,8-.771A33.2,33.2,0,0,1,1386.673,356.465Z" transform="translate(-1268.614 -347.851)" fill="#bfd667"/>
      <path id="Trazado_113702" data-name="Trazado 113702" d="M1253.814,445.513c3.431,2.191,5.219,6.153,6.824,9.893,1.581,3.683,9.139,19.757,1.935,21.731-4.112,1.126-3.73-4.295-3.519-6.574a43.733,43.733,0,0,0-5.24-25.05Z" transform="translate(-1179.343 -420.573)" fill="#809b51"/>
      <path id="Trazado_113703" data-name="Trazado 113703" d="M1480.874,392.289c4.526,5.6,7.339,12.385,9.484,19.257.842,2.7,1.595,5.57.921,8.312-.36,1.466-4.621,6.9-5.671,4.2-.359-.921.769-4.024.882-5.123a44.763,44.763,0,0,0-5.616-26.647Z" transform="translate(-1354.823 -379.439)" fill="#809b51"/>
      <path id="Trazado_113704" data-name="Trazado 113704" d="M1490.39,436.445a1.084,1.084,0,0,0,1.175-.558,3.166,3.166,0,0,0,.329-1.352c.435-4.8.869-9.662.088-14.418a43.6,43.6,0,0,0-5.247-14.079c.76,3.659,2.459,7.14,3.193,10.865A57.575,57.575,0,0,1,1491,429.514C1490.98,430.134,1490.385,436.443,1490.39,436.445Z" transform="translate(-1359.352 -390.065)" fill="#a36f43"/>
      <path id="Trazado_113705" data-name="Trazado 113705" d="M1281.081,502.271a64.394,64.394,0,0,1,3.593,13.76,8.527,8.527,0,0,1-.09,3.956c-.307.907-2.989,3.736-3.8,1.852-.247-.574.636-1.575.865-2.044a9.818,9.818,0,0,0,.832-3.12A33.178,33.178,0,0,0,1281.081,502.271Z" transform="translate(-1200.154 -464.437)" fill="#a36f43"/>
      <path id="Trazado_113706" data-name="Trazado 113706" d="M1203.961,407.092a10.165,10.165,0,0,0-3.4-4.169,12.2,12.2,0,0,0-2.96-1.976c-.66-.28-2.007-.789-2.5-.125a21.215,21.215,0,0,1,4.972,2.45C1201.263,404.116,1203.459,405.654,1203.961,407.092Z" transform="translate(-1133.967 -385.782)" fill="#a36f43"/>
      <path id="Trazado_113707" data-name="Trazado 113707" d="M1420.683,354.76a11.271,11.271,0,0,1,4.645,3.713,18.407,18.407,0,0,0-3.092-3.512,6.242,6.242,0,0,0-1.272-1.021,5.444,5.444,0,0,0-1.583-.508,22.14,22.14,0,0,0-5.362-.358C1416.06,352.765,1418.863,353.923,1420.683,354.76Z" transform="translate(-1303.154 -349.093)" fill="#a36f43"/>
    </g>
    <path id="Trazado_113708" data-name="Trazado 113708" d="M961.318,351.932c18.862.846,36.807-7.559,55.443-10.595,12.429-2.025,25.21-1.658,37.485-4.47,12.8-2.931,20.666-8.187,37.325-9.991,1.934-.21,3.48-.018,5.856-.99.691-.283-9.715-.249-10.41-.521-8.759-3.426-11.63-3.539-20.749-1.237s-18.042,5.674-27.409,6.529c-5.032.459-10.108.181-15.144.6a110.114,110.114,0,0,0-16.144,2.971l-55.076,13c-3.88.916-6.516-.059-7.386,3.831.091-.408,6.869,1.227,7.806,1.052C956,351.529,958.2,351.792,961.318,351.932Z" transform="translate(-157.127 -116.596)" fill="#5e703c"/>
    <g id="Grupo_80242" data-name="Grupo 80242" transform="translate(768.84 171.7)">
      <path id="Trazado_113709" data-name="Trazado 113709" d="M1035.113,173.764c-8.657-3.1-18.279-2.256-27.288-.41-15.982,3.275-17.694-.1-22.928.025-2.023,3.2-10.617,3.751-14.365,4.283-12.36,1.753-18.1,2.668-30.51,4.05-3.542.395-5.5-1.613-8.906-.564a144.427,144.427,0,0,1-18.023,4.206c-12.691,2.023-21.267.952-31.488,6.136,0,0-4.658,3.136-6.176,7.477a33.732,33.732,0,0,0-1.361,13.63c.378,5.078,1.495,10.352,4.788,14.235,5.5,6.486,9.338,9.682,15.075,9.089,15.711-1.623,39.519-10.479,55.312-10.26a15.519,15.519,0,0,0,3.915-.236,17.37,17.37,0,0,0,3.614-1.579c6.57-3.322,14.016-4.38,21.308-5.39l17.613-2.441c1.281-.178,4.913.339,5.967,1.089,3.534-1.079,5.629-3.958,7.78-4.552,7.356-2.032,15.159-1.922,22.561-3.783s14.916-6.495,16.779-13.9C1051.024,185.954,1043.769,176.868,1035.113,173.764Z" transform="translate(-870.95 -171.7)" fill="#95ba60"/>
      <path id="Trazado_113710" data-name="Trazado 113710" d="M947.732,209.161l-3.508,1.543a151.591,151.591,0,0,1,27.894-4.789l-18.13,4.731q19.575-2.585,39.051-5.855l-9.663.122,11.116-1.659a87.034,87.034,0,0,0-19.936.6l37.192-5a16.864,16.864,0,0,0-6.9,1.709l6.579-.417a1.418,1.418,0,0,1,1.231.318c.276.344-.134,1.025-.493.769a166.05,166.05,0,0,1,21.536-1.978,143.664,143.664,0,0,0-21.481,5.11,355.522,355.522,0,0,0,40.8-6.505,45.156,45.156,0,0,0-12.033-.253l19.9-2.377-2.017.259,10.014-.275-9.321,1.989,14.989-.092q-13.7,2.72-27.581,4.37a103.043,103.043,0,0,1,11.324-.583q-24.874,3.476-49.489,8.551l16.96-3.984-19.257,1.418c-.441.032-1.009-.014-1.146-.435s.818-.51.6-.127a23.168,23.168,0,0,1-8.927.906,51.391,51.391,0,0,1,8.587-3.091,141.989,141.989,0,0,0-14.134,3.1,14.748,14.748,0,0,1,5.824.1l-19.838,5.075a242.553,242.553,0,0,0,25.514-1.651,88.765,88.765,0,0,0-15.241,3.483l16.169-.714q-26.646,3.157-53.106,7.681a152.934,152.934,0,0,0,16.813-4.132l-13.283.947,20.823-5.733a79.5,79.5,0,0,0-21.192,2.1l4.376-1.626a89.691,89.691,0,0,1-14.03,1.655l1.683-.518-13.09,2.954-6.545,1.477c-1.212.273-4.972,1.821-6.093,1.167-2.4-1.4,3.987-5.007,5.129-5.834,2.441-1.77,5.056-2.2,8-2.684q3.567-.581,7.153-1.035C942.607,209.679,945.861,209.98,947.732,209.161Z" transform="translate(-906.35 -189.868)" fill="#bfd667"/>
      <path id="Trazado_113711" data-name="Trazado 113711" d="M968.3,225.13l-1.456.33a59.933,59.933,0,0,0,12.608-1.376,23.41,23.41,0,0,0-7.222-.512l6.484-1.749a26.513,26.513,0,0,0-8.357.933l-22.979,5.081a31.1,31.1,0,0,1-5.464.871c-1.823.071-3.656-.178-5.468.026a6.029,6.029,0,0,0-4.626,2.539c.043-.072,3.451-.244,3.942-.432a18.2,18.2,0,0,1,2.456-1.048c3.228-.757,6.818-.745,10.113-1.193Q958.373,227.234,968.3,225.13Z" transform="translate(-915.694 -210.38)" fill="#bfd667"/>
      <path id="Trazado_113712" data-name="Trazado 113712" d="M1065.4,272.009c.043-.17.081-.34.117-.511l-36.585,5.768,26.161-2.086-12.882,3.636a78.969,78.969,0,0,1,16.815-1.1l-15.169,3.541-30.684,4.537,23.776-6.572-28.024,4,6.245-2.037q-16.477,3.206-32.859,6.875l21.1-1.71-30.807,6.582a76.523,76.523,0,0,1,14.306-.7l-40.354,6.434,17.083-4.647-15.726,1.74q15.1-4.028,29.782-9.462a75.388,75.388,0,0,0-20.673,2.923l6.692-.843a299.906,299.906,0,0,1-32.406,6.926l15.445-5.456c-3.572,1.262-7.656,1.749-11.362,2.544a138.869,138.869,0,0,1-17.13,2.89c-5.571.485-11.845,3.156-17,5.255a33.729,33.729,0,0,0-6.021,3.147c.077.1.155.191.234.285,5.5,6.486,9.338,9.682,15.076,9.089,15.711-1.623,39.519-10.479,55.312-10.26a15.527,15.527,0,0,0,3.914-.236,17.387,17.387,0,0,0,3.614-1.579c6.57-3.322,14.015-4.379,21.308-5.39l17.613-2.441c1.281-.177,4.913.339,5.967,1.089,3.534-1.079,5.629-3.958,7.78-4.552,7.357-2.032,15.16-1.922,22.561-3.783S1063.542,279.41,1065.4,272.009Z" transform="translate(-887.43 -248.827)" fill="#809b51"/>
      <path id="Trazado_113713" data-name="Trazado 113713" d="M867.69,255.94a24.36,24.36,0,0,0-6.837,16.36c-.2,6.049,1.961,11.91,4.853,17.228,6.012,11.054,17.159,9.1,20.942,7.872,4.673-1.522,8.747-5.1,10.125-9.822,2.141-7.324,2.056-15.468-1.241-22.349C890.919,255.6,876.783,246.872,867.69,255.94Z" transform="translate(-860.84 -233.857)" fill="#eadba0"/>
      <path id="Trazado_113714" data-name="Trazado 113714" d="M895.532,265.228c-4.613-9.627-18.749-18.356-27.842-9.288a24.36,24.36,0,0,0-6.837,16.36c-.2,6.05,1.961,11.91,4.853,17.228,6.012,11.054,17.159,9.1,20.942,7.872,4.673-1.522,8.747-5.1,10.125-9.822C898.914,280.253,898.829,272.109,895.532,265.228Zm-1.14,21.918a12.851,12.851,0,0,1-4.759,6.489,15.362,15.362,0,0,1-4,1.774,14.12,14.12,0,0,1-8.2.494,13.232,13.232,0,0,1-4.136-2.291,26.448,26.448,0,0,1-9.714-24.883,19.473,19.473,0,0,1,6.466-11.83c3.749-3.051,8.44-2.929,12.8-1.119a21.533,21.533,0,0,1,12.812,16.54,33.669,33.669,0,0,1,.132,6.786A29.28,29.28,0,0,1,894.392,287.146Z" transform="translate(-860.84 -233.857)" fill="#cfe29a"/>
      <path id="Trazado_113715" data-name="Trazado 113715" d="M894.31,273.837a7.221,7.221,0,0,0,.117,2.538,22.234,22.234,0,0,1-.2,7.591l-1.589-7.03a1.463,1.463,0,0,0-.471-.93c-.677-.47-1.491.421-1.728,1.211-.773,2.577-.074,5.339.625,7.938l1.191,4.426a3.838,3.838,0,0,1-2.359-2.569,26.086,26.086,0,0,0-1.18-3.426,1.466,1.466,0,0,0-1.024-.878c-.783-.077-1.221.871-1.373,1.643a21.366,21.366,0,0,0,1.841,13.6l1.513-4.377a.944.944,0,0,1,.3-.5c.547-.373,1.041.561,1.024,1.223-.068,2.729-.837,5.673.507,8.049a14.771,14.771,0,0,1,2.7-7.371c.689,4.427-.815,9.13.687,13.351.188.528.563,1.13,1.121,1.078.424-.039.707-.45.885-.837,1.908-4.143-1.157-9.649,1.521-13.341,1.154,1.692.849,3.93.946,5.976a14,14,0,0,0,1.341,5.338c.484,1.016,1.462,2.121,2.524,1.749.992-.347,1.147-1.7.891-2.723s-.745-2.079-.407-3.074a2.394,2.394,0,1,0,3.936-2.2c-.828-.723-2.048-.8-2.962-1.413a3.055,3.055,0,0,1-.965-3.843,30.379,30.379,0,0,1,3.28,2.983,5.52,5.52,0,0,0,3.968,1.7.53.53,0,0,0,.573-.67c-.16-2.588-3.009-4.028-5.475-4.826s-5.361-1.868-6-4.382c1.881-.113,3.421,1.359,5.056,2.3a9.651,9.651,0,0,0,4.82,1.272,2.374,2.374,0,0,0,1.682-.505c1-.975-.143-2.761-1.5-3.069s-2.773.181-4.164.094c1.321-.175,2.687.176,3.984-.127s2.5-1.759,1.822-2.9c-.608-1.021-2.09-.916-3.262-.722a48.392,48.392,0,0,1-7.7.645,1.278,1.278,0,0,1-.954-.263c-.36-.377-.141-1,.153-1.433,2.379-3.489,7.981-3.873,9.843-7.663-2.181-.963-4.758.055-6.617,1.548s-3.328,3.449-5.295,4.8l3.133-7.827a16.168,16.168,0,0,0-3.664,5.418c-.706-1.207-.207-2.724.205-4.061.4-1.285.639-3.2-.3-4.339C896.237,271.683,894.667,272.162,894.31,273.837Z" transform="translate(-880.223 -249.401)" fill="#f2e69e" opacity="0.64"/>
      <path id="Trazado_113716" data-name="Trazado 113716" d="M1331.117,187.873a12.169,12.169,0,0,0-5.593,1.451,79.319,79.319,0,0,1,16.094-.573l-2.294.915c6.842-3.523,15.061-2.628,22.538-4.45a157.412,157.412,0,0,0-17.87.052,35.649,35.649,0,0,0,7.472-1.183q-9.294,1.224-18.456,3.259a24.38,24.38,0,0,1,6.5.244c-2.757.59-5.574-.372-8.356-.834-5.792-.962-11.7.258-17.444,1.472,2.546-.543,5.387.241,8.029-.27A33.2,33.2,0,0,1,1331.117,187.873Z" transform="translate(-1210.834 -181.271)" fill="#bfd667"/>
      <path id="Trazado_113717" data-name="Trazado 113717" d="M1194.338,260.513c3.287,2.4,4.825,6.466,6.194,10.3,1.348,3.775,7.889,20.289.575,21.809-4.174.868-3.454-4.519-3.1-6.781a43.738,43.738,0,0,0-3.667-25.328Z" transform="translate(-1118.578 -240.338)" fill="#809b51"/>
      <path id="Trazado_113718" data-name="Trazado 113718" d="M1424.276,221.561c4.168,5.87,6.552,12.819,8.265,19.811.672,2.743,1.244,5.659.4,8.353-.451,1.441-5.042,6.594-5.921,3.839-.3-.942,1.018-3.968,1.2-5.058a44.757,44.757,0,0,0-3.943-26.946Z" transform="translate(-1296.282 -210.234)" fill="#809b51"/>
      <path id="Trazado_113719" data-name="Trazado 113719" d="M1431.018,266.225a1.084,1.084,0,0,0,1.208-.484,3.169,3.169,0,0,0,.412-1.329c.734-4.763,1.47-9.589.987-14.384a43.6,43.6,0,0,0-4.358-14.379c.53,3.7,2.008,7.28,2.508,11.042a57.611,57.611,0,0,1,.28,12.653C1432,259.964,1431.013,266.223,1431.018,266.225Z" transform="translate(-1300.14 -221.122)" fill="#a36f43"/>
      <path id="Trazado_113720" data-name="Trazado 113720" d="M1213.9,318.934a64.39,64.39,0,0,1,2.727,13.957,8.525,8.525,0,0,1-.336,3.942c-.363.886-3.216,3.542-3.907,1.612-.21-.588.733-1.532.99-1.986a9.816,9.816,0,0,0,1.025-3.062A33.179,33.179,0,0,0,1213.9,318.934Z" transform="translate(-1132.5 -285.487)" fill="#a36f43"/>
      <path id="Trazado_113721" data-name="Trazado 113721" d="M1146.91,219.214a10.169,10.169,0,0,0-3.135-4.373,12.2,12.2,0,0,0-2.831-2.156c-.641-.321-1.954-.913-2.487-.28a21.207,21.207,0,0,1,4.809,2.755C1144.4,216.076,1146.5,217.747,1146.91,219.214Z" transform="translate(-1075.391 -202.941)" fill="#a36f43"/>
      <path id="Trazado_113722" data-name="Trazado 113722" d="M1366.533,180.466a11.277,11.277,0,0,1,4.4,3.995,18.416,18.416,0,0,0-2.867-3.7,6.256,6.256,0,0,0-1.206-1.1,5.451,5.451,0,0,0-1.549-.6,22.154,22.154,0,0,0-5.329-.692C1362.043,178.187,1364.769,179.517,1366.533,180.466Z" transform="translate(-1246.596 -176.839)" fill="#a36f43"/>
    </g>
    <path id="Trazado_113723" data-name="Trazado 113723" d="M1217.237,221.53a94.269,94.269,0,0,1,10.182,11.712c9.411,12.337,17.983,25.823,21.212,41,.559,2.63.713,5.908-1.5,7.436,1.544,1.457,4.327.226,5.112-1.746s.2-4.2-.47-6.214c-5.674-17.114-13.112-31.63-26.823-47.214a111.9,111.9,0,0,0-15.33-13.877c-5.46-4.282-12.043-7.425-18.977-7.692a10.288,10.288,0,0,0-4,.484,4.014,4.014,0,0,0-1.381.8c1.06,1.379,6.344,1.515,8.165,2.014a57.1,57.1,0,0,1,8.676,3.154A56.466,56.466,0,0,1,1217.237,221.53Z" transform="translate(-342.722 -25.673)" fill="#564336"/>
    <path id="Trazado_113724" data-name="Trazado 113724" d="M1253.412,195.049c-7.985,27.124-14.876,54.622-19.07,82.585-.164,1.1-.181,2.5.81,3a1.845,1.845,0,0,0,2.232-.805,5.436,5.436,0,0,0,.654-2.487,324.325,324.325,0,0,1,17.289-77.026c1.563-4.377,3.953-9.24,4.4-13.889C1255.27,186.088,1254.327,191.941,1253.412,195.049Z" transform="translate(-380.589 -11.368)" fill="#564336"/>
  </g>
</svg>
