<svg xmlns="http://www.w3.org/2000/svg" width="190" height="110" viewBox="0 0 190 110">
  <g id="Grupo_131656" data-name="Grupo 131656" transform="translate(-180 -7606)">
    <rect id="Rectángulo_40420" data-name="Rectángulo 40420" width="190" height="110" transform="translate(180 7606)" fill="none"/>
    <g id="Grupo_131655" data-name="Grupo 131655" transform="translate(0 -76)">
      <rect id="Rectángulo_40418" data-name="Rectángulo 40418" width="50" height="50" rx="8" transform="translate(207 7687)" fill="#e2872c" opacity="0.2"/>
      <rect id="Rectángulo_40419" data-name="Rectángulo 40419" width="50" height="50" rx="8" transform="translate(293 7737)" fill="#5000c7" opacity="0.2"/>
    </g>
    <g id="Grupo_129652" data-name="Grupo 129652" transform="translate(-28.742 6951.47)">
      <g id="Grupo_129650" data-name="Grupo 129650" transform="translate(257.742 659.53)">
        <path id="Trazado_190021" data-name="Trazado 190021" d="M277.143,711.3a52.064,52.064,0,0,0-.44-9.072,116.923,116.923,0,0,1,.273-21.213,71.575,71.575,0,0,0-.333-16.33c-.107-.837-.244-1.676-.273-2.516a2.253,2.253,0,0,1,2.451-2.613q9.748-.055,19.5,0c1.779.012,2.562,1.05,2.368,3.01-.448,4.522-1.269,9.007-1.308,13.568-.011,1.231,0,2.462,0,4.273,2.73-4.037,6.571-5.96,10.045-8.365a22.524,22.524,0,0,0,5.223-5.478c.784-1.076,1.641-1.929,3.064-1.483,1.532.479,1.669,1.751,1.665,3.146-.017,5.627-.6,11.167-2.838,16.384-2.759,6.423-7.4,10.573-14.576,11.343-1.211.13-1.563.6-1.736,1.767a81.853,81.853,0,0,0,.311,25.422c.644,3.919-.566,7.741-.915,11.606a85.221,85.221,0,0,0,.744,18.845c.147,1.118.8,1.1,1.619,1.093q6.337-.026,12.673,0c1.982.007,2.919.768,2.92,2.307,0,1.514-.992,2.358-2.913,2.359q-26.126.015-52.251,0c-1.941,0-2.889-.846-2.811-2.431.087-1.75,1.184-2.26,2.772-2.247,4.159.03,8.318.008,12.478.011.778,0,1.541.163,1.548-1.1.034-6.3,1.265-12.551.837-18.873-.131-1.944-.307-3.884-.462-5.826-.049-.614-.146-1.075-.969-1.157-9.838-.98-14.478-7.416-16.765-16.19a47.5,47.5,0,0,1-1.3-11.979,2.511,2.511,0,0,1,1.7-2.742c1.369-.463,2.208.273,2.922,1.307a25.758,25.758,0,0,0,7.624,7.142C272.546,706.884,275.139,708.465,277.143,711.3Zm18.48,42.954.014-.021a90.347,90.347,0,0,1,.038-25.429c.19-1.181-.524-1.25-1.395-1.247-3.77.013-7.541.051-11.31-.02-1.334-.025-1.635.4-1.494,1.7a76.932,76.932,0,0,1,.075,15.951,55.463,55.463,0,0,0-.468,9.132.55.55,0,0,0,.587.381l13.881-.106C295.876,754.548,295.858,754.425,295.623,754.257Zm-7.076-58.42c-1.82,0-3.649.119-5.456-.034-1.732-.146-2.212.385-2.09,2.145.544,7.895,1.554,15.791.456,23.715-.178,1.281.44,1.383,1.429,1.376,3.769-.028,7.54-.061,11.307.014,1.407.028,1.588-.522,1.433-1.757a94.386,94.386,0,0,1-.9-12.228,98.119,98.119,0,0,1,.957-11.835c.147-1.164-.168-1.461-1.285-1.417C292.449,695.891,290.5,695.837,288.547,695.837Zm-.121-4.564c1.884,0,3.769-.049,5.65.017,1.221.044,1.769-.222,1.556-1.628a80.189,80.189,0,0,1,.053-24.243c.152-1-.147-1.217-1.087-1.207-3.962.042-7.925.06-11.885-.007-1.225-.02-1.355.463-1.243,1.505.215,2,.32,4.009.428,6.017.317,5.924-.628,11.789-.9,17.686-.066,1.439.265,1.99,1.778,1.89C284.653,691.179,286.543,691.273,288.426,691.273ZM262.9,706.11c.474,4.61,1.524,8.928,4.466,12.6a11.9,11.9,0,0,0,7.378,4.3c.459.087,1.251.351,1.107-.51-.6-3.563-.918-7.293-3.711-10C269.444,709.878,265.844,708.516,262.9,706.11ZM314.1,674.341A35.279,35.279,0,0,1,308.754,678c-4.649,2.311-6.655,6.31-7.313,11.21-.291,2.168-.036,2.368,2.144,1.825C309.746,689.5,314.059,682.071,314.1,674.341Z" transform="translate(-257.742 -659.53)" fill="#030405" fill-rule="evenodd"/>
        <path id="Trazado_190022" data-name="Trazado 190022" d="M406.421,836.2c-5.688-.275-10.884-.891-15.755-3.108-7.082-3.224-11.189-9.492-10.931-16.674.108-2.992,1.044-3.755,4.026-3.263,1.662.274,3.317.6,4.984.839a16.554,16.554,0,0,1,12.487,8.315,29.491,29.491,0,0,0,8.32,9.388c.961.681,1.613,1.53,1.15,2.8a2.537,2.537,0,0,1-2.753,1.7C407.3,836.185,406.65,836.2,406.421,836.2Zm-4.48-5.017a23.566,23.566,0,0,1-3.73-5.1c-2.606-5.264-7.049-7.458-12.655-7.965-1.13-.1-1.237.2-1.043,1.082a12.262,12.262,0,0,0,2.975,6C391.325,829.258,396.347,830.406,401.941,831.182Z" transform="translate(-332.145 -753.15)" fill="#040406" fill-rule="evenodd"/>
        <path id="Trazado_190023" data-name="Trazado 190023" d="M324.892,752.524c1.95,0,3.9.055,5.848-.021,1.117-.044,1.432.253,1.285,1.417a98.113,98.113,0,0,0-.957,11.836,94.4,94.4,0,0,0,.9,12.228c.156,1.235-.025,1.785-1.433,1.757-3.768-.074-7.538-.042-11.307-.014-.989.007-1.607-.1-1.429-1.376,1.1-7.924.089-15.821-.456-23.716-.122-1.76.358-2.291,2.09-2.145C321.243,752.643,323.073,752.524,324.892,752.524Z" transform="translate(-294.087 -716.217)" fill="#7cd23f" fill-rule="evenodd"/>
        <path id="Trazado_190024" data-name="Trazado 190024" d="M317.5,860.678a55.456,55.456,0,0,1,.468-9.132,76.932,76.932,0,0,0-.075-15.951c-.14-1.3.161-1.725,1.494-1.7,3.769.071,7.54.033,11.31.02.871,0,1.584.065,1.395,1.247a90.354,90.354,0,0,0-.038,25.429Z" transform="translate(-294.154 -765.884)" fill="#7cd23f" fill-rule="evenodd"/>
        <path id="Trazado_190025" data-name="Trazado 190025" d="M324.784,698.582c-1.884,0-3.773-.094-5.649.03-1.513.1-1.844-.451-1.778-1.89.271-5.9,1.215-11.761.9-17.686-.108-2.008-.213-4.019-.428-6.017-.112-1.042.018-1.526,1.243-1.505,3.961.067,7.924.049,11.885.007.94-.01,1.24.211,1.087,1.207a80.188,80.188,0,0,0-.053,24.243c.213,1.406-.335,1.672-1.556,1.628C328.553,698.532,326.668,698.582,324.784,698.582Z" transform="translate(-294.1 -666.839)" fill="#7dd43f" fill-rule="evenodd"/>
        <path id="Trazado_190026" data-name="Trazado 190026" d="M270.975,778.953c2.941,2.406,6.541,3.768,9.241,6.384,2.793,2.706,3.113,6.437,3.711,10,.144.861-.648.6-1.107.51a11.906,11.906,0,0,1-7.378-4.3C272.5,787.881,271.449,783.563,270.975,778.953Z" transform="translate(-265.814 -732.373)" fill="#37874d" fill-rule="evenodd"/>
        <path id="Trazado_190027" data-name="Trazado 190027" d="M382.28,697.5c-.038,7.729-4.351,15.159-10.512,16.694-2.18.543-2.435.343-2.144-1.825.658-4.9,2.664-8.9,7.313-11.21A35.282,35.282,0,0,0,382.28,697.5Z" transform="translate(-325.926 -682.692)" fill="#37874d" fill-rule="evenodd"/>
        <path id="Trazado_190028" data-name="Trazado 190028" d="M317.585,902.427l14.553-.087-.014.021a1.333,1.333,0,0,0-.071.342l-13.881.106A.55.55,0,0,1,317.585,902.427Z" transform="translate(-294.244 -807.633)" fill="#7dd43f" fill-rule="evenodd"/>
        <path id="Trazado_190029" data-name="Trazado 190029" d="M354.678,902.735a1.333,1.333,0,0,1,.071-.342C354.985,902.561,355,902.684,354.678,902.735Z" transform="translate(-316.869 -807.666)" fill="#7cd23f" fill-rule="evenodd"/>
        <path id="Trazado_190030" data-name="Trazado 190030" d="M409.309,839.121c-5.594-.776-10.616-1.924-14.454-5.983a12.262,12.262,0,0,1-2.975-6c-.194-.886-.087-1.184,1.043-1.082,5.606.507,10.049,2.7,12.655,7.965A23.565,23.565,0,0,0,409.309,839.121Z" transform="translate(-339.513 -761.089)" fill="#37874d" fill-rule="evenodd"/>
      </g>
      <g id="Grupo_129651" data-name="Grupo 129651" transform="translate(287.632 689.416)">
        <path id="Trazado_190031" data-name="Trazado 190031" d="M339.644,737.75c1.87-2.151,2.947-2.125,4.841.035q16.766,19.116,33.532,38.232c.5.571.867.85,1.669.4a1.86,1.86,0,0,1,2.343.557,1.811,1.811,0,0,1,.369,2.263c-.587.886-.188,1.313.4,1.891,3.659,3.624,7.288,7.279,10.936,10.913a7.957,7.957,0,0,1,2.53,5.149,8.226,8.226,0,0,1-14.181,6.468c-3.687-3.661-7.349-7.346-11.024-11.019-.467-.466-.821-1.026-1.653-.35a1.758,1.758,0,0,1-2.269-.229,1.867,1.867,0,0,1-.695-2.311c.44-.91.1-1.3-.55-1.849q-12.007-10.037-23.968-20.129a20.485,20.485,0,0,1-7.547-15.686A21.185,21.185,0,0,1,339.644,737.75Zm35.588,52.836q5.025,5.025,10.055,10.048a3.609,3.609,0,0,0,4.253.9,3.475,3.475,0,0,0,2.294-3.519,3.246,3.246,0,0,0-1.152-2.787c-3.754-3.771-7.529-7.521-11.274-11.3-.512-.518-.853-.66-1.4-.041-.807.92-1.7,1.767-2.552,2.646C373.189,788.543,373.189,788.544,375.232,790.586ZM344.339,764.03c2.452,2.245,5.067,4.312,7.614,6.452q8.165,6.859,16.335,13.713c1.88,1.58,1.878,1.582,3.584-.4.98-.947,1.91-1.953,2.955-2.823.858-.713.7-1.194.032-1.944Q364.6,767.413,354.4,755.749c-3.812-4.344-7.641-8.672-11.417-13.047-.731-.846-1.118-.931-1.7.107a14.921,14.921,0,0,0-2.245,6.5A15.668,15.668,0,0,0,344.339,764.03Z" transform="translate(-334.374 -736.151)" fill="#030303" fill-rule="evenodd"/>
        <path id="Trazado_190032" data-name="Trazado 190032" d="M379.165,793.015c.98-.947,1.91-1.953,2.955-2.823.858-.713.7-1.194.032-1.944q-10.257-11.612-20.457-23.277c-3.812-4.344-7.641-8.672-11.417-13.047-.731-.846-1.118-.931-1.7.107a14.922,14.922,0,0,0-2.245,6.5,1.747,1.747,0,0,1,.595,1.313,18.759,18.759,0,0,0,4.5,9.609c2.981,3.385,6.683,6,10.077,8.933,4.316,3.735,8.716,7.376,13.129,11A33.346,33.346,0,0,0,379.165,793.015Z" transform="translate(-341.667 -745.374)" fill="#cfcfcf" fill-rule="evenodd"/>
        <path id="Trazado_190033" data-name="Trazado 190033" d="M378.81,804.373a33.357,33.357,0,0,1-4.53-3.628c-4.413-3.622-8.813-7.262-13.129-11-3.394-2.937-7.1-5.548-10.077-8.933a18.759,18.759,0,0,1-4.5-9.61,1.747,1.747,0,0,0-.595-1.313,15.667,15.667,0,0,0,5.3,14.718c2.452,2.245,5.067,4.312,7.614,6.452q8.165,6.859,16.335,13.713C377.106,806.354,377.1,806.357,378.81,804.373Z" transform="translate(-341.312 -756.732)" fill="#969696" fill-rule="evenodd"/>
        <path id="Trazado_190034" data-name="Trazado 190034" d="M456.085,872.019a3.246,3.246,0,0,0-1.152-2.787c-3.754-3.771-7.529-7.521-11.274-11.3-.512-.518-.853-.66-1.4-.041-.807.92-1.7,1.767-2.552,2.646-.007.582.451.869.8,1.215,2.217,2.228,4.561,4.345,6.636,6.7A9.565,9.565,0,0,0,456.085,872.019Z" transform="translate(-398.625 -810.157)" fill="#c59982" fill-rule="evenodd"/>
        <path id="Trazado_190035" data-name="Trazado 190035" d="M453.375,876.8a9.565,9.565,0,0,1-8.943-3.57c-2.075-2.354-4.418-4.471-6.636-6.7-.345-.347-.8-.633-.8-1.215-2.271,2.014-2.271,2.014-.228,4.057q5.025,5.025,10.055,10.047a3.609,3.609,0,0,0,4.253.9A3.475,3.475,0,0,0,453.375,876.8Z" transform="translate(-395.915 -814.934)" fill="#9f7664" fill-rule="evenodd"/>
      </g>
    </g>
  </g>
</svg>
