<svg xmlns="http://www.w3.org/2000/svg" width="114.707" height="137.533" viewBox="0 0 114.707 137.533">
  <g id="Grupo_129624" data-name="Grupo 129624" transform="translate(415.442 -630.603)">
    <path id="Trazado_113658" data-name="Trazado 113658" d="M-415.441,703.678q0-29.806,0-59.614c0-3.778.523-4.279,4.352-4.286.806,0,1.611.008,2.417,0,2.232-.026,5.009.736,6.539-.315,1.5-1.033.385-3.987.482-6.093.118-2.525,1.708-2.756,3.688-2.752q22.154.037,44.308.013c5.728,0,11.457.041,17.185-.026a4.843,4.843,0,0,1,3.79,1.548q15.144,15.236,30.379,30.38a4.993,4.993,0,0,1,1.564,3.812q-.035,42.159-.024,84.318c0,3.139-.588,3.673-3.83,3.7-2.685.019-5.373.085-8.054-.028-1.5-.063-2.03.36-1.959,1.916.123,2.679.042,5.369.032,8.054-.013,3.39-.456,3.832-3.909,3.833q-38.534.007-77.068,0-7.922,0-15.844,0c-3.462,0-4.045-.57-4.046-4.035Q-415.449,733.888-415.441,703.678Zm18.409-11.008c0,18.17.033,36.34-.045,54.51-.009,2.087.526,2.689,2.663,2.683q43.233-.109,86.465-.008c1.912,0,2.579-.337,2.573-2.445q-.122-38.8,0-77.6c.008-2.237-.728-2.61-2.728-2.586-8.413.1-16.827.047-25.241.041-3.722,0-4.174-.444-4.179-4.145-.011-8.414-.076-16.829.047-25.241.031-2.125-.573-2.673-2.677-2.663q-27.121.124-54.242,0c-2.1-.009-2.7.548-2.687,2.676C-397,656.149-397.032,674.409-397.032,692.67Zm-13.734,11.008c0,18.968.059,37.935-.069,56.9-.017,2.578.807,2.988,3.12,2.982q41.2-.114,82.4-.048c6.173,0,6.065,0,6.217-6.066.06-2.387-.5-3.167-3.053-3.155-25.051.1-50.1.064-75.154.061-4.033,0-4.319-.285-4.319-4.231q0-49.522,0-99.042c0-6.683,0-6.583-6.583-6.706-2.161-.04-2.615.619-2.606,2.67C-410.734,665.922-410.766,684.8-410.766,703.678ZM-309.8,662.759l-23.068-23.052c0,6.718.007,13.954-.008,21.189,0,1.053-.023,1.9,1.48,1.886C-324.087,662.729-316.779,662.759-309.8,662.759Z" fill="#080705" fill-rule="evenodd"/>
    <path id="Trazado_113659" data-name="Trazado 113659" d="M-381.2,696.643c0-18.26.035-36.521-.048-54.78-.01-2.127.585-2.685,2.687-2.676q27.121.121,54.242,0c2.1-.01,2.708.539,2.677,2.663-.123,8.412-.058,16.827-.047,25.241,0,3.7.457,4.142,4.179,4.145,8.414.007,16.828.061,25.241-.041,2-.024,2.736.349,2.728,2.586q-.133,38.8,0,77.6c.006,2.109-.661,2.45-2.573,2.445q-43.233-.089-86.465.008c-2.137.005-2.672-.6-2.663-2.683C-381.171,732.983-381.2,714.813-381.2,696.643Zm52.591-13.853q12.74,0,25.48-.009a13.315,13.315,0,0,0,2.655-.213,2.008,2.008,0,0,0,1.693-2.112,2.158,2.158,0,0,0-1.9-2.246,8.984,8.984,0,0,0-1.87-.086q-26.016-.006-52.032,0a8.014,8.014,0,0,0-2.118.186,2.078,2.078,0,0,0-1.572,1.964,2.022,2.022,0,0,0,1.537,2.233,10.583,10.583,0,0,0,2.643.269Q-341.353,682.806-328.613,682.79Zm.013,54.944q13.276,0,26.551.009c1.667,0,3.215-.258,3.233-2.289.018-2.048-1.588-2.317-3.213-2.349-.447-.008-.894,0-1.341,0q-25.21,0-50.419,0a16.457,16.457,0,0,0-2.406.1,2.147,2.147,0,0,0-2.066,2.362,2.2,2.2,0,0,0,2.306,2.147c.624.037,1.251.019,1.877.019Zm.03-27.447q13.143,0,26.285,0c1.719,0,3.475-.185,3.461-2.368s-1.8-2.343-3.5-2.343q-26.151,0-52.3-.006c-1.712,0-3.54.157-3.607,2.254-.073,2.307,1.826,2.469,3.642,2.466Q-341.578,710.27-328.57,710.287ZM-363.2,673.6q3.213,0,6.426,0c2.094,0,3.116-1.035,3.11-3.131-.012-4.017-.02-8.033,0-12.05.013-2.236-1.075-3.257-3.287-3.243-4.017.026-8.033.012-12.05.007-2.105,0-3.095,1.045-3.083,3.143.024,4.105.015,8.211.011,12.317,0,2,1.024,2.945,2.978,2.953S-365.164,673.6-363.2,673.6Zm34.9,22.847q12.621,0,25.241,0a15,15,0,0,0,2.41-.089,2.04,2.04,0,0,0,1.852-2.244,1.993,1.993,0,0,0-1.759-2.051,14.311,14.311,0,0,0-2.407-.118q-25.509-.009-51.018,0c-.715,0-1.435-.009-2.146.052a2.089,2.089,0,0,0-2.116,2.289,2.062,2.062,0,0,0,2.02,2.11c.711.069,1.43.054,2.146.054Q-341.194,696.45-328.305,696.448Zm.017,22.974q-13.532,0-27.063-.009c-1.661,0-2.931.569-2.889,2.362.039,1.641,1.3,2.187,2.818,2.169.268,0,.536,0,.8,0h52.251c1.66,0,3.507.012,3.532-2.238s-1.763-2.3-3.461-2.3Q-315.293,719.433-328.289,719.422Zm-39.141-41.3c-.624,0-1.249-.009-1.872,0-1.549.026-2.631.679-2.651,2.341-.019,1.556,1.061,2.184,2.445,2.278,1.243.085,2.5.054,3.743.029,1.49-.029,2.761-.589,2.793-2.233.035-1.765-1.189-2.447-2.853-2.422C-366.36,678.129-366.895,678.122-367.43,678.126Zm.14,27.471v-.015c-.624,0-1.25-.022-1.873,0-1.473.063-2.729.54-2.779,2.24-.053,1.84,1.2,2.428,2.822,2.452,1.249.019,2.5.047,3.746-.024a2.272,2.272,0,0,0,2.42-2.338c-.005-1.468-1.053-2.185-2.464-2.311C-366.037,705.55-366.665,705.6-367.29,705.6Zm-.313,32.119v.016c.624,0,1.248-.011,1.872,0,1.555.034,2.688-.6,2.755-2.231.07-1.675-1.115-2.323-2.619-2.37a37.873,37.873,0,0,0-4.27.073,2.052,2.052,0,0,0-2.082,2.3,2.139,2.139,0,0,0,2.208,2.2C-369.032,737.765-368.315,737.716-367.6,737.716Zm.085-41.23c1.83-.22,4.519.684,4.478-2.329-.041-2.98-2.719-2.179-4.526-2.192-1.735-.012-4.251-.709-4.315,2.132C-371.951,697.186-369.287,696.246-367.518,696.486Zm.021,27.5c1.823-.247,4.482.663,4.446-2.366-.033-2.783-2.515-2.087-4.282-2.2a1.764,1.764,0,0,0-.266,0c-1.746.141-4.233-.633-4.271,2.2C-371.911,724.7-369.234,723.7-367.5,723.985Z" transform="translate(-15.828 -3.973)" fill="#f9ba3f" fill-rule="evenodd"/>
    <path id="Trazado_113660" data-name="Trazado 113660" d="M-406.795,715.546c0-18.878.032-37.756-.046-56.634-.009-2.051.445-2.711,2.606-2.67,6.581.123,6.583.023,6.583,6.706q0,49.521,0,99.042c0,3.946.286,4.23,4.319,4.231,25.052,0,50.1.043,75.154-.061,2.557-.011,3.112.769,3.053,3.155-.153,6.063-.044,6.066-6.217,6.066q-41.2,0-82.4.048c-2.314.006-3.138-.4-3.12-2.982C-406.736,753.481-406.795,734.513-406.795,715.546Z" transform="translate(-3.971 -11.868)" fill="#f8ec58" fill-rule="evenodd"/>
    <path id="Trazado_113661" data-name="Trazado 113661" d="M-238.627,670.607c-6.981,0-14.289-.03-21.595.024-1.5.011-1.482-.834-1.48-1.886.014-7.236.008-14.472.008-21.19Z" transform="translate(-71.171 -7.848)" fill="#ee9a20" fill-rule="evenodd"/>
    <path id="Trazado_113662" data-name="Trazado 113662" d="M-308.81,716.346q-12.74,0-25.48-.011a10.582,10.582,0,0,1-2.643-.269,2.023,2.023,0,0,1-1.537-2.233,2.078,2.078,0,0,1,1.572-1.964,8.014,8.014,0,0,1,2.118-.186q26.016-.014,52.032,0a8.984,8.984,0,0,1,1.87.086,2.158,2.158,0,0,1,1.9,2.246,2.008,2.008,0,0,1-1.693,2.112,13.316,13.316,0,0,1-2.655.213Q-296.07,716.359-308.81,716.346Z" transform="translate(-35.63 -37.53)" fill="#080705" fill-rule="evenodd"/>
    <path id="Trazado_113663" data-name="Trazado 113663" d="M-308.788,818.684h-25.478c-.626,0-1.253.017-1.877-.019a2.2,2.2,0,0,1-2.306-2.147,2.147,2.147,0,0,1,2.066-2.362,16.466,16.466,0,0,1,2.406-.1q25.21-.007,50.419,0c.447,0,.894-.005,1.341,0,1.625.032,3.23.3,3.213,2.349-.018,2.031-1.566,2.293-3.233,2.289Q-295.513,818.665-308.788,818.684Z" transform="translate(-35.64 -84.924)" fill="#080705" fill-rule="evenodd"/>
    <path id="Trazado_113664" data-name="Trazado 113664" d="M-308.726,767.51q-13.008,0-26.016.006c-1.817,0-3.715-.159-3.642-2.466.067-2.1,1.895-2.255,3.607-2.254q26.151.015,52.3.006c1.7,0,3.483.159,3.5,2.343s-1.743,2.37-3.461,2.368Q-295.584,767.5-308.726,767.51Z" transform="translate(-35.672 -61.196)" fill="#080705" fill-rule="evenodd"/>
    <path id="Trazado_113665" data-name="Trazado 113665" d="M-355.3,687.384c-1.964,0-3.928.006-5.891,0s-2.98-.955-2.978-2.953c0-4.106.013-8.212-.011-12.317-.012-2.1.977-3.145,3.083-3.143,4.017,0,8.033.019,12.05-.007,2.212-.015,3.3,1.006,3.287,3.243-.023,4.017-.015,8.033,0,12.05.006,2.1-1.016,3.134-3.11,3.131Q-352.082,687.38-355.3,687.384Zm4.82-9.172c0-4.554,0-4.554-4.654-4.554-4.42,0-4.42,0-4.42,4.522,0,4.55,0,4.55,4.656,4.55C-350.476,682.73-350.476,682.73-350.476,678.212Z" transform="translate(-23.733 -17.757)" fill="#080705" fill-rule="evenodd"/>
    <path id="Trazado_113666" data-name="Trazado 113666" d="M-308.478,741.919q-12.889,0-25.778,0c-.715,0-1.435.015-2.146-.054a2.062,2.062,0,0,1-2.02-2.11,2.089,2.089,0,0,1,2.116-2.289c.711-.061,1.43-.052,2.146-.052q25.509,0,51.018,0a14.317,14.317,0,0,1,2.407.118,1.993,1.993,0,0,1,1.759,2.051,2.04,2.04,0,0,1-1.852,2.244,15,15,0,0,1-2.41.089Q-295.857,741.923-308.478,741.919Z" transform="translate(-35.655 -49.444)" fill="#010100" fill-rule="evenodd"/>
    <path id="Trazado_113667" data-name="Trazado 113667" d="M-308.455,788.573q13,0,25.992-.008c1.7,0,3.487.057,3.461,2.3s-1.872,2.238-3.532,2.238h-52.251c-.268,0-.536-.008-.8,0-1.516.018-2.779-.527-2.818-2.169-.042-1.792,1.228-2.365,2.889-2.362Q-321.986,788.593-308.455,788.573Z" transform="translate(-35.662 -73.126)" fill="#010100" fill-rule="evenodd"/>
    <path id="Trazado_113668" data-name="Trazado 113668" d="M-359.414,711.683c.535,0,1.07.006,1.6,0,1.664-.026,2.888.656,2.853,2.422-.032,1.645-1.3,2.2-2.793,2.233-1.248.025-2.5.056-3.743-.029-1.383-.094-2.464-.722-2.445-2.278.02-1.663,1.1-2.316,2.651-2.342C-360.663,711.676-360.038,711.685-359.414,711.683Z" transform="translate(-23.843 -37.533)" fill="#080705" fill-rule="evenodd"/>
    <path id="Trazado_113669" data-name="Trazado 113669" d="M-359.266,762.82c.625,0,1.253-.046,1.872.01,1.41.126,2.458.843,2.463,2.311a2.271,2.271,0,0,1-2.42,2.338c-1.245.071-2.5.043-3.746.024-1.619-.024-2.875-.612-2.822-2.452.049-1.7,1.306-2.177,2.779-2.24.623-.027,1.249,0,1.873,0Z" transform="translate(-23.852 -61.197)" fill="#080705" fill-rule="evenodd"/>
    <path id="Trazado_113670" data-name="Trazado 113670" d="M-359.585,818.672c-.713,0-1.429.049-2.138-.011a2.139,2.139,0,0,1-2.208-2.2,2.052,2.052,0,0,1,2.082-2.3,37.889,37.889,0,0,1,4.27-.073c1.5.046,2.689.694,2.619,2.37-.067,1.628-1.2,2.265-2.755,2.231-.624-.013-1.248,0-1.872,0Z" transform="translate(-23.846 -84.929)" fill="#080705" fill-rule="evenodd"/>
    <path id="Trazado_113671" data-name="Trazado 113671" d="M-359.441,741.9c-1.769-.24-4.434.7-4.364-2.389.064-2.841,2.58-2.144,4.315-2.132,1.807.013,4.485-.788,4.526,2.192C-354.922,742.587-357.612,741.684-359.441,741.9Z" transform="translate(-23.904 -49.391)" fill="#080705" fill-rule="evenodd"/>
    <path id="Trazado_113672" data-name="Trazado 113672" d="M-359.409,793.139c-1.738-.285-4.415.719-4.373-2.368.038-2.83,2.525-2.055,4.271-2.2a1.748,1.748,0,0,1,.266,0c1.768.112,4.249-.584,4.282,2.2C-354.927,793.8-357.586,792.892-359.409,793.139Z" transform="translate(-23.915 -73.127)" fill="#010100" fill-rule="evenodd"/>
    <path id="Trazado_113673" data-name="Trazado 113673" d="M-346.488,682.261c0,4.518,0,4.518-4.417,4.518-4.656,0-4.656,0-4.656-4.55,0-4.522,0-4.522,4.42-4.522C-346.488,677.707-346.488,677.707-346.488,682.261Z" transform="translate(-27.721 -21.806)" fill="#c73365" fill-rule="evenodd"/>
  </g>
</svg>
